<?xml version="1.0" encoding="UTF-8" standalone="no"?>
<svg xmlns:rdf="http://www.w3.org/1999/02/22-rdf-syntax-ns#" xmlns="http://www.w3.org/2000/svg" height="48px" width="48px" version="1.1" xmlns:cc="http://creativecommons.org/ns#" xmlns:dc="http://purl.org/dc/elements/1.1/" viewBox="0 0 48 48">
 <metadata>
  <rdf:RDF>
   <cc:Work rdf:about="">
    <dc:format>image/svg+xml</dc:format>
    <dc:type rdf:resource="http://purl.org/dc/dcmitype/StillImage"/>
    <dc:title/>
   </cc:Work>
  </rdf:RDF>
 </metadata>
 <path d="m1 43v-38c0-2.2109 1.7891-4 4-4h38c2.2109 0 4 1.7891 4 4v38c0 2.2109-1.7891 4-4 4h-38c-2.2109 0-4-1.789-4-4z" fill="#3a569c"/>
 <path opacity=".1" d="m17 20h3v-2c0-1.5586 0.22266-2.6328 0.58594-3.4023 0.37891-0.76562 1.0586-1.3867 2.0469-1.8672 1-0.48438 2.2617-0.73047 3.7852-0.73047 1.5586 0 3.1953 0.40234 4.582 1l-1 3c-0.87109-0.1875-1.4531-0.23438-2.2578-0.23438-0.79297 0-1.3633 0.16797-1.7148 0.50781-0.339 0.325-1.027 0.786-1.027 1.731v2h5v3h-5v15h-4.9609l-0.03906-15h-3"/>
 <path d="m17 19h3v-2c0-1.5586 0.22266-2.6328 0.58594-3.4023 0.37891-0.76562 1.0586-1.3867 2.0469-1.8672 1-0.48438 2.2617-0.73047 3.7852-0.73047 1.5586 0 3.1953 0.40234 4.582 1l-1 3c-0.87109-0.1875-1.4531-0.23438-2.2578-0.23438-0.79297 0-1.3633 0.16797-1.7148 0.50781-0.339 0.325-1.027 0.786-1.027 1.731v2h5v3h-5v15h-4.9609l-0.03906-15h-3" fill="#f8f8f8"/>
</svg>
