<?xml version="1.0" encoding="UTF-8" standalone="no"?><svg xmlns:sketch="http://www.bohemiancoding.com/sketch/ns" xmlns:dc="http://purl.org/dc/elements/1.1/" xmlns:cc="http://creativecommons.org/ns#" xmlns:rdf="http://www.w3.org/1999/02/22-rdf-syntax-ns#" xmlns:svg="http://www.w3.org/2000/svg" xmlns="http://www.w3.org/2000/svg" id="svg29" version="1.1" viewBox="0 0 64 64" height="64px" width="64px"> <metadata id="metadata48"> <rdf:RDF> <cc:Work rdf:about=""> <dc:format>image/svg+xml</dc:format> <dc:type rdf:resource="http://purl.org/dc/dcmitype/StillImage"/> <dc:title>numix-logo</dc:title> </cc:Work> </rdf:RDF> </metadata> <title id="title31">numix-logo</title> <desc id="desc33">Created with Sketch.</desc> <defs id="defs35"/> <g sketch:type="MSPage" fill-rule="evenodd" fill="none" stroke-width="1" stroke="none" id="Page-1"> <g sketch:type="MSArtboardGroup" id="numix-logo"> <g id="g39" transform="translate(-1.000000, 0.000000)" sketch:type="MSLayerGroup"> <path sketch:type="MSShapeGroup" fill="#F1544D" id="background" d="M32.9999648,63.9999994 C15.3268429,63.9999994 0.999999664,49.6731095 0.999999664,32 C0.999999664,14.3268899 15.3268429,6.40760014e-07 32.9999648,6.40760014e-07 C50.6730867,6.40760014e-07 65.0000009,14.3268899 65.0000009,32 C65.0000009,49.6731095 50.6730867,63.9999994 32.9999648,63.9999994 Z"/> <g sketch:type="MSShapeGroup" transform="translate(20.000000, 18.000000)" id="n"> <path fill="#F9F9F9" id="Shape" d="M2.000051,1 C1.476444,1.0071 0.991836,1.541845 1.000051,2 L1.000051,5.75 C1.499517,4.675704 2.190588,3.71028 3.000051,2.84375 L3.000051,2 C3.008451,1.53273 2.534073,0.992669 2.000051,1 L2.000051,1 Z"/> <path stroke-width="2" stroke="#F9F9F9" id="path44" d="M2.000031,27.00002 L2.000031,11.32877 C2.000031,5.606617 6.906033,0.99998 13.00006,0.99998 L13.00006,0.99998 C19.094064,0.99998 24.000072,5.606617 24.000072,11.32877 L24.000072,27.00002"/> </g> </g> </g> </g></svg>