<?xml version="1.0" encoding="UTF-8" standalone="no"?>
<svg xmlns:rdf="http://www.w3.org/1999/02/22-rdf-syntax-ns#" xmlns="http://www.w3.org/2000/svg" height="48px" width="48px" version="1.1" xmlns:cc="http://creativecommons.org/ns#" xmlns:dc="http://purl.org/dc/elements/1.1/" viewBox="0 0 48 48">
 <metadata>
  <rdf:RDF>
   <cc:Work rdf:about="">
    <dc:format>image/svg+xml</dc:format>
    <dc:type rdf:resource="http://purl.org/dc/dcmitype/StillImage"/>
    <dc:title/>
   </cc:Work>
  </rdf:RDF>
 </metadata>
 <path d="m1 43v-38c0-2.2109 1.7891-4 4-4h38c2.2109 0 4 1.7891 4 4v38c0 2.2109-1.7891 4-4 4h-38c-2.2109 0-4-1.789-4-4z" fill="#d9d9d9"/>
 <path d="m12 16c-0.54297 0-0.99609 0.45312-0.99609 0.99609v1l13 8.6562v-3.3125l-11-7.3438h-1m-0.004 0.004" fill-opacity=".10196"/>
 <path d="m36 16c0.54688 0 1 0.45312 1 0.99609v1l-13 8.6562v-3.3125l10.996-7.3438h1m0.004 0.004" fill-opacity=".10196"/>
 <path opacity=".1" d="m11.984 16c-0.546 0-0.984 0.44-0.984 0.984v16.031c0 0.539 0.43838 0.97656 0.98438 0.97656h23.004l0.012 0.008h1c0.13923 0 0.27144-0.03118 0.39258-0.08398 0.000502-0.000219 0.0015 0.000219 0.002 0 0.11733-0.04935 0.22193-0.12228 0.31055-0.21094 0.08813-0.08813 0.15817-0.19341 0.20898-0.30859 0.000244-0.000575-0.000242-0.0014 0-0.002 0.054-0.121 0.086-0.254 0.086-0.394v-16c0-0.137-0.03-0.267-0.082-0.387-0.145-0.359-0.491-0.613-0.902-0.613h-1.016z"/>
 <path fill="#f8f8f8" d="m11.984 15h24.031c0.54297 0 0.97656 0.44141 0.97656 0.98438v16.031c0 0.54297-0.4375 0.97656-0.97656 0.97656h-24.031c-0.546 0-0.984-0.437-0.984-0.976v-16.031c0-0.544 0.438-0.985 0.984-0.985"/>
 <path fill="#ccc" d="m37 17-13 8.656 11 7.344h1c0.54688 0 1-0.45312 1-1m0-15"/>
 <path fill="#bf2b1e" d="m35 15v18h1c0.54688 0 1-0.45312 1-1v-16c0-0.54297-0.45312-0.99609-1-0.99609m-1 0"/>
 <g fill="#ff473a">
  <path d="m12 15c-0.54297 0-0.99609 0.45312-0.99609 0.99609v16c0 0.54688 0.45312 1 0.99609 1h1v-18m-1 0"/>
  <path d="m12 15c-0.54297 0-0.99609 0.45312-0.99609 0.99609v1l13 8.6562v-3.3125l-11-7.3438h-1m-0.004 0.004"/>
  <path d="m36 15c0.54688 0 1 0.45312 1 0.99609v1l-13 8.6562v-3.3125l10.996-7.3438h1m0.004 0.004"/>
 </g>
</svg>
