<?xml version="1.0" encoding="UTF-8" standalone="no"?>
<svg xmlns:rdf="http://www.w3.org/1999/02/22-rdf-syntax-ns#" xmlns="http://www.w3.org/2000/svg" version="1.1" xmlns:cc="http://creativecommons.org/ns#" xmlns:dc="http://purl.org/dc/elements/1.1/" viewBox="0 0 48 48">
 <metadata>
  <rdf:RDF>
   <cc:Work rdf:about="">
    <dc:format>image/svg+xml</dc:format>
    <dc:type rdf:resource="http://purl.org/dc/dcmitype/StillImage"/>
    <dc:title/>
   </cc:Work>
  </rdf:RDF>
 </metadata>
 <defs>
  <linearGradient id="linearGradient3764" x2="47" gradientUnits="userSpaceOnUse" x1="1" gradientTransform="rotate(-90 24.001 23.999)">
   <stop stop-color="#785048" offset="0"/>
   <stop stop-color="#845950" offset="1"/>
  </linearGradient>
 </defs>
 <path fill="url(#linearGradient3764)" d="m5 1c-2.216 0-4 1.784-4 4v19h46v-19c0-2.216-1.784-4-4-4h-38z"/>
 <g>
  <g>
   <path opacity=".1" d="m33 9h4.227c0.488 0 0.887 0.398 0.887 0.887v4.227c0 0.488-0.398 0.887-0.887 0.887h-4.227c-0.488 0-0.887-0.398-0.887-0.887v-4.227c0-0.488 0.398-0.887 0.887-0.887"/>
   <path d="m34 24c0 5.523-4.477 10-10 10s-10-4.477-10-10 4.477-10 10-10 10 4.477 10 10"/>
   <path d="m32 24c0 4.418-3.582 8-8 8s-8-3.582-8-8 3.582-8 8-8 8 3.582 8 8"/>
   <path d="m30 24c0 3.313-2.688 6-6 6-3.313 0-6-2.688-6-6 0-3.313 2.688-6 6-6 3.313 0 6 2.688 6 6"/>
   <path d="m27 24c0 1.656-1.344 3-3 3s-3-1.344-3-3 1.344-3 3-3 3 1.344 3 3"/>
  </g>
  <path d="m28 21c0 0.551-0.449 1-1 1s-1-0.449-1-1 0.449-1 1-1 1 0.449 1 1" fill-opacity="0.302"/>
  <path d="m22 25c0 0.551-0.445 1-1 1-0.551 0-1-0.449-1-1s0.449-1 1-1c0.555 0 1 0.449 1 1" fill-opacity="0.302"/>
 </g>
 <g>
  <path d="m33 8h4.227c0.488 0 0.887 0.398 0.887 0.887v4.227c0 0.488-0.398 0.887-0.887 0.887h-4.227c-0.488 0-0.887-0.398-0.887-0.887v-4.227c0-0.488 0.398-0.887 0.887-0.887" fill="#4d4d4d"/>
  <path d="m37 10.999c0 1.105-0.895 2-2 2s-2-0.895-2-2 0.895-2 2-2 2 0.895 2 2" fill="#ccc"/>
  <path d="m1 23v20c0 2.216 1.784 4 4 4h38c2.216 0 4-1.784 4-4v-20h-46z" fill="#dbc1ab"/>
  <path d="m9 1v22h1v-22h-1z" fill="#ff2f6e"/>
  <path d="m10 1v22h1v-22h-1z" fill="#ffd468"/>
  <path d="m11 1v22h1v-22h-1z" fill="#7de5a8"/>
  <path d="m12 1v22h1v-22h-1z" fill="#4c9cff"/>
  <path opacity=".1" d="m34 24c0 5.523-4.477 10-10 10s-10-4.477-10-10 4.477-10 10-10 10 4.477 10 10"/>
  <path d="m34 23c0 5.523-4.477 10-10 10s-10-4.477-10-10 4.477-10 10-10 10 4.477 10 10" fill="#e5d6c8"/>
  <path d="m32 23c0 4.418-3.582 8-8 8s-8-3.582-8-8 3.582-8 8-8 8 3.582 8 8" fill="#5b5b5b"/>
  <path d="m30 23c0 3.313-2.688 6-6 6-3.313 0-6-2.688-6-6 0-3.313 2.688-6 6-6 3.313 0 6 2.688 6 6" fill="#84b295"/>
  <path d="m27 23c0 1.656-1.344 3-3 3s-3-1.344-3-3 1.344-3 3-3 3 1.344 3 3" fill="#3c3c3c"/>
 </g>
 <path d="m28 20c0 0.551-0.449 1-1 1s-1-0.449-1-1 0.449-1 1-1 1 0.449 1 1" fill-opacity="0.302" fill="#fff"/>
 <path d="m22 24c0 0.551-0.445 1-1 1-0.551 0-1-0.449-1-1s0.449-1 1-1c0.555 0 1 0.449 1 1" fill-opacity="0.302" fill="#fff"/>
</svg>
