<svg xmlns="http://www.w3.org/2000/svg" version="1.1" viewBox="0 0 48 48">
 <defs>
  <linearGradient id="linearGradient3764" x2="47" gradientUnits="userSpaceOnUse" x1="1" gradientTransform="translate(-48 .0022147)">
   <stop stop-color="#c83e2c" offset="0"/>
   <stop stop-color="#d34836" offset="1"/>
  </linearGradient>
 </defs>
 <g style="fill:#e74e40">
  <rect style="fill:#e74e40" rx="4" transform="rotate(-90)" height="46" width="46" y="1" x="-47" fill="url(#linearGradient3764)"/>
 </g>
 <g style="opacity:.1" transform="translate(0,2)"></g>
 <path d="m23.656 16.03c-4.352 0-7.656 3.59-7.656 7.906v11.531c0 0.27 0.223 0.5 0.5 0.5s0.5-0.23 0.5-0.5v-11.531c0-3.816 2.852-6.906 6.656-6.906 3.789 0 7.375 3.152 7.375 6.906v11.531c0 0.27 0.223 0.5 0.5 0.5s0.5-0.23 0.5-0.5v-11.531c0-4.375-4.04-7.906-8.375-7.906m-7.25 0.063c-0.238 0.047-0.41 0.258-0.406 0.5v2.156c0 0.273 0.223 0.5 0.5 0.5s0.5-0.227 0.5-0.5v-2.156c0.004-0.152-0.063-0.297-0.18-0.391-0.113-0.098-0.266-0.137-0.414-0.109" style="opacity:.1;fill:#111"/>
 <path style="fill:#f8f8f8" d="m23.656 15.03c-4.352 0-7.656 3.59-7.656 7.906v11.531c0 0.27 0.223 0.5 0.5 0.5s0.5-0.23 0.5-0.5v-11.531c0-3.816 2.852-6.906 6.656-6.906 3.789 0 7.375 3.152 7.375 6.906v11.531c0 0.27 0.223 0.5 0.5 0.5s0.5-0.23 0.5-0.5v-11.531c0-4.375-4.04-7.906-8.375-7.906m-7.25 0.063c-0.238 0.047-0.41 0.258-0.406 0.5v2.156c0 0.273 0.223 0.5 0.5 0.5s0.5-0.227 0.5-0.5v-2.156c0.004-0.152-0.063-0.297-0.18-0.391-0.113-0.098-0.266-0.137-0.414-0.109"/>
</svg>
