<svg xmlns="http://www.w3.org/2000/svg" version="1.1" viewBox="0 0 48 48">
 <rect style="fill:#c6dff6" rx="4" transform="rotate(-90)" height="46" width="46" y="1" x="-47"/>
 <path style="opacity:.1" d="m31.078 13.996c-0.95428 0-1.7935 0.49653-2.3008 1.2441-0.75188-0.29824-1.5132-0.5902-2.2754-0.75391-0.50662-0.10882-1.0244-0.1588-1.5273-0.10742-0.48669 0.04972-0.95706 0.20833-1.3965 0.49024-1.0411 0.47882-1.5466 1.496-1.7402 2.623-0.15703 0.91389-0.13739 1.9417-0.09375 2.9805-1.9764 0.28144-3.7592 0.92239-5.2207 1.8223-0.23025-0.27709-0.50521-0.52084-0.82617-0.70703-0.48536-0.28321-1.0277-0.42578-1.5703-0.42578-0.54259 0.000001-1.085 0.14254-1.5703 0.42578-0.97118 0.5628-1.56 1.6069-1.5566 2.7266v0.002 0.002c-0.0033 1.1201 0.58733 2.1608 1.5566 2.7266v0.002c0.08511 0.04926 0.17341 0.08829 0.26172 0.12891-0.05743 0.32038-0.0957 0.64425-0.0957 0.97656 0 2.2282 1.3353 4.2135 3.3945 5.6094 2.058 1.396 4.859 2.238 7.945 2.238 3.0838 0 5.8856-0.84261 7.9453-2.2383 1.9662-1.3323 3.1959-3.2203 3.3105-5.3262a0.50008 0.50008 0 0 0 0.08398 -0.2832 0.50008 0.50008 0 0 0 -0.08398 -0.2832c-0.01225-0.22464-0.04286-0.44474-0.08008-0.66406 0.06849-0.03336 0.13863-0.06291 0.20508-0.10156 0.96738-0.56475 1.561-1.6036 1.5547-2.7246h0.002c0.000012-0.0015-0.002-0.0024-0.002-0.0039-0.00001-0.0015 0.002-0.0024 0.002-0.0039h-0.002c0.0063-1.1201-0.58608-2.1627-1.5547-2.7246-0.48373-0.28322-1.0259-0.42577-1.5684-0.42578-0.54305-0.00001-1.0867 0.14237-1.5723 0.42578-0.2862 0.16648-0.53511 0.37901-0.75 0.61914-2.0096-1.223-4.6238-1.957-7.4902-1.957-0.44671 0-0.88499 0.02226-1.3184 0.05664-0.03827-0.99036-0.05263-1.9441 0.07813-2.7051 0.16735-0.97396 0.49776-1.5965 1.1895-1.9023l0.03906-0.01758 0.03516-0.02344c0.61615-0.41026 1.3316-0.43957 2.2051-0.25195 0.6432 0.13815 1.3553 0.40598 2.082 0.69141-0.06052 0.23518-0.10352 0.47702-0.10352 0.73047 0 1.5817 1.2551 2.8906 2.8086 2.8906 1.4201 0 2.4738-1.1411 2.668-2.5332a0.50007 0.50007 0 0 0 0.14453 -0.35742 0.50007 0.50007 0 0 0 -0.14453 -0.35938 0.50007 0.50007 0 0 0 -0.002 -0.002c-0.19615-1.39-1.2476-2.5293-2.666-2.5293z"/>
 <path d="m21.12 26.676c0 0.84-0.691 1.523-1.547 1.523-0.855 0-1.551-0.684-1.551-1.523 0-0.84 0.695-1.52 1.551-1.52 0.855 0 1.547 0.68 1.547 1.52"/>
 <path d="m29.17 26.547c0 0.84-0.695 1.52-1.566 1.52-0.852 0-1.551-0.68-1.551-1.52s0.688-1.523 1.551-1.523c0.855 0 1.566 0.684 1.566 1.523"/>
 <g>
  <path d="m19.472 30.719c3.4375 2.332 6.0277 1.4101 8.5121 0.08591"/>
  <path style="fill:#fff" d="m16.753 23.317c0.0078 0.94535-0.49215 1.8203-1.3086 2.2969-0.81644 0.47262-1.8203 0.47262-2.6369 0-0.81644-0.47652-1.3125-1.3515-1.3086-2.2969-0.004-0.94535 0.49215-1.8243 1.3086-2.2969 0.81644-0.47652 1.8203-0.47652 2.6369 0 0.81644 0.47262 1.3164 1.3515 1.3086 2.2969"/>
  <path style="fill:#fff" d="m36.5 23.375c0.0078 0.94535-0.49215 1.8203-1.3086 2.2969-0.81249 0.47262-1.8203 0.47262-2.6369 0-0.81249-0.47652-1.3125-1.3515-1.3086-2.2969-0.004-0.94535 0.4961-1.8243 1.3086-2.2969 0.81644-0.47652 1.8242-0.47652 2.6369 0 0.81644 0.47262 1.3164 1.3515 1.3086 2.2969"/>
 </g>
 <path style="color-rendering:auto;text-decoration-color:#000000;color:#000000;font-variant-numeric:normal;shape-rendering:auto;solid-color:#000000;text-decoration-line:none;font-variant-position:normal;mix-blend-mode:normal;font-feature-settings:normal;shape-padding:0;font-variant-alternates:normal;text-indent:0;font-variant-ligatures:normal;dominant-baseline:auto;font-variant-caps:normal;image-rendering:auto;white-space:normal;text-decoration-style:solid;text-orientation:mixed;isolation:auto;text-transform:none" d="m24.975 13.379c-0.48669 0.04972-0.95706 0.20833-1.3965 0.49024-1.0411 0.47882-1.5466 1.496-1.7402 2.623-0.19592 1.1402-0.13491 2.4485-0.06836 3.748l1-0.05078c-0.06626-1.2938-0.11462-2.5553 0.05273-3.5293 0.16735-0.97396 0.49776-1.5965 1.1895-1.9023l0.03906-0.01758 0.03516-0.02344c0.61615-0.41026 1.3316-0.43957 2.2051-0.25195s1.8582 0.60194 2.8613 0.99609l0.36719-0.92969c-0.98523-0.38713-2.0043-0.82729-3.0176-1.0449-0.50662-0.10882-1.0244-0.1588-1.5273-0.10742z"/>
 <path style="color-rendering:auto;text-decoration-color:#000000;color:#000000;font-variant-numeric:normal;shape-rendering:auto;solid-color:#000000;text-decoration-line:none;font-variant-position:normal;mix-blend-mode:normal;font-feature-settings:normal;shape-padding:0;font-variant-alternates:normal;text-indent:0;font-variant-ligatures:normal;dominant-baseline:auto;font-variant-caps:normal;image-rendering:auto;white-space:normal;text-decoration-style:solid;text-orientation:mixed;isolation:auto;text-transform:none" d="m14.127 20.162c-0.54259 0.000001-1.085 0.14254-1.5703 0.42578-0.972 0.563-1.56 1.607-1.557 2.726-0.000003 0.000651 0.000002 0.0013 0 0.002 0.000002 0.000651-0.000003 0.0013 0 0.002-0.0033 1.1201 0.58733 2.1608 1.5566 2.7266v0.002c0.97041 0.5616 2.1684 0.56166 3.1387 0v-0.002h0.002c0.96738-0.56475 1.561-1.6036 1.5547-2.7246h0.002c0.000012-0.0015-0.002-0.0024-0.002-0.0039-0.00001-0.0015 0.002-0.0024 0.002-0.0039h-0.002c0.0063-1.1201-0.58608-2.1627-1.5547-2.7246-0.48536-0.28321-1.0277-0.42578-1.5703-0.42578zm0 1c0.3676 0.000001 0.73511 0.09575 1.0664 0.28906l0.002 0.002c0.66041 0.3823 1.0649 1.0929 1.0586 1.8594l0.5 0.0039-0.5 0.0039c0.0063 0.76557-0.39696 1.4719-1.0586 1.8594-0.66264 0.38359-1.4738 0.38364-2.1367 0-0.661-0.386-1.062-1.092-1.059-1.861v-0.004c-0.0033-0.76909 0.39876-1.4794 1.0586-1.8613v-0.002h0.002c0.33116-0.19329 0.6988-0.28906 1.0664-0.28906z"/>
 <path style="color-rendering:auto;text-decoration-color:#000000;color:#000000;font-variant-numeric:normal;shape-rendering:auto;solid-color:#000000;text-decoration-line:none;font-variant-position:normal;mix-blend-mode:normal;font-feature-settings:normal;shape-padding:0;font-variant-alternates:normal;text-indent:0;font-variant-ligatures:normal;dominant-baseline:auto;font-variant-caps:normal;image-rendering:auto;white-space:normal;text-decoration-style:solid;text-orientation:mixed;isolation:auto;text-transform:none" d="m33.875 20.221c-0.54305-0.00001-1.0867 0.14237-1.5723 0.42578-0.96718 0.56261-1.56 1.605-1.5566 2.7266-0.000003 0.000651 0.000002 0.0013 0 0.002 0.000002 0.000651-0.000003 0.0013 0 0.002-0.0033 1.1215 0.59013 2.1608 1.5547 2.7266h0.002l0.002 0.002c0.97102 0.56195 2.1708 0.56103 3.1387-0.002 0.96738-0.56475 1.561-1.6036 1.5547-2.7246h0.002c0.000012-0.0015-0.002-0.0024-0.002-0.0039 0-0.001 0.002-0.002 0.002-0.004h-0.002c0.0063-1.1201-0.58608-2.1627-1.5547-2.7246-0.48373-0.28322-1.0259-0.42577-1.5684-0.42578zm0 1c0.36813-0.00001 0.7359 0.09642 1.0645 0.28906l0.002 0.002c0.66 0.382 1.064 1.093 1.058 1.859l0.5 0.0039-0.5 0.0039c0.0063 0.76652-0.39744 1.4742-1.0605 1.8613-0.65714 0.38226-1.4725 0.38134-2.1348-0.002-0.65784-0.387-1.0618-1.0946-1.0586-1.8613v-0.004c-0.0032-0.76769 0.40387-1.4813 1.0605-1.8633 0.33086-0.19311 0.70022-0.28905 1.0684-0.28906z"/>
 <path style="fill:#fff" d="m34.903 27.152c0 4.0591-4.8555 7.3472-10.84 7.3472-5.9883 0-10.84-3.2894-10.84-7.3472 0-4.0553 4.8516-7.3434 10.84-7.3434 5.9843 0 10.84 3.2894 10.84 7.3434"/>
 <path style="fill:#fff" d="m33.39 15.887c0 1.3203-1.0352 2.3906-2.3125 2.3906-1.2732 0-2.3085-1.0703-2.3085-2.3906s1.0352-2.3906 2.3085-2.3906c1.277 0 2.3125 1.0703 2.3125 2.3906"/>
 <path style="fill:#ff4500" d="m21.12 25.676c0 0.84-0.691 1.523-1.547 1.523-0.855 0-1.551-0.684-1.551-1.523 0-0.84 0.695-1.52 1.551-1.52 0.855 0 1.547 0.68 1.547 1.52"/>
 <path style="fill:#ff4500" d="m29.17 25.547c0 0.84-0.695 1.52-1.566 1.52-0.852 0-1.551-0.68-1.551-1.52s0.688-1.523 1.551-1.523c0.855 0 1.566 0.684 1.566 1.523"/>
 <path style="color-rendering:auto;text-decoration-color:#000000;color:#000000;font-variant-numeric:normal;shape-rendering:auto;solid-color:#000000;text-decoration-line:none;font-variant-position:normal;mix-blend-mode:normal;font-feature-settings:normal;shape-padding:0;font-variant-alternates:normal;text-indent:0;font-variant-ligatures:normal;dominant-baseline:auto;font-variant-caps:normal;image-rendering:auto;white-space:normal;text-decoration-style:solid;text-orientation:mixed;isolation:auto;text-transform:none" d="m24.062 19.309c-3.0857 0-5.8861 0.84112-7.9453 2.2363s-3.3945 3.3804-3.3945 5.6074c0 2.2282 1.3353 4.2135 3.3945 5.6094 2.06 1.396 4.861 2.238 7.946 2.238 3.0838 0 5.8856-0.84261 7.9453-2.2383 1.9662-1.3323 3.1959-3.2203 3.3105-5.3262a0.50008 0.50008 0 0 0 0.08398 -0.2832 0.50008 0.50008 0 0 0 -0.08398 -0.2832c-0.114-2.105-1.344-3.993-3.31-5.325-2.06-1.395-4.862-2.236-7.946-2.236zm0 1c2.9006 0 5.5186 0.80155 7.3828 2.0645 1.8642 1.2629 2.957 2.9519 2.957 4.7793 0 1.8302-1.0929 3.5181-2.957 4.7812-1.8642 1.2632-4.4822 2.0645-7.3828 2.0645-2.9026 0-5.5211-0.80117-7.3848-2.0645s-2.9551-2.9516-2.9551-4.7812c0-1.8282 1.0914-3.5166 2.9551-4.7793s4.4821-2.0645 7.3848-2.0645z"/>
 <path style="color-rendering:auto;text-decoration-color:#000000;color:#000000;font-variant-numeric:normal;shape-rendering:auto;solid-color:#000000;text-decoration-line:none;font-variant-position:normal;mix-blend-mode:normal;font-feature-settings:normal;shape-padding:0;font-variant-alternates:normal;text-indent:0;font-variant-ligatures:normal;dominant-baseline:auto;font-variant-caps:normal;image-rendering:auto;white-space:normal;text-decoration-style:solid;text-orientation:mixed;isolation:auto;text-transform:none" d="m19.471 29.215a0.50008 0.50008 0 0 0 -0.2793 0.91797c1.7924 1.2159 3.4329 1.6109 4.9316 1.498 1.4988-0.11285 2.8323-0.71139 4.0957-1.3848a0.50008 0.50008 0 1 0 -0.469 -0.883c-1.2211 0.65083-2.4244 1.1753-3.7012 1.2715-1.2768 0.09614-2.6498-0.21402-4.2949-1.3301a0.50008 0.50008 0 0 0 -0.2832 -0.08984z"/>
 <path style="color-rendering:auto;text-decoration-color:#000000;color:#000000;font-variant-numeric:normal;shape-rendering:auto;solid-color:#000000;text-decoration-line:none;font-variant-position:normal;mix-blend-mode:normal;font-feature-settings:normal;shape-padding:0;font-variant-alternates:normal;text-indent:0;font-variant-ligatures:normal;dominant-baseline:auto;font-variant-caps:normal;image-rendering:auto;white-space:normal;text-decoration-style:solid;text-orientation:mixed;isolation:auto;text-transform:none" d="m31.078 12.996c-1.5535 0-2.8086 1.309-2.8086 2.8906 0 1.5817 1.2551 2.8906 2.8086 2.8906 1.4201 0 2.4738-1.1411 2.668-2.5332a0.50007 0.50007 0 0 0 0.14453 -0.35742 0.50007 0.50007 0 0 0 -0.14453 -0.35938 0.50007 0.50007 0 0 0 -0.002 -0.002c-0.196-1.39-1.248-2.529-2.666-2.529zm0 1c0.99764 0 1.8125 0.83178 1.8125 1.8906 0 1.0589-0.81455 1.8906-1.8125 1.8906-0.993 0-1.8086-0.83174-1.8086-1.8906s0.81544-1.8906 1.8086-1.8906z"/>
</svg>
