<?xml version="1.0" encoding="UTF-8" standalone="no"?>
<svg xmlns:rdf="http://www.w3.org/1999/02/22-rdf-syntax-ns#" xmlns="http://www.w3.org/2000/svg" height="48px" width="48px" version="1.1" xmlns:cc="http://creativecommons.org/ns#" xmlns:dc="http://purl.org/dc/elements/1.1/" viewBox="0 0 48 48">
 <metadata>
  <rdf:RDF>
   <cc:Work rdf:about="">
    <dc:format>image/svg+xml</dc:format>
    <dc:type rdf:resource="http://purl.org/dc/dcmitype/StillImage"/>
    <dc:title/>
   </cc:Work>
  </rdf:RDF>
 </metadata>
 <path d="m1 43v-38c0-2.2109 1.7891-4 4-4h38c2.2109 0 4 1.7891 4 4v38c0 2.2109-1.7891 4-4 4h-38c-2.2109 0-4-1.789-4-4z" fill="#01b9ff"/>
 <path opacity=".1" d="m27.289 14.258c-2.3477 0.875-3.832 3.1289-3.6641 5.5938l0.05469 0.95313-0.9375-0.11719c-3.418-0.44531-6.4062-1.9609-8.9414-4.5039l-1.2422-1.2656-0.31641 0.93359c-0.67969 2.0781-0.24609 4.2734 1.1641 5.75 0.75 0.8125 0.58203 0.92969-0.71484 0.44531-0.44922-0.15625-0.84766-0.27344-0.88281-0.21484-0.13281 0.13672 0.31641 1.9062 0.67578 2.6016 0.48828 0.97266 1.4844 1.9258 2.5742 2.4883l0.91797 0.44531-1.0859 0.01953c-1.0547 0-1.0898 0.01953-0.98047 0.42578 0.37891 1.2656 1.8633 2.6055 3.5234 3.1875l1.1641 0.41016-1.0234 0.61719c-1.5 0.89453-3.2656 1.3984-5.0273 1.4375-0.84766 0.01953-1.543 0.09766-1.543 0.15625 0 0.19531 2.293 1.2812 3.625 1.707 4 1.2656 8.7539 0.71875 12.324-1.4336 2.5352-1.5352 5.0742-4.5859 6.2578-7.5352 0.63672-1.5742 1.2773-4.4492 1.2773-5.8281 0-0.89062 0.05469-1.0078 1.1094-2.0781 0.61719-0.62109 1.1992-1.3008 1.3125-1.4922 0.1875-0.37109 0.16797-0.37109-0.78906-0.03906-1.5977 0.57812-1.8242 0.50391-1.0312-0.37109 0.58203-0.62109 1.2734-1.7461 1.2734-2.0781 0-0.05859-0.28125 0.03906-0.59766 0.21484-0.33984 0.19141-1.0898 0.48438-1.6523 0.66016l-1.0156 0.32812-0.92188-0.64062c-0.52344-0.34766-1.2305-0.73828-1.6055-0.85547-0.95703-0.26953-2.4219-0.23047-3.2852 0.07812"/>
 <path d="m27.289 13.258c-2.3477 0.875-3.832 3.1289-3.6641 5.5938l0.05469 0.95313-0.9375-0.11719c-3.418-0.44531-6.4062-1.9609-8.9414-4.5039l-1.2422-1.2656-0.31641 0.93359c-0.67969 2.0781-0.24609 4.2734 1.1641 5.75 0.75 0.8125 0.58203 0.92969-0.71484 0.44531-0.44922-0.15625-0.84766-0.27344-0.88281-0.21484-0.13281 0.13672 0.31641 1.9062 0.67578 2.6016 0.48828 0.97266 1.4844 1.9258 2.5742 2.4883l0.91797 0.44531-1.0859 0.01953c-1.0547 0-1.0898 0.01953-0.98047 0.42578 0.37891 1.2656 1.8633 2.6055 3.5234 3.1875l1.1641 0.41016-1.0234 0.61719c-1.5 0.89453-3.2656 1.3984-5.0273 1.4375-0.84766 0.01953-1.543 0.09766-1.543 0.15625 0 0.19531 2.293 1.2812 3.625 1.707 4 1.2656 8.7539 0.71875 12.324-1.4336 2.5352-1.5352 5.0742-4.5859 6.2578-7.5352 0.63672-1.5742 1.2773-4.4492 1.2773-5.8281 0-0.89062 0.05469-1.0078 1.1094-2.0781 0.61719-0.62109 1.1992-1.3008 1.3125-1.4922 0.1875-0.37109 0.16797-0.37109-0.78906-0.03906-1.5977 0.57812-1.8242 0.50391-1.0312-0.37109 0.58203-0.62109 1.2734-1.7461 1.2734-2.0781 0-0.05859-0.28125 0.03906-0.59766 0.21484-0.33984 0.19141-1.0898 0.48438-1.6523 0.66016l-1.0156 0.32812-0.92188-0.64062c-0.52344-0.34766-1.2305-0.73828-1.6055-0.85547-0.95703-0.26953-2.4219-0.23047-3.2852 0.07812" fill="#f8f8f8"/>
</svg>
