<svg xmlns="http://www.w3.org/2000/svg" width="36" height="36">
 <path d="M 18.65625 0 C 13.59794 -0.14679914 8.4916806 1.5459252 4.78125 5.03125 C 0.56266824 8.8427196 -1.3083162 15.30888 1.03125 20.625 C 3.2587257 26.172599 8.7676849 29.782951 14.53125 30.75 C 16.361339 30.662198 18.348316 31.490723 17.96875 33.6875 C 18.193105 34.455744 17.337619 36.670673 18.90625 35.8125 C 22.343203 34.523146 25.515553 32.546692 28.34375 30.21875 C 32.745977 26.542744 36.347075 21.101048 35.96875 15.15625 C 36.005093 11.707298 34.474757 8.4073488 32.15625 5.90625 C 28.705213 2.1190467 23.71456 0.14679914 18.65625 0 z M 14 8 L 16 8 L 16 12 L 21 12 L 21 8 L 23 8 L 23 12 L 26 12 L 26 14 L 23 14 L 23 18 L 26 18 L 26 20 L 23 20 L 23 24 L 21 24 L 21 20 L 16 20 L 16 24 L 14 24 L 14 20 L 11 20 L 11 18 L 14 18 L 14 14 L 11 14 L 11 12 L 14 12 L 14 8 z M 16 14 L 16 18 L 21 18 L 21 14 L 16 14 z " fill="#f9f9f9"/>
</svg>
