<svg xmlns="http://www.w3.org/2000/svg" width="128" viewBox="0 0 128 128" height="128">
 <g transform="matrix(0.50000105,0,0,0.50000105,1.2355683e-4,-3.9e-4)">
  <path d="m 253.02721,128 c 0,69.05064 -55.97672,125.02726 -125.02738,125.02726 C 58.94917,253.02726 2.9727472,197.05064 2.9727472,128 2.9727472,58.949357 58.94917,2.9727392 127.99983,2.9727392 197.05049,2.9727392 253.02721,58.949357 253.02721,128 z" fill="none" stroke="#f9f9f9" color="#000000" stroke-width="5.945"/>
  <path d="m 74.59969,60.714623 0,15.667842 m 0,118.877105 0,-81.09556 c 0,-29.610971 23.838455,-53.449387 53.44949,-53.449387 l 0,0 c 29.61093,0 53.44939,23.838416 53.44939,53.449387 l 0,81.09556" fill="none" stroke="#f9f9f9" stroke-linecap="round" stroke-width="7.132"/>
 </g>
</svg>
