<?xml version="1.0" encoding="UTF-8" standalone="no"?>
<svg
   xmlns:dc="http://purl.org/dc/elements/1.1/"
   xmlns:cc="http://creativecommons.org/ns#"
   xmlns:rdf="http://www.w3.org/1999/02/22-rdf-syntax-ns#"
   xmlns:svg="http://www.w3.org/2000/svg"
   xmlns="http://www.w3.org/2000/svg"
   xmlns:sodipodi="http://sodipodi.sourceforge.net/DTD/sodipodi-0.dtd"
   xmlns:inkscape="http://www.inkscape.org/namespaces/inkscape"
   width="128"
   viewBox="0 0 128 128"
   height="128"
   id="svg2"
   version="1.1"
   inkscape:version="0.48.4 r9939"
   sodipodi:docname="numix-alt.svg">
  <metadata
     id="metadata14">
    <rdf:RDF>
      <cc:Work
         rdf:about="">
        <dc:format>image/svg+xml</dc:format>
        <dc:type
           rdf:resource="http://purl.org/dc/dcmitype/StillImage" />
      </cc:Work>
    </rdf:RDF>
  </metadata>
  <defs
     id="defs12" />
  <sodipodi:namedview
     pagecolor="#ffffff"
     bordercolor="#666666"
     borderopacity="1"
     objecttolerance="10"
     gridtolerance="10"
     guidetolerance="10"
     inkscape:pageopacity="0"
     inkscape:pageshadow="2"
     inkscape:window-width="1366"
     inkscape:window-height="713"
     id="namedview10"
     showgrid="false"
     inkscape:zoom="3.7595215"
     inkscape:cx="19.446458"
     inkscape:cy="63.468017"
     inkscape:window-x="0"
     inkscape:window-y="29"
     inkscape:window-maximized="1"
     inkscape:current-layer="svg2" />
  <g
     transform="matrix(0.50000105,0,0,0.50000105,1.2355683e-4,-3.9e-4)"
     id="g4">
    <path
       d="m 253.02721,128 c 0,69.05064 -55.97672,125.02726 -125.02738,125.02726 C 58.94917,253.02726 2.9727472,197.05064 2.9727472,128 2.9727472,58.949357 58.94917,2.9727392 127.99983,2.9727392 197.05049,2.9727392 253.02721,58.949357 253.02721,128 z"
       id="path6"
       stroke-width="5.945"
       stroke="#f9f9f9"
       fill="none"
       color="#000000" />
    <path
       d="m 74.59969,60.714623 0,15.667842 m 0,118.877105 0,-81.09556 c 0,-29.610971 23.838455,-53.449387 53.44949,-53.449387 l 0,0 c 29.61093,0 53.44939,23.838416 53.44939,53.449387 l 0,81.09556"
       id="path8"
       stroke-linecap="round"
       stroke-width="7.132"
       stroke="#f9f9f9"
       fill="none" />
  </g>
</svg>
