<svg xmlns="http://www.w3.org/2000/svg" viewBox="0 0 256 256"><g transform="matrix(.5 0 0 .5 -256 -269.94257)"><rect width="512" x="512" y="540.36" height="512" fill="#d64937" color="#000"/></g><g transform="matrix(.18137 0 0 .18137 1836.72725 -493.91465)"><path d="m -9518.62 3066.44 a 8 8 0 0 0 -7.875 8.125 l 0 24.594 a 8 8 0 1 0 16 0 l 0 -24.594 a 8 8 0 0 0 -8.125 -8.125 z" fill="#d64937" color="#000"/></g><g fill="none" stroke="#f9f9f9" stroke-linecap="round" stroke-width="16"><g transform="matrix(.12269 0 0 .12269 2028.57831 -401.557)" stroke-linejoin="round" color="#000"><path d="m -15895.67 4821.35 0 181.95 c 0 66.44 53.49 119.92 119.92 119.92 l 0 0 c 66.44 0 119.92 -53.49 119.92 -119.92 l 0 -181.95"/><path d="m -15596.75 5123.22 0 -181.95 c 0 -66.44 53.49 -119.92 119.92 -119.92 l 0 0 c 66.44 0 119.92 53.49 119.92 119.92 0 51 0 102 0 153 0 16.04 -12.91 28.947 -28.947 28.947 l 0 0 c -16.04 0 -28.947 -12.91 -28.947 -28.947 0 -51 0 -102 0 -153 0 -66.44 53.49 -119.92 119.92 -119.92 l 0 0 c 66.44 0 119.92 53.49 119.92 119.92 l 0 181.95"/></g><g transform="matrix(.12269 0 0 .12269 2028.57831 -401.557)"><path d="m -15115.88 4821.35 0 301.87"/><path d="m -14786.83 4821.35 -269.97 301.87 m 0 -301.87 269.97 301.87"/><path d="m -16194.59 4821.35 0 35.15 m 0 266.72 0 -181.95 c 0 -66.44 53.49 -119.92 119.92 -119.92 l 0 0 c 66.44 0 119.92 53.49 119.92 119.92 l 0 181.95"/></g></g><g transform="matrix(.44735 0 0 .44735 16.67888 17.06397)"><path d="m 194.95 82.72 0 15.811 m 0 119.97 0 -81.84 c 0 -29.882 24.06 -53.939 53.94 -53.939 l 0 0 c 29.882 0 53.939 24.06 53.939 53.939 l 0 81.84" fill="none" stroke="#d64937" stroke-linecap="round" stroke-width="7.197"/></g><g transform="translate(-210.30561,-19.458923)"><g transform="matrix(0.50723826,0,0,0.50723812,212.08283,39.058982)" fill="#f9f9f9" fill-opacity="1"><path d="m 375.02 150.62 c 0 69.68 -56.49 126.17 -126.17 126.17 -69.68 0 -126.17 -56.49 -126.17 -126.17 0 -69.68 56.49 -126.17 126.17 -126.17 69.68 0 126.17 56.49 126.17 126.17 z" color="#000"/></g><path d="m 316.31 89.46 c -1.047 0.014 -2.02 1.084 -2 2 l 0 7.5 c 0.999 -2.149 2.381 -4.079 4 -5.813 l 0 -1.688 c 0.017 -0.935 -0.932 -2.01 -2 -2 z" fill="#d64937" fill-opacity="1" color="#000"/><path d="m 316.31 141.46 0 -31.343 c 0 -11.444 9.812 -20.658 22 -20.658 l 0 0 c 12.188 0 22 9.213 22 20.658 l 0 31.343" stroke-opacity="1" fill="none" stroke="#d64937" stroke-linejoin="round" stroke-linecap="round" stroke-width="4"/></g></svg>
