<svg xmlns="http://www.w3.org/2000/svg" viewBox="0 0 350 200">
<g transform="translate(0 -852.4)">
<path style="fill:#8ad0ea" d="m 101.6,892.9 c 8,-5.6 17,-10 28,-10 15,0.1 30,8.5 39,23.3 5,8.5 5,18.8 5,28.7 5,-3 11,-5 18,-4.1 6,0.4 11,5.4 16,9.6 1,-4.7 4,-9.7 6,-13.5 5,-6.2 14,-9.7 21,-10.1 12,-0.1 23,7.6 27,19.7 0,5 0,10 0,15 6,3.2 11,8.3 13,15 5,-1.2 10,-3 14,-0.8 5,1.6 9,7.1 11,11.8 3,2 9,2.5 7,7 -2,2.9 -5,2.1 -8,2.9 -5,4.4 -9,9.5 -15,8.9 -7,-0.2 -11,-5.9 -15,-11 -7,2.6 -15,3 -22,0.2 -4,5.5 -8,11.4 -14,13.1 -8,3.4 -15,0.4 -21,-2.1 -5,10.5 -13,19.5 -24,22.5 -20,9 -46,-5 -51,-30.4 -3,5 -5,10.3 -10,13.4 -5,3 -12,3 -18,3 -5,-2 -8.98,-5 -11.98,-9 -3,-3.6 -4,-8.1 -5,-12.4 -7,2.2 -12,4.7 -18,3.2 -6,-1.2 -11,-6.5 -16,-11.3 -3,1.4 -5,3 -9,3.5 -4,0.2 -7,-5.8 -5,-9.8 3,-4.4 8,-3 10,-3.4 1,-3.3 1,-6.5 1,-9.8 3,-7.1 9,-12.8 15,-15.1 7,-2.4 12,-1.1 18,-0.1 -1,-8.4 -3,-17.3 0,-25.5 2,-8.6 7,-16 13.98,-21.9 z"/>
</g>
</svg>
