<svg xmlns="http://www.w3.org/2000/svg" viewBox="0 0 350 200">
<g transform="translate(0 -852.4)">
<path style="fill:#88cfe9" d="m 156.5,896.9 c 16.2,-9.9 39.5,-5.2 50,12.4 5,7.5 5.5,17.2 4.9,26.2 6.5,-3.2 14.1,-4.8 21.1,-2.2 5,1.7 9,6.4 12,10.5 5,-0.6 10,-2.4 15,-0.1 4,2.1 8,7.6 8,13.6 -1,8 -8,14.4 -15,13.6 -3,-0.5 -7,-2 -10,-3.2 -4,3.3 -9,6.3 -14,8.3 0,0.2 -2,0.8 -2,0.9 -2,8.3 -6.6,16.1 -14.2,19 -8.6,4.1 -18.1,0.4 -25.1,-5.4 -3.7,8.3 -8.9,16.5 -16.7,19.5 -10.4,5 -23.4,4 -32.3,-4 -4,-4 -6.7,-8.6 -9.7,-13 -8.3,-0.5 -17.5,-2.1 -22.8,-10.1 -5,-5.7 -3.7,-14.2 -3.5,-21.5 -2.6,-1.1 -5.4,-2 -7.7,-3.4 -5.4,-4 -6.6,-10.8 -5.8,-17.3 -2,-1.7 -4.2,-3.2 -6.2,-4.5 1.6,-2.3 1.7,-5.2 4.5,-6.9 2.9,0.1 5.4,2 7.9,3.4 5.4,-0.5 11.1,-0.4 16.4,1.1 2.9,-4 5.6,-8.4 9.7,-11 5.6,-3.8 12.4,-3.3 18.7,-2.9 3,-9.5 8.4,-18.4 16.8,-23 z"/>
</g>
</svg>
