<svg xmlns="http://www.w3.org/2000/svg" viewBox="0 0 350 200">
<g transform="translate(0 -852.4)">
<path style="fill:#88cfe9" d="m 151.9,861.9 c -8.8,0.1 -17.5,2.1 -25.1,7.3 -4.5,3.2 -8.3,7.3 -12.2,11 -3.7,7 -7.2,14.3 -8.2,22.4 -0.6,5.6 0.4,11.3 1,16.8 -10.39,1 -21.39,2.8 -29.64,10.6 -8.25,6.5 -12.5,16.9 -15.13,27.4 -5.12,-4.9 -10.87,-9.9 -17.87,-10.5 -8,-1.5 -15.87,1.7 -22.37,6.6 -1.5,-2.4 -2.6,-4.8 -4.3,-6.8 -4.6,-5.2 -14.8,0.2 -12.8,7.8 1.5,5.6 7.3,5.4 11.5,5.9 -1.8,6.3 -3.7,13.4 -1.4,19.9 2.5,9.3 9.9,15.2 17.6,18.4 7.27,1.3 15.02,0.9 21.52,-3.4 5.75,-3.1 9,-9.3 12.37,-15.1 2,2.4 3.75,4.6 5.75,6.9 8.88,11.4 22.75,15.9 35.87,15.9 0.8,8 1.9,16 6.3,22 1.7,3 4,5 6.1,8 8.6,7 19.1,11 29.9,10 10.7,-3 22,-9 27.6,-21 5,-8 4.1,-19 2.6,-28.8 6.9,5.5 13.6,10.8 21.8,13.8 20.5,7 45.5,-1 56.7,-22.3 4.8,-8.2 5.5,-18.4 6,-27.7 8.3,4.2 17.6,7.1 26.9,5 5,-2.1 9.6,-5.3 14.2,-8 5.5,1.4 11.5,4 16.9,1 5.1,-2 7.3,-7.9 9.6,-12.8 3.8,-0.8 8.8,0 11.2,-4.2 1.8,-3 -0.3,-6.8 -2.7,-8.5 -3.8,-2 -7.7,0.9 -11.3,2.5 -2.7,-2.1 -5.3,-4.1 -8,-5.8 -2.5,-0.8 -5,-1.5 -7.4,-2.1 -1.5,-3 -2.9,-6.2 -4.8,-9.1 -2.6,-3.9 -6,-7.5 -9.5,-10.4 -11.6,-6.1 -26.3,-5.9 -36.7,3.3 -6.4,4.8 -9.1,13.2 -11.5,20.8 -7.8,-6.3 -16.5,-11.8 -26.4,-13.3 -9.7,-2.2 -19.7,0.6 -29.1,3.5 2.4,-12.3 0.6,-25.8 -6.4,-35.9 -7,-11.1 -18.2,-17.5 -29.9,-20.8 -2.8,-0.3 -5.7,-0.5 -8.7,-0.3 z"/>
</g>
</svg>
