<svg xmlns="http://www.w3.org/2000/svg" viewBox="0 0 300 160">
<g transform="translate(0 -892.4)">
<path style="fill:#cb0061" d="m 123.9,960.1 c 12,-20.7 42,-18.5 54,-1 4,4.9 5,11 5,16.9 11,4.5 24,8.3 34,16.6 2,1.4 1,4.2 1,6.3 -17,2.1 -34,0.1 -51,-3.9 -25,-5.7 -51.3,-12.6 -75.03,-25.1 -3.79,-2.3 -7.5,-5.3 -10,-9.6 6.21,-3.9 13.71,-2.5 20.03,-2.7 7.5,0.2 15,1.7 22,2.5 z"/>
<path style="fill:#5595ff" d="m 129.2,970.3 c 3,-7.3 10,-10.8 16,-11.3 9,-0.7 19,3.4 24,12.5 3,3.7 1,8.4 1,12.5 -11,4.3 -23,0.2 -33,-4.6 -4,-1.6 -9,-4.1 -8,-9.1 z"/>
</g>
</svg>
