<svg xmlns="http://www.w3.org/2000/svg" viewBox="0 0 200 200">
<g transform="translate(0 -852.36218)">
<rect width="200" x="0" y="852.362" height="200" style="opacity:.5;fill-rule:evenodd"/>
</g>
<g style="fill:#fff;" transform="matrix(4 0 0 4 68 68)">
<path d="M 8,0 C 3.5817219,0 0,3.5817221 0,8 c 0,4.418278 3.5817219,8 8,8 4.418278,0 8,-3.581722 8,-8 C 16,3.5817221 12.418278,0 8,0 z m 0,2 c 3.313708,0 6,2.6862915 6,6 0,3.313708 -2.686292,6 -6,6 C 4.6862915,14 2,11.313708 2,8 2,4.6862915 4.6862915,2 8,2 z"/>
<path d="M 6.75,4.25 6.75,8 4.25,8 8,11.75 11.75,8 l -2.5,0 0,-3.75 z"/>
</g>
</svg>
