<svg width="256" xmlns="http://www.w3.org/2000/svg" viewBox="0 0 256 256" height="256">
<g transform="matrix(.5 0 0 .5 -256 -269.94257)">
<rect width="512" x="512" y="540.362" height="512" style="fill:#d64937;color:#000"/>
</g>
<g transform="matrix(.18137 0 0 .18137 1836.72725 -493.91465)">
<path style="fill:#d64937;line-height:normal;color:#000" d="m -9518.625,3066.4375 a 8.0008,8.0008 0 0 0 -7.875,8.125 l 0,24.5937 a 8.0008,8.0008 0 1 0 16,0 l 0,-24.5937 a 8.0008,8.0008 0 0 0 -8.125,-8.125 z"/>
</g>
<g transform="matrix(.44735 0 0 .44735 16.67888 17.06397)">
<path style="fill:#f9f9f9;color:#000" d="m 375.01662,150.61948 c 0,69.68368 -56.48988,126.17348 -126.17359,126.17348 -69.68371,0 -126.17331,-56.4898 -126.17331,-126.17348 0,-69.683683 56.4896,-126.17348 126.17331,-126.17348 69.68371,0 126.17359,56.489797 126.17359,126.17348 z"/>
</g>
<g style="stroke-width:16;stroke-linecap:round;fill:none;stroke:#f9f9f9">
<g style="stroke-linejoin:round;color:#000" transform="matrix(.12269 0 0 .12269 2028.57831 -401.557)">
<path d="m -15895.669,4821.3481 0,181.9501 c 0,66.4367 53.485,119.9218 119.922,119.9218 l 0,0 c 66.437,0 119.922,-53.4851 119.922,-119.9218 l 0,-181.9501"/>
<path d="m -15596.75,5123.2202 0,-181.9501 c 0,-66.4367 53.485,-119.9218 119.922,-119.9218 l 0,0 c 66.437,0 119.922,53.4851 119.922,119.9218 0,51.0011 0,102.0021 0,153.0032 0,16.0366 -12.91,28.9469 -28.947,28.9469 l 0,0 c -16.037,0 -28.947,-12.9103 -28.947,-28.9469 0,-51.0011 0,-102.0021 0,-153.0032 0,-66.4367 53.485,-119.9218 119.922,-119.9218 l 0,0 c 66.437,0 119.922,53.4851 119.922,119.9218 l 0,181.9501"/>
</g>
<g transform="matrix(.12269 0 0 .12269 2028.57831 -401.557)">
<path d="m -15115.881,4821.3483 0,301.8719"/>
<path d="m -14786.835,4821.3483 -269.971,301.8719 m 0,-301.8719 269.971,301.8719"/>
<path d="m -16194.588,4821.3481 0,35.1532 m 0,266.7187 0,-181.9501 c 0,-66.4367 53.485,-119.9218 119.922,-119.9218 l 0,0 c 66.437,0 119.922,53.4851 119.922,119.9218 l 0,181.9501"/>
</g>
</g>
<g transform="matrix(.44735 0 0 .44735 16.67888 17.06397)">
<path style="fill:none;stroke:#d64937;stroke-linecap:round;stroke-width:7.197" d="m 194.95335,82.717207 0,15.81148 m 0,119.966943 0,-81.83902 c 0,-29.88244 24.057,-53.939403 53.9395,-53.939403 l 0,0 c 29.8824,0 53.9394,24.056963 53.9394,53.939403 l 0,81.83902"/>
</g>
</svg>
