<svg xmlns="http://www.w3.org/2000/svg" version="1.1" viewBox="0 0 48 48">
 <rect style="fill:#75bced" height="48" width="48" y="0" x="0"/>
 <path style="opacity:.1" d="m23.797 12.004c-3.6075-0.11625-7.2381 2.7479-7.4316 8.3594 0.1183 1.3825 0.92807 3.3095 1.7305 4.0156l0.01367 0.03906 1.6953 1.7188h0.0059l-1.811 1.881 0.002 0.002c-3.183 1.543-6.35 4.607-7.004 7.98l0.002 2h26v-2c-0.66159-2.9188-3.9883-6.2549-8.1719-8.0742l-1.7324-1.791c0.47725-0.46605 1.5602-1.3559 1.9863-2.0801v0.05078c0.816-0.316 1.8377-1.5311 2.0117-2.5781-0.1035-6.3105-3.6894-9.4072-7.2969-9.5234zm-3.9746 14.133h0.0059l0.03906 0.04492zm3.5605 3.6914 0.13086 0.0078-0.06055 0.0625z"/>
 <path d="m23.453 29.898 3.637-3.77 1.82 1.883-3.637 3.77m-1.82-1.883"/>
 <path d="m19.816 26.13 3.637 3.77-1.816 1.883-3.637-3.766m1.816-1.887"/>
 <path style="fill-opacity:0.941;fill:#cf8e92" d="m22.871 28.793-4.949-5.949-0.594-6.086 7.137-1.957 4.703 1.434 1.66 3.668-1.293 2.477-5.75 6.473m-0.914-0.059"/>
 <path style="fill:#cf362d" d="m11 37h26v-2c-0.68-3-4.168-6.453-8.516-8.234l-2.84 2.762-0.898-0.598-2.492-0.055-0.797 0.922-3.02-2.996c-3.324 1.465-6.754 4.672-7.438 8.199m0 2"/>
 <path style="fill:#ffcdce" d="m23.449 13.332c2.891 0 5.23 2.434 5.23 5.434v2.453c0 3-2.34 5.43-5.23 5.43-2.887 0-5.23-2.43-5.23-5.43v-2.453c0-3 2.344-5.434 5.23-5.434"/>
 <path style="fill:#ffcdce" d="m27.09 25.14c0.563-0.551 2-1.707 2.16-2.469l-0.055-4.371-8.328-3.094-1.355 1.148-2.246 2.922 0.551 3.297 0.293 0.844 1.695 1.719m7.285 0.004"/>
 <path style="fill:#cf362d" d="m18.15 23.434v-4.07c0.414-1.777 2.137-3.574 2.996-3.551 1.465 0.184 2.488 1.48 3.363 2.738 1.102 0.938 3.855 0.996 4.574 0v4.555c0.816-0.316 1.836-1.531 2.01-2.578-0.207-12.621-14.34-12.387-14.727-1.164 0.121 1.414 0.965 3.406 1.785 4.07"/>
 <path style="fill:#b2d4cf" d="m23.453 28.898 3.637-3.77 1.82 1.883-3.637 3.77m-1.82-1.883"/>
 <path style="fill:#b2d4cf" d="m19.816 25.13 3.637 3.77-1.816 1.883-3.637-3.766m1.816-1.887"/>
</svg>
