<?xml version="1.0" encoding="UTF-8" standalone="no"?>
<svg
   xmlns:dc="http://purl.org/dc/elements/1.1/"
   xmlns:cc="http://creativecommons.org/ns#"
   xmlns:rdf="http://www.w3.org/1999/02/22-rdf-syntax-ns#"
   xmlns:svg="http://www.w3.org/2000/svg"
   xmlns="http://www.w3.org/2000/svg"
   xmlns:xlink="http://www.w3.org/1999/xlink"
   xmlns:sodipodi="http://sodipodi.sourceforge.net/DTD/sodipodi-0.dtd"
   xmlns:inkscape="http://www.inkscape.org/namespaces/inkscape"
   width="1920"
   height="1200"
   viewBox="0 0 1536 960"
   id="svg2"
   version="1.1"
   inkscape:version="0.48.4 r9939"
   sodipodi:docname="Numix - Glimpse of the Future.svg">
  <metadata
     id="metadata220">
    <rdf:RDF>
      <cc:Work
         rdf:about="">
        <dc:format>image/svg+xml</dc:format>
        <dc:type
           rdf:resource="http://purl.org/dc/dcmitype/StillImage" />
      </cc:Work>
    </rdf:RDF>
  </metadata>
  <sodipodi:namedview
     pagecolor="#ffffff"
     bordercolor="#666666"
     borderopacity="1"
     objecttolerance="10"
     gridtolerance="10"
     guidetolerance="10"
     inkscape:pageopacity="0"
     inkscape:pageshadow="2"
     inkscape:window-width="1366"
     inkscape:window-height="713"
     id="namedview218"
     showgrid="false"
     inkscape:zoom="0.26516504"
     inkscape:cx="699.79789"
     inkscape:cy="483.27167"
     inkscape:window-x="0"
     inkscape:window-y="29"
     inkscape:window-maximized="1"
     inkscape:current-layer="svg2" />
  <defs
     id="defs4">
    <linearGradient
       id="linearGradient4067">
      <stop
         offset="0"
         style="stop-color:#80d4ec"
         id="stop7" />
      <stop
         id="stop3965"
         style="stop-color:#59bfe2;stop-opacity:1;"
         offset="0.5" />
      <stop
         offset="1"
         style="stop-color:#32aad8"
         id="stop9" />
    </linearGradient>
    <radialGradient
       cx="818.498"
       cy="836.808"
       gradientTransform="matrix(.63471 0 0 .3967 258.14013 263.37856)"
       xlink:href="#linearGradient4067"
       id="radialGradient3341"
       r="1209.954"
       gradientUnits="userSpaceOnUse" />
  </defs>
  <rect
     width="1535.934"
     x="0"
     y="0"
     height="959.998"
     style="fill:#32aad8;fill-opacity:1"
     id="rect12" />
  <path
     style="fill:#cb0061"
     d="m 1309.5863,34.232518 c 8.2348,-2.087508 17.4716,-1.024544 24.4279,4.636062 3.8813,2.766269 6.0351,7.504785 7.4862,12.20488 7.8548,0.794022 15.6864,1.972248 23.426,3.739586 3.4091,0.67876 6.4842,2.510133 9.2829,4.751323 -3.2594,4.943425 -9.0065,5.660605 -13.9934,6.890058 -11.4136,2.189963 -23.0114,3.124859 -34.5862,3.112053 -18.4505,0.128068 -37.1199,0.409817 -55.225,-4.059756 -3.5818,-0.704374 -6.8412,-2.510133 -9.8587,-4.674482 1.4973,-2.84311 3.9735,-4.725709 6.8758,-5.40447 8.4651,-2.305224 17.1491,-3.393802 25.81,-4.392732 1.7737,-8.695817 8.7761,-14.868695 16.3545,-16.802522 z"
     id="path14" />
  <path
     style="fill:#5595ff"
     d="m 1304.6684,41.46836 c 6.9219,-5.647798 16.9994,-5.903934 24.2552,-0.806828 3.2479,2.497326 6.0581,6.608309 5.7011,11.218757 -1.7507,3.291347 -5.8393,3.380995 -8.8568,4.20063 -8.7761,0.973317 -18.5196,1.639271 -26.3053,-3.778006 0.7717,-4.059755 2.0501,-8.273193 5.2058,-10.834553 z"
     id="path16" />
  <path
     style="fill:#c2444a"
     d="M 70.531333,65.0841 C 85.572796,52.174845 105.55514,46.309331 124.32817,49.959269 c 11.72451,2.177156 22.90771,8.836692 30.10596,19.53037 10.56128,-3.765199 21.11103,-7.607239 31.92568,-10.399122 10.95286,-3.342575 22.20516,-5.839901 33.59568,-6.249718 4.13467,0.128068 9.28286,0.05123 11.95485,4.239051 0.43765,3.59871 -1.79668,6.557081 -3.69702,9.156862 -6.01198,7.517591 -13.5903,13.20381 -21.07648,18.749155 -14.0625,10.130179 -28.8621,18.890033 -43.78839,27.316903 -35.61118,19.2102 -72.431673,35.76939 -110.346296,48.49935 C 35.70332,166.00168 18.151107,172.0593 0,170.90669 l 0,-18.18566 0.0115172,1.43436 C 15.697944,138.69759 34.413394,127.67093 52.886982,116.93883 51.804366,111.20139 50.629611,105.31026 51.435815,99.41913 53.163395,85.626207 60.764747,73.472554 70.531333,65.0841 z"
     id="path18" />
  <path
     style="fill:#78f93b"
     d="m 101.35136,59.461914 c 11.06803,-1.716111 23.39143,-0.384204 32.35181,7.709694 3.02903,2.88153 6.18474,6.160071 7.38253,10.501576 0,4.751323 -3.51275,8.273193 -6.41508,11.257177 -11.94334,10.924201 -26.43197,17.903909 -41.197025,22.603999 -7.175215,1.93383 -14.707464,3.63713 -22.078472,2.18997 -5.286395,-1.03735 -6.449632,-8.0939 -6.633907,-13.06294 C 63.805288,89.186497 69.644508,78.415978 77.37255,71.321011 84.305904,65.224974 92.586771,60.973117 101.35136,59.461914 z"
     id="path20" />
  <path
     style="fill:#5c018c"
     d="m 431.37673,66.531268 c 13.38298,-3.265734 28.34383,-1.690498 39.83799,7.107774 6.51874,4.738516 11.29837,12.256108 12.66892,20.836664 16.76904,2.651007 34.34429,2.56136 50.03072,10.463154 2.84475,1.05016 3.7546,4.16221 3.62792,7.21023 -7.87777,5.05869 -16.75753,7.42794 -25.69488,8.74704 -27.92921,5.40447 -56.36517,5.18676 -84.60535,4.86659 -10.94134,0.0384 -21.82509,-1.10139 -32.72036,-2.04909 -13.72851,-2.16435 -27.90618,-3.2017 -40.78241,-9.413 -1.20931,-1.35752 -3.27088,-2.4589 -3.14419,-4.68729 -0.27642,-2.68942 2.44164,-3.86765 4.14619,-5.00746 15.58277,-7.50478 32.84705,-7.568814 49.40879,-10.117368 2.29192,-14.855888 14.70746,-24.742737 27.22666,-27.957244 z"
     id="path22" />
  <path
     style="fill:#ffea00"
     d="m 434.25603,72.537657 c 9.99693,-2.369258 21.26075,-1.575236 29.81803,5.199561 4.72205,3.867654 8.79914,9.681941 8.89128,16.456738 0.41461,3.675552 -3.38606,4.930618 -5.67798,6.339364 -9.40956,4.09818 -19.76352,3.73959 -29.69135,3.48345 -7.65893,-0.52508 -16.06649,-1.42155 -22.13605,-7.19742 -1.03655,-3.726779 0.16124,-7.7225 1.76213,-11.026655 3.67398,-6.851638 10.21575,-11.282791 17.03394,-13.255038 z"
     id="path24" />
  <path
     style="fill:#0a4290"
     d="m 919.59083,101.71795 c -3.6612,-0.0242 -7.32781,0.25294 -10.91254,0.83244 -11.28686,1.71611 -22.10151,7.62645 -29.82955,17.00103 -2.95992,3.84204 -5.2576,8.26039 -6.70877,13.06294 -0.46069,1.56243 -0.89258,3.15047 -1.29568,4.73851 -16.58477,2.40768 -33.46323,3.16968 -49.61034,8.42047 -4.91785,1.67769 -10.48066,3.09285 -13.9934,7.58803 -1.61241,1.84418 -0.39159,4.00853 0.63344,5.76306 7.46315,5.36605 16.36595,7.29347 24.93474,9.31695 14.05099,2.76627 28.28625,4.3287 42.49847,5.57096 25.44149,1.52401 50.99816,2.6446 76.41662,0.41622 3.91585,-0.0256 7.8317,-0.20491 11.74755,-0.38421 19.83261,-2.31803 40.06833,-3.43222 59.08323,-10.69367 3.8583,-1.25507 7.037,-4.10458 9.6169,-7.45997 -2.1192,-2.97117 -4.4744,-5.98077 -7.803,-7.23584 -18.2892,-7.78653 -38.08156,-8.63818 -57.3268,-11.1099 -2.15372,-10.61683 -7.98713,-20.12588 -16.32559,-25.90175 -9.13894,-6.89646 -20.14164,-9.85263 -31.12528,-9.92527 z m -1.52603,7.42794 c 9.15954,-0.20211 18.38436,2.67342 25.74099,8.80468 5.97734,4.77694 9.3692,12.35856 10.5094,20.29878 -4.91784,7.46636 -13.7285,8.72783 -21.3644,10.02132 -13.07203,1.45997 -26.43774,1.19743 -39.24486,-2.33724 -3.42061,-1.52401 -6.60512,-3.59231 -9.76083,-5.66701 -0.70255,-12.58909 8.07932,-23.1611 18.1108,-27.43857 5.05316,-2.31482 10.51317,-3.56069 16.0089,-3.68196 z"
     id="path26" />
  <path
     style="fill:#ff8d0a"
     d="m 902.05014,112.81504 c 13.47512,-6.17287 29.97927,-4.66167 41.74985,5.14834 5.97743,4.77693 9.36348,12.35856 10.50368,20.29877 -4.91784,7.46637 -13.71698,8.72144 -21.35288,10.01492 -13.07203,1.45998 -26.43198,1.20384 -39.2391,-2.33084 -3.42061,-1.524 -6.59936,-3.59871 -9.75507,-5.67341 -0.70255,-12.58908 8.06204,-23.18031 18.09352,-27.45778 z"
     id="path28" />
  <g
     style="fill:#88cfe9"
     transform="matrix(1.15172 0 0 1.28068 0 -.51233)"
     id="g30">
    <path
       d="m 683.125,128.0625 c -7.64648,0.13828 -15.2625,1.74375 -21.84375,5.8125 -3.9,2.3875 -7.2,5.575 -10.625,8.5625 -3.1875,5.425 -6.2875,11.1625 -7.0625,17.5 -0.575,4.375 0.275,8.75 0.9375,13.0625 -9.0625,0.7625 -18.64375,2.1875 -25.84375,8.25 -7.1,5.025 -10.825,13.1625 -13.0625,21.3125 -4.475,-3.8 -9.4625,-7.6625 -15.5625,-8.125 -6.95,-1.1875 -13.775,1.35 -19.5,5.125 -1.1625,-1.7875 -2.20625,-3.61875 -3.59375,-5.21875 -4.0625,-4.1125 -12.99375,0.0687 -11.15625,6.03125 1.275,4.4125 6.34375,4.25 10.03125,4.625 -1.55,4.9875 -3.28125,10.45625 -1.28125,15.59375 2.125,7.175 8.6875,11.79375 15.375,14.34375 6.25,1.2625 12.975,0.65625 18.5625,-2.59375 4.975,-2.45 7.89375,-7.34375 10.78125,-11.84375 1.675,1.8 3.36875,3.59375 5.03125,5.40625 7.7375,8.825 19.6375,12.35 31.0625,12.3125 0.6875,6.05 1.71875,12.31875 5.53125,17.28125 1.475,2.2125 3.39375,4.09375 5.34375,5.90625 7.4125,5.4125 16.59375,8.76875 25.84375,7.96875 9.3625,-2.55 19.13125,-6.96875 23.96875,-15.90625 4.3625,-6.825 3.6875,-15.2625 2.375,-22.875 5.8625,4.2625 11.80625,8.75 18.84375,10.875 17.775,5.6875 39.5125,-1.0375 49.1875,-17.4375 4.2125,-6.4375 4.7875,-14.31875 5.1875,-21.78125 7.275,3.425 15.375,5.625 23.4375,3.9375 4.35,-1.575 8.275,-4.08125 12.375,-6.21875 4.725,1.175 9.8875,3.1 14.625,0.8125 4.425,-1.5875 6.33125,-6.1875 8.40625,-10 3.2375,-0.65 7.5875,0.0188 9.5625,-3.28125 1.6125,-2.325 -0.1625,-5.3125 -2.25,-6.625 -3.3375,-1.625 -6.73125,0.68125 -9.78125,1.90625 -2.3125,-1.575 -4.6125,-3.18125 -7.0625,-4.53125 -2.1125,-0.5625 -4.23125,-1.06875 -6.34375,-1.59375 -1.3125,-2.4 -2.48125,-4.88125 -4.09375,-7.09375 -2.3625,-3.0875 -5.18125,-5.81875 -8.34375,-8.09375 -10.1,-4.775 -22.86875,-4.54375 -31.84375,2.53125 -5.55,3.775 -7.9875,10.25625 -10.0625,16.34375 -6.7125,-5.075 -14.3,-9.30625 -22.75,-10.46875 -8.55,-1.6375 -17.1875,0.3875 -25.375,2.75 2.025,-9.6375 0.51875,-20.1125 -5.53125,-28.0625 -6.0375,-8.675 -15.8375,-13.675 -25.875,-16.1875 -2.51875,-0.24375 -5.07617,-0.35859 -7.625,-0.3125 z"
       transform="scale(.8)"
       id="path32" />
    <path
       d="m 217.31,110.33 c 11.31,-6.24 27.39,-3.36 34.66,7.7 3.48,4.69 3.81,10.72 3.46,16.34 4.5,-2.01 9.69,-3.01 14.47,-1.36 3.58,1.08 6.09,3.99 8.57,6.61 3.28,-0.44 6.79,-1.52 9.99,-0.15 3.43,1.33 5.93,4.81 5.85,8.52 -0.4,4.97 -5.34,9.03 -10.3,8.48 -2.42,-0.29 -4.69,-1.21 -6.97,-2 -2.9,2.15 -6.02,4.05 -9.47,5.19 -0.46,0.17 -1.37,0.51 -1.83,0.68 -1.48,5.03 -4.47,9.96 -9.71,11.71 -5.95,2.73 -12.5,0.35 -17.48,-3.25 -2.51,5.12 -6.04,10.1 -11.57,12.21 -7.21,3.02 -16.14,2.25 -22.38,-2.61 -2.82,-2.19 -4.73,-5.26 -6.76,-8.14 -5.75,-0.26 -12.19,-1.27 -15.86,-6.23 -3.41,-3.65 -2.61,-8.9 -2.41,-13.44 -1.82,-0.68 -3.64,-1.33 -5.42,-2.09 -3.67,-2.46 -4.55,-6.78 -3.96,-10.93 -1.41,-0.94 -2.85,-1.83 -4.26,-2.76 1.09,-1.38 1.14,-3.23 3.05,-4.3 1.99,0.08 3.7,1.32 5.51,2.05 3.82,-0.25 7.68,-0.17 11.44,0.69 1.97,-2.46 3.84,-5.15 6.63,-6.75 3.9,-2.43 8.65,-2.07 13.04,-1.84 2.11,-5.96 5.92,-11.47 11.71,-14.33 z"
       id="path34" />
  </g>
  <path
     style="fill:#cb0061"
     d="m 1418.7232,152.82349 c 8.8222,-16.7513 32.5592,-14.89431 42.6482,-0.70438 2.8102,3.88046 3.5934,8.86231 4.1693,13.66486 9.1792,3.63713 18.9342,6.65953 26.7084,13.45994 1.6584,1.06297 0.8637,3.34258 1.1056,5.05869 -13.6248,1.44717 -27.3879,0.12807 -40.7133,-3.16328 -20.5812,-4.62325 -41.2546,-10.21983 -60.258,-20.37562 -3.2594,-1.74172 -6.2423,-4.18782 -7.9814,-7.78653 4.9063,-3.11205 10.711,-2.02348 16.101,-2.10032 6.1157,-0.0256 12.1392,1.26788 18.2202,1.94664 z"
     id="path36" />
  <path
     style="fill:#5595ff"
     d="m 1425.2305,153.73277 c 2.2689,-5.57096 7.9008,-8.32442 13.1411,-8.74705 7.2789,-0.5763 15.3639,2.72785 19.1531,10.00212 1.7967,2.97117 1.1402,6.68515 1.1172,10.04053 -9.2023,3.38099 -19.061,0.11526 -27.7104,-3.71398 -2.4993,-1.56242 -7.014,-3.54748 -5.701,-7.58162 z"
     id="path38" />
  <path
     style="fill:#8ad0ea"
     d="m 1083.9758,159.55986 c 6.7721,-4.905 14.6154,-8.36284 22.7926,-8.38845 12.2312,0.10245 24.785,6.74918 31.1885,18.62109 3.9044,6.81321 4.6875,15.08641 4.0541,22.96259 4.4572,-2.42049 9.3865,-4.04695 14.408,-3.26574 5.1367,0.25614 9.1332,4.23906 12.8993,7.68408 1.4281,-3.79081 2.718,-7.79934 5.3094,-10.84735 4.1577,-4.94343 10.1927,-7.78654 16.2623,-8.02987 9.0871,-0.11526 18.3239,6.08323 21.422,15.80359 0.2419,3.97011 0.1958,7.94022 0.1958,11.91033 4.8257,2.58697 8.8797,6.63392 11.2523,12.02558 3.5012,-0.96051 7.2558,-2.35645 10.7916,-0.66595 4.2729,1.26787 6.68,5.6478 8.9258,9.51545 1.8773,1.60085 6.68,1.95944 4.987,5.59657 -1.3245,2.254 -4.1347,1.6905 -6.1732,2.27961 -3.4091,3.47065 -7.1983,7.60724 -12.2198,7.12058 -5.2864,-0.12806 -8.9489,-4.76413 -12.1046,-8.88792 -5.6204,2.17716 -11.6784,2.4333 -17.3103,0.23053 -2.9024,4.44396 -6.2193,9.13125 -11.2754,10.48877 -5.701,2.27961 -11.6784,0.33297 -17.1721,-1.66489 -4.008,8.29881 -10.3655,15.35536 -18.6348,18.0832 -16.5157,7.21023 -37.7649,-4.5208 -41.0819,-24.34572 -2.2113,3.9701 -4.5953,8.14512 -8.4075,10.41193 -4.2844,2.8303 -9.4557,2.70223 -14.2583,2.40767 -3.4437,-1.75453 -7.0255,-3.67555 -9.4902,-6.9797 -2.027,-2.91995 -3.0405,-6.46744 -4.2499,-9.84843 -4.5492,1.6905 -9.3519,3.63713 -14.1891,2.42048 -5.3325,-0.87086 -9.375,-5.10991 -13.2218,-8.93914 -2.0846,1.06296 -4.1116,2.39487 -6.3805,2.8303 -3.317,0.0512 -6.6339,-4.72571 -4.3305,-7.96583 1.5779,-3.52187 5.5513,-2.39487 8.4306,-2.68943 0.2764,-2.59978 0.5413,-5.21237 0.9329,-7.79934 2.1307,-5.71183 6.4611,-10.27105 11.7936,-12.12804 4.4917,-1.8954 9.3289,-0.89647 13.9243,-0.0768 -1.2784,-6.67234 -2.1076,-13.78012 -0.046,-20.36281 1.958,-6.91567 6.1157,-12.79399 10.9759,-17.5069 z"
     id="path40" />
  <path
     style="fill:#73c6e5"
     d="m 338.17954,193.88209 c 1.45117,-0.20491 2.89082,-0.52508 4.31895,-0.84525 0.16124,0.87086 0.48373,2.62539 0.65648,3.49625 -0.62192,0.65315 -1.85427,1.97225 -2.46468,2.63821 -1.09413,-1.52401 -3.31695,-2.95838 -2.51075,-5.28921 z"
     id="path42" />
  <path
     style="fill:#9c2bbc"
     d="m 231.70303,321.0408 c -0.023,-3.12485 0.54131,-6.21129 1.17475,-9.2337 0.46069,25.44711 -0.0576,50.91984 0.28793,76.37976 0.87531,1.03735 1.76214,2.08751 2.63744,3.13766 -0.0345,13.25504 -0.023,26.52289 -0.0691,39.79073 -0.19579,3.53468 1.35903,6.69796 2.66047,9.7972 1.24386,11.71822 -0.26489,23.57732 0.79469,35.32116 0.94441,9.08002 0.65648,18.23688 0.85227,27.35532 1.0711,1.08858 2.1422,2.17716 3.22482,3.27854 0.18427,8.93915 -0.11517,17.8911 0.0345,26.83025 -0.20731,3.67555 2.34951,6.32656 4.00799,9.15686 0.21882,23.79503 0.14972,47.59007 0.0461,71.3851 -0.77165,5.46851 4.59537,8.68301 4.46868,13.94661 0.23034,11.14191 -0.13821,22.29664 0.27641,33.45136 0.74862,13.42153 0.4031,26.88147 0.55283,40.32861 -13.49816,-2.56136 -26.85811,-5.89112 -40.37931,-8.2988 0.023,-10.51439 0.0806,-21.04158 0.0806,-31.55596 2.31496,-0.61472 4.64144,-1.19103 6.96791,-1.76734 0.28793,-22.47593 0.27641,-44.95186 0.17276,-67.4278 0.26489,-19.81212 0.11517,-39.61143 0.27641,-59.41074 0.023,-5.635 2.05006,-10.96262 2.05006,-16.58481 0.0115,-13.48556 -0.20731,-26.95831 0.0806,-40.44387 1.75062,-2.40768 4.27288,-4.73852 4.06557,-8.15794 0.14973,-12.56347 0.28793,-25.13974 0.10366,-37.70321 0.13821,-3.381 0.77165,-6.69796 2.22282,-9.68195 0.42613,-15.95727 0.0115,-31.92735 0.20731,-47.88462 0.4722,-0.48666 1.43965,-1.48559 1.91185,-1.98505 0.32248,-0.3586 0.96745,-1.07578 1.28993,-1.43437 0.39158,-16.18779 0.0921,-32.4012 0,-48.589 z"
     id="path54" />
  <path
     style="fill:#cd1f90"
     d="m 115.66724,457.44603 c 0.20731,-17.05866 -0.0115,-34.13012 0.14972,-51.20159 0.80621,0.0128 2.43013,0.0384 3.23634,0.064 0.0806,23.03943 0,46.09167 0.0346,69.14391 l 2.1422,-0.16649 c 0.11517,-11.88471 -0.17276,-23.76942 0.23034,-35.64132 0.62193,11.88471 0.13821,23.80784 0.23035,35.70536 3.70853,0.0897 7.42859,0.15368 11.13713,0.3842 -6.7606,1.29349 -13.57878,0.25614 -20.35089,-0.26894 0.81772,-0.0128 2.46468,-0.0512 3.2824,-0.064 0,-5.98077 0.0461,-11.97435 -0.0921,-17.95513 z"
     id="path56" />
  <path
     style="fill:#d51189"
     d="m 135.53441,412.23803 c 0.57586,-0.0128 1.70455,-0.0512 2.28041,-0.064 0.1382,8.38846 -0.28793,16.77691 0.2073,25.15256 0.32249,0.32017 0.95593,0.9477 1.27841,1.25506 0.95593,13.15259 -0.51827,26.39482 0.85228,39.52179 3.81219,0.11526 7.62438,0.28175 11.42506,0.60192 0.0691,20.7214 0,41.45561 0.0345,62.17701 4.59536,-0.0512 9.20224,0.12807 13.77457,0.67876 0.10366,26.25394 -0.20731,52.49508 0.16124,78.74902 l -0.0691,0.70437 c 2.56834,0.0768 5.12515,0.1793 7.68197,0.30736 0.10366,21.45139 0.0576,42.91559 0.0345,64.37979 -25.7179,-5.17395 -51.42429,-10.33509 -77.211305,-15.07361 0.01152,-16.46954 -0.20731,-32.93909 0.115172,-49.39582 2.741093,-0.0512 5.482183,-0.0897 8.223283,-0.10246 0.0921,-19.4023 0,-38.81741 0.0345,-58.21971 0,-28.00847 0.0115,-56.01694 0,-84.02542 2.55682,-0.32017 5.12515,-0.62753 7.69349,-0.89647 0.10365,-0.64034 0.32248,-1.89541 0.42614,-2.52294 6.77211,0.52508 13.59029,1.56243 20.35089,0.26894 0.24186,-11.92313 -0.71407,-23.91029 0.59889,-35.76939 1.83124,12.11523 -0.31096,24.49941 1.26689,36.65306 0.74862,-4.00853 1.01352,-8.11951 0.86379,-12.21769 -0.11517,-17.39163 0.023,-34.77046 -0.023,-52.16209 z"
     id="path60" />
  <path
     style="fill:#158276"
     d="M 456.34375 603.84375 C 455.12005 620.02835 456.10254 636.31464 455.65625 652.53125 C 455.4115 659.55898 452.8725 666.2215 452.84375 673.28125 C 452.65659 684.23106 453.61275 695.27046 452.1875 706.15625 C 444.06788 726.5991 435.72463 746.92151 427.1875 767.15625 C 425.33035 771.28645 423.9554 775.82475 424.53125 780.53125 C 426.58995 803.9837 427.53225 827.54677 429.375 851.03125 C 428.9719 865.35885 424.57836 879.12974 422.75 893.28125 C 420.77767 880.9387 422.28375 868.4226 422.3125 856 C 420.87285 853.56671 419.45651 851.1208 418.03125 848.6875 C 409.2206 848.4954 400.43566 848.47632 391.625 848.8125 C 390.4013 851.11772 389.1756 853.46001 387.9375 855.78125 C 388.25422 868.04376 388.24012 880.29999 388.125 892.5625 C 408.78399 897.15694 429.42529 901.74328 450.15625 905.9375 C 450.46311 905.39317 450.67214 904.79219 450.875 904.15625 C 451.07742 903.53104 451.27149 902.91065 451.5 902.3125 C 451.61613 902.00434 451.72667 901.71525 451.875 901.4375 C 452.0194 901.16693 452.18471 900.91506 452.375 900.6875 C 452.75358 900.23151 453.24761 899.8836 453.90625 899.6875 C 459.12708 896.98055 464.22225 894.05417 469.3125 891.0625 C 473.28154 888.72963 477.22302 886.37124 481.1875 884.03125 C 484.20177 882.25231 487.23639 880.49016 490.28125 878.78125 C 490.8787 878.45308 491.51044 878.12821 492.15625 877.84375 C 492.80206 877.55929 493.45827 877.32599 494.125 877.1875 C 494.62438 877.08319 495.12727 877.0343 495.625 877.0625 C 495.94744 877.08099 496.27603 877.12993 496.59375 877.21875 C 496.60338 877.22144 496.61538 877.21599 496.625 877.21875 C 496.94274 877.31207 497.25268 877.44852 497.5625 877.625 C 497.57087 877.6297 497.58539 877.62024 497.59375 877.625 C 497.74576 877.71266 497.91297 877.82761 498.0625 877.9375 C 499.05587 884.10877 499.94586 890.32117 500.28125 896.59375 C 500.2818 896.60406 500.28071 896.61469 500.28125 896.625 C 500.33629 897.66012 500.3844 898.71233 500.40625 899.75 C 500.42785 900.79834 500.42245 901.85569 500.40625 902.90625 C 496.72975 903.0083 493.07039 902.97092 489.40625 902.8125 C 486.96349 902.70688 484.49986 902.54341 482.0625 902.34375 C 479.63362 902.14561 477.20389 901.89956 474.78125 901.625 C 474.771 901.62384 474.76025 901.62617 474.75 901.625 C 473.53355 901.48699 472.3397 901.34158 471.125 901.1875 C 471.20418 902.74032 471.26997 904.28692 471.34375 905.84375 C 471.41595 907.39546 471.49298 908.94718 471.59375 910.5 C 580.33051 934.78489 689.02694 959.49223 797.375 985.90625 C 860.7052 1001.3545 923.82079 1017.9314 986.90625 1034.5312 C 994.0901 1010.1353 993.80854 983.04094 985.15625 959.15625 C 983.12634 953.68135 979.95187 948.49025 979.9375 942.375 C 979.59199 932.44973 979.91083 922.51902 979.78125 912.59375 C 978.91746 918.61295 978.71806 924.72927 978.34375 930.8125 C 977.85428 937.48805 974.75745 943.40382 972.28125 949.375 C 971.84935 948.84671 970.96314 947.77829 970.53125 947.25 C 968.01186 948.0024 965.53624 948.7476 963.03125 949.5 C 962.58496 948.5555 961.6819 946.66325 961.25 945.71875 C 957.37735 945.01437 953.4808 944.46501 949.59375 943.96875 C 948.29806 945.5856 947.01689 947.21089 945.75 948.84375 C 943.56174 946.77866 941.39263 944.73581 939.21875 942.71875 C 939.30512 944.1275 939.493 946.96625 939.59375 948.375 C 934.98686 947.92676 930.48606 946.53098 926.84375 943.28125 C 924.90022 943.20116 922.96038 943.18825 921.03125 943.15625 C 920.87289 944.3729 920.54776 946.78335 920.375 948 C 918.66183 948.14408 916.96565 948.30866 915.28125 948.46875 C 915.20927 942.44955 915.1559 936.4567 914.96875 930.4375 C 914.04738 929.42897 913.12573 928.41402 912.21875 927.4375 C 913.2121 934.60931 913.625 941.87315 913.625 949.125 C 906.78666 949.125 899.93209 949.109 893.09375 949.125 C 893.00738 947.6362 892.85325 944.64504 892.78125 943.15625 C 895.67495 942.83608 898.60876 942.57094 901.53125 942.21875 C 894.80809 941.43433 888.14381 940.21349 881.40625 939.78125 C 881.29107 940.38957 881.03581 941.61042 880.90625 942.21875 C 879.25065 942.17067 877.62435 942.1105 875.96875 942.0625 L 875.34375 939.90625 C 874.85428 939.82621 873.89574 939.67375 873.40625 939.59375 C 871.28996 940.28211 869.328 941.40001 867.3125 942.3125 C 869.90386 944.13747 872.53364 945.89224 875.125 947.78125 C 868.32986 949.206 861.44403 949.49396 854.5625 949.09375 C 853.66991 948.9977 851.89259 948.83 851 948.75 C 849.68991 947.66143 848.40875 946.5581 847.15625 945.4375 C 844.80963 946.57411 842.45478 947.61492 840.09375 948.6875 C 835.52607 949.07083 830.92042 949.24977 826.34375 949.21875 C 825.18641 949.20995 824.0319 949.19085 822.875 949.15625 C 821.73905 949.12316 820.6039 949.05778 819.46875 949 C 819.45838 948.99947 819.44787 949.00054 819.4375 949 C 818.30234 948.942 817.16523 948.86369 816.03125 948.78125 C 816.02092 948.78049 816.01033 948.78201 816 948.78125 C 814.85568 948.69783 813.73647 948.60806 812.59375 948.5 C 812.47862 946.29082 812.35077 944.13066 812.25 941.9375 C 815.81313 941.88147 819.37572 941.79904 822.9375 941.71875 C 831.84196 941.51802 840.75038 941.29511 849.65625 941.375 C 851.43742 941.39098 853.21843 941.42673 855 941.46875 C 858.22481 941.1966 861.3735 940.24406 864.46875 939.1875 C 861.90616 937.26649 858.97271 936.279 855.90625 936.375 C 840.34364 936.48706 824.75502 936.95831 809.25 935.4375 C 807.34966 933.03622 805.99481 929.55964 803.1875 928.375 C 800.38018 928.56711 797.70654 929.57535 795 930.34375 C 792.49501 928.15059 789.95935 925.97364 787.46875 923.8125 C 791.65814 923.55636 795.87558 923.38038 800.09375 923.15625 C 795.91876 922.65999 791.77365 922.16171 787.65625 921.28125 C 784.20109 920.52885 780.86421 921.78489 777.625 922.9375 C 779.61171 924.02607 781.59264 925.11416 783.59375 926.21875 C 781.08876 927.05119 778.63244 927.97851 776.15625 928.875 C 769.92256 928.42675 763.6905 927.73793 757.5 926.9375 C 756.70815 934.18935 756.52211 941.49661 756.78125 948.8125 C 759.70374 947.868 762.62806 946.98793 765.59375 946.1875 C 765.3922 946.9399 764.99719 948.4351 764.78125 949.1875 C 757.06472 949.39561 749.3489 949.18692 741.71875 947.90625 C 740.43746 933.46659 741.35745 918.92519 740.96875 904.4375 C 740.09056 904.54956 738.33254 904.79413 737.46875 904.90625 C 737.02246 897.71843 737.29391 890.48354 736.34375 883.34375 C 734.45781 876.04387 730.53099 869.66568 727.78125 862.75 C 722.44015 850.53553 716.97135 838.38904 711.875 826.0625 C 708.69336 818.41044 709.76164 809.72452 708.25 801.65625 C 705.60105 810.82911 706.14224 820.57023 705.0625 830.03125 C 704.29949 847.19236 703.6584 864.38691 702.21875 881.5 C 701.68609 885.14994 703.78646 888.27165 705.3125 891.28125 C 708.26377 896.43599 710.88406 901.82005 713.1875 907.375 C 701.22401 907.87126 689.2328 910.54381 677.3125 908.0625 C 689.43435 917.71563 703.5263 923.5407 716.46875 931.625 C 716.55514 933.56203 716.64925 935.48446 716.75 937.4375 C 716.18854 938.02981 715.03021 939.22019 714.46875 939.8125 C 714.18083 942.66201 713.94419 945.52473 713.65625 948.40625 C 704.05379 944.27606 693.76083 947.61629 684 944.71875 C 684.07199 943.83827 684.20925 942.11446 684.28125 941.25 C 693.00554 941.234 701.74694 941.21875 710.5 941.21875 C 710.60078 939.66592 710.69487 938.13058 710.78125 936.59375 C 693.03036 936.36964 675.2702 936.98572 657.5625 935.625 C 655.79173 932.9996 654.01831 930.38986 652.21875 927.8125 C 649.22428 928.72499 646.21322 929.63324 643.21875 930.59375 C 642.68607 929.90539 641.60958 928.54812 641.0625 927.84375 C 639.29174 926.56307 637.52322 925.29593 635.78125 924.03125 C 640.04261 923.66306 644.33484 923.34989 648.625 923.09375 C 641.12441 922.77351 633.35204 919.22506 626.125 922.875 C 628.1549 924.02761 630.22255 925.28411 632.28125 926.46875 C 624.63671 929.35027 616.55535 928.79218 608.78125 927.03125 C 622.9618 917.76233 638.24466 910.77505 652.28125 901.25 C 638.40303 902.13046 624.5106 901.16565 610.71875 899.46875 C 603.18938 899.22861 595.71932 898.21732 588.21875 897.625 C 588.10357 899.6741 587.97575 901.73139 587.875 903.8125 C 586.33458 905.60545 584.80728 907.42503 583.28125 909.25 C 581.58246 909.60219 579.90315 909.94431 578.21875 910.3125 C 575.33945 899.89098 576.24513 888.9132 576.1875 878.1875 C 576.1875 870.74355 576.34901 863.28771 576.59375 855.84375 C 575.28366 853.50651 573.96879 851.14974 572.6875 848.8125 C 563.68969 848.39627 554.67091 848.36512 545.6875 848.125 C 548.26446 845.73972 550.85105 843.38296 553.5 841.09375 C 545.56753 844.13536 538.71825 838.00662 531.9375 834.46875 C 512.51663 823.95116 493.04589 813.56408 473.625 803.0625 C 467.99597 800.08493 462.43451 796.93569 456.90625 793.75 C 457.48211 789.37967 458.0997 785.02657 458.71875 780.65625 C 462.56262 778.25497 466.40368 775.77857 470.21875 773.28125 C 465.79902 753.07851 462.38145 732.65624 458.0625 712.4375 C 455.02486 693.67554 458.72931 674.57676 457.9375 655.71875 C 455.86441 638.4936 457.72581 621.10093 456.34375 603.84375 z M 452.5 710.96875 C 453.29181 726.43296 452.75738 741.92603 452.84375 757.40625 C 446.55249 757.43825 440.27688 757.439 434 757.375 C 439.09636 744.3761 443.87346 731.22532 448.25 717.90625 C 448.91224 715.04073 450.90199 713.17792 452.5 710.96875 z M 427.9375 774.6875 C 433.42256 776.78461 441.16881 775.79398 444.0625 782.4375 C 439.19649 782.70964 434.30351 782.77511 429.4375 783.03125 C 429.0056 790.21906 435.14593 792.78622 439.96875 795.1875 C 437.92445 810.90785 434.64827 826.36276 431.625 841.875 C 430.71803 834.57513 430.0309 827.27016 429.84375 819.90625 C 429.6422 804.81024 428.22542 789.78351 427.9375 774.6875 z M 443.65625 800.9375 C 444.40488 818.67491 444.05302 836.44931 444.125 854.21875 C 444.34095 864.72033 442.46349 875.06092 442.21875 885.5625 C 439.19549 885.67462 436.17951 885.79419 433.15625 885.90625 C 432.69556 879.07061 432.02211 872.22664 432.28125 865.375 C 432.85711 857.78697 434.83635 850.44472 436.03125 842.96875 C 438.7234 828.99332 440.66178 814.83288 443.65625 800.9375 z M 456.4375 801.1875 C 461.00119 803.41269 465.36364 806.05521 469.625 808.96875 C 490.90303 822.76807 512.34241 836.3158 533.75 849.875 C 520.15971 859.62418 505.02921 866.36913 490.90625 875.09375 C 477.9638 883.04997 464.71107 890.29541 451.4375 897.53125 C 451.16396 880.06599 450.77806 862.55825 451.65625 845.125 C 453.29745 830.47723 454.66673 815.80326 456.4375 801.1875 z M 710.71875 826.15625 C 716.33339 840.35579 722.29515 854.44905 727.21875 868.96875 C 721.22981 869.11282 715.23894 869.11057 709.25 869.0625 C 709.23563 857.1842 709.22375 845.28455 709.28125 833.40625 C 709.03651 830.79686 710.08531 828.55752 710.71875 826.15625 z M 541.0625 849.71875 C 540.06914 851.81586 539.07026 853.90289 538.0625 856 C 538.0625 871.27211 539.35642 886.5564 538.40625 901.8125 C 535.44057 901.60439 532.48254 901.33311 529.53125 901.125 C 528.88341 901.79736 527.6166 903.10889 526.96875 903.78125 C 523.0673 902.99684 519.16585 902.12816 515.25 901.34375 C 515.03405 898.49424 514.81461 895.66125 514.65625 892.84375 C 516.5278 888.6175 517.34833 884.00299 517.21875 879.3125 C 517.80901 878.86426 518.4266 878.44748 519.03125 878.03125 C 517.79316 876.44641 516.5843 874.83485 515.375 873.25 C 510.53778 873.12194 505.69783 872.97412 500.875 872.75 C 514.17737 864.87383 527.86091 857.78704 541.0625 849.71875 z M 345.03125 855.53125 C 346.21176 864.92824 346.1366 874.41397 345.90625 883.875 C 358.12889 886.1322 370.23418 889.16812 382.5 891.28125 C 383.04706 887.90345 383.57547 884.50279 384.09375 881.125 C 382.85565 881.02895 380.3775 880.81475 379.125 880.71875 C 379.11061 872.31429 379.24121 863.93494 379.6875 855.5625 C 368.12711 855.5145 356.57724 855.57925 345.03125 855.53125 z M 733.59375 886.15625 C 733.8241 892.81579 733.91574 899.46546 733.84375 906.125 C 732.20255 906.189 730.54991 906.26371 728.9375 906.34375 C 727.06596 900.5967 725.82025 894.64344 724.8125 888.65625 C 727.7062 887.71175 730.64246 886.89265 733.59375 886.15625 z M 592.375 901.5 C 607.86564 901.58 623.30993 903.98716 638.84375 903.21875 C 638.815 903.98716 638.7475 905.51284 638.71875 906.28125 C 627.95017 911.72414 617.93924 918.85514 607.15625 924.25 C 604.00342 925.9469 600.44322 925.97633 597.03125 926.3125 C 597.0745 921.31785 597.12986 916.3224 597.1875 911.34375 C 596.3813 911.21569 594.7581 910.94057 593.9375 910.8125 C 593.41923 907.69085 592.87887 904.58964 592.375 901.5 z "
     transform="scale(.8)"
     id="path62" />
  <g
     style="fill:#2e3192"
     id="g64">
    <path
       d="m 1502.7412,514.12893 1.647,0.0128 c 0.2188,30.28809 -0.1958,60.57617 0.1727,90.85144 6.3115,1.98506 11.0335,7.3383 14.1662,13.56241 9.8126,18.74915 13.8206,40.30299 17.6674,61.33176 l 0,40.91773 c -23.8176,0.40981 -47.5776,2.91995 -71.1878,6.31375 1.4051,-24.12801 4.6184,-48.15357 9.8932,-71.62843 3.3285,-13.11417 6.9449,-26.40763 13.5212,-38.0362 3.1557,-5.8399 7.8317,-10.79613 13.9013,-12.51224 0.334,-30.26247 -0.1497,-60.53775 0.2188,-90.81302 z"
       id="path66" />
    <path
       d="m 47.312658,518.73938 c 0.967444,-0.12807 2.913851,-0.38421 3.881296,-0.49947 -0.472205,47.99989 -0.0691,96.01258 -0.253378,144.02527 -9.006451,-1.8954 -18.082004,-3.41941 -27.169075,-4.82816 3.581849,-23.74381 6.576321,-47.97427 15.168152,-70.2581 1.992476,-5.51974 5.493705,-10.11738 7.912317,-15.36816 0.783169,-4.14941 0.357033,-8.42688 0.414619,-12.64032 -0.03455,-13.47275 -0.08062,-26.95831 0.04607,-40.43106 z"
       id="path68" />
  </g>
  <path
     style="fill:#10a032"
     d="m 1199.8273,570.18429 c 0.8178,-0.0384 2.4762,-0.10245 3.294,-0.12807 0.1151,14.04906 0.057,28.09812 0.034,42.14718 1.4742,0.69157 2.9484,1.39594 4.4457,2.11312 -1.4512,2.22839 -2.9024,4.46958 -4.319,6.73638 1.0711,0.0768 3.2248,0.23052 4.3074,0.30736 0.081,4.59765 0.1152,9.20809 0.1498,13.81854 0.8062,0.10246 2.4416,0.32017 3.2478,0.43543 -0.3225,4.22625 -0.668,8.45249 -0.9559,12.69154 -0.5759,0.49947 -1.7276,1.4984 -2.3035,1.98506 -0.012,3.9701 -0.023,7.94021 -0.023,11.91032 2.2343,0.0768 4.4687,0.0897 6.7261,0.1921 0.1266,2.58698 0.1727,5.17395 0.3224,7.78654 2.0386,-0.0128 4.1117,0.0256 6.1848,0.0384 0.8983,1.37032 1.7967,2.75346 2.718,4.12379 -0.5182,3.9573 -1.0135,7.9146 -1.2669,11.89751 -0.5413,5.0843 -1.1056,10.18141 -1.4511,15.30413 0.4837,0.47385 1.4396,1.40875 1.9118,1.8826 -0.9098,8.8623 -1.7506,17.75022 -2.8217,26.59972 0.7026,0.38421 2.1192,1.15261 2.8332,1.53682 -0.8292,8.96476 -1.716,17.92952 -2.7526,26.86866 0.7026,0.3714 2.1077,1.1142 2.8102,1.48559 -0.668,6.18569 -1.4396,12.37137 -1.9233,18.59548 -13.9819,3.47064 -27.8486,7.42794 -41.8305,10.91139 1.4627,-0.89648 2.8332,-1.98505 4.2959,-2.91995 -1.3475,-8.91353 -2.1767,-17.90391 -3.5818,-26.79183 0.691,-0.11526 2.0846,-0.35859 2.7756,-0.48665 -0.2073,-9.14406 -1.7852,-18.17285 -2.1192,-27.3041 0.6565,-0.53789 1.981,-1.61366 2.6375,-2.15154 -1.1402,-8.74705 -1.8428,-17.54532 -3.0866,-26.27956 0.5989,-0.44824 1.7966,-1.35752 2.3955,-1.80576 -0.8177,-6.83883 -1.6469,-13.69047 -1.7966,-20.59333 -0.2074,0.85806 -0.4031,1.72892 -0.5874,2.61259 -0.3801,-4.57203 -0.4722,-9.24651 1.2323,-13.52398 2.2459,-0.0128 4.4802,0.0128 6.7491,0 0.2534,-2.66382 0.5528,-5.28921 0.8638,-7.94022 2.0616,-0.0128 4.1577,0.0384 6.2538,0.0512 0,-4.02134 0.012,-8.02987 0.035,-12.0512 -0.7947,-0.78122 -1.5779,-1.54962 -2.338,-2.31803 -0.1037,-1.65208 -0.1958,-3.29135 -0.2764,-4.91781 -0.1037,-2.48452 -0.1382,-4.95624 -0.1843,-7.42795 0.691,-0.0897 2.0501,-0.28175 2.7296,-0.37139 0.012,-4.68729 0.1612,-9.36178 0.5758,-14.02345 1.3591,-0.0768 2.7411,-0.0897 4.1462,-0.0256 -1.2438,-2.4333 -2.9829,-4.58484 -4.4111,-6.91568 1.4167,-0.5635 2.8448,-1.12699 4.296,-1.67769 0.1036,-14.1259 -0.012,-28.2518 0.057,-42.3777 z"
     id="path70" />
  <path
     style="fill:#006cb7"
     d="m 1409.2676,578.291 c 0.023,-2.12593 1.002,-7.06936 3.1097,-3.36819 1.7276,10.51438 -1.9464,21.87401 2.2573,31.86332 0.4031,7.63285 -0.1151,15.31693 0.7947,22.92417 1.0251,9.36177 -0.2533,18.89003 1.5203,28.17496 1.4512,4.54641 3.3054,8.92634 4.9985,13.3703 1.3705,0.12807 2.7641,0.26894 4.1692,0.42262 0.1612,1.44717 0.3225,2.89434 0.5183,4.35431 1.1517,0.57631 2.3264,1.15262 3.5242,1.75454 0.035,7.03093 0.035,14.08748 0.023,21.13122 1.3244,0.30736 2.6489,0.62753 4.0079,0.9477 0.8523,10.47596 -2.0846,21.80998 2.5569,31.53034 -17.08,2.54855 -34.0334,6.032 -51.0327,9.09283 -0.069,-5.21237 -0.6105,-10.78333 2.1191,-15.35536 0.4607,-8.40126 0.1152,-16.81532 0.2534,-25.22939 1.1402,-0.32017 2.3034,-0.64034 3.4782,-0.9349 -0.023,-7.05654 -0.012,-14.10028 0.046,-21.15683 1.1632,-0.53789 2.338,-1.07577 3.5473,-1.60085 0.2649,-1.35752 0.5413,-2.70224 0.8407,-4.04695 1.4627,-0.44824 2.9484,-0.89648 4.4457,-1.3191 1.9233,-5.54534 4.5492,-10.91139 5.1136,-16.90498 0.7256,-8.00425 0.2418,-16.04692 0.668,-24.06397 0.9674,-5.60938 0.9559,-11.32121 0.8292,-17.00743 -0.2649,-4.84097 1.9464,-9.23371 2.1998,-13.99784 0.3225,-6.85163 -0.3685,-13.72889 0.011,-20.58052 z"
     id="path72" />
  <path
     style="fill:#e76e15"
     d="m 1076.9734,613.03584 c 0.6104,-0.71718 1.8082,-2.16434 2.4071,-2.89433 0.8638,10.20702 -0.3455,20.51649 0.691,30.6979 l 0.6219,2.17715 c 0.2764,2.18997 -1.3129,4.29028 -0.2879,6.41621 2.0731,3.2017 4.4687,6.26253 5.3325,10.20702 0.4376,0.48666 1.3014,1.44717 1.7275,1.92102 0,1.74172 0.012,3.48345 0.023,5.23798 0.4376,0.40982 1.3014,1.22945 1.7276,1.63927 0.011,1.98506 0.011,3.97011 0.046,5.96797 0.9329,0.81964 1.8773,1.63927 2.8217,2.48452 0,4.12379 -0.012,8.26039 -0.023,12.40979 0.691,0.29455 2.0616,0.90928 2.7526,1.21664 0,5.94236 0.012,11.88471 -0.034,17.82707 1.0595,0.57631 2.1306,1.15261 3.2248,1.72892 0.012,10.21982 0.034,20.42684 -0.012,30.63386 0.7025,0.29456 2.0961,0.87087 2.7986,1.16542 0.2304,12.11524 -0.4031,24.2817 0.2649,36.38412 2.3726,10.79613 1.1748,21.93805 1.4742,32.93909 -16.1471,4.68729 -32.2942,9.40019 -48.4068,14.26678 0.023,-14.08748 -0.023,-28.17496 0.012,-42.24964 0.2418,-0.3842 0.7371,-1.1398 0.9789,-1.5112 0.5068,-13.12697 0.069,-26.26675 0.2534,-39.39372 0.5874,-0.37139 1.7852,-1.11419 2.3841,-1.48559 l 0.8753,-0.5763 c 0.2994,-10.1686 -0.012,-20.35001 0.1267,-30.53141 0.668,-0.12807 2.027,-0.39701 2.7065,-0.53789 0.1037,-6.19849 0.092,-12.38417 0.069,-18.58266 1.0596,-0.47386 2.1192,-0.96051 3.2018,-1.42156 -0.046,-4.25186 -0.046,-8.49091 -0.046,-12.72996 0.5989,-0.46104 1.8197,-1.35752 2.4186,-1.80576 -0.058,-2.06189 -0.058,-4.09817 -0.081,-6.14726 0.5528,-0.46105 1.67,-1.37033 2.2228,-1.83137 0.012,-2.03629 0.046,-4.05976 0.092,-6.07043 0.5873,-0.33297 1.7736,-0.99893 2.361,-1.3319 -0.012,-1.38314 -0.023,-2.75347 -0.023,-4.11099 1.5548,-1.71611 3.0981,-3.43222 4.699,-5.10991 0,-0.5635 0.023,-1.7033 0.035,-2.2668 -0.2649,-0.65315 -0.7716,-1.95944 -1.0365,-2.61259 2.6144,-10.47596 0.2534,-21.477 1.6009,-32.11946 z"
     id="path74" />
  <path
     style="fill:#0f75bd"
     d="m 0,653.22358 c 7.889282,1.60085 15.859184,2.79189 23.771501,4.21344 9.087071,1.40875 18.162624,2.93276 27.169075,4.82816 15.041463,2.6382 30.059892,5.39167 45.043769,8.36284 25.787015,4.73852 51.493405,9.89966 77.211305,15.07361 13.02596,2.6382 26.05191,5.2764 39.07786,7.96583 13.5212,2.40768 26.88115,5.73744 40.37931,8.2988 8.05052,1.54963 16.0089,3.59871 24.07094,5.13553 9.77811,1.80576 19.46407,4.23905 29.27673,5.92955 1.49723,0.30736 2.99447,0.64034 4.4917,1.01174 16.52719,3.67555 33.05437,7.36391 49.63914,10.71929 5.87377,0.44824 11.97788,-0.12807 17.13759,3.64994 86.98941,19.42791 173.95579,39.176 260.63424,60.30722 50.66416,12.35856 101.14405,25.6136 151.61242,38.89425 27.84859,7.76092 55.75476,15.34254 83.44211,23.78223 16.59629,5.0843 33.33078,9.73316 49.66217,15.81639 -42.91309,14.22836 -85.66494,29.07144 -128.05975,45.11836 -38.55958,14.58695 -77.01552,29.67336 -114.41186,47.66691 l -27.76797,0 c -0.39159,-0.78121 -1.17476,-2.33084 -1.56634,-3.11205 -3.2824,-0.58912 -6.57632,-1.13981 -9.89328,-1.19103 -2.6835,-0.0384 -5.34398,0.0512 -8.00445,0.0768 -2.79868,-0.0128 -5.57433,-0.0512 -8.36149,0 -10.86072,-0.29456 -21.74447,-0.0256 -32.55912,1.10138 -0.64497,0.78122 -1.91186,2.34365 -2.55682,3.12486 l -459.98545,0 c -0.50676,-3.08644 0.81772,-7.5304 -2.10765,-9.40019 -3.98495,-1.84418 -8.41907,-1.20384 -12.62285,-1.16542 -3.15571,0.0384 -6.29991,-0.0512 -9.4441,0 -12.703476,-0.55069 -25.372396,1.03735 -38.075868,0.92209 -0.380068,3.21451 -0.840756,6.42901 -1.35903,9.64352 L 0,959.99767 0,653.22358 z"
     id="path76" />
  <path
     style="fill:#a01f62"
     d="m 1465.2067,727.11882 c 23.6102,-3.3938 47.3702,-5.90394 71.1878,-6.31375 l 0,92.04247 c -15.5022,0.20491 -30.7279,3.778 -46.0458,5.95516 -52.5184,10.06614 -104.3228,24.24327 -155.7356,39.75231 -76.5202,23.12908 -152.2804,49.43425 -226.8773,79.37654 5.0906,-13.76731 14.028,-25.54956 17.4486,-40.08528 -10.2388,7.92741 -18.1742,18.81319 -26.455,29.04582 4.9639,-12.98609 12.9798,-24.74274 15.0529,-38.93267 -5.0445,4.31589 -9.3634,9.52826 -13.9703,14.36923 4.699,-9.43861 9.398,-19.08213 11.5057,-29.71178 -10.8377,9.40019 -19.372,21.48981 -28.0214,33.23365 1.6585,-12.06401 3.651,-24.25608 2.8678,-36.49938 -6.8643,9.27212 -10.4691,20.88789 -14.0395,32.08103 -3.9504,-11.91032 -6.8182,-24.37134 -12.715,-35.35957 -1.1402,8.20916 -0.8753,16.52077 -0.7371,24.80677 -4.3765,-6.42901 -8.6379,-12.97329 -13.7285,-18.72354 0.4492,7.10777 1.7967,14.08748 2.9715,21.07999 -5.4592,-7.68408 -10.8953,-15.49623 -17.725,-21.75875 2.315,10.43754 6.8297,19.99141 10.9874,29.63493 -3.4897,-3.11205 -6.9103,-6.28814 -10.4461,-9.32335 0.7141,3.77801 1.7161,7.47917 2.9369,11.11631 -4.5608,-5.21237 -9.0986,-10.47597 -14.1546,-15.08641 1.6584,11.66699 7.6704,21.63068 11.9894,32.2091 -7.6244,-7.37672 -15.2718,-14.84308 -23.9213,-20.73421 4.0541,14.10028 13.0836,25.4343 18.6809,38.71495 3.1903,6.91568 4.8603,14.4845 6.4957,21.98928 l -352.61055,0 c 37.39634,-17.99355 75.85228,-33.07996 114.41186,-47.66691 42.39481,-16.04692 85.14666,-30.89 128.05975,-45.11836 3.69702,-1.19103 7.39404,-2.43329 11.07954,-3.72677 7.91232,-2.57417 15.82464,-5.18676 23.75999,-7.72251 32.12147,-10.47596 64.32351,-20.67017 96.66381,-30.30088 16.1126,-4.86659 32.2597,-9.57949 48.4068,-14.26678 25.4761,-7.58162 51.1019,-14.47168 76.6355,-21.77156 13.9819,-3.48345 27.8486,-7.44075 41.8305,-10.91139 18.9688,-4.81536 37.9031,-9.75878 56.964,-14.13871 19.752,-4.94342 39.6192,-9.38738 59.4864,-13.7545 16.0204,-3.7524 32.1905,-6.67235 48.2686,-10.13018 16.9993,-3.06083 33.9527,-6.54428 51.0327,-9.09283 9.4671,-1.52401 18.9458,-3.08644 28.459,-4.27747 z"
     id="path78" />
  <path
     style="fill:#3388a2"
     d="m 155.44765,723.62256 c 13.07202,0.30737 26.08646,-1.127 39.14696,-1.26787 4.3535,0.20491 9.53624,-2.03628 13.23326,1.38313 -2.5453,-0.0512 -5.0906,-0.0128 -7.64742,-0.0512 -2.11916,0 -4.24984,0.0256 -6.36901,0.11526 -4.57233,0.17929 -9.65141,0.33297 -12.80712,4.63606 4.10012,1.35752 8.31541,2.27961 12.57678,2.70223 0.44917,0.0512 1.34751,0.14088 1.79668,0.19211 -2.53378,0.46104 -5.10212,0.93489 -7.68197,0.74279 -11.1141,-0.7556 -22.26275,-0.74279 -33.39988,-0.72999 -2.56834,0 -5.0906,-0.65314 -7.5668,-1.3191 0.34551,-1.93382 -0.11517,-4.55922 1.77365,-5.63499 2.17675,-1.01174 4.64143,-0.61473 6.94487,-0.76841 z"
     id="path80" />
  <path
     style="fill:#5d9e84"
     d="m 181.00432,728.43792 c 3.15571,-4.30309 8.23479,-4.45677 12.80712,-4.63606 -1.00199,1.19103 -1.99247,2.40768 -2.98295,3.61152 0.92137,1.24225 1.83123,2.47171 2.75261,3.72677 -4.26137,-0.42262 -8.47666,-1.34471 -12.57678,-2.70223 z"
     id="path82" />
  <path
     style="fill:#88b464"
     d="m 193.81144,723.80186 c 2.11917,-0.0897 4.24985,-0.11526 6.36901,-0.11526 -0.77165,1.83137 -1.5433,3.68835 -2.31495,5.54534 2.78716,0.49947 5.57432,0.9477 8.373,1.33191 l 1.58937,0.58911 c -4.12315,0.78122 -8.3039,0.49947 -12.45009,0.1793 -0.44917,-0.0512 -1.34751,-0.14088 -1.79668,-0.19211 -0.92138,-1.25506 -1.83124,-2.48452 -2.75261,-3.72677 0.99048,-1.20384 1.98096,-2.42049 2.98295,-3.61152 z"
     id="path84" />
  <path
     style="fill:#cfd932"
     d="m 200.18045,723.6866 c 2.55682,0.0384 5.10212,0 7.64742,0.0512 0.334,0.48666 0.97897,1.47279 1.30145,1.95944 -0.0345,1.52401 -0.0806,3.06083 -0.14973,4.61045 -0.69103,0.064 -2.05006,0.1921 -2.74109,0.25614 -2.79868,-0.38421 -5.58584,-0.83244 -8.373,-1.33191 0.77165,-1.85699 1.5433,-3.71397 2.31495,-5.54534 z"
     id="path86" />
  <path
     style="fill:#62dbfe"
     d="m 1054.2384,743.05048 1.1287,-0.7428 c -0.1843,13.12697 0.2534,26.26675 -0.2534,39.39372 -2.0961,-7.40233 -1.2208,-15.18886 -1.359,-22.7961 -0.069,-5.28921 -0.1958,-10.60403 0.4837,-15.85482 z"
     id="path88" />
  <path
     style="fill:#3ab54a"
     d="m 1468.7194,757.44532 c 1.1172,-1.17822 2.2919,-2.31803 3.4437,-3.47064 -0.4031,5.23798 1.7506,12.37137 -3.0521,15.80359 -3.317,2.8303 -8.2118,1.22945 -10.354,-2.45891 -0.8177,-4.44396 -0.3224,-9.02879 -0.2418,-13.51117 1.3129,1.127 2.6374,2.27961 3.9849,3.44503 0.6104,-0.85806 1.8428,-2.58697 2.4647,-3.44503 1.2323,1.20384 2.4877,2.42049 3.7546,3.63713 z"
     id="path90" />
  <path
     style="fill:#39b74a"
     d="m 1455.4631,767.58831 c 5.5168,6.62111 6.5648,15.94446 9.709,23.97433 2.8678,-8.02987 4.319,-16.91779 9.352,-23.75662 0.2994,10.93701 -4.031,21.24648 -8.2694,30.86439 -3.4666,-0.81963 -4.4571,-4.86658 -5.6779,-8.01706 -2.5914,-7.38952 -5.0676,-15.03518 -5.1137,-23.06504 z"
     id="path92" />
  <path
     style="fill:#3489a1"
     d="m 56.837382,778.8839 c 7.371008,-2.43329 15.122084,-0.98612 22.66585,-1.47278 6.749079,0.24333 13.544227,-1.60085 20.212686,0.11526 -2.165234,1.37033 -4.180744,2.98399 -6.219288,4.58484 3.098126,1.21664 6.20777,2.40768 9.40955,3.18889 -8.154176,1.67769 -16.412008,-0.20491 -24.623772,0 -6.357494,-0.33298 -12.772574,0.35859 -19.107034,-0.49946 -2.476198,-0.57631 -1.900338,-3.85485 -2.337992,-5.91675 z"
     id="path94" />
  <path
     style="fill:#6da678"
     d="m 99.715918,777.52638 c 5.470672,-0.11526 10.998922,-1.38313 16.446562,-0.64034 0.41462,0.40982 1.25537,1.24226 1.66999,1.66489 -3.83522,-0.38421 -7.67045,0.11526 -11.36747,1.26787 0.0806,1.29349 0.16124,2.58697 0.25338,3.90607 3.6855,0.58912 7.41707,0.90929 11.13713,0.47386 -4.00799,3.84204 -10.12362,1.10138 -14.94933,1.10138 -3.20178,-0.78121 -6.311424,-1.97225 -9.40955,-3.18889 2.038544,-1.60085 4.054054,-3.21451 6.219288,-4.58484 z"
     id="path96" />
  <path
     style="fill:#ccd933"
     d="m 106.465,779.8188 c 3.69702,-1.15261 7.53225,-1.65208 11.36747,-1.26787 0.32248,0.0256 0.96745,0.064 1.28993,0.0897 0.023,1.35752 0.0576,4.09817 0.0806,5.45569 -0.334,0.0256 -1.01351,0.0768 -1.34751,0.10246 -3.72006,0.43543 -7.45163,0.11526 -11.13713,-0.47386 -0.0921,-1.3191 -0.17276,-2.61258 -0.25338,-3.90607 z"
     id="path98" />
  <path
     style="fill:#3ab54a"
     d="m 1255.2711,793.40682 c 2.5569,-2.15155 5.8277,-6.48025 9.2484,-3.67556 7.3479,6.22411 14.9378,13.3575 18.3008,23.23154 -1.9695,0.14087 -3.9043,0.29456 -5.8392,0.47385 3.363,6.30095 10.5382,8.73424 13.1987,15.53465 -2.4877,0.3714 -4.9639,0.74279 -7.4171,1.16542 2.004,6.13446 7.7971,8.87511 11.1256,13.90818 0.081,1.25507 0.1037,2.52294 0.058,3.80362 -7.6474,1.48559 -15.3524,-2.25399 -22.8616,0.20491 -0.1152,2.93276 -0.2419,5.85271 -0.334,8.79827 -5.321,1.17823 -10.9874,1.72892 -16.2854,0.3714 -2.1767,-2.27961 -1.4972,-6.35217 -2.05,-9.413 -7.0716,-1.95944 -14.2583,1.19103 -21.422,0.23052 -0.4492,-0.88366 -1.359,-2.66381 -1.8082,-3.54748 4.0771,-4.77694 9.3865,-8.24758 12.3349,-14.13871 -2.7872,-0.51227 -5.5398,-1.16542 -8.2578,-1.8826 3.8122,-5.82709 10.2157,-8.81107 13.4866,-15.11202 -1.336,-0.0768 -4.008,-0.24333 -5.344,-0.32017 1.6355,-8.52933 8.4882,-13.9338 13.8667,-19.63282 z"
     id="path100" />
  <path
     style="fill:#3e8e9a"
     d="m 270.57358,809.51777 c 15.01843,0.14087 29.99079,-1.20384 44.98618,-1.63927 1.94641,-0.16649 3.69702,0.70437 5.4246,1.54962 -3.08661,-0.064 -6.1617,-0.064 -9.23679,-0.12807 -4.13468,-0.15368 -8.08507,1.28068 -11.7821,3.17609 2.24586,1.56243 4.50323,3.12486 6.86426,4.48238 -13.62485,1.45998 -27.22667,-1.28068 -40.86303,-1.05016 -1.1402,-1.17822 -2.26889,-2.34364 -3.39757,-3.52187 2.40709,-1.7033 5.05605,-3.11205 8.00445,-2.86872 z"
     id="path102" />
  <path
     style="fill:#82b06a"
     d="m 299.96547,812.47614 c 3.69703,-1.89541 7.64742,-3.32977 11.7821,-3.17609 -0.19579,2.01067 -0.38007,4.04695 -0.55283,6.09604 3.13268,0.33298 6.27688,0.52508 9.43259,0.5635 -4.13467,2.68943 -9.25983,1.26787 -13.7976,0.99893 -2.36103,-1.35752 -4.6184,-2.91995 -6.86426,-4.48238 z"
     id="path104" />
  <path
     style="fill:#d1da31"
     d="m 311.74757,809.30005 c 3.07509,0.064 6.15018,0.064 9.23679,0.12807 0.21883,2.18997 0.5298,4.35431 0.96745,6.54428 l -1.32448,-0.0128 c -3.15571,-0.0384 -6.29991,-0.23052 -9.43259,-0.5635 0.17276,-2.04909 0.35704,-4.08537 0.55283,-6.09604 z"
     id="path106" />
  <path
     style="fill:#ffde15"
     d="m 1490.3487,818.8027 c 15.3179,-2.17716 30.5436,-5.75025 46.0458,-5.95516 l 0,23.33399 c -7.993,0 -15.9859,-0.0512 -23.9673,0.0256 0.1152,1.71611 0.2649,3.43222 0.4146,5.17395 7.8547,-0.0128 15.6979,0.10245 23.5527,-0.28175 l 0,20.7214 c -49.0518,0.0512 -98.092,-0.0768 -147.1438,0.0512 0.092,1.72892 0.2189,3.47064 0.3571,5.22517 33.5726,-0.064 67.1337,-0.0128 100.7064,-0.0256 15.3639,-0.23052 30.7394,0.46104 46.0803,-0.35859 l 0,27.16322 c -91.2393,0.0384 -182.4785,-0.0768 -273.7063,0.064 0.023,1.30629 0.092,3.90607 0.1267,5.21236 81.9679,0.0128 163.9474,0 245.9153,0 9.2137,-0.1921 18.462,0.44824 27.6643,-0.39701 l 0,34.55275 c -13.7976,-0.81964 -27.6643,0.44824 -41.485,-0.51227 -19.9247,0.40981 -39.8725,0.47385 -59.7973,0.26894 -11.5287,0.5635 -23.0459,-0.83244 -34.5746,-0.1793 -13.049,0.84525 -26.1095,-0.30736 -39.147,0.47386 -8.4651,0.1921 -16.9187,-0.94771 -25.3724,-0.1793 -28.793,-0.3714 -57.5744,0.15368 -86.3674,-0.10245 -10.4001,0.37139 -20.8001,-0.66596 -31.1886,0.20491 -15.9859,-0.81964 -31.9833,0.58911 -47.9576,-0.34579 -0.035,1.65208 -0.046,3.31696 -0.046,4.99465 121.9671,0.0897 243.9573,-0.0512 365.936,0.0384 l 0,18.97968 c -144.4833,-0.0128 -288.9666,-0.0128 -433.4383,0 0.8062,-6.55708 2.5453,-12.90925 4.7796,-19.0181 74.5969,-29.94229 150.3571,-56.24746 226.8773,-79.37654 51.4128,-15.50904 103.2172,-29.68617 155.7356,-39.75231 z"
     id="path108" />
  <path
     style="fill:#85b268"
     d="m 490.70182,822.45264 c 5.03302,0.58911 11.27534,-2.39487 15.36395,1.84418 -3.48971,-0.79402 -7.07156,-0.88367 -10.57279,-0.21772 0.18427,1.90821 0.39158,3.82923 0.58738,5.76306 -2.94841,-0.61472 -5.83922,-1.44717 -8.74156,-2.21557 1.11717,-1.72892 2.24585,-3.45784 3.36302,-5.17395 z"
     id="path110" />
  <path
     style="fill:#398b9e"
     d="m 449.00956,823.87419 c 12.31189,-1.58804 24.76198,-1.78014 37.15449,-1.42155 -2.16524,1.35752 -4.2153,2.90714 -6.27688,4.45676 2.56834,1.20384 5.13667,2.4333 7.78563,3.43223 -10.12362,1.5112 -20.28179,-0.94771 -30.45148,-0.28175 -3.50123,-0.15368 -9.83569,0.72998 -10.07755,-4.73852 0.46069,-0.3714 1.39358,-1.08858 1.86579,-1.44717 z"
     id="path112" />
  <path
     style="fill:#5f9e82"
     d="m 486.16405,822.45264 c 1.50875,-0.0897 3.0175,-0.0897 4.53777,0 -1.11717,1.71611 -2.24585,3.44503 -3.36302,5.17395 2.90234,0.7684 5.79315,1.60085 8.74156,2.21557 3.13267,0.11526 6.24232,-0.33298 9.35196,-0.74279 -1.1402,1.44717 -2.69502,2.25399 -4.4226,2.10031 -4.44564,-0.0128 -8.96038,0.0897 -13.33692,-0.85805 -2.64896,-0.99893 -5.21729,-2.22839 -7.78563,-3.43223 2.06158,-1.54962 4.11164,-3.09924 6.27688,-4.45676 z"
     id="path114" />
  <path
     style="fill:#d0da31"
     d="m 495.49298,824.0791 c 3.50123,-0.66595 7.08308,-0.5763 10.57279,0.21772 l 0.334,0.064 c -0.0691,1.52401 -0.13821,3.06083 -0.20731,4.61045 -0.18428,0.0384 -0.57586,0.10245 -0.76014,0.12807 -3.10964,0.40981 -6.21929,0.85805 -9.35196,0.74279 -0.1958,-1.93383 -0.40311,-3.85485 -0.58738,-5.76306 z"
     id="path116" />
  <path
     style="fill:#f6951c"
     d="m 1512.4272,836.20714 c 7.9814,-0.0768 15.9743,-0.0256 23.9673,-0.0256 l 0,4.91781 c -7.8548,0.3842 -15.698,0.26894 -23.5527,0.28175 -0.1497,-1.74173 -0.2994,-3.45784 -0.4146,-5.17395 z"
     id="path118" />
  <path
     style="fill:#93bb5c"
     d="m 184.18306,841.63722 c 6.4957,0.39702 13.41754,-1.85698 19.60228,1.127 -3.46668,-0.064 -6.97943,-0.28175 -10.41155,0.38421 -1.81972,0.28175 -3.10965,1.95944 -2.82172,4.04695 -0.78317,3.15047 2.05007,4.70009 3.73158,6.54427 -4.75661,0.3714 -9.45562,-1.127 -12.80713,-5.02027 1.91186,-2.39487 3.90433,-4.70009 5.94288,-6.94128 -0.80621,-0.0256 -2.43013,-0.10246 -3.23634,-0.14088 z"
     id="path120" />
  <path
     style="fill:#418f98"
     d="m 144.85182,844.6084 c 1.72758,-3.12486 5.47067,-2.77907 8.32694,-2.98398 7.84321,0.0768 15.68643,-0.47385 23.51812,0.0256 -3.17874,1.38314 -7.67045,2.4461 -8.09659,7.01813 1.88882,2.98398 5.14819,4.12379 8.09659,5.26359 -10.33093,0.80683 -20.63882,-0.42262 -30.95823,-0.61472 -0.85227,-2.75347 -2.26889,-5.87833 -0.88683,-8.70863 z"
     id="path122" />
  <path
     style="fill:#65a27e"
     d="m 176.69688,841.65003 c 2.4762,-0.32017 4.98695,-0.10245 7.48618,-0.0128 0.80621,0.0384 2.43013,0.11527 3.23634,0.14088 -2.03855,2.24119 -4.03102,4.54641 -5.94288,6.94128 3.35151,3.89327 8.05052,5.39167 12.80713,5.02027 3.23633,-0.21772 6.47266,-0.53789 9.67444,-1.10138 -3.40909,2.72784 -7.80866,1.83137 -11.7245,1.80575 -5.18274,-0.40981 -10.377,-0.0896 -15.53671,-0.51227 -2.9484,-1.1398 -6.20777,-2.27961 -8.09659,-5.26359 0.42614,-4.57203 4.91785,-5.63499 8.09659,-7.01813 z"
     id="path124" />
  <path
     style="fill:#d3dc2f"
     d="m 190.55207,847.19538 c -0.28793,-2.08751 1.002,-3.7652 2.82172,-4.04695 3.43212,-0.66596 6.94487,-0.44824 10.41155,-0.38421 3.0175,1.35752 1.46268,6.08323 2.01551,8.93915 -0.46069,0.23052 -1.38207,0.70437 -1.84276,0.9349 -3.20178,0.56349 -6.43811,0.88366 -9.67444,1.10138 -1.68151,-1.84418 -4.51475,-3.3938 -3.73158,-6.54427 z"
     id="path126" />
  <path
     style="fill:#f28915"
     d="m 1389.2507,861.87197 c 49.0518,-0.12807 98.092,0 147.1438,-0.0512 l 0,4.8922 c -15.3409,0.81963 -30.7164,0.12807 -46.0803,0.35859 -33.5727,0.0128 -67.1338,-0.0384 -100.7064,0.0256 -0.1382,-1.75453 -0.2649,-3.49625 -0.3571,-5.22517 z"
     id="path128" />
  <path
     style="fill:#3ab54a"
     d="m 1059.4096,866.0726 c 5.8968,10.98823 8.7646,23.44925 12.715,35.35957 3.5704,-11.19314 7.1752,-22.80891 14.0395,-32.08103 0.7832,12.2433 -1.2093,24.43537 -2.8678,36.49938 8.6494,-11.74384 17.1837,-23.83346 28.0214,-33.23365 -2.1077,10.62965 -6.8067,20.27317 -11.5057,29.71178 4.6069,-4.84097 8.9258,-10.05334 13.9703,-14.36923 -2.0731,14.18993 -10.089,25.94658 -15.0529,38.93267 8.2808,-10.23263 16.2162,-21.11841 26.455,-29.04582 -3.4206,14.53572 -12.358,26.31797 -17.4486,40.08528 -2.2343,6.10885 -3.9734,12.46102 -4.7796,19.0181 -0.1037,0.7556 -0.288,2.27961 -0.3916,3.04802 l -69.8058,0 c -1.6354,-7.50478 -3.3054,-15.0736 -6.4957,-21.98928 -5.5973,-13.28065 -14.6268,-24.61467 -18.6809,-38.71495 8.6495,5.89113 16.2969,13.35749 23.9213,20.73421 -4.319,-10.57842 -10.331,-20.54211 -11.9894,-32.2091 5.056,4.61044 9.5938,9.87404 14.1546,15.08641 -1.2208,-3.63714 -2.2228,-7.3383 -2.9369,-11.11631 3.5358,3.03521 6.9564,6.2113 10.4461,9.32335 -4.1577,-9.64352 -8.6724,-19.19739 -10.9874,-29.63493 6.8297,6.26252 12.2658,14.07467 17.725,21.75875 -1.1748,-6.99251 -2.5223,-13.97222 -2.9715,-21.07999 5.0906,5.75025 9.352,12.29453 13.7285,18.72354 -0.1382,-8.286 -0.4031,-16.59761 0.7371,-24.80677 z"
     id="path130" />
  <path
     style="fill:#3a8c9d"
     d="m 320.80009,874.39702 c 10.95286,-1.76734 22.12454,-1.13981 33.16953,-1.03735 -5.26336,0.55069 -10.99892,1.16542 -14.67291,5.95516 3.86978,5.23798 10.18121,5.2764 15.74401,5.94236 -11.40202,0.10245 -22.90771,0.67876 -34.22911,-1.02455 0.0115,-3.29135 0.0115,-6.56989 -0.0115,-9.83562 z"
     id="path132" />
  <path
     style="fill:#4f968e"
     d="m 353.96962,873.35967 c 5.41309,-0.58911 10.90679,-1.08858 16.29684,0.0512 -0.82924,0.0768 -2.4762,0.21771 -3.30543,0.29455 -1.60089,0.10246 -3.19027,0.21772 -4.77964,0.34579 -2.70654,0.39701 -5.70102,0.21771 -8.07356,1.88259 -1.002,1.53682 -1.86579,3.17609 -2.76413,4.80255 3.17875,2.53575 6.91032,3.98292 10.84921,3.84204 1.58937,0.0384 3.17874,0.10246 4.77963,0.16649 1.85427,0.0512 3.73158,0.16649 5.60888,0.21772 4.2153,0.16649 8.39604,-0.43543 12.54223,-1.15261 -1.16324,1.127 -2.40709,2.39487 -4.07709,2.30522 -8.67245,0.32017 -17.35642,-0.11526 -26.00584,-0.85805 -5.5628,-0.66596 -11.87423,-0.70438 -15.74401,-5.94236 3.67399,-4.78974 9.40955,-5.40447 14.67291,-5.95516 z"
     id="path134" />
  <path
     style="fill:#a3c251"
     d="m 370.26646,873.4109 c 4.90633,0.12806 11.01045,-2.02348 14.97236,2.12592 -4.19226,-0.47385 -8.45362,-1.47278 -12.66892,-0.66595 -2.26889,2.88153 -0.32248,6.81322 0.0115,10.09176 -1.8773,-0.0512 -3.75461,-0.16649 -5.60888,-0.21772 -0.023,-3.68836 -0.023,-7.37671 -0.0115,-11.03946 0.82923,-0.0768 2.47619,-0.21771 3.30543,-0.29455 z"
     id="path136" />
  <path
     style="fill:#65a27f"
     d="m 354.10783,875.93383 c 2.37254,-1.66488 5.36702,-1.48558 8.07356,-1.88259 -1.81972,3.4066 -1.81972,7.12058 0.0115,10.52718 -3.93889,0.14088 -7.67046,-1.30629 -10.84921,-3.84204 0.89834,-1.62646 1.76213,-3.26573 2.76413,-4.80255 z"
     id="path138" />
  <path
     style="fill:#7caf6d"
     d="m 362.18139,874.05124 c 1.58937,-0.12807 3.17875,-0.24333 4.77964,-0.34579 -0.0115,3.66275 -0.0115,7.3511 0.0115,11.03946 -1.60089,-0.064 -3.19026,-0.12806 -4.77963,-0.16649 -1.83124,-3.4066 -1.83124,-7.12058 -0.0115,-10.52718 z"
     id="path140" />
  <path
     style="fill:#d2dc2f"
     d="m 372.5699,874.87087 c 4.2153,-0.80683 8.47666,0.1921 12.66892,0.66595 l 0.35704,0.0512 c -0.0346,2.71504 -0.0806,5.43008 -0.16124,8.17074 l -0.31097,0.0512 c -4.14619,0.71718 -8.32693,1.3191 -12.54223,1.15261 -0.334,-3.27854 -2.28041,-7.21023 -0.0115,-10.09176 z"
     id="path142" />
  <path
     style="fill:#429097"
     d="m 517.49083,881.23585 c 3.6855,-0.84525 7.42859,-1.35752 11.19472,-1.20384 7.29039,0.16649 14.59229,-0.47385 21.88268,0.0384 -1.84275,1.22945 -3.60488,2.59978 -5.36702,3.9573 -0.0576,1.29349 -0.17275,3.86766 -0.23034,5.14834 3.12116,1.05015 6.29991,1.98505 9.57079,2.30522 3.15572,0.14087 6.31143,0.16649 9.46714,0.26894 0.52979,0.0128 1.57786,0.0384 2.10765,0.0512 3.91585,-0.0256 7.84321,-0.1793 11.75906,-0.40982 -5.19426,3.1889 -11.36748,1.21665 -16.98787,1.38314 -13.61333,-0.10246 -27.19211,-0.9349 -40.79392,-1.29349 -4.11164,-0.87086 -1.99248,-6.99251 -2.60289,-10.24544 z"
     id="path144" />
  <path
     style="fill:#63a180"
     d="m 550.56823,880.07043 c 1.8082,-0.21771 3.62792,-0.17929 5.45915,-0.17929 -2.52227,3.35538 -2.90233,7.58162 -1.48572,11.59015 -3.27088,-0.32017 -6.44963,-1.25507 -9.57079,-2.30522 0.0576,-1.28068 0.17276,-3.85485 0.23034,-5.14834 1.76214,-1.35752 3.52427,-2.72785 5.36702,-3.9573 z"
     id="path146" />
  <path
     style="fill:#82b269"
     d="m 556.02738,879.89114 c 2.62592,0.0896 5.25184,0.0768 7.88928,0.0512 -0.94441,2.254 -2.16523,4.44396 -2.51075,6.9541 0.58738,1.76733 1.61241,3.31696 2.60289,4.85377 -3.15571,-0.10245 -6.31142,-0.12807 -9.46714,-0.26894 -1.41661,-4.00853 -1.03655,-8.23477 1.48572,-11.59015 z"
     id="path148" />
  <path
     style="fill:#adc84a"
     d="m 563.91666,879.94236 c 0.82924,-0.0256 2.49924,-0.064 3.32847,-0.0768 -1.70454,3.72678 -1.76213,7.88899 -1.12868,11.93594 -0.52979,-0.0128 -1.57786,-0.0384 -2.10765,-0.0512 -0.99048,-1.53681 -2.01551,-3.08644 -2.60289,-4.85377 0.34552,-2.51014 1.56634,-4.7001 2.51075,-6.9541 z"
     id="path150" />
  <path
     style="fill:#d3dc2f"
     d="m 567.24513,879.86552 c 3.90434,-0.0256 7.8317,0.29456 11.58631,1.60085 -0.0115,3.26574 1.17475,7.17181 -0.95593,9.92527 -3.91585,0.23052 -7.84321,0.38421 -11.75906,0.40982 -0.63345,-4.04695 -0.57586,-8.20916 1.12868,-11.93594 z"
     id="path152" />
  <path
     style="fill:#3d8d9b"
     d="m 32.570642,884.69369 c 1.72758,-2.80469 5.148188,-1.92102 7.739558,-2.21558 10.204239,0.25614 20.408478,-0.90928 30.589683,0 l -1.474201,0.11526 c -3.973434,0.85806 -11.966371,0.46105 -11.171684,7.08216 1.842752,3.3938 5.804668,3.75239 8.960381,4.55922 -11.114098,0.5635 -22.25123,-0.23052 -33.365328,-0.29455 -1.669994,-2.6254 -3.109644,-6.26253 -1.278409,-9.24651 z"
     id="path154" />
  <path
     style="fill:#71a875"
     d="m 70.899883,882.47811 c 6.726045,0.064 13.406021,-1.11419 20.120549,-0.90928 2.372543,-0.0768 4.514742,1.07577 6.484183,2.40768 -4.560811,-0.49947 -9.156174,-0.94771 -13.751537,-0.65315 -1.72758,0.0768 -3.432125,0.29455 -5.148188,0.46104 -0.691032,3.34258 -0.483722,6.7748 0.333999,10.07895 -3.892814,-0.51227 -7.785627,-1.06296 -11.678441,-1.56242 0.04607,-3.39381 0.57586,-6.7748 2.165234,-9.70756 l 1.474201,-0.11526 z"
     id="path156" />
  <path
     style="fill:#569a89"
     d="m 58.253998,889.67553 c -0.794687,-6.62111 7.19825,-6.2241 11.171684,-7.08216 -1.589374,2.93276 -2.119165,6.31375 -2.165234,9.70756 3.892814,0.49946 7.785627,1.05015 11.678441,1.56242 0.829238,0.0897 2.499232,0.26895 3.339988,0.3714 -4.998465,0.64034 -10.066033,0.66596 -15.064498,0 -3.155713,-0.80683 -7.117629,-1.16542 -8.960381,-4.55922 z"
     id="path158" />
  <path
     style="fill:#a4c350"
     d="m 78.60489,883.7844 c 1.716063,-0.16649 3.420608,-0.3842 5.148188,-0.46104 -0.103654,3.17608 -0.195792,6.36498 -0.276412,9.55387 4.6875,0.16649 9.375,-0.0256 14.050984,-0.39701 -4.60688,3.02241 -10.169688,1.95944 -15.248773,1.75453 -0.840756,-0.10245 -2.51075,-0.28175 -3.339988,-0.3714 -0.817721,-3.30415 -1.025031,-6.73637 -0.333999,-10.07895 z"
     id="path160" />
  <path
     style="fill:#d3dc2f"
     d="m 83.753078,883.32336 c 4.595363,-0.29456 9.190726,0.15368 13.751537,0.65315 0.02303,2.8303 0,5.6606 0.02303,8.50371 -4.675984,0.3714 -9.363484,0.5635 -14.050984,0.39701 0.08062,-3.18889 0.172758,-6.37779 0.276412,-9.55387 z"
     id="path162" />
  <path
     style="fill:#3c8d9b"
     d="m 642.36031,892.03198 c 4.99847,-1.127 10.15817,-0.46104 15.22574,-0.69156 7.1637,0.064 14.36195,-0.99894 21.4911,0.25613 l -1.12869,0.10246 c -3.89281,0.34578 -7.69349,1.38313 -11.47113,2.39487 -0.32248,0.79402 -0.95593,2.39487 -1.27841,3.2017 0.31096,0.80683 0.93289,2.43329 1.24386,3.24012 3.63943,1.10138 7.31342,2.10031 11.06803,2.58697 l -0.74862,0.12807 c -9.42107,1.62646 -18.92276,-0.51227 -28.3899,-0.0384 -2.71806,-0.47385 -6.8988,0.90928 -8.22328,-2.6382 -0.43765,-2.93276 -1.22082,-7.5304 2.2113,-8.54214 z"
     id="path164" />
  <path
     style="fill:#8db761"
     d="m 679.07715,891.59655 c 7.42859,-0.0384 14.88022,-1.11419 22.2973,-0.34578 1.57785,-0.0384 2.6835,1.24226 3.70853,2.42048 -4.71053,-0.7556 -9.61686,-2.10031 -14.30436,-0.47385 -0.41462,2.8303 -0.46069,5.71183 -0.63344,8.58056 5.00998,1.15261 10.08906,0.46104 15.01842,-0.84525 -1.24385,0.9477 -2.02702,2.57417 -3.70853,2.56136 -8.20025,1.39594 -16.44657,-1.16542 -24.69288,-0.24333 l 0.74862,-0.12807 c 1.5433,-0.25613 3.07509,-0.5635 4.62991,-0.85805 -0.96744,-3.61152 -0.87531,-7.36391 1.336,-10.39913 -1.84276,-0.0768 -3.69702,-0.16648 -5.52826,-0.16648 l 1.12869,-0.10246 z"
     id="path166" />
  <path
     style="fill:#5e9e83"
     d="m 666.47733,894.09388 c 3.77764,-1.01174 7.57832,-2.04909 11.47113,-2.39487 1.83124,0 3.6855,0.0896 5.52826,0.16648 -2.21131,3.03522 -2.30344,6.78761 -1.336,10.39913 -1.55482,0.29455 -3.08661,0.60192 -4.62991,0.85805 -3.75461,-0.48666 -7.4286,-1.48559 -11.06803,-2.58697 -0.31097,-0.80683 -0.9329,-2.43329 -1.24386,-3.24012 0.32248,-0.80683 0.95593,-2.40768 1.27841,-3.2017 z"
     id="path168" />
  <path
     style="fill:#d3dc2f"
     d="m 690.77862,893.1974 c 4.6875,-1.62646 9.59383,-0.28175 14.30436,0.47385 l 0.17276,0.0256 c -0.0115,2.39487 0,4.80255 0.023,7.21022 l -0.11518,0.0256 c -4.92936,1.30629 -10.00844,1.99786 -15.01842,0.84525 0.17275,-2.86873 0.21882,-5.75026 0.63344,-8.58056 z"
     id="path170" />
  <path
     style="fill:#ed7b0d"
     d="m 1262.6882,893.9402 c 91.2278,-0.14088 182.467,-0.0256 273.7063,-0.064 l 0,4.87939 c -9.2023,0.84525 -18.4506,0.20491 -27.6643,0.39701 -81.9679,0 -163.9474,0.0128 -245.9153,0 -0.034,-1.30629 -0.1036,-3.90607 -0.1267,-5.21236 z"
     id="path172" />
  <path
     style="fill:#7daf6d"
     d="m 229.75662,903.80143 c 4.83723,-1.01174 9.9739,-1.19103 14.71898,0.47385 -3.45516,-0.0384 -6.8988,0.23053 -10.29637,0.89648 0.023,0.84525 0.0576,2.51013 0.0691,3.34257 1.27841,1.08858 2.55682,2.16435 3.86978,3.24012 -2.41861,0.0128 -4.86026,0.20491 -7.25584,-0.1921 -2.2113,-1.25506 -4.34198,-2.65101 -6.47266,-4.05975 1.77365,-1.28068 3.53578,-2.56136 5.36701,-3.70117 z"
     id="path174" />
  <path
     style="fill:#3387a2"
     d="m 185.59968,904.10879 c 12.34644,0.14088 24.68136,-1.524 37.0278,-0.65314 -3.30544,1.03735 -6.4957,2.48452 -9.66293,3.98291 3.17874,1.54963 6.39204,3.07363 9.72051,4.18783 -12.26582,0.92209 -24.5086,-0.87087 -36.77442,-0.80683 -0.71406,-2.20277 -1.01351,-4.45677 -0.31096,-6.71077 z"
     id="path176" />
  <path
     style="fill:#549a8a"
     d="m 222.62748,903.45565 c 2.37254,-0.3714 4.76812,0.0768 7.12914,0.34578 -1.83123,1.13981 -3.59336,2.42049 -5.36701,3.70117 2.13068,1.40874 4.26136,2.80469 6.47266,4.05975 -2.71806,0.15368 -5.45915,0.42263 -8.17721,0.064 -3.32847,-1.1142 -6.54177,-2.6382 -9.72051,-4.18783 3.16723,-1.49839 6.35749,-2.94556 9.66293,-3.98291 z"
     id="path178" />
  <path
     style="fill:#d2db30"
     d="m 234.17923,905.17176 c 3.39757,-0.66595 6.84121,-0.9349 10.29637,-0.89648 0.31097,0.81964 0.9329,2.4461 1.24386,3.25293 -0.35703,0.74279 -1.05958,2.21558 -1.4051,2.95837 -2.06158,0.44824 -4.0886,1.16542 -6.19625,1.26787 -1.31296,-1.07577 -2.59137,-2.15154 -3.86978,-3.24012 -0.0115,-0.83244 -0.0461,-2.49732 -0.0691,-3.34257 z"
     id="path180" />
  <path
     style="fill:#7eaf6e"
     d="m 458.2118,905.88894 c 7.5668,0.69157 15.57126,-2.4461 22.80406,0.81964 -3.20178,0.0512 -6.38053,0.0128 -9.5708,-0.0128 0.0461,2.22838 0.10366,4.45676 0.17276,6.71076 -3.82371,-0.12807 -7.60135,-0.89647 -11.36747,-1.61366 -0.10366,-0.78121 -0.32249,-2.31803 -0.42614,-3.08643 1.52027,-0.5507 3.02902,-1.08858 4.56081,-1.60085 -2.05006,-0.43544 -4.12316,-0.85806 -6.17322,-1.21665 z"
     id="path182" />
  <path
     style="fill:#3b8c9d"
     d="m 426.81591,906.81103 c 10.44611,-0.49947 20.93827,-2.02347 31.39589,-0.92209 2.05006,0.35859 4.12316,0.78121 6.17322,1.21665 -1.53179,0.51227 -3.04054,1.05015 -4.56081,1.60085 0.10365,0.7684 0.32248,2.30522 0.42614,3.08643 3.76612,0.71719 7.54376,1.48559 11.36747,1.61366 2.94841,-0.0128 5.88529,-0.14087 8.8337,-0.17929 -4.2844,2.74065 -9.34045,1.16542 -13.9934,1.20384 -11.90879,-0.16649 -23.79454,-1.44717 -35.71484,-1.15262 -3.44364,0.26895 -6.74908,-0.84525 -9.46714,-3.2017 1.70455,-1.3191 3.23633,-3.44503 5.53977,-3.26573 z"
     id="path184" />
  <path
     style="fill:#d0db30"
     d="m 471.44506,906.69577 c 3.19027,0.0256 6.36902,0.064 9.5708,0.0128 0.24186,0.85805 0.7371,2.58697 0.99048,3.44502 -0.39159,0.76841 -1.16324,2.30523 -1.55482,3.07364 -2.94841,0.0384 -5.88529,0.16648 -8.8337,0.17929 -0.0691,-2.254 -0.12669,-4.48238 -0.17276,-6.71076 z"
     id="path186" />
  <path
     style="fill:#e56002"
     d="m 1170.5046,932.9369 c 15.9743,0.9349 31.9717,-0.47385 47.9576,0.34579 10.3885,-0.87087 20.7885,0.16648 31.1886,-0.20491 28.793,0.25613 57.5744,-0.26895 86.3674,0.10245 8.4537,-0.76841 16.9073,0.3714 25.3724,0.1793 13.0375,-0.78122 26.098,0.37139 39.147,-0.47386 11.5287,-0.65314 23.0459,0.7428 34.5746,0.1793 19.9248,0.20491 39.8726,0.14087 59.7973,-0.26894 13.8207,0.96051 27.6874,-0.30737 41.485,0.51227 l 0,4.66167 c -121.9787,-0.0896 -243.9689,0.0512 -365.936,-0.0384 0,-1.67769 0.012,-3.34257 0.046,-4.99465 z"
     id="path188" />
  <path
     style="fill:#449196"
     d="m 302.23436,949.09908 c 0.85228,-1.58804 2.68351,-1.25506 4.06557,-1.49839 12.01244,-1.06297 24.09399,-1.3063 36.14098,-0.92209 -2.76413,0.44824 -5.53978,1.01174 -8.11963,2.21557 -2.52227,0.70438 -1.99247,4.17502 -2.78716,6.32656 2.05006,1.17823 4.08861,2.40768 6.20777,3.47065 -11.71299,0.9477 -23.42598,-0.72999 -35.15049,-0.34579 -0.89835,-2.94556 -2.60289,-6.53147 -0.35704,-9.24651 z"
     id="path190" />
  <path
     style="fill:#70a776"
     d="m 342.44091,946.6786 c 2.25737,-0.23052 4.52626,-0.11526 6.78363,-0.064 -2.49923,1.3191 -5.98895,2.22839 -6.72605,5.66061 0.72559,2.30522 1.65848,4.53361 2.66048,6.72357 -2.4762,-0.0512 -4.96392,0.10245 -7.41708,-0.30736 -2.11916,-1.06297 -4.15771,-2.29242 -6.20777,-3.47065 0.79469,-2.15154 0.26489,-5.62218 2.78716,-6.32656 2.57985,-1.20383 5.3555,-1.76733 8.11963,-2.21557 z"
     id="path192" />
  <path
     style="fill:#9ebf54"
     d="m 349.22454,946.61456 c 3.89281,-0.34578 7.93535,-0.47385 11.63237,1.13981 -3.51275,0.15368 -7.07156,0.0384 -10.52672,0.83244 -3.91585,2.30523 -0.668,7.23584 0.42614,10.45035 -1.86579,-0.0512 -3.74309,-0.0768 -5.59736,-0.0384 -1.002,-2.18996 -1.93489,-4.41835 -2.66048,-6.72357 0.7371,-3.43222 4.22682,-4.34151 6.72605,-5.66061 z"
     id="path194" />
  <path
     style="fill:#d3dc2f"
     d="m 350.33019,948.58681 c 3.45516,-0.79402 7.01397,-0.67876 10.52672,-0.83244 l 0.90986,-0.0128 c 0.4031,0.72999 1.22082,2.18997 1.62392,2.91995 -0.33399,2.43329 0.40311,5.58377 -1.8773,7.10778 -3.48971,1.127 -7.1637,1.06296 -10.75706,1.26787 -1.09414,-3.21451 -4.34199,-8.14512 -0.42614,-10.45035 z"
     id="path196" />
  <path
     style="fill:#408f98"
     d="m 67.202862,950.35415 c 12.703472,0.11526 25.372392,-1.47278 38.075868,-0.92209 -4.42261,0.84525 -8.707008,2.31803 -12.979889,3.77801 0.541308,2.25399 1.105651,4.5336 1.750614,6.7876 l -28.205623,0 c 0.518274,-3.21451 0.978962,-6.42901 1.35903,-9.64352 z"
     id="path198" />
  <path
     style="fill:#619f81"
     d="m 105.27873,949.43206 c 3.14419,-0.0512 6.28839,0.0384 9.4441,0 -0.92138,0.21772 -2.77565,0.65315 -3.69702,0.87086 -2.31496,0.76841 -4.76812,1.43436 -6.63391,3.25293 0.17276,2.15154 0.48372,4.30308 0.87531,6.44182 l -11.217755,0 c -0.644963,-2.254 -1.209306,-4.53361 -1.750614,-6.7876 4.272881,-1.45998 8.557279,-2.93276 12.979889,-3.77801 z"
     id="path200" />
  <path
     style="fill:#a0c158"
     d="m 114.72283,949.43206 c 4.20378,-0.0384 8.6379,-0.67876 12.62285,1.16542 2.92537,1.86979 1.60089,6.31375 2.10765,9.40019 l -1.55482,0 c -0.0346,-2.62539 -0.023,-5.22517 -0.0461,-7.83776 -4.3535,-0.84525 -8.78763,-1.03735 -13.19871,-0.64034 0.0115,2.81749 0.023,5.6478 0.0346,8.4781 l -4.92936,0 c 0.36855,-3.24012 0.79468,-6.46743 1.26689,-9.69475 0.92137,-0.21771 2.77564,-0.65314 3.69702,-0.87086 z"
     id="path202" />
  <path
     style="fill:#82b16d"
     d="m 104.3919,953.55585 c 1.86579,-1.81857 4.31895,-2.48452 6.63391,-3.25293 -0.47221,3.22732 -0.89834,6.45463 -1.26689,9.69475 l -4.49171,0 c -0.39159,-2.13874 -0.70255,-4.29028 -0.87531,-6.44182 z"
     id="path204" />
  <path
     style="fill:#d3dc30"
     d="m 114.65373,951.51957 c 4.41108,-0.39701 8.84521,-0.20491 13.19871,0.64034 0.023,2.61259 0.0115,5.21237 0.0461,7.83776 l -13.21023,0 c -0.0115,-2.8303 -0.023,-5.66061 -0.0346,-8.4781 z"
     id="path206" />
  <path
     style="fill:#429097"
     d="m 591.9956,956.87281 c 10.81465,-1.127 21.6984,-1.39594 32.55912,-1.10138 -2.49923,1.3319 -4.90633,2.85591 -7.38252,4.22624 l -27.73342,0 c 0.64496,-0.78121 1.91185,-2.34364 2.55682,-3.12486 z"
     id="path208" />
  <path
     style="fill:#68a47d"
     d="m 624.55472,955.77143 c 2.78716,-0.0512 5.56281,-0.0128 8.36149,0 -1.84275,1.44716 -3.66247,2.90714 -5.57433,4.22624 l -10.16968,0 c 2.47619,-1.37033 4.88329,-2.89434 7.38252,-4.22624 z"
     id="path210" />
  <path
     style="fill:#90ba5f"
     d="m 632.91621,955.77143 c 2.66047,-0.0256 5.32095,-0.11527 8.00445,-0.0768 -1.71606,1.45997 -3.42061,2.91995 -5.18274,4.30308 l -8.39604,0 c 1.91186,-1.3191 3.73158,-2.77908 5.57433,-4.22624 z"
     id="path212" />
  <path
     style="fill:#d3dc30"
     d="m 640.92066,955.69459 c 3.31696,0.0512 6.61088,0.60191 9.89328,1.19103 0.39158,0.78121 1.17475,2.33084 1.56634,3.11205 l -16.64236,0 c 1.76213,-1.38313 3.46668,-2.84311 5.18274,-4.30308 z"
     id="path214" />
  <path
     style="fill:#e56202"
     d="m 1102.9562,956.94965 c 144.4717,-0.0128 288.955,-0.0128 433.4383,0 l 0,3.04802 -433.8299,0 c 0.1036,-0.76841 0.2879,-2.29242 0.3916,-3.04802 z"
     id="path216" />
</svg>
