<svg width="1920" xmlns="http://www.w3.org/2000/svg" height="1200" viewBox="0 0 1536 960">
<rect width="1536" x="0" y="0" height="960" style="fill:#32aad8"/>
<path style="fill:#73c6e5" d="M338.0 194.0C339.458336264 193.626304516 340.90509564 193.313152258 342.340278127 193.0C342.502314373 193.851771794 342.826396914 195.567844602 343.0 196.419616397C342.375008793 197.058450133 341.13657312 198.348637044 340.523148753 199.0C339.423615647 197.682671335 337.189818769 196.279741004 338.0 194.0Z"/>
<path style="fill:#9c2bbc" d="M231.0 321.0C230.813501271 318.10635798 231.372510327 315.02117705 232.0 312.0C232.456362429 337.436729206 231.942941075 362.89906796 232.28522528 388.34860194C233.254422871 389.385528767 234.132922281 390.435260369 235.0 391.484981975C234.965824082 404.734614766 234.977216054 417.997052331 234.931549103 431.2594799C235.046218472 434.792717977 236.586433002 437.954707561 237.875647702 441.052683269C239.107823289 452.766122984 237.613245992 464.620385229 238.662872644 476.359434493C239.598411167 485.435750426 239.313185887 494.588875012 239.507136699 503.703595271C240.866511339 504.7917312 241.927549777 505.879867129 243.0 506.980797836C243.182539028 515.916301235 242.885911869 524.864599411 243.034175918 533.800102809C242.824297146 537.47415342 245.357099217 540.124081977 247.0 542.953227396C247.216764477 566.738550544 247.148313579 590.523883689 247.045666952 614.309206838C245.987445551 619.775486035 251.304049524 622.988674724 251.178549609 628.250127512C251.40672587 639.387492325 251.041637908 650.537671908 251.452363104 661.687841495C252.193950813 675.103896369 251.851676515 688.558345574 252.0 702.0C238.62863729 699.439684871 225.39418628 696.1112832 212.0 693.70458538C212.022783946 683.194484579 212.07984287 672.671589 212.07984287 662.161498195C214.390758287 661.547028961 216.695384096 660.970954059 219.0 660.394879156C219.28522528 637.928117899 219.273813495 615.461356642 219.171137149 592.994585389C219.26240171 573.190547468 219.114088131 553.399314321 219.273813495 533.608081174C218.991981537 527.975379894 221.0 522.649933222 221.0 517.030036716C221.011391972 503.549977963 220.794637402 490.082723984 221.07984287 476.60266523C223.706795881 474.19596741 226.205362598 471.866078244 226.0 468.448053148C226.148323485 455.889708241 226.28522528 443.318568555 226.102686252 430.760223648C225.934972142 427.38060288 226.562461815 424.064995988 228.0 421.082223265C228.422127074 405.131462811 228.011391972 389.167897583 228.205362597 373.217137129C228.543026614 372.730675656 229.501388706 371.732153155 229.969153014 371.232896903C230.041637908 370.874443189 230.680549271 370.157555752 231.0 369.799112034C231.387901626 353.387992377 231.091234843 337.181196412 231.0 321.0Z"/>
<path style="fill:#cd1f90" d="M115.0 457.0C115.203735562 439.902341298 114.988698283 422.951175614 115.147138528 406.0C115.611770296 406.012709805 117.207690671 406.038129414 118.0 406.063549023C118.079210295 428.940631311 118.0 451.830433334 118.034003427 474.720235356L120.602149587 474.55491853C120.715333826 462.753954329 120.432368314 450.952990128 120.828518065 439.164745661C121.439724749 450.965709862 120.964345048 462.804823336 121.054896371 474.618507271C124.699483905 474.707575199 128.355402638 474.771104363 132.0 475.0C125.35596625 476.284375402 118.655345294 475.254335105 112.0 474.73295509C112.803620874 474.720245285 114.422183993 474.682115872 115.225804867 474.669406067C115.225804867 468.88998248 115.27111001 462.938636338 115.135292855 457.0Z"/>
<path style="fill:#d51189" d="M135.0 412.0C136.01621168 412.051288418 137.141812782 412.012822105 137.71609682 412.0C137.853918607 420.402946189 137.428954801 428.80588236 137.9228295 437.195996427C138.244436938 437.516719334 138.876143396 438.145333027 139.197740862 438.453223813C140.151054758 451.628527267 138.680889217 464.893625522 140.047688418 478.043264732C143.407964222 478.158723777 147.209721361 478.325501291 151.0 478.646224199C151.068910893 499.403408372 151.0 520.173424667 151.034405583 540.930608841C155.845910842 540.879320423 160.440183144 541.058900007 165.0 541.610541004C165.103376313 567.909819424 164.793257348 594.19627574 165.160798733 620.49555416L165.304647746 621.20114055C167.900364525 621.278073178 170.450177276 621.380750187 173.0 621.509031336C173.103376312 642.997466143 173.057442365 664.498733071 173.034405583 686.0C147.352482451 680.817115009 121.716443402 675.64706214 96.0 670.900359101C96.0114884731 654.402377544 95.7932573475 637.90438597 96.1148568076 621.419236535C98.5328131682 621.367948117 101.266401598 621.32938163 104.0 621.316599595C104.091847949 601.8807934 104.0 582.432155083 104.034405584 562.996348888C104.0 534.939510537 104.011468528 506.882672186 104.0 478.825823818C106.899863368 478.50510091 109.461164592 478.197210125 112.022475789 477.927805687C112.125842129 477.286359872 112.344073255 476.029122468 112.447449567 475.400508775C119.201026262 475.926495545 126.000546876 476.965636965 132.74264507 475.669913212C132.983843169 463.726192936 132.030529273 451.718332085 133.339896081 439.838752383C135.166124507 451.974904401 133.029787089 464.380470873 134.60331897 476.555109239C134.885145187 472.539656833 135.149320232 468.421577505 135.0 464.316320281C134.885145187 446.89465635 135.022937055 429.485814523 134.977062944 412.064150592Z"/>
<path style="fill:#158276" d="M456.25 603.75C455.195994547 619.9557398 456.179441207 636.263302425 455.73271665 652.501094036C455.487728335 659.538003429 452.946256086 666.209225797 452.917478092 673.278197014C452.730135852 684.242309301 453.687226874 695.296128608 452.260589094 706.196137274C444.133062941 726.665689063 435.781689036 747.014643537 427.236246349 767.275813499C425.377288023 771.411408232 424.000999221 775.955636013 424.577409932 780.668283491C426.638114508 804.151366321 427.581332035 827.74521364 429.425876339 851.260368308C429.022383836 865.606682555 424.624565803 879.395559645 422.794425511 893.565553889C420.820175034 881.20688245 422.327721519 868.674434326 422.356499513 856.235608328C420.915447712 853.635583066 419.497728608 851.186478298 418.071080818 848.75C409.251851801 848.557649086 400.458357819 848.538544164 391.639118793 848.875163271C390.414227264 851.346951252 389.187333788 853.692300675 387.948028238 856.016572604C388.265056631 868.295099497 388.250942902 880.567338188 388.135710808 892.845865082C408.81481667 897.44630619 429.476215307 902.038636719 450.227361246 906.238335073C450.534520039 905.693294087 450.743753574 905.091529107 450.9468111 904.454758462C451.149428199 903.828731833 451.343687167 903.2075315 451.572419669 902.608600216C451.688662746 902.300037707 451.79931038 902.010570107 451.94778481 901.732457319C452.092325414 901.461533909 452.257796378 901.209334925 452.448271665 900.981477693C452.827220292 900.524892094 453.321731334 900.176527665 453.981012658 899.980171526C459.206926232 897.269685795 464.307057449 894.339483453 469.402263875 891.34390583C473.375168569 889.007988711 477.320486426 886.646518258 481.28882668 884.303471839C484.306031704 882.522208245 487.343606543 880.757756582 490.391431353 879.046614459C490.989463096 878.718015814 491.621818228 878.392721479 492.268257059 878.107889927C492.914695891 877.823058374 493.571544849 877.589453646 494.238924051 877.450782754C494.738790302 877.346336508 495.242169971 877.29738265 495.740384615 877.325619483C496.063138578 877.362060062 496.39204853 877.411063986 496.710077897 877.5C496.719717274 877.502693514 496.731728958 877.497236395 496.741358325 877.5C497.059407712 877.186661261 497.369649503 877.323289487 497.679771178 877.5C497.688149328 877.504706139 497.702683466 877.495233782 497.711051607 877.5C497.86320962 877.976628701 498.030582434 878.091728845 498.180258033 878.20176238C498.773426835 884.381093093 499.664283427 890.601607529 500.0 896.88238057C500.000550535 896.892704036 499.999459474 896.903347921 500.0 896.913671387C499.929971879 897.950143428 499.978128724 899.00372779 500.0 900.042753161C500.021621032 901.092462469 500.016215774 902.151193545 500.0 903.203125753C496.846210321 903.305309047 493.183287167 903.267880223 489.515579357 903.1092533C487.070440818 903.003495342 484.604411957 902.839811823 482.164678676 902.639891034C479.733433651 903.021290003 477.301337799 902.774918621 474.876338851 902.5C474.86607887 902.498838484 474.855318403 902.501171528 474.845058423 902.5C473.627423953 901.782011961 472.43241149 901.636412032 471.216528724 901.482130777C471.295785823 903.03697902 471.361639883 904.585599139 471.435491723 906.14446262C471.507762025 907.698199414 471.58486703 909.25194622 471.685735151 910.806794463C580.528373204 935.1234046 689.330641986 959.863016527 797.784201558 986.311537665C861.176066796 1001.77996567 924.353113067 1018.37851788 987.5 1035.0C994.690844985 1010.57223487 994.409010828 983.44248509 985.748296008 959.526597681C983.716409464 954.044546544 980.538848452 948.846666097 980.52446446 942.723428556C980.178618033 932.78519449 980.497768491 922.841513318 980.368062317 912.903279252C979.503431237 918.930341336 979.303837079 925.054650275 978.92916261 931.145825993C978.439216008 937.83009538 975.339370594 943.753592367 972.860759494 949.732571729C972.428438948 949.203591694 971.541366037 948.133776158 971.109055501 947.604796123C968.587212347 948.358178884 966.109181811 949.10435224 963.601752678 949.857735C963.155028121 948.912001325 962.251088802 947.017279729 961.818768257 946.071546054C957.94234742 945.366246016 954.042003311 944.816168459 950.151168452 944.319260261C948.854216826 945.938222138 947.571799338 947.565635039 946.303675755 949.200627828C944.113285024 947.132840474 941.942062941 945.087322169 939.766066212 943.067627551C939.852520312 944.478217615 940.040583252 947.320675498 940.141431353 948.731265562C935.530055579 948.282440085 931.024873106 946.884836962 927.379016553 943.63086227C925.433594119 943.550667659 923.491865278 943.537740797 921.560856865 943.505698999C921.402342668 944.723938148 921.076896086 947.1375366 920.903967868 948.355775749C919.189129737 948.500043941 917.49129815 948.66483891 915.805258033 948.825138015C915.733207945 942.798075931 915.679785979 936.797398264 915.492453749 930.77033618C914.570186602 929.760488871 913.647639182 928.744213176 912.739776047 927.766417677C913.734093281 935.465350076 914.147395326 942.738677869 914.147395326 950.0C907.302396767 950.0 900.441152405 949.983979102 893.596153846 950.0C893.509699747 947.991500565 893.355419669 944.996433609 893.283349562 943.505698999C896.179867186 943.185110804 899.116533866 942.919624486 902.041869523 942.566974467C895.312163116 941.781529883 888.641394041 940.559095262 881.897273612 940.126290684C881.781981461 940.735405252 881.526472911 941.957849886 881.396786758 942.566974467C879.739574684 942.518831667 878.111691139 942.458583075 876.454479065 942.410520379L875.828870497 940.251453955C875.338923895 940.171309409 874.379450555 940.018650271 873.889483934 939.938545777C871.771133281 940.627804891 869.807262902 941.747165056 867.789800389 942.66084692C870.383683622 944.488200637 873.016024265 946.245262661 875.609907498 948.136740025C868.808151003 949.563350987 861.915616203 949.851687111 855.027385589 949.45095437C854.133926465 949.354778912 852.354875871 949.186859868 851.461416748 949.106755374C850.1500511 948.01676352 848.867643622 946.911992386 847.613924051 945.789928694C845.265019124 946.928023297 842.907876183 947.97019277 840.544547225 949.044173739C835.97241963 949.428004432 831.362285063 949.607178158 826.781158715 949.576117641C825.622691801 949.567306146 824.467057644 949.548181198 823.309031159 949.513536005C822.171975073 948.873320868 821.035719766 948.807855471 819.89946446 948.75C819.889084362 948.749469308 819.878564129 948.750540706 819.868184031 948.75C818.731918715 948.910959967 817.5937015 948.832547681 816.458617332 948.75C816.448277274 948.749239008 816.437676962 948.750760993 816.427336904 948.75C815.281902668 949.054517232 814.161602882 948.964629977 813.017770204 948.856428833C812.902528101 946.644363273 812.774553612 944.481381742 812.673685492 942.285357108C816.240284946 942.229253923 819.806343875 942.146716256 823.371592016 942.066321383C832.284722376 941.865329196 841.201816592 941.642128039 850.116358325 941.722122388C851.899262668 941.738123261 853.682006855 941.773919956 855.465311587 941.815994842C858.693261616 941.543489368 861.845017527 940.589705191 864.943281402 939.531765147C862.378196183 937.608245986 859.441889854 936.619466158 856.372444012 936.71559155C840.794680545 936.827797919 825.190881753 937.299663451 809.670764362 935.776867018C807.768573982 933.372450544 806.412404752 929.891329548 803.602361246 928.705142209C800.792307731 928.897503137 798.116064382 929.907060068 795.406888997 930.676463727C792.899459864 928.480439092 790.361330867 926.300645631 787.868305745 924.13668282C792.061774995 923.880208258 796.283321558 923.703998398 800.505598832 923.479575647C796.326543603 922.982667448 792.177397468 922.483736611 788.055988315 921.602126583C784.597463992 920.848743822 781.257334839 922.106424421 778.014970789 923.260539923C780.003615268 924.350531778 781.986474119 925.440043006 783.989532619 926.546075785C781.482103486 927.379603092 779.023391743 928.308134327 776.544790652 929.205795293C770.305030847 928.756959803 764.066902629 928.067240089 757.870374878 927.265764593C757.077753846 934.527086725 756.891532697 941.843891231 757.150925024 949.16933701C760.076260682 948.223603335 763.003428121 947.342383816 765.972005842 946.54090832C765.770259591 947.29429108 765.374864966 948.791444062 765.158714703 949.544826823C757.434671042 949.753208649 749.711338072 949.544246065 742.07375852 948.261903296C740.791220915 933.803382679 741.712106719 919.242989173 741.323028238 904.736375822C740.443983135 904.848582191 738.684251334 905.093471641 737.819620253 905.205738088C737.372895696 898.00852959 737.64461001 890.764189611 736.69352483 883.615073849C734.805748471 876.305658982 730.875104888 869.919137997 728.122687439 862.994424959C722.776386758 850.764000814 717.302261733 838.601645462 712.200949367 826.259004935C709.016211373 818.596950062 710.085531568 809.899684795 708.572419669 801.820876282C705.92089036 811.005717574 706.462607322 820.75956111 705.381815969 830.232938788C704.618063019 847.416464074 703.976348783 864.633473038 702.535296981 881.768915602C702.002118325 885.423623036 704.104533476 888.549410512 705.632059396 891.562941554C708.586203077 896.724414509 711.209044479 902.115506994 713.514727361 907.677712689C701.539588393 908.174620888 689.536702434 910.850661686 677.604795521 908.36611068C689.738448685 918.031849285 703.844120156 923.864527803 716.799172347 931.959387254C716.885646465 933.89894734 716.979848101 935.823888356 717.080696203 937.779479353C716.518689503 938.372563009 715.359231626 939.564497845 714.797224927 940.157581501C714.509024576 943.010813439 714.272154158 945.877272631 713.983933788 948.762556379C704.372123778 944.626971659 694.069141422 947.971564559 684.298807205 945.070239886C684.370867303 943.841650715 684.508260954 942.11558913 684.580331061 941.25C693.313115988 941.233979102 702.063027575 941.218709183 710.824610516 941.218709183C710.925488647 940.010810043 711.019670263 938.473464632 711.106134372 936.934627274C693.337960156 936.710224549 675.560506913 937.327109253 657.835564752 935.964611924C656.063070536 933.335782712 654.287923739 930.722633954 652.48661149 928.14190749C649.489225745 929.055589355 646.475233846 929.965025682 643.477848101 930.926790269C642.944649426 930.237531155 641.867111237 928.878488333 641.319498539 928.173198308C639.547014333 926.890845525 637.776772308 925.622050428 636.033106134 924.355718544C640.298615463 923.987047626 644.595024849 923.673468573 648.88936222 923.416994012C641.381468822 923.096335724 633.601530789 919.543250854 626.367453749 923.197958287C628.399330282 924.352073789 630.468993574 925.610214989 632.52969815 926.796402327C624.877714586 929.681686075 616.788485686 929.122867116 609.006815969 927.359637047C623.20117371 918.078610283 638.498914781 911.082203725 652.549172347 901.544712413C638.657438987 902.426322441 624.751481792 901.460252237 610.946202532 899.761135802C603.40950111 899.520682139 595.932167439 898.508071224 588.42429406 897.914977555C588.309001908 899.966754023 588.181057449 902.026731189 588.080209348 904.110559467C586.538289426 905.90585136 585.009502278 907.727808037 583.481986368 909.555161754C581.78154224 909.907811773 580.100597079 910.250378639 578.414556962 910.619049557C575.532453359 900.183917305 576.439015229 889.191798484 576.381329114 878.452088922C576.381329114 870.998415876 576.542996378 863.532837299 576.787974684 856.079154239C575.476609036 853.738861412 574.160458734 851.379013075 572.87792113 849.038720248C563.871349873 848.621946582 554.843788199 848.590755895 545.851630964 848.350322258C548.431100175 845.961926683 551.020208763 843.602088359 553.671738072 841.309888267C545.731544148 844.355471119 538.875594937 838.218725958 532.088242454 834.676234907C512.648462162 824.144907171 493.158763311 813.744259904 473.718962999 803.22896308C468.084451957 800.247503874 462.517576709 797.094150439 456.983933788 793.904299394C457.560354508 789.52826101 458.178545862 785.169475132 458.798198637 780.793446762C462.645811451 778.389030288 466.490611529 775.909395694 470.3093963 773.408813776C466.494053125 753.179685611 463.073155404 732.730740703 458.75 712.48559164C455.70940222 693.699125375 459.417459279 674.575399167 458.624878286 655.692757445C455.941079338 638.445108512 457.804291801 621.02972077 456.420886076 603.75ZM452.573393379 711.014923206C453.365974372 726.486253691 452.831023992 741.999560238 452.917478092 757.5C446.62009223 757.532041797 440.338371607 757.532792777 434.055379747 757.468709182C439.156702123 744.465908805 443.938453632 731.297951682 448.319255112 717.961484744C448.982139942 715.092221894 450.973827381 713.226978752 452.573393379 711.014923206ZM427.986976631 774.816900574C433.477377488 776.916749751 441.231170088 775.924825822 444.127677702 782.577023373C439.25692962 782.849518833 434.359185278 782.915074348 429.488437196 783.17154891C429.05611665 790.368747394 435.20242555 792.939260536 440.029941577 795.34367701C437.983651022 811.084560422 434.704280974 826.559657125 431.678067186 842.09215871C430.77021406 834.782753857 430.082414995 827.468242341 429.895082765 820.094713841C429.693336514 804.978985921 428.275176981 789.932628493 427.986976631 774.816900574ZM443.721032132 801.101187474C444.470391081 818.861765504 444.118188471 836.65938185 444.190238559 854.452031717C444.406398832 864.967328541 442.52711073 875.321425084 442.282132425 885.836721908C439.255928647 885.948988356 436.237011957 886.068714534 433.210808179 886.180920903C432.749669601 879.336352412 432.075563856 872.48344304 432.334956183 865.622853649C432.911376904 858.02491241 434.892544109 850.673072201 436.088607595 843.187337331C438.783378968 829.193653077 440.723646388 815.014717169 443.721032132 801.101187474ZM456.343841285 801.351514016C461.082861071 803.579610487 465.449558832 806.225582061 469.71506816 809.142927632C491.013816787 822.960271857 512.474072522 836.525697463 533.902507303 850.102608051C520.298984304 859.864522115 505.153751587 866.61828215 491.017039922 875.354297966C477.802128919 883.320910123 464.536494606 890.575813882 451.25 897.821105102C450.976193651 880.333032545 450.589917897 862.802424502 451.468962999 845.346403755C453.106892503 830.679501312 454.477505784 815.986364648 456.25 801.351514016ZM711.043573515 826.352877388C716.663680545 840.570964368 722.63124557 854.682632527 727.559639727 869.221297689C721.991474859 869.365555869 715.99477149 869.36330293 710.0 869.315170143C709.985616008 857.421355092 709.97372444 845.506162154 710.031280428 833.612347103C709.359695501 830.999548803 710.409516728 828.757283849 711.043573515 826.352877388ZM541.222127556 849.946153963C540.227800312 852.04600314 539.227947692 854.135759151 538.219206426 856.235608328C538.219206426 871.527666264 539.514386329 886.831920108 538.563291139 902.107947132C535.594723427 901.899565305 532.633813165 901.627930968 529.679649464 901.419549142C529.031178656 902.092787357 527.763135151 903.406030435 527.114654333 904.079268649C523.209405453 903.293834079 519.304156573 902.424019437 515.384493671 901.638584866C515.168333398 898.785352928 514.948679727 895.948662568 514.790165531 893.127482441C516.663537877 888.89571225 517.484866835 884.275174927 517.355160662 879.578558361C517.945995404 879.129732884 518.564186758 878.712408499 519.169425511 878.295634833C517.930129971 876.708724767 516.720092892 875.095059799 515.509615385 873.508139719C510.667685336 873.379912452 505.823022629 873.231899374 500.995496592 873.007486636C514.310819241 865.121029037 528.007683038 858.024982502 541.222127556 849.946153963ZM345.0 855.766246062C346.181659474 865.175510106 346.10642629 874.673630059 345.875851996 884.14701775C358.110393301 886.407166032 370.227470341 889.447051452 382.50523369 891.562941554C383.052826368 888.180729581 383.581750886 884.775627749 384.10053554 881.393425789C382.86122999 881.297250332 380.380666991 881.082770551 379.12694742 880.986645159C379.112543408 873.023670645 379.243270574 864.63337581 379.689995131 856.25C368.118348666 856.201937304 356.557232444 856.266771878 345.0 856.218709182ZM733.940847128 886.431247445C734.171421422 893.099485921 734.263150652 899.757841504 734.191090555 906.42607998C732.548292502 906.490163575 730.894043311 906.564971158 729.280063291 906.645115704C727.406700954 900.890559093 726.159777994 894.929523138 725.151046738 888.934512864C728.047564362 887.988779189 730.986683427 887.168609307 733.940847128 886.431247445ZM592.584591042 901.795038955C608.09031443 901.875143448 623.549642687 904.285447602 639.098588121 903.51603393C639.069810127 904.285447602 639.002244401 905.813120396 638.973466407 906.582534068C628.194400935 912.032533395 618.173723194 919.172847676 607.38023369 924.574754268C604.224333749 926.273870704 600.660667147 926.303339144 597.245374878 926.639948239C597.288666991 921.638774388 597.344080896 916.636799493 597.40177702 911.651646542C596.594792016 911.523419274 594.97001149 911.247939921 594.148612463 911.119702641C593.629837819 907.993975242 593.088951665 904.888714542 592.584591042 901.795038955Z" transform="scale(.8)"/>
<g style="fill:#2e3192">
<path d="M1502.0 514.0L1504.0 514.012800608C1504.21822278 544.302328294 1503.80471654 574.591845979 1504.1722444 604.868553057C1510.54522966 606.853707282 1515.25477259 612.207201384 1518.37920824 618.431606824C1528.16592169 637.181646791 1532.16334821 658.736509888 1536.0 679.766278061L1536.0 720.685950305C1512.24523303 721.095779757 1488.54791411 723.606038906 1465.0 727.0C1466.40139322 702.870844715 1469.60621623 678.844144292 1474.86710082 655.36817001C1478.18681993 642.253377519 1481.79367953 628.959286518 1488.35263065 617.330164544C1491.28274789 611.489987342 1495.94641217 606.533522084 1502.0 604.817330625C1502.33311888 574.553424155 1501.85069492 544.276707078 1502.21822279 514.0Z"/>
<path d="M47.0 518.0C48.1310369645 518.371334836 50.047458847 518.115239777 51.0 518.0C50.5350694921 565.991468164 50.931964511 613.995734082 50.7505253815 662.0C41.8828220801 660.104932558 32.9470813206 658.581189954 24.0 657.172687126C27.5266692954 633.433043104 30.4750103501 609.206834467 38.9344810255 586.926914284C40.896262198 581.408142752 44.3435534742 576.811309432 46.7249058645 571.561450709C47.3628723513 567.412768745 46.9433011335 563.13604925 47.0 558.923348521C46.9659822555 544.953580021 46.9206219808 531.470386135 47.0453602746 518.0Z"/>
</g>
<path style="fill:#10a032" d="M1199.0 570.0C1200.55112169 570.089519713 1202.19122337 570.025577061 1203.0 570.0C1203.11383001 584.025513788 1203.05637107 598.051027576 1203.03362485 612.076541364C1204.18353191 612.766952294 1205.64146601 613.47014177 1207.12224522 614.186119777C1205.68705735 616.410774998 1204.25186948 618.648208765 1202.85089985 620.91120961C1203.91018163 620.987880894 1206.04011832 621.141343259 1207.11077321 621.218054475C1207.19087948 625.807998818 1207.22470213 630.410711725 1207.25892036 635.013434615C1208.05622498 635.115722892 1209.67358044 635.33306801 1210.47088506 635.448134834C1210.15194343 639.667301643 1209.81025558 643.886458469 1209.52553219 648.118403825C1208.70853816 648.617036714 1207.56954569 649.614292508 1207.0 650.100136866C1206.98813241 654.063582982 1206.97725378 658.027039081 1206.97725378 661.990495181C1209.4343495 662.067166464 1211.64409576 662.080044843 1213.87658825 662.182273221C1214.00179138 664.764917445 1214.04738272 667.347551686 1214.19543098 669.955762987C1216.21153764 669.94298444 1218.26176364 669.981320082 1220.31198964 669.994098629C1221.20037805 671.362121974 1222.08886536 672.742943832 1223.0 674.11097716C1222.48751767 678.061644729 1221.99768267 682.012312298 1221.74707862 685.988546944C1221.21175117 691.064325662 1220.65367749 696.15289291 1220.31198964 701.267027236C1220.79035263 701.740083064 1221.7357055 702.673416173 1222.20269538 703.146472C1221.30293386 711.993918794 1220.47141101 720.866942648 1219.41212922 729.701610894C1220.10697693 730.085176958 1221.50794657 730.85228912 1222.21406849 731.235855185C1221.39401765 740.185590255 1220.51700235 749.135325326 1219.4918399 758.059483335C1220.18668761 758.430260869 1221.57628414 759.171815937 1222.27103295 759.542583487C1221.61040348 765.717906277 1220.84731709 771.893219083 1220.3689541 778.10689748C1206.54132643 781.57172069 1192.82762767 785.522388259 1179.0 789.0C1180.44656098 788.1050225 1181.80193927 787.018276942 1183.24850026 786.084943834C1181.91586819 777.186352902 1181.09581735 768.211040771 1179.70622082 759.338016916C1180.38959652 759.222950092 1181.76781994 758.980027913 1182.45119564 758.852182541C1182.24618293 749.723447978 1180.68569303 740.709790222 1180.35537829 731.593844188C1181.00463466 731.056855691 1182.3145205 729.982888681 1182.96377686 729.445910167C1181.83615751 720.713520215 1181.1413098 711.929996108 1179.91123353 703.210394686C1180.50352544 702.762905936 1181.68801036 701.855149889 1182.28030226 701.407661138C1181.47162453 694.580293011 1180.65157369 687.740136354 1180.50352544 680.848845541C1180.29841383 681.705467433 1180.10487313 682.574867873 1179.92260665 683.457056842C1179.54670056 678.93694654 1179.45561677 674.270300964 1181.1413098 670.0C1183.36242917 669.987221452 1185.57207654 670.012778547 1187.81594214 670.0C1188.06654619 667.296387581 1188.3626427 664.675397732 1188.67021121 662.028830822C1190.85405555 662.016052275 1192.92702778 662.067166464 1195.0 662.079945011C1195.0 658.065344773 1195.0118676 654.063533066 1195.03461382 650.048942811C1194.10369087 649.269032135 1193.32913247 648.501919973 1192.5774192 647.734797828C1192.4748634 646.085486712 1192.3837796 644.448964127 1192.30406892 642.825230073C1192.20151312 640.344874126 1192.16739378 637.877296726 1192.12180244 635.40972931C1192.80517814 635.320179647 1194.14928221 635.128451523 1194.8212848 635.038961759C1194.8331524 630.359527653 1194.98070617 625.692872094 1195.39073159 621.039015049C1196.73483566 620.962343766 1198.10158707 620.949465386 1199.49118359 621.013457955C1198.26110733 618.584236163 1196.54119606 616.436302142 1195.12875442 614.109368628C1196.15246938 613.546813053 1197.56481213 612.984267462 1199.0 612.434490435C1199.10245691 598.332265431 1198.98813241 584.230040426 1199.05637108 570.127815422Z"/>
<path style="fill:#006cb7" d="M1410.0 578.0C1409.5605935 576.245514018 1410.53896619 571.28913503 1412.64531565 575.0C1414.37180866 585.541921723 1410.70016284 596.931307523 1414.90116925 606.94678386C1415.30401096 614.599627605 1414.786143 622.303835545 1415.69536003 629.931002207C1416.71980319 639.317294744 1415.44222234 648.870513391 1417.21468588 658.179764651C1418.664956 662.738083672 1420.51796789 667.129486609 1422.20998301 671.585087268C1423.57960484 671.713492739 1424.97231187 671.854731739 1426.37651153 672.008814293C1426.53760824 673.459775059 1426.69880488 674.910735825 1426.89447942 676.37453012C1427.62902021 676.952349726 1428.8029675 677.530169332 1430.0 678.133666022C1430.03497757 685.183013078 1430.03497757 692.258047244 1430.02298526 699.320237855C1431.76295787 699.628402964 1433.08660917 699.949411628 1434.44473837 700.270420293C1435.29649225 710.773821377 1432.36147411 722.137530093 1437.0 731.883351933C1419.93094428 734.438577691 1402.98840743 737.931152358 1386.0 741.0C1385.93104421 735.773976541 1385.38989119 730.18842378 1388.11774215 725.60441765C1388.57814695 717.181151105 1388.23286834 708.745051031 1388.37097978 700.308940931C1389.66349811 699.987932267 1390.82595277 699.666923603 1392.0 699.371592023C1391.97701474 692.296567883 1391.98800769 685.234377272 1392.04597053 678.159343105C1393.05537626 677.620044138 1394.22942349 677.080755197 1395.43794861 676.554299785C1395.70267887 675.193223851 1395.97890176 673.844981446 1396.27810992 672.496749067C1397.73987267 672.047334932 1399.22462068 671.597920797 1400.72096127 671.174193772C1402.64302888 665.61432812 1405.2672463 660.234222107 1405.83128465 654.224932294C1406.55641971 646.199715691 1406.07292971 638.135978449 1406.49885662 630.097928316C1407.46563674 624.473854916 1407.45414411 618.747063156 1407.32752529 613.045948478C1407.53687929 608.192297878 1409.74676237 603.788051386 1410.0 599.011442062C1410.32229335 591.764851919 1409.63173612 584.869577392 1410.01099295 578.0Z"/>
<path style="fill:#e76e15" d="M1077.0 613.0C1077.26354149 612.173907036 1078.45127544 610.728902647 1079.04514242 610.0C1079.90168323 620.19181618 1078.70254592 630.485929757 1079.73033541 640.652174085L1080.3470091 642.826081121C1080.62108629 645.012789061 1079.04514242 647.109970554 1080.06152855 649.232733885C1082.11720667 652.429664807 1084.49267458 655.485935562 1085.3492154 659.424550065C1085.72094004 659.910485163 1086.57748085 660.86956444 1087.0 661.342708619C1087.0 663.081834248 1087.01189916 664.820969862 1087.02280672 666.57288641C1087.51892709 666.982095964 1088.37546791 667.800505088 1088.79808622 668.209714643C1088.80899378 670.191817806 1088.80899378 672.173910984 1088.84369965 674.168795081C1090.12707305 674.98721419 1091.06353652 675.805623314 1092.0 676.649614275C1092.0 680.767261703 1091.98810084 684.89770005 1091.97719328 689.04091933C1091.95572523 689.335030584 1093.31480701 689.948844916 1094.0 690.255747089C1094.0 696.189255675 1094.01189916 702.122754275 1093.96628573 708.05626286C1095.8528967 708.63171442 1096.91499541 709.207155995 1098.0 709.782607555C1098.01189915 719.987204669 1098.03371427 730.17902085 1097.98810084 740.37083703C1098.19703017 740.664958269 1099.57891866 741.24040983 1100.27551501 741.534521084C1100.50397878 753.631714884 1099.87580257 765.78005239 1100.53818885 777.864445286C1102.89085005 788.64449396 1101.70311609 799.769817565 1102.0 810.754471016C1085.98859664 815.434779085 1069.97719329 820.140659007 1054.0 825.0C1054.02280671 810.933503941 1053.97719329 796.867007882 1054.01189915 782.813292756C1054.25166712 782.42966504 1054.74280473 781.67519054 1054.9825727 781.304343757C1055.48511366 768.196926975 1055.05099284 755.076719274 1055.23384318 741.969302491C1055.8163068 741.598465693 1057.00404075 740.856772128 1057.59790773 740.485925345L1058.0 739.91048377C1058.2968839 729.757030361 1057.98810084 719.590786033 1058.12563524 709.424551691C1058.9786311 709.296672457 1060.32621037 709.028133055 1061.0 708.887462902C1061.10282853 702.698205835 1061.09122685 696.521739686 1061.06842014 690.332482618C1062.87580258 689.859328454 1063.92649793 689.373403341 1065.0 688.913040096C1064.95438658 684.667513434 1064.95438658 680.434777692 1064.95438658 676.202041949C1065.0668088 675.741688689 1066.27734946 674.846544037 1066.87121644 674.398971711C1066.81370386 672.340152989 1066.81370386 670.306906121 1066.79089715 668.260868333C1067.33905154 667.800505088 1068.44686284 666.892579502 1068.99501723 666.432226242C1069.00691638 664.398969389 1069.04063066 662.378513439 1069.08624408 660.370838423C1069.66860854 660.038364397 1070.84493914 659.373396375 1071.42740276 659.040922349C1071.41550361 657.659842599 1071.40459605 656.291553767 1071.40459605 654.936055855C1072.94632985 653.222502079 1074.4766603 651.508948302 1076.0641067 649.833757298C1076.0641067 649.271096657 1076.08691341 648.13299444 1076.09881256 647.570333799C1075.83613872 646.918156696 1075.33369692 645.613812474 1075.07102308 644.961635371C1077.66345224 634.611261025 1075.32229356 623.626607573 1076.65846947 613.0Z"/>
<path style="fill:#0f75bd" d="M0.0 653.0C7.89253256048 654.602028874 15.8657183382 655.793945962 23.7812953896 657.216542799C32.872110466 658.626330209 41.9514027966 660.151462498 50.9615646557 662.04825828C66.0092250746 664.688401064 81.0338420029 667.443898733 96.0238926951 670.417256718C121.821532522 675.159266188 147.538514129 680.324206878 173.267010478 685.501967001C186.298337465 688.142109785 199.329654447 690.782252569 212.36097143 693.473663079C225.887742466 695.883116107 239.253197064 699.215328159 252.756918608 701.778574357C260.810755602 703.329345513 268.772414632 705.379934466 276.837776373 706.917886188C286.619915173 708.724975959 296.309866005 711.160057846 306.12656904 712.851802739C307.624415932 713.15938908 309.122272829 713.492614288 310.620119721 713.864287789C327.154119292 717.542544483 343.68810886 721.23362061 360.279712156 724.591471529C366.15590228 725.040041615 372.26252731 724.463307217 377.424363226 728.244099363C464.449614807 747.686316175 551.451826899 767.448948769 638.165990357 788.595729907C688.851025123 800.963390813 739.351713966 814.228191892 789.840878062 827.51862183C817.700942304 835.285257011 845.618610269 842.872460155 873.317368076 851.318365185C889.920496119 856.40640929 906.661881102 861.058692734 923.0 867.146402455C880.069228848 881.385240292 837.29976413 896.239250812 794.887486521 912.297987845C756.312019113 926.895679749 717.840234406 941.993199458 680.428486278 960.0L652.649075254 960.0C652.25732391 959.218214713 651.473831227 957.667443558 651.082089887 956.885658271C647.798337465 956.29610444 644.503060296 955.745008909 641.184733635 955.69375119C638.500127973 955.884715166 635.838551795 955.974381148 633.176985622 956.0C630.377152504 955.987190574 627.600358874 955.948762296 624.812050501 956.0C613.946855642 955.47583083 603.058621294 955.744988894 592.239515416 956.872798808C591.594279674 957.654634131 590.326867687 959.218214713 589.681641949 960.0L129.506667665 960.0C128.999698868 956.9112471 130.324724584 952.464014546 127.398149266 950.592847623C123.411557377 948.320740157 118.975610421 948.961551707 114.77009837 949.0C111.613088147 949.038428278 108.467592666 948.948762296 105.322107189 949.0C92.6133970734 948.875473871 79.9392571953 950.464683311 67.2305510809 950.349338433C66.8503264844 953.566255644 66.3894486707 956.783122818 65.8709611302 960.0L0.0 960.000040029L0.0 653.0Z"/>
<path style="fill:#a01f62" d="M1465.0 727.0C1488.43608296 723.91759883 1512.18924976 721.409480017 1536.0 721.0L1536.0 812.968356588C1520.50225832 813.173101593 1505.28093711 816.743314509 1489.96744243 818.91872144C1437.46414632 828.976756095 1385.67464488 843.142470545 1334.27663082 858.639022528C1257.77843745 881.749478788 1182.04002552 908.033467632 1107.46457903 937.951647835C1112.55371501 924.195423395 1121.48854468 912.422660567 1124.90816094 897.898644858C1114.67230554 905.819671637 1106.7391877 916.696686311 1098.4607692 926.921076906C1103.42324162 913.945443421 1111.43683631 902.19825998 1113.5093401 888.019755837C1108.46629086 892.332170644 1104.14863294 897.540343598 1099.54305785 902.377415606C1104.24070646 892.946405658 1108.93835506 883.310650706 1111.0454489 872.689559794C1100.21086574 882.082180678 1091.67902014 894.162066009 1083.03210764 905.896449765C1084.69013067 893.842153812 1086.68205764 881.659900975 1085.89908289 869.426459389C1079.03675701 878.691113396 1075.43299372 890.297530275 1071.86362054 901.481657459C1067.91435665 889.580927754 1065.0473814 877.129941478 1059.15227728 866.150559298C1058.01240519 874.35310921 1058.27722901 882.658026628 1058.41538926 890.937354667C1054.04014791 884.513521363 1049.77997346 877.974510875 1044.69083748 872.228891028C1045.13990829 879.330937788 1046.48702076 886.305027664 1047.6614829 893.291907233C1042.20385292 885.614014522 1036.7693163 877.808154935 1029.94158047 871.550677571C1032.2559147 881.979813171 1036.7693163 891.525990311 1040.92582058 901.161745263C1037.43712419 898.052201113 1034.01750793 894.878668529 1030.4827248 891.845902507C1031.19661943 895.62087042 1032.19833126 899.319050213 1033.41878017 902.953261556C1028.85929182 897.745088602 1024.32279686 892.4857269 1019.26825093 887.878999267C1020.92617398 899.536594903 1026.93644498 909.492262052 1031.25420287 920.062164214C1023.63199559 912.691384014 1015.98679492 905.231035994 1007.33978245 899.344649584C1011.39271652 913.433575913 1020.41961971 924.75846966 1026.01530996 938.028425963C1029.20469246 944.938537396 1030.87421218 952.501262915 1032.50914185 960.0L680.0 960.0C717.385585093 942.020938566 755.830465453 926.946676277 794.378956007 912.371471818C836.761573578 896.33747294 879.501128466 881.50634472 922.401876983 867.289441521C926.097833748 866.099370549 929.793790513 864.858110828 933.478230591 863.565672349C941.388275067 860.993575094 949.298319543 858.383088774 957.231387396 855.849380583C989.343619502 845.381855919 1021.53639844 835.195854387 1053.86739761 825.57289912C1069.97536375 820.710227741 1086.11781996 816.00112261 1102.26027618 811.317606857C1127.72904944 803.742091645 1153.34747965 796.857579582 1178.87373638 789.56357751C1192.85161529 786.082932415 1206.71432733 782.128818868 1220.69220624 778.660973458C1239.65555096 773.849490829 1258.5844056 768.910051314 1277.63982382 764.533648073C1297.3861433 759.594208558 1317.24762964 755.153826874 1337.10911598 750.790223318C1353.12490863 747.040844784 1369.29035824 744.123245953 1385.36383429 740.668200229C1402.35824542 737.609834836 1419.30676975 734.129189741 1436.38185767 731.582691856C1446.01356193 729.751242889 1455.48953592 728.190070972 1465.0 727.0Z"/>
<path style="fill:#3388a2" d="M156.0 723.0C168.755324905 723.620553929 181.748732625 722.144922318 194.788125909 722.0C199.134590337 722.210804516 204.308954653 719.905143626 208.0 723.422917623C205.45881339 723.370244785 202.917626779 723.409749413 200.364938786 723.370244785C198.249203502 723.370244785 196.121966836 723.396581204 194.006221569 723.488820396C189.441280786 723.673267918 184.370408948 723.831368732 181.219798804 728.258242991C185.313292713 729.654813906 189.521770498 730.603429084 193.776253815 731.038206325C194.224697923 731.090879163 195.121586141 731.183138931 195.570030249 731.235842632C193.040345022 731.710145077 190.476155646 732.197626019 187.900474871 732.0C176.804336063 731.222664135 165.673703091 731.235842632 154.554571502 731.249010841C151.990382126 731.249010841 149.472198281 730.577082377 147.0 729.891965129C147.344951631 727.902516157 146.885016123 725.201592942 148.770783653 724.094876949C151.239585628 723.054032867 153.700282526 723.462463402 156.0 723.304362587Z"/>
<path style="fill:#5d9e84" d="M181.0 728.0C184.203236169 724.317620318 189.358809006 724.171024857 194.0 724.0C192.982919657 725.136124356 191.977522659 726.296687648 190.972125661 727.445031472C191.907371837 728.630014622 192.830934668 729.802797382 193.766190994 731.0C189.440643173 730.174521584 185.161869335 729.294939284 181.0 728.0Z"/>
<path style="fill:#88b464" d="M194.0 724.0C196.102306084 724.026744585 198.233063794 724.0 200.352301084 724.0C199.58062294 725.916245295 198.808944797 727.859287491 198.037266653 729.802340151C200.824528306 730.324958212 203.611789959 730.793961542 206.410572033 731.195977849L208.0 731.812390297C203.876699621 732.629816131 199.695797141 732.335008358 195.549455921 732.0C195.100269539 731.946427123 194.201896775 731.852590882 193.752710393 731.798986615C192.831296788 730.485760549 191.921403604 729.199320922 191.0 727.899498539C192.007457331 726.519264524 192.997973455 725.24622858 194.0 724.0Z"/>
<path style="fill:#cfd932" d="M200.0 724.0C202.757663919 724.039105747 205.243348171 724.000020357 207.729032424 724.052134211C208.055209512 724.547480461 208.685073092 725.551211603 209.0 726.046547675C208.966308055 727.597759279 208.921287805 729.162009524 208.85377696 730.739288233C208.178932192 730.80443055 206.851733249 730.934816969 206.17688848 731.0C203.443758867 730.608932349 200.721879433 730.152702025 198.0 729.644317133C198.492847009 727.754182268 199.246423505 725.864057581 200.0 724.0Z"/>
<path style="fill:#3ab54a" d="M1469.0 758.0C1470.613479 756.463516776 1471.8184849 755.321571338 1473.0 754.16680192C1472.58650049 759.414595293 1474.79576345 766.561349724 1469.86915936 770.0C1466.4665846 772.835602577 1461.44550444 771.231753379 1459.24803816 767.536483224C1458.40924245 763.084197449 1458.91732061 758.490777754 1459.0 754.0C1460.3467713 755.129111438 1461.70544186 756.283880857 1463.0877058 757.451484276C1463.71385341 756.591816697 1464.9780479 754.859667578 1465.6159922 754.0C1466.41262759 755.562151222 1467.70041545 756.78108062 1469.0 758.0Z"/>
<path style="fill:#39b74a" d="M1455.0 768.0C1460.49914485 774.603621055 1461.54379099 783.902344436 1464.67792876 791.911004404C1467.53655107 783.902344436 1468.98310687 775.037900914 1474.0 768.217134943C1474.29844184 779.125256016 1469.98190022 789.407494667 1465.75706416 799.0C1462.30155816 798.182534964 1461.314228 794.146274544 1460.09733487 791.004116195C1457.514228 783.634114812 1455.04595247 776.008649995 1455.0 768.0Z"/>
<path style="fill:#3489a1" d="M57.0 778.0C64.3600003195 776.025974174 72.0995010549 777.493508041 79.6320013819 777.0C86.3710014748 777.24675402 93.1560017694 775.376623624 99.8145022581 777.116881882C97.6525017649 778.506494494 95.6400016775 780.142861127 93.6045019885 781.766237503C96.698001324 782.999997465 99.8030014588 784.207797196 103.0 785.0C94.8580012441 786.701297631 86.6125012856 784.792206607 78.4130005302 785.0C72.065000654 784.662334469 65.6595007753 785.363635903 59.3345005008 784.493511844C56.8620003934 783.415588054 57.4370004184 780.090914046 57.0 778.0Z"/>
<path style="fill:#6da678" d="M99.0 778.0C104.517731521 777.499239964 109.964533673 776.293763898 115.331913454 777.0C115.740424847 777.389652095 116.568788056 778.181126375 116.977299449 778.582958069C113.198583843 778.217655665 109.419858384 778.692545938 105.777306674 779.788434135C105.856719192 781.018269399 105.936171121 782.248095155 106.02695362 783.502280109C109.658155055 784.062408561 113.334747739 784.366822477 117.0 783.952820692C113.051059819 787.605787687 107.025531552 785.0 102.27091886 785.0C99.1163107663 784.257234608 96.0524812307 783.124807614 93.0 781.968040437C94.8808510079 780.837143024 96.8666664477 779.302893844 99.0 778.0Z"/>
<path style="fill:#ccd933" d="M106.0 780.0C109.773076192 779.122446595 113.687184507 778.591834061 117.601282617 779.0C117.930394991 779.02719619 118.588629944 779.067990474 118.917742318 779.095292899C118.941215354 780.537455846 118.976526964 783.448988553 119.0 784.8911515C118.659130697 784.91834769 117.965645367 784.972740069 117.624776064 785.0C113.828206425 785.462579566 110.019890061 785.122446595 106.25859121 784.496594279C106.16459701 783.095246864 106.082278093 781.721116885 106.0 780.346976283Z"/>
<path style="fill:#3ab54a" d="M1255.0 794.0C1257.74851763 791.51290393 1261.03137836 787.215748896 1264.46469182 790.0C1271.83968642 796.178752424 1279.45757336 803.260158561 1282.83297406 813.062242487C1280.85621174 813.202085911 1278.91427738 813.354655911 1276.97224264 813.532639353C1280.34764334 819.787671813 1287.54930112 822.203229457 1290.21961143 828.954082153C1287.72273831 829.322775613 1285.23740758 829.691459145 1282.77516167 830.111009272C1284.78655121 836.200765011 1290.60101264 838.9214428 1293.94178613 843.917834808C1294.02308481 845.163758611 1294.04586851 846.422389136 1294.0 847.693736309C1286.32440103 849.168500222 1278.59098967 845.456172035 1271.05410029 847.897153048C1270.93847551 850.808540855 1270.81130831 853.707212013 1270.71886871 856.63130654C1265.37824809 857.800950307 1259.69095384 858.347627209 1254.37341803 857.0C1252.18869169 854.737002429 1252.87069727 850.6941208 1252.31585888 847.655596291C1245.21818311 845.710435513 1238.00498292 848.83794678 1230.81486754 847.8844364C1230.36401117 847.007215983 1229.45085638 845.240038648 1229.0 844.362808304C1233.09213387 839.620679774 1238.42111172 836.175331714 1241.38038362 830.327132732C1238.58290612 829.818595848 1235.8201562 829.170205613 1233.09213387 828.45825199C1236.91839095 822.673626323 1243.34550317 819.711391777 1246.62846427 813.456359317C1245.28753791 813.380118989 1242.60568519 813.21480256 1241.26475884 813.138522524C1242.90628957 805.022574433 1249.78425817 799.657488965 1255.18259081 794.0Z"/>
<path style="fill:#3e8e9a" d="M271.0 810.0C285.859227636 809.764452061 300.725160373 808.431592662 315.613959408 808.0C317.546533841 807.834977236 319.284700069 808.698162559 321.0 809.535963577C317.935330392 809.472527594 314.882098898 809.472527594 311.828867403 809.409022227C307.723577738 809.256696571 303.801268094 810.678415907 300.130517504 812.557122121C302.360413372 814.105782807 304.601737424 815.654443492 306.945984634 817.0C293.417983461 818.447113553 279.912848584 815.73060632 266.373419226 815.959094804C265.241324052 814.791258169 264.120657062 813.636108731 263.0 812.468262184C265.442427429 811.155149438 268.072557962 809.758814408 271.0 810.0Z"/>
<path style="fill:#82b06a" d="M300.0 812.0C303.757533446 810.337792013 307.772573234 808.83946663 311.974919005 809.0C311.77592482 811.100335968 311.588629 813.227424016 311.413041711 815.367893326C314.596989332 815.715722592 317.792645483 815.916389305 321.0 815.956522647C316.797664392 818.765887965 311.588629 817.280933398 306.976596492 817.0C304.576927247 815.264213349 302.28261444 813.632106675 300.0 812.0Z"/>
<path style="fill:#d1da31" d="M312.0 809.0C314.709850359 809.067142761 317.854385999 809.067142761 321.010701799 809.134358959C321.2344737 811.431868832 321.552466424 813.702490127 322.0 816.0L320.645608888 815.986571448C317.418632583 815.946285791 314.203426212 815.744731616 311.0 815.395400421C311.61134677 813.245688551 311.799788418 811.109415723 312.0 809.000010491Z"/>
<path style="fill:#ffde15" d="M1490.0 819.0C1505.30317256 816.775325287 1520.51347608 813.20476493 1536.0 813.0L1536.0 836.0C1528.01498276 836.0 1520.03016531 835.948836248 1512.05683623 836.025581876C1512.17191974 838.057947141 1512.32146836 839.772842185 1512.47101698 841.513339091C1520.31787408 841.500548153 1528.15314291 841.61571656 1536.0 841.231788562L1536.0 862.0C1486.9977021 862.051163752 1438.00709236 861.923254372 1389.00489435 862.051163752C1389.09680132 863.506225242 1389.223573 865.246712156 1389.36163325 867.0C1422.90028408 866.93604531 1456.42744654 866.987209062 1489.96619726 866.974418124C1505.31466093 866.955214229 1520.67461297 867.646284625 1536.0 866.827234899L1536.0 894.0C1444.8528628 894.038372814 1353.70592539 893.923254372 1262.57037645 894.06395469C1262.59335319 895.096695383 1262.66228342 897.694634815 1262.69694833 899.0C1344.58196103 899.012790938 1426.478562 899.0 1508.3635747 899.0C1517.56805755 899.05188463 1526.80700552 899.691771288 1536.0 898.8471197L1536.0 933.375407368C1522.21625246 932.692847609 1508.3635747 933.959829987 1494.55685042 933.0C1474.65229861 933.409519866 1454.72467015 933.473514528 1434.82001844 933.268749598C1423.30297646 933.695350697 1411.79742284 932.300398981 1400.28038085 932.953076577C1387.24457622 933.797728165 1374.19728321 932.645934179 1361.17296695 933.426601098C1352.716427 933.37113706 1344.27137542 932.232134012 1335.82622394 933.0C1307.0623399 932.628862941 1278.31004413 933.1535712 1249.54616009 932.897622532C1239.15657684 933.516177636 1228.76709349 932.479562049 1218.38909852 933.349815499C1202.41936372 932.53075578 1186.43814056 933.938508426 1170.47999404 933.004270308C1170.44502943 934.659796442 1170.43404055 936.323497756 1170.43404055 938.0C1292.2778054 938.089636495 1414.14464689 937.948836248 1536.0 938.038372814L1536.0 957.0C1391.66280391 956.987209062 1247.32560782 956.987209062 1103.0 957.0C1103.80538476 950.44756222 1105.54272615 944.09988937 1107.77476679 937.995364257C1182.29623317 908.074272519 1257.9798232 881.787725807 1334.4226447 858.675020517C1385.78345522 843.176960462 1437.53546975 829.009867454 1490.00076228 818.950853985Z"/>
<path style="fill:#85b268" d="M490.0 822.0C495.518450128 822.558056545 501.85178008 819.731369561 506.0 823.74696868C502.459411747 822.994803451 498.825340138 822.909879126 495.273063929 823.540725243C495.460020495 825.348348743 495.670352972 827.168106995 495.86900764 829.0C492.877611274 828.417683422 489.944654688 827.629113934 487.0 826.901218212C487.721406613 825.26343389 488.866542212 823.625649569 490.0 822.0Z"/>
<path style="fill:#398b9e" d="M449.0 823.0C461.342432572 821.831167234 473.937199583 821.636364097 486.473717481 822.0C484.283316181 823.376622356 482.209433337 824.948047849 480.123896624 826.519473342C482.722082172 827.740253188 485.320257603 828.987013547 488.0 830.0C477.758737873 831.532464866 467.482524255 829.038954289 457.194656768 829.714285352C453.652740517 829.558442842 447.244670548 830.454537273 447.0 824.909087222C447.578571953 824.090907708 448.522302656 823.363635902 449.0 823.0Z"/>
<path style="fill:#5f9e82" d="M486.0 822.0C487.924258812 821.907705921 489.459873205 821.907705921 491.007212719 822.0C489.870150694 823.765739039 488.721373725 825.544658536 487.584311699 827.323578033C490.538329977 828.114199775 493.480612954 828.970723811 496.481521541 829.603221204C499.669971012 829.721814465 502.834990595 829.26061159 506.0 828.838950091C504.839497909 830.32797152 503.256993206 831.158124348 501.498652386 831.0C496.973854528 830.98682983 492.378726294 831.092294079 487.924258812 830.117135625C485.22813215 829.089317072 482.614071164 827.824301707 480.0 826.585647259C481.709643513 824.991213027 483.796206325 823.396778796 486.0 822.0Z"/>
<path style="fill:#d0da31" d="M495.0 824.0C498.531151695 823.306701648 502.143612374 823.40003748 505.663145618 824.226702481L506.0 824.29333375C505.930309468 825.880001249 505.86060885 827.480005414 505.790918318 829.093335832C505.605063451 829.133314593 505.210136988 829.199997918 505.024282122 829.226671248C501.888066975 829.653330002 498.751841743 830.119998751 495.59239978 830.0C495.394926463 827.986663335 495.185844781 825.986663335 495.0 824.0Z"/>
<path style="fill:#f6951c" d="M1512.0 836.0C1519.99228949 835.926147597 1527.99609468 835.975382532 1536.0 835.975382532L1536.0 840.729063613C1528.13448323 841.098517952 1520.28058229 840.98768165 1512.41516566 841.0C1512.26526142 839.325117895 1512.11535717 837.674872489 1512.0 836.024627084Z"/>
<path style="fill:#93bb5c" d="M184.0 842.0C190.074853802 842.393659786 196.90087508 840.158736717 203.0 843.117461535C199.581309097 843.054003204 196.117185938 842.838096151 192.732576622 843.498419739C190.938046925 843.777785122 189.665973368 845.441275843 189.949917566 847.511118015C189.177588954 850.63492373 191.971608539 852.171428383 193.629841471 854.0C188.939077011 854.368256623 184.305115197 852.882538465 181.0 849.022219505C182.885394207 846.647618701 184.850282534 844.361909137 186.860612977 842.13968765C186.396489818 842.114304317 184.79504967 842.038094829 184.0 842.0Z"/>
<path style="fill:#418f98" d="M145.0 845.0C146.735985424 841.862637845 150.497287177 842.199793294 153.367454167 842.0C161.248824778 842.074882265 169.130205438 841.537982274 177.0 842.024960755C173.805794054 843.37356305 169.292229941 844.409980402 168.864016585 848.867844502C170.762026512 851.777313014 174.037254758 852.888661382 177.0 854.0C166.618805554 854.786683047 156.260763208 853.587933035 145.891144812 853.400629869C145.034728149 850.715915406 143.61121568 847.66908474 145.0 844.909458761Z"/>
<path style="fill:#65a27e" d="M177.0 842.0C179.465799626 841.675 181.951142322 841.896004467 184.425081594 841.987006903C185.223133227 842.038979292 186.830620118 842.117008933 187.62867175 842.143005278C185.610750669 844.418005278 183.638443285 846.758001218 181.745930177 849.188999594C185.06352488 853.141002436 189.714983681 854.662006903 194.423459604 854.28500406C197.627039861 854.063999594 200.830620118 853.738999594 204.0 853.167008933C200.625407972 855.936000406 196.270359016 855.026006497 192.394144998 855.0C187.263851258 854.584007715 182.122154093 854.909048318 177.014657303 854.48000203C174.096093366 853.323007309 170.86970626 852.166002436 169.0 849.137006903C169.407170413 844.496004466 173.853426967 843.417008933 177.0 842.013003248Z"/>
<path style="fill:#d3dc2f" d="M191.0 847.0C190.716767505 845.348896581 191.985652623 843.667450842 193.77568435 843.385070107C197.151810178 842.717619264 200.607250547 842.93582666 204.017372537 843.0C206.985642786 844.360558994 205.456189282 849.096848142 206.0 851.959161509C205.546826041 852.190197559 204.640478123 852.665108337 204.187304165 852.89615441C201.037760398 853.46090586 197.854230306 853.781792604 194.670700213 854.0C193.016623625 851.710611794 190.229607221 850.157522758 191.0 847.0Z"/>
<path style="fill:#f28915" d="M1389.0 862.0C1438.00386289 861.878638615 1486.99613711 862.0 1536.0 861.951481979L1536.0 866.635934796C1520.67409228 867.436889615 1505.31361838 866.781555192 1489.96473314 867.0C1456.42484291 867.012129505 1422.89654134 866.963611484 1389.35675101 867.02425901C1389.21868607 865.337376502 1389.0921099 863.686891985 1389.0 862.048536973Z"/>
<path style="fill:#3ab54a" d="M1060.0 866.0C1065.91945729 876.99699601 1068.79695788 889.467956958 1072.76072046 901.387778577C1076.34319766 890.185709098 1079.96019122 878.560672459 1086.84771033 869.2811555C1087.63355958 881.534222759 1085.63431977 893.736019148 1083.97020974 905.809653376C1092.64886711 894.056444568 1101.21203515 881.957179909 1112.08639464 872.54949078C1109.97156516 883.187620728 1105.25667037 892.838833977 1100.54177558 902.284973756C1105.16425883 897.440141807 1109.4977679 892.223613568 1114.55933137 887.904280508C1112.47921893 902.105530717 1104.43620442 913.871559744 1099.45551359 926.868009574C1107.76432414 916.627216354 1115.72656634 905.732752076 1126.0 897.799017877C1122.56782951 912.346333945 1113.60019796 924.137983395 1108.49237854 937.916276453C1106.25052082 944.029999871 1104.50553816 950.387237401 1103.69661112 956.949548401C1103.59256034 957.705751191 1103.40763693 959.23097699 1103.3036865 960.0L1033.26176211 960.0C1031.62083022 952.48923296 1029.9451813 944.914374831 1026.74408982 937.993177753C1021.12785645 924.701932934 1012.06781336 913.358871066 1008.0 899.247342376C1016.67875771 905.143172105 1024.35202573 912.615488495 1032.00221594 919.998093374C1027.66860654 909.411234296 1021.63627041 899.439595627 1019.97226072 887.763298127C1025.0453631 892.377416168 1029.59851261 897.645215276 1034.17473993 902.861743515C1032.94981046 899.221701938 1031.94442111 895.517589287 1031.2279056 891.736565328C1034.77566576 894.774196708 1038.20783625 897.952820477 1041.70934047 901.067353157C1037.53757668 891.416139908 1033.0076053 881.854648179 1030.6847746 871.408781489C1037.53757668 877.6762975 1042.99206477 885.494679748 1048.46973101 893.184889828C1047.29095714 886.186801458 1045.9388991 879.201523299 1045.48817964 872.088082979C1050.59599905 877.842920319 1054.87181362 884.392421108 1059.26311753 890.826559938C1059.12173922 882.533949669 1058.85594317 874.215708969 1060.0 866.0Z"/>
<path style="fill:#3a8c9d" d="M321.0 874.0C331.875887506 872.263722187 342.969057228 872.896657455 353.93642728 873.0C348.710056153 873.555433401 343.014803466 874.175458415 339.366632857 879.006455127C343.209217529 884.289552781 349.476293222 884.328303714 355.0 885.0C343.666669976 885.103332459 332.241837548 885.68460654 321.0 883.966624977C321.011419182 880.600639461 321.011419182 877.293859561 320.988580817 874.0Z"/>
<path style="fill:#4f968e" d="M354.0 873.0C359.161852395 872.399601115 364.676298701 871.890559967 370.086703585 873.052181125C369.254332059 873.130483389 367.60115251 873.274093592 366.768791021 873.352406047C365.16185545 873.456829448 363.566473345 873.57429813 361.971101278 873.704822285C359.254340351 874.109440033 356.248552053 873.926704177 353.867052437 875.623487621C352.861268503 877.189757102 351.994216502 878.860439792 351.092484028 880.518067009C354.2832382 883.102408595 358.028900031 884.577310148 361.982664782 884.433730519C363.578036849 884.472866363 365.173408916 884.53815392 366.780344487 884.603410902C368.641616918 884.655592028 370.526016356 884.773091285 372.410405757 884.825302985C376.641624337 884.994983368 380.838152406 884.38152901 385.0 883.650605971C383.832367162 884.799202231 382.58381991 886.091367928 380.907513353 886.0C372.202312875 886.326305293 363.485548893 885.882531318 354.803465385 885.125507523C349.219658131 884.446785992 342.884393765 884.407629765 339.0 879.069276402C342.959543884 874.187752488 348.716763546 873.561242657 354.0 873.0Z"/>
<path style="fill:#a3c251" d="M370.0 873.0C375.086961232 873.133029425 381.098306142 870.897997962 385.0 875.208417267C381.347825231 874.716179308 377.151232643 873.678485387 373.0 874.516624783C370.765594327 877.509973831 372.682421298 881.594234803 373.011325214 885.0C370.67486459 884.946813161 368.826087385 884.827049282 367.0 884.773831279C366.977349572 880.942342835 366.977349572 877.11086478 366.988674786 873.305980143C367.816626728 873.226199885 369.438554968 873.07982181 370.255191544 873.0Z"/>
<path style="fill:#65a27f" d="M354.0 876.0C356.219743189 874.227488273 359.255842591 874.414841392 362.0 874.0C360.154988243 877.559604756 360.154988243 881.440395244 362.011659835 885.0C358.006364519 885.147207514 354.222930518 883.635039013 351.0 880.985397799C351.910825765 879.318741582 352.78662133 877.605845061 353.802547835 876.0Z"/>
<path style="fill:#7caf6d" d="M362.0 874.0C363.67065667 874.216941771 365.329322458 874.102093762 367.0 874.0C366.987998681 877.649657683 366.987998681 881.324823859 367.012001319 885.0C365.317310703 884.936228765 363.658655351 884.872397744 362.0 884.83410511C360.088930818 881.095127841 360.088930818 877.394423278 361.987998681 874.0Z"/>
<path style="fill:#d2dc2f" d="M373.0 875.0C377.206899146 874.20056561 381.459766497 875.190412772 385.64367156 875.65995426L386.0 875.71068872C385.965468956 878.401042038 385.919560631 881.091395356 385.839081342 883.807135723L385.528731088 883.857870183C381.379307168 884.568529176 377.206899146 885.164976179 373.0 885.0C372.666665643 881.751270343 370.724134728 877.855329497 372.988522919 875.0Z"/>
<path style="fill:#429097" d="M517.0 881.0C520.662021559 880.365830058 524.381266242 879.843217147 528.123404148 880.0C535.367350792 880.169851492 542.622734111 879.516582802 549.866680754 880.03917531C548.035669975 881.293448338 546.284765606 882.691445782 544.533851301 884.076374589C544.476618242 885.395980607 544.362201804 888.022124005 544.30497868 889.328661385C547.406255361 890.400014283 550.564755166 891.353790243 553.814798058 891.680424588C556.950414575 891.824138802 560.086021156 891.850276079 563.221627737 891.954794581C563.748042715 891.967853017 564.789435996 891.99396989 565.315850974 892.007028327C569.206755091 891.980911454 573.109095883 891.824108197 577.0 891.588933917C571.838829981 894.84221893 565.704936418 892.830148508 560.120351056 893.0C546.593744639 892.895471297 533.101468121 892.04622404 519.586308315 891.680393982C515.500861477 890.791951012 517.606521389 884.546702745 517.0 881.228094944Z"/>
<path style="fill:#63a180" d="M551.0 880.0C552.367710064 879.960221395 554.178129446 880.0 556.0 880.0C553.490621362 883.474032692 553.112503855 887.849720668 554.521873539 892.0C551.267711059 891.668508173 548.105207701 890.70054831 545.0 889.613262986C545.057305605 888.287295678 545.171877021 885.622098075 545.229162729 884.28286778C547.4135446 882.691713222 549.166668325 881.272925717 551.0 880.0Z"/>
<path style="fill:#82b269" d="M556.0 880.0C558.908758083 880.090684867 561.405106505 880.077732777 563.912406492 880.051828597C563.014596805 882.332610681 561.854016102 884.54859184 561.525545202 887.088557385C562.08394193 888.876886844 563.058393559 890.444929586 564.0 892.0C561.000003169 891.896332687 558.000006338 891.870408269 555.0 891.727864448C553.240880562 887.671704996 553.602187144 883.395248708 556.0 880.0Z"/>
<path style="fill:#adc84a" d="M564.0 880.0C564.431954953 880.05147479 566.147937567 880.012868697 567.0 880.0C565.248526344 883.746781569 565.189350632 887.931330084 565.840242361 892.0C565.295864859 891.987131303 564.218936776 891.961393908 563.674559273 891.94852521C562.656806902 890.403467176 561.603553214 888.845520336 561.0 887.068705104C561.775151475 884.545093223 563.029586143 882.343379742 564.0 880.07728256Z"/>
<path style="fill:#d3dc2f" d="M567.0 880.0C571.145836528 879.974262605 575.161229384 880.296140899 579.0 881.609441736C578.988242224 884.892708911 580.201082345 888.819742727 578.022642566 891.587980503C574.019017711 891.8197377 570.003624855 891.974252552 566.0 892.0C565.198371371 887.931330084 565.257252267 883.746781569 567.0 880.0Z"/>
<path style="fill:#3d8d9b" d="M33.0 884.0C34.7127404114 881.398695546 38.1039660295 882.300657331 40.6730766466 882.0C50.7896631452 882.261442045 60.9062496437 881.071898093 71.0 882.0L69.5384621104 882.117645858C65.5991591641 882.993467521 57.6748799957 882.588239497 58.4627407832 889.346405095C60.2896638887 892.810456049 64.2175477725 893.176468787 67.346153789 894.0C56.3275238088 894.575164333 45.2860576863 893.764708284 34.2674277062 893.699352876C32.6117786418 890.758165598 31.1844949656 887.045747764 33.0 884.0Z"/>
<path style="fill:#71a875" d="M71.0 883.0C77.2817974785 882.9499647 83.9078447424 881.799998699 90.5681650614 882.0C92.9215540636 881.925039774 95.0464586775 883.049999512 97.0 884.350003091C92.4760093078 883.862498089 87.9177455607 883.424995852 83.3594818135 883.712499553C81.6458489004 883.787459779 79.9550650213 883.999993493 78.2528561292 884.16249516C77.567402964 887.425002359 77.7730393104 890.775002196 78.5841586908 894.0C74.7227721299 893.500001627 70.8613865609 892.962503619 67.0 892.475008378C67.045698068 889.162498414 67.571210971 885.862501342 69.1477536478 882.999996747L71.0 883.0Z"/>
<path style="fill:#569a89" d="M58.0 890.0C57.2061359393 883.475252934 65.1907958413 883.884493076 69.1601151456 883.0C67.5723870243 886.023105508 67.0431446502 889.508249022 66.997123357 893.006607464C70.8859061475 893.521453642 74.7746879391 894.089107992 78.6634707297 894.61715879C79.491850011 894.709622055 81.1601146462 894.894393964 82.0 895.0C77.006711168 895.660066075 71.9443908958 895.686475315 66.9511020638 895.0C63.7986569672 893.867984724 59.8408437354 893.498348134 58.0 890.0Z"/>
<path style="fill:#a4c350" d="M79.0 883.0C80.7230677237 883.296942003 82.4345704326 883.077464008 84.1692021671 883.0C84.0651250663 886.201872539 83.9726109722 889.416669187 83.8916618929 892.631455754C88.5982955975 892.799297798 93.3049293021 892.60564786 98.0 892.231221687C93.3743153747 895.278176291 87.788800788 894.206574048 82.6889836895 894.0C81.8447958437 893.896718017 80.1679851671 893.715961944 79.3353623361 893.625583908C78.514303516 889.829817282 78.3061473062 886.369724664 79.0 883.0Z"/>
<path style="fill:#d3dc2f" d="M83.0 883.0C87.8770491803 882.69168515 92.4557379042 883.160856281 97.0 883.683649662C97.0229464356 886.646114088 97.0 889.608578513 97.0229464356 892.584451118C92.3409828095 892.973194109 87.6704914047 893.17426446 83.0 893.0C83.0803274703 889.662200763 83.1721311475 886.324391058 83.275409039 883.0Z"/>
<path style="fill:#3c8d9b" d="M642.0 892.0C647.223078986 890.561281309 652.392303614 891.232255724 657.469228173 891.0C664.646152115 891.064481895 671.857689836 889.993538377 679.0 891.258058558L677.869226477 891.361290041C673.969230485 891.709673628 670.161534561 892.754834463 666.376921168 893.774192465C666.053845881 894.574191122 665.419226554 896.187094889 665.096151267 897.0C665.407685289 897.812905111 666.03076335 899.451611712 666.34230739 900.264516822C669.988455652 901.374189778 673.66922771 902.380641326 677.430768591 902.870965684L676.680766664 903.0C667.242305695 904.638706601 657.723075903 902.483872809 648.23845989 902.961310863C645.515382446 902.48389296 641.326924944 903.877437382 640.0 900.30324626C639.34616013 897.348403737 638.561544426 892.716145326 642.0 891.696787324Z"/>
<path style="fill:#8db761" d="M679.0 891.0C686.605839992 891.301271716 693.952152728 890.246859915 701.264403774 891.0C702.819953305 890.962363088 703.909976653 892.217573693 704.920519439 893.372379996C700.276565494 892.631795349 695.43957888 891.313807552 690.818329442 892.907946387C690.409569454 895.682002401 690.364150583 898.506270368 690.193842137 901.317992698C695.133013819 902.447697925 700.140308879 901.769870868 705.0 900.489539585C703.773729896 901.418406802 703.001628792 903.012555438 701.343884335 903.0C693.259532185 904.36819975 685.129761163 901.857739335 677.0 902.761505476L677.738039414 902.635980495C679.259527256 902.384940335 680.769667774 902.08367842 682.302512798 901.794981745C681.348746066 898.255230208 681.439573951 894.577408052 683.619630504 891.602504227C681.802915067 891.527230404 679.974862164 891.439332533 678.169503908 891.439332533L679.0 891.0Z"/>
<path style="fill:#5e9e83" d="M666.0 894.0C669.979204281 893.331834981 673.722118636 892.332956338 677.555762729 892.0C679.359170141 892.0 681.185247678 892.086277078 683.0 892.160305891C680.822299183 895.082961153 680.731569445 898.696189312 681.684305551 902.173771803C680.153116896 902.457398067 678.644608213 902.753368885 677.124764468 903.0C673.427219906 902.531388364 669.809070019 901.56950487 666.224954863 900.508970855C665.918711223 899.732063104 665.306233792 898.165922305 665.0 897.389014554C665.058598956 896.306053402 665.682421298 894.764572826 666.0 894.0Z"/>
<path style="fill:#d3dc2f" d="M691.0 893.0C695.274006185 891.294076377 700.137022916 892.704519285 704.805968177 893.497054971L705.0 893.523906365C704.988601522 896.035843814 705.0 898.56121745 705.022796955 901.086580596L704.885836813 901.11343199C699.999993392 902.483576829 694.965751705 903.208952563 690.0 902.0C690.171224956 898.991039046 690.216888249 895.968652396 690.627847967 893.0Z"/>
<path style="fill:#ed7b0d" d="M1263.0 894.0C1354.32569181 893.866499886 1445.66279585 893.975741036 1537.0 893.939352589L1537.0 898.623787052C1527.78782549 899.424759306 1518.52960162 898.817963005 1509.30601488 899.0C1427.25015939 899.0 1345.18269145 899.012129482 1263.12683596 899.0C1263.09279947 897.762138958 1263.02312479 895.298546357 1263.0 894.060685316Z"/>
<path style="fill:#7daf6d" d="M229.0 904.0C234.160554695 902.98228346 239.275234131 902.80193436 244.0 904.476649122C240.559631863 904.438022286 237.130734407 904.708540906 233.747709722 905.3784248C233.770611257 906.228667852 233.805063131 907.903382614 233.816513898 908.740739996C235.089450906 909.835750444 236.362387913 910.917875222 237.669727009 912.0C235.261471304 912.012875612 232.830274236 912.206120442 230.444949938 911.806765229C228.24311672 910.544291351 226.12155836 909.140095209 224.0 907.723033514C225.42202351 906.434788294 227.176609666 905.146543074 229.0 904.0Z"/>
<path style="fill:#3387a2" d="M186.0 904.0C198.318015347 903.777427748 210.624537217 902.14733794 222.942552564 903.0C219.644722529 904.015672999 216.461807321 905.432602188 213.301869092 906.899681057C216.473290822 908.416929189 219.679192987 909.909082898 223.0 911.0C210.762419045 911.902821531 198.547825046 910.147328149 186.310244091 910.210029936C185.597828039 908.413798506 185.299067449 906.206899253 186.0 904.0Z"/>
<path style="fill:#549a8a" d="M223.0 903.0C225.104249033 902.63640013 227.51351904 903.075234312 229.888031548 903.338593567C228.046336628 904.454585509 226.274136594 905.708503759 224.490350726 906.962422008C226.633206911 908.34172425 228.776063096 909.708503759 231.0 910.937337377C228.266407118 911.087806 225.509652626 911.351135882 222.776059744 911.0C219.428568555 909.909082898 216.196905528 908.416929189 213.0 906.899681057C216.467179059 905.432602188 219.67567042 904.015672999 223.0 903.0Z"/>
<path style="fill:#d2db30" d="M234.0 905.0C237.532931319 904.215760572 241.113768096 903.964041464 244.706583838 904.0C245.029943077 904.767127903 245.676651159 906.289385052 246.0 907.044523657C245.628745701 907.73972513 244.898205668 909.118157496 244.538919935 909.813358969C242.395205295 910.232881456 240.287427547 910.904113692 238.095807449 911.0C236.730538299 909.993151647 235.401195643 908.986303293 234.071852987 907.967465641C234.05989482 907.349312825 234.023916334 905.791097141 234.0 905.0Z"/>
<path style="fill:#7eaf6e" d="M458.0 906.0C465.63181644 906.863711823 473.705053398 903.524699372 481.0 907.0C477.770709251 907.054485474 474.564646383 907.013621368 471.346964532 906.986378631C471.393460638 909.229988294 471.451515213 911.601362137 471.521208943 914.0C467.664644366 913.863711823 463.854545638 913.046004044 460.056065894 912.282792381C459.951515213 911.451452591 459.730804953 909.81601575 459.626264358 908.998307971C461.159597019 908.412269873 462.681310696 907.839874428 464.226262341 907.294732361C462.15858755 906.831350431 460.067674791 906.381611152 458.0 906.000010642Z"/>
<path style="fill:#3b8c9d" d="M427.0 907.0C436.938502127 906.445272496 447.399566171 904.839585865 457.826192582 906.0C459.870176753 906.377810478 461.937132639 906.823082975 463.981116809 907.281862625C462.453866625 907.821590374 460.949588156 908.388300824 459.43382383 908.968518427C459.537166639 909.778104784 459.755348086 911.397298569 459.858700865 912.220381544C463.613659093 912.976013037 467.380103178 913.785599393 471.192480724 913.920533965C474.132152426 913.907047883 477.060328299 913.772113311 480.0 913.731633993C475.728297816 916.619183249 470.687232596 914.959520682 466.048072695 915.0C454.174577164 914.824586111 442.324053348 913.475261468 430.439081929 913.785599393C427.005647957 914.068965154 423.710004397 912.895043865 421.0 910.412287787C423.176146567 909.050969663 424.70338678 906.811089493 427.0 907.0Z"/>
<path style="fill:#d0db30" d="M471.0 907.0C474.322795154 907.026703384 477.633591762 907.06675846 480.968375045 907.013351692C481.220282011 907.908394876 481.736094489 909.711832937 482.0 910.60686569C481.592143187 911.408394876 480.788438523 913.011453248 480.380592125 913.812982434C477.309703937 913.85303751 474.250824711 913.986637877 471.179936523 914.0C471.10796608 911.648850503 471.047983767 909.324425251 471.0 907.0Z"/>
<path style="fill:#e56002" d="M1170.0 933.0C1186.02320187 934.039604247 1202.02339972 932.678214282 1218.01209556 933.47029923C1228.40241244 932.356428563 1238.80423134 933.358904433 1249.20615026 933.0C1278.00418598 933.247519299 1306.79061967 932.74009169 1335.58865539 933.099005787C1344.04383389 932.628706556 1352.49891238 933.730197876 1360.96549287 933.544555986C1374.00527305 932.789599416 1387.06805726 933.903460419 1400.11933945 933.086626439C1411.65005575 932.195545368 1423.16927004 933.544555986 1434.69998634 933.0C1454.62827106 933.198021237 1474.57955981 933.136134165 1494.50774452 932.740101354C1508.33086168 933.928219113 1522.19998688 932.702963312 1536.0 933.495048261L1536.0 938.0C1413.99996666 937.913412216 1291.98843131 938.049478734 1170.0 937.96289095C1170.0 936.341602338 1170.0120021 934.732693073 1170.04600805 933.136153492Z"/>
<path style="fill:#449196" d="M302.0 949.0C302.847901648 947.831554395 304.669724212 948.164180148 306.044684262 947.921109019C317.995413683 946.859269878 330.01489807 946.616198748 342.0 947.0C339.250069951 947.447763132 336.488679083 948.010663643 333.922082347 949.213212928C331.41276981 949.916843562 331.939848109 953.383791262 331.149240609 955.53304231C333.188768994 956.71001883 335.216846509 957.938160859 337.325119912 959.0C325.67230215 959.946691773 314.019484387 958.270786612 302.355205806 958.654577875C301.46147083 955.294246628 299.765687432 951.712151559 302.0 949.0Z"/>
<path style="fill:#70a776" d="M343.0 947.0C345.394531051 946.838645756 347.703126325 946.950330179 350.0 947.0C347.457033807 948.278179096 343.906244171 949.159261251 343.156245018 952.485007485C343.894532747 954.718715329 344.843748198 956.87797658 345.863283065 959.0C343.343749894 958.950388318 340.812495124 959.099271813 338.31640515 958.702174871C336.160160132 957.672180152 334.085935778 956.480869949 332.0 955.339190806C332.808596969 953.254395527 332.26952554 949.891421152 334.83593493 949.208892313C337.363274586 948.042407329 340.187498092 947.496388134 343.0 947.062053362Z"/>
<path style="fill:#9ebf54" d="M349.0 947.0C352.411543041 946.665982967 356.375158647 946.542269734 360.0 948.10103521C356.555831057 948.249487225 353.066501366 948.138128894 349.678798067 948.90515673C345.839399033 951.131965933 349.023839742 955.89484327 350.096618336 959.0C348.267255025 958.950541755 346.426606429 958.925812632 344.608538208 958.962906316C343.626100721 956.847445784 342.711423968 954.694862589 342.0 952.468063046C343.127975066 949.152602515 346.549563634 948.274245327 349.0 947.00001932Z"/>
<path style="fill:#d3dc2f" d="M350.0 949.0C353.439154703 948.049879599 356.98147927 948.162123305 360.477957199 948.012465031L361.383602465 948.0C361.78483519 948.71088654 362.598767275 950.13265962 363.0 950.843536421C362.667557138 953.213148483 363.401242678 956.281182053 361.131396195 957.765309501C357.657851537 958.862816495 354.000880518 958.800452389 350.424165997 959.0C349.335094369 955.869612061 346.102289346 951.068033571 350.0 948.823130245Z"/>
<path style="fill:#408f98" d="M67.0 950.0C79.9074171816 950.079999167 92.4366211369 948.426669165 105.0 949.0C100.626163658 949.880001249 96.38901508 951.4133325 92.1632564892 952.933337498C92.6985948081 955.279997085 93.2567140912 957.653330002 93.8945642765 960.0L66.0 960.0C66.1685160692 956.693329586 66.6241234858 953.346669999 67.0 950.0Z"/>
<path style="fill:#619f81" d="M105.0 949.0C107.819207635 948.946694985 110.903957632 949.039978761 114.0 949.0C113.096041298 949.226671248 111.276831522 949.680003332 110.37288263 949.906664168C108.101693503 950.70666625 105.694917439 951.399995836 103.864405481 953.29333375C104.033898964 955.533331251 104.338979385 957.773328752 104.723165267 960.0L93.7175136859 960.0C93.0847455375 957.653330002 92.5310730397 955.279997085 92.0 952.933337498C96.4576226381 951.4133325 100.661011964 949.880001249 105.0 949.0Z"/>
<path style="fill:#a0c158" d="M115.0 949.0C119.309930391 948.960021239 123.812857367 948.29333375 127.859644295 950.213334583C130.830409066 952.159998334 129.485376292 956.786665417 130.0 960.0L128.421052899 960.0C128.385915989 957.266670831 128.397695994 954.560004581 128.374237537 951.840001666C123.98246658 950.960000416 119.479529449 950.760002499 115.0 951.173334999C115.011678452 954.106662086 115.023356905 957.053336248 115.035136909 960.0L110.0 960.0C110.374269018 956.626667083 110.80701154 953.266670831 111.286549114 949.906664168C112.22221658 949.680003332 114.105260432 949.226671248 115.040938054 949.0Z"/>
<path style="fill:#82b16d" d="M104.0 953.0C105.968752968 951.479522422 108.557289743 950.792604245 111.0 950.0C110.501731257 953.328935764 110.052085422 956.657861214 109.663197119 960.0L104.923613676 960.0C104.510413919 957.438567265 104.1822937 955.219283632 104.0 953.0Z"/>
<path style="fill:#d3dc30" d="M115.0 952.0C119.329561044 951.625378328 123.681726379 951.806645357 127.954752156 952.604229721C127.977327002 955.069489626 127.966039579 957.522661917 128.0 960.0L115.0 960.0C114.988712577 957.329307274 114.977425154 954.658605112 114.966039579 952.0Z"/>
<path style="fill:#429097" d="M592.0 957.0C602.327322293 955.975751495 613.175138128 955.72120845 624.0 956.0C621.509021544 957.260600439 619.109868909 958.703026804 616.641854383 960.0L589.0 960.0C590.094452263 959.218189218 591.357159455 957.739399561 592.0 957.0Z"/>
<path style="fill:#68a47d" d="M625.0 956.0C627.335034086 955.95154085 630.155814815 955.987885212 633.0 956.0C631.127287775 957.369690316 629.277980006 958.751514348 627.335034086 960.0L617.0 960.0C620.013895444 958.703026804 622.460133727 957.260600439 625.0 956.0Z"/>
<path style="fill:#90ba5f" d="M633.0 956.0C635.490247283 956.047593817 638.233256596 955.964239568 641.0 956.0C639.23070703 957.357139537 637.473281105 958.71428837 635.656489022 960.0L627.0 960.0C629.223918496 958.773808528 631.100087048 957.416659695 633.0 956.071427907Z"/>
<path style="fill:#d3dc30" d="M641.0 956.0C644.682356348 956.047593817 648.047061835 956.55951551 651.39999976 957.107141861C651.799994712 957.833328685 652.599994832 959.273813176 653.0 960.0L636.0 960.0C637.505881979 958.71428837 639.247062316 957.357139537 641.0 956.0Z"/>
<path style="fill:#e56202" d="M1103.0 957.0C1247.92009933 956.987401657 1392.46004966 956.987401657 1537.0 957.0L1537.0 960.0L1103.0 960.0C1102.71188708 959.243695908 1102.89625934 957.743695908 1103.0 957.0Z"/>
</svg>
