<svg width="1920" xmlns="http://www.w3.org/2000/svg" height="1200" viewBox="0 0 1536 960">
<rect width="1535" x="0" y="0" height="960" style="fill:#32aad8"/>
<path style="fill:#9c2bbc" d="M231.0 321.0C230.813498181 318.10636 231.372511819 315.02118 232.0 312.0C232.456356861 337.43673 231.942862833 362.89907 232.28522554 388.3486C233.254414497 389.38553 234.132915962 390.43526 235.0 391.48498C234.965777739 404.73461 234.977185159 417.99705 234.931455412 431.25948C235.046121502 434.79272 236.586323403 437.95471 237.87554204 441.05268C239.107713568 452.76612 237.613151355 464.62039 238.662764128 476.35943C239.598302696 485.43575 239.313087163 494.58888 239.507033325 503.7036C240.866512166 504.79173 241.927552373 505.87987 243.0 506.9808C243.182538741 515.9163 242.885915788 524.8646 243.034222262 533.8001C242.82430371 537.47415 245.357101295 540.12408 247.0 542.95323C247.216761003 566.73855 247.148306474 590.52388 247.045729748 614.30921C245.987448835 619.77549 251.304047283 622.98867 251.178545644 628.25013C251.406724074 639.38749 251.041636585 650.53767 251.452353756 661.68784C252.193946162 675.1039 251.851673514 688.55835 252.0 702.0C238.628631925 699.43968 225.394192922 696.11128 212.0 693.70459C212.022814841 683.19448 212.079851944 672.67159 212.079851944 662.1615C214.390751684 661.54703 216.695380845 660.97095 219.0 660.39488C219.285225539 637.92812 219.273808112 615.46136 219.171131321 592.99459C218.920148056 573.19055 218.771811563 553.39931 218.931455411 533.60808C218.991983786 527.97538 221.0 522.64993 221.0 517.03004C221.011407421 503.54998 220.794646418 490.08272 221.079751879 476.60267C223.706798273 474.19597 226.205363589 471.86608 226.0 468.44805C226.14831648 455.88971 226.285235546 443.31857 226.102686798 430.76022C225.934966696 427.3806 226.562464883 424.065 228.0 421.08222C228.422134599 405.13146 228.011407421 389.1679 228.205363589 373.21714C228.542861131 372.73068 229.50121454 371.73215 229.968978821 371.2329C230.041696624 370.87444 230.680552199 370.15756 231.0 369.79911C231.38790233 353.38799 231.091159299 337.1812 231.0 321.0Z"/>
<path style="fill:#cd1f90" d="M115.0 457.0C115.203742534 439.902315433 114.988692645 422.951167717 115.147135712 406.0C115.611766454 406.012699991 117.207684599 406.038099972 118.0 406.063599954C118.079151488 428.940663376 118.0 451.83044679 118.034022131 474.720240203L120.602155702 474.554920323C120.715329322 462.753958874 120.43237526 450.953007425 120.828522954 439.164775968C121.439720538 450.965727416 120.964351311 462.804828837 121.054900213 474.618510276C124.699481012 474.707610212 128.355399187 474.771100166 132.0 475.0C125.355968057 476.284379069 118.655349305 475.254339816 112.0 474.732960194C112.803622757 474.720260203 114.422185632 474.68216023 115.225798382 474.66946024C115.225798382 468.889971385 115.271127869 462.938635697 115.135339538 457.0Z"/>
<path style="fill:#d51189" d="M135.0 412.0C135.980436086 412.0513 137.105035563 412.0128 137.678802641 412.0C137.816500738 420.40295 137.391914101 428.80588 137.885354788 437.196C138.206670353 437.51672 138.837809138 438.14533 139.159124703 438.45322C140.111589056 451.62853 138.642739334 464.89363 140.008317983 478.04326C143.414752215 478.15872 147.213097275 478.3255 151.0 478.64622C151.068814041 499.40341 151.0 520.17342 151.03440702 540.93061C155.854083758 540.87931 160.44425039 541.0589 165.0 541.61054C165.103281074 567.90982 164.79343785 594.19628 165.160652781 620.49555L165.242737115 621.20114C167.904920339 621.27804 170.45246017 621.38075 173.0 621.50903C173.103291077 642.99747 173.057411715 664.49873 173.034407021 686.0C147.306627217 680.81712 121.693480805 675.64706 96.0 670.90036C96.011472341 654.40238 95.7934418514 637.90439 96.1147544159 621.41924C98.5376924055 621.36794 101.2688327 621.32934 104.0 621.3166C104.091718715 601.88079 104.0 582.43216 104.034407021 562.99635C103.931185958 534.93951 103.942688305 506.88267 103.931185958 478.82582C106.890100146 478.5051 109.449112318 478.19721 112.008134491 477.92781C112.111405564 477.28636 112.329440054 476.02912 112.432731131 475.40051C119.180267979 475.9265 125.973724197 476.96564 132.709798706 475.66991C132.95078788 463.72619 131.998323528 451.71833 133.306520468 439.83875C135.13111278 451.9749 132.996687246 464.38047 134.568818042 476.55511C134.885246584 472.53966 135.14918044 468.42158 135.0 464.31632C134.885246584 446.89466 135.022904674 429.48581 134.977095326 412.06415Z"/>
<path style="fill:#158276" d="M365.0 483.0C364.156790227 495.964658121 364.94356215 509.01070623 364.586179615 522.000934348C364.390182087 527.630463532 362.357009179 532.967442758 362.333984198 538.622621939C362.184116685 547.393910668 362.949784876 556.236959386 361.808472267 564.956968122C355.306451653 581.332605749 348.625354521 597.61176339 341.789006372 613.82070104C340.301828723 617.129180561 339.200802327 620.764560034 339.661932367 624.534669488C341.310485017 643.321146765 342.065065994 662.19621403 343.540706136 681.008341303C343.217906102 692.48537964 339.699656913 703.516488041 338.235544271 714.852476398C336.656146618 704.965537831 337.862181338 694.939579284 337.885196313 684.988530726C336.732356205 682.908459434 335.598188245 680.949179718 334.456865631 679.0C327.401484966 678.846120022 320.366687695 678.830830025 313.311297024 679.100129986C312.331379429 681.077601293 311.349860793 682.953881021 310.358425704 684.813300752C310.612050728 694.636119328 310.600753377 704.453907905 310.508563393 714.276736482C327.051857477 717.957085948 343.580982342 721.630945416 360.181893916 724.990704929C360.427613796 724.554664992 360.59500271 724.073255062 360.757448407 723.563845136C360.919543876 723.063015208 361.074954996 722.56605528 361.257934053 722.08691535C361.350894539 721.840065385 361.43945216 721.608495419 361.558229444 721.386005451C361.673864683 721.169255483 361.806240816 720.967495512 361.958619963 720.785215538C362.261777216 720.419945591 362.657384622 720.141255632 363.184807796 719.984175654C367.365548043 717.815785969 371.44565281 715.471616308 375.521815011 713.075166656C378.700143027 711.206426927 381.85639668 709.3172572 385.031062312 707.442817472C387.444822853 706.017807679 389.874894007 704.606247883 392.313150486 703.237328082C392.791571777 702.97445812 393.297460939 702.714218157 393.814607427 702.48634819C394.33176392 702.258488223 394.857235825 702.07159825 395.391143218 701.960658267C395.791033411 701.877158279 396.193735434 701.837938284 396.592304767 701.860538281C396.850512773 701.889600016 397.113643983 701.92880001 397.368069528 702.0C397.376074736 702.002 397.385480856 701.998 397.393085805 702.0C397.647531363 701.749330036 397.895722851 701.85863002 398.143814275 702.0C398.149818181 702.003999999 398.16212619 701.996 398.168830552 702.0C398.290559756 702.381338206 398.424456878 702.473418192 398.544204793 702.56144818C399.01875154 707.504907463 399.731425249 712.481326742 400.0 717.505936014C400.000440287 717.513936012 399.99956972 717.522736011 400.0 717.53093601C399.943963539 718.36011589 399.982488606 719.202985768 400.0 720.034205647C400.017311264 720.873975526 400.013008464 721.720955403 400.0 722.562505281C397.476960379 722.644205269 394.546623721 722.614305273 391.612454571 722.487405292C389.65635181 722.402805304 387.683518163 722.271855323 385.731738215 722.111915346C383.786742681 722.41702994 381.841066705 722.219939968 379.90106442 722.0C379.893059212 721.9992 379.884253482 722.0008 379.876048143 722.0C378.901934325 721.425615446 377.945922285 721.309135462 376.973219384 721.18571548C377.036660663 722.4295953 377.089314923 723.668485121 377.148393363 724.91557494C377.206230996 726.15856476 377.267891116 727.401564579 377.348593626 728.645434399C464.422699392 748.09872158 551.464514148 767.890418712 638.227367394 789.049225645C688.940854707 801.424003852 739.482480196 814.702801927 790.0 828.0C795.752673043 808.457762832 795.52720634 786.753995978 788.598638188 767.621288751C786.973130533 763.235649386 784.431076516 759.077349989 784.419569029 754.178750699C784.142889003 746.228161851 784.39825516 738.273223004 784.294447617 730.322634156C783.602737548 735.144283457 783.443073661 740.043732747 783.143328628 744.916672041C782.751373598 750.264091266 780.271490033 755.002880579 778.28860985 759.786069886C777.942744809 759.362879947 777.233093065 758.507030071 776.887248037 758.083850133C774.869765339 758.686550045 772.887345455 759.283489959 770.881400264 759.886199872C770.524017729 759.129609981 769.800867202 757.613830201 769.455012168 756.857250311C766.353874377 756.293010392 763.233594131 755.852950456 760.120928839 755.455420514C759.083373742 756.750590326 758.057436204 758.052520137 757.042936108 759.360509948C755.290625947 757.706280187 753.553645761 756.069870425 751.812853095 754.454110659C751.88209815 755.582590495 752.032455982 757.856550166 752.113138479 758.985030002C748.42404813 758.625960054 744.819893045 757.507880216 741.903215275 754.904700594C740.346872623 754.840500603 738.793491898 754.830200604 737.248686753 754.804570608C737.121864234 755.779160467 736.861514835 757.710040187 736.723174822 758.684630046C735.351302197 758.800040029 733.993038428 758.93188001 732.644200791 759.060119991C732.586563288 754.23847069 732.543825481 749.437931386 732.393957968 744.616282085C731.656147903 743.808402202 730.918107689 742.99538232 730.191815118 742.213152433C730.987262685 748.372281685 731.31791783 754.190940842 731.31791783 760.0C725.841914805 760.0 720.352913324 759.987200002 714.876910299 760.0C714.807765309 758.393210088 714.684334998 755.997150435 714.626677483 754.804570608C716.943895207 754.548100645 719.293223824 754.335710676 721.633486543 754.053590717C716.249723536 753.425230808 710.913111208 752.44729095 705.517810694 752.101041C705.425550664 752.588340929 705.22116768 753.566290787 705.117430182 754.053590717C703.791647546 754.015090722 702.489350191 753.966890729 701.163577562 753.928430735L700.663091915 752.201170985C700.271126879 752.137070995 699.503557451 752.014931012 699.111582408 751.950851022C697.416899743 752.502250942 695.845797487 753.397750812 694.231837346 754.128690706C696.306937533 755.590570494 698.412807742 756.99622029 700.487917936 758.509400071C695.046517427 759.650689906 689.532489661 759.881359872 684.021904135 759.560769919C683.307139065 759.48376993 681.883893014 759.349499949 681.169127944 759.285419959C680.12003534 758.413420085 679.094107808 757.529600213 678.091125206 756.631950343C676.21201254 757.542430211 674.326295576 758.37616009 672.435635397 759.235349966C668.777925466 759.542409921 665.089825761 759.685749901 661.424921149 759.660909904C660.498148134 759.653909905 659.57363659 759.638609907 658.647213802 759.610809911C657.737571933 759.098659986 656.828570481 759.046289993 655.919559022 759.0C655.911553813 758.99958 655.902848149 759.00044 655.894542745 759.0C654.985531286 759.128769981 654.074958812 759.06599999 653.166887965 759.0C653.158882756 758.9994 653.150177092 759.00061 653.141871688 759.0C652.225525457 759.243589965 651.329282306 759.171679975 650.414216908 759.085069988C650.322056943 757.315410244 650.219640304 755.585030495 650.138947801 753.82821075C652.992224318 753.783310756 655.845070555 753.717300766 658.697276376 753.652980775C665.827775917 753.492190798 672.961457529 753.313630824 680.093087806 753.377620815C681.519405856 753.390420813 682.945613835 753.419020809 684.372252093 753.452720804C686.954612336 753.234720836 689.47602292 752.471700946 691.954625652 751.625341069C689.902560452 750.086531292 687.553512017 749.295501406 685.09795428 749.372401395C672.635745601 749.462201382 660.152703366 749.839661328 647.736604689 748.621421504C646.214854545 746.697891783 645.129918619 743.912992187 642.88188591 742.964042324C640.633853202 743.117932302 638.492850134 743.925582185 636.325509929 744.541102095C634.319564738 742.78428235 632.289063569 741.040452603 630.294645878 739.309272854C633.6494187 739.104102883 637.026656138 738.963132904 640.40448396 738.78359293C637.061228633 738.386062988 633.741918886 737.986923045 630.444793573 737.281633148C627.677963304 736.678923235 625.005864672 737.685063089 622.411976929 738.608362955C624.002892076 739.480352829 625.589174209 740.351962703 627.191626863 741.236792574C625.185681672 741.903612478 623.21871184 742.64643237 621.235831657 743.364572266C616.24402368 743.005502318 611.253516549 742.453722398 606.296291073 741.812542491C605.662198494 747.621601649 605.51322156 753.475040801 605.720746589 759.335399951C608.061009307 758.578810061 610.402742983 757.873830163 612.777608217 757.232660256C612.616203196 757.835360169 612.299887382 759.033079995 612.126964868 759.635789908C605.947734281 759.802499884 599.769074064 759.635329908 593.65900848 758.609450057C592.632970877 747.042631733 593.369690232 735.394323421 593.058417699 723.789035103C592.355180129 723.87883509 590.947394137 724.074705062 590.255694075 724.164525049C589.898321546 718.406755883 590.115682975 712.611286723 589.354817909 706.891987552C587.844595265 701.044468399 584.70007925 695.93524914 582.498146537 690.395469943C578.221113637 680.611141361 573.841804189 670.881262771 569.76075881 661.007144202C567.212961056 654.87750509 568.068417668 647.919686099 566.857930051 641.456647035C564.736709855 648.80451597 565.170081833 656.607594839 564.30544925 664.186293741C563.694441691 677.933111749 563.181077665 691.706709753 562.028237556 705.415067766C561.601690018 708.338827342 563.283624388 710.83946698 564.505649512 713.25028663C566.868957226 717.379466032 568.967232493 721.692345407 570.81178267 726.142104762C561.23166926 726.539624704 551.629361408 728.680464394 542.083840505 726.692824682C551.790756421 734.425413562 563.075288832 739.091552885 573.439332316 745.567441947C573.508577371 747.119091722 573.583876365 748.659041499 573.664558862 750.223511272C573.214946316 750.697981203 572.287382787 751.651531065 571.837770241 752.125990996C571.607210224 754.408580665 571.417716929 756.701740333 571.187136899 759.009979999C563.497693674 755.701500478 555.255310673 758.37718009 547.43904493 756.056120427C547.496682433 755.073319699 547.606603955 753.692469899 547.66426147 753.0C554.650497144 752.987200001 561.650421726 752.975000003 568.659682382 752.975000003C568.740334859 752.008611013 568.815733918 750.778731191 568.884898921 749.54766137C554.670370075 749.368141396 540.448406391 749.861651324 526.268440033 748.771651482C524.8504474 746.668581787 523.430333387 744.57806209 521.989285752 742.513492389C519.591375525 743.244432283 517.18017665 743.971982178 514.782276429 744.741392066C514.355718884 744.189982146 513.493687994 743.102752304 513.055592943 742.538522386C511.637600309 741.512642534 510.221408848 740.497602682 508.826481223 739.484542828C512.238891546 739.189602871 515.676007946 738.938742907 519.111483277 738.733552937C513.105175204 738.477032974 506.881215513 735.634563386 501.093959969 738.558332963C502.719457618 739.481622829 504.375184936 740.488132683 506.023757598 741.437082545C499.902164513 743.745312211 493.430783835 743.298262276 487.205453253 741.88767248C498.560931825 734.462853556 510.799124746 728.865724367 522.039328313 721.235735473C510.925947264 721.941025371 499.801178806 721.168135483 488.756952753 719.80887568C482.727589679 719.616505708 476.745727512 718.806425825 470.739429445 718.331945894C470.647169415 719.973365656 470.544842835 721.621345417 470.464160338 723.288415176C469.230627726 724.724644967 468.007591944 726.182214756 466.785586832 727.644094544C465.425221695 727.926214503 464.080476721 728.200264464 462.731639084 728.495204421C460.425948861 720.147105631 461.151210761 711.353406905 461.105060733 702.76163815C461.105060733 696.798709015 461.234394885 690.82623988 461.4303724 684.863290744C460.381279796 682.991061016 459.328364705 681.103181289 458.302327102 679.230951561C451.097068918 678.897531609 443.875029815 678.872581613 436.681299132 678.680231641C438.744871819 676.769511917 440.816159526 674.881642191 442.937389729 673.047882457C436.585226621 675.484352104 431.1004679 670.574952815 425.670584884 667.740953226C410.118755908 659.315904447 394.527000954 650.995385653 378.975161971 642.583146872C374.467549041 640.197977218 370.014051322 637.675297583 365.587130895 635.123417953C366.048270941 631.62258846 366.542832733 628.135558966 367.038555281 624.634739473C370.116638071 622.711199752 373.192479402 620.727500039 376.247507191 618.727030329C373.195241005 602.543732675 370.458530333 586.184575046 367.0 569.988457393C364.567517277 554.959289571 367.533967432 539.660311788 366.899904872 524.554203978C364.752858066 510.756085977 366.243417916 496.823777997 365.136697816 483.0ZM362.058715091 568.811997563C362.692777651 581.189003596 362.264819195 593.599651797 362.333984198 606.0C357.296076225 606.025599996 352.270696404 606.026199996 347.244305925 605.975000004C351.325361311 595.572813685 355.150760351 585.038445212 358.655410692 574.369276758C359.185715741 572.073867091 360.77906247 570.581677307 362.058715091 568.812027563ZM342.389587147 619.853570166C346.781905059 621.533449923 352.984941136 620.739910038 355.302148853 626.061669266C351.405543482 626.279669235 347.487354067 626.332109227 343.590748696 626.537289197C343.244893662 632.295048363 348.161942997 634.351458065 352.02395586 636.274987786C350.386920704 648.867695961 347.763423695 661.247774167 345.342458467 673.673772366C344.616165896 667.826243214 344.065927877 661.974634062 343.916070371 656.075814917C343.754675357 643.983236669 342.620147163 631.946148414 342.389587147 619.853570166ZM354.976827179 640.880997119C355.576317244 655.089465059 355.294553912 669.327542996 355.352191414 683.561660933C355.525123935 691.973899714 354.021685705 700.257178513 353.82570819 708.669417294C351.404742962 708.759217281 348.989611529 708.855007267 346.5686463 708.944777254C346.199736264 703.469118048 345.660445368 697.986788842 345.867970397 692.498319638C346.329110443 686.419970519 347.91403169 680.538501371 348.870894284 674.549912239C351.026706988 663.354963862 352.578916951 652.011825506 354.976827179 640.880997119ZM365.075078851 641.08125709C368.866294521 642.863736831 372.359647511 644.980506525 375.772057835 647.314386186C392.811054453 658.368264584 409.97925514 669.220603012 427.12200927 680.082131437C416.239188238 687.891660306 404.123004704 693.294659523 392.813636133 700.28347851C382.241701156 706.656767586 371.629186002 712.460686745 361.0 718.256925905C360.780947471 704.266457932 360.471936409 690.241979965 361.175163972 676.277161989C362.485513921 664.543643689 363.582007367 652.789135393 365.0 641.08125709ZM568.834866367 661.082344191C573.330951797 672.456812542 578.105008091 683.746140906 582.047723464 695.377079221C577.593171908 695.492489204 572.795810449 695.490679204 568.0 695.45217921C567.988492513 685.937130589 567.978986328 676.40497197 568.025016277 666.889923349C567.487769863 664.799683652 568.327626326 663.005873912 568.834866367 661.082354191ZM432.977709348 679.956961456C432.182241768 681.636841212 431.382361317 683.30865097 430.575376243 684.988530726C430.575376243 697.222178953 431.611520422 709.465577179 430.850635343 721.686395408C428.475780117 721.519695432 426.107048874 721.302375463 423.743721148 721.135675488C423.224943599 721.67426541 422.210513549 722.724855257 421.691725994 723.263455179C418.567533202 722.63509527 415.443330404 721.939255371 412.307600105 721.310895462C412.134667584 719.028315793 411.958943247 716.758966122 411.832140742 714.502016449C413.330835885 711.11660694 413.987903413 707.420177475 413.884135896 703.66288802C414.356803442 703.303818072 414.851355228 702.96996812 415.335550275 702.636538169C414.34410518 701.367018353 413.37607532 700.07608854 412.407695233 698.806548724C408.534154869 698.703968739 404.65842308 698.585558756 400.79640021 698.406028782C411.448661226 692.096859696 422.406150843 686.420020519 432.977709348 679.956961456ZM276.0 684.613040781C276.945325087 692.14044969 276.88514593 699.738938589 276.700675903 707.31765749C286.488314342 709.125777228 296.181971632 711.557676876 306.004182566 713.25038663C306.442267611 710.544617023 306.865402929 707.820537417 307.280432973 705.114777809C306.288987878 705.037777821 304.304536672 704.866257845 303.301564076 704.789357857C303.290056589 698.418938055 303.394624627 691.706699028 303.751997156 685.0C294.494683778 684.961500005 285.245785877 685.013399998 276.0 684.975000003ZM587.152695073 709.145037225C587.337145087 714.479626452 587.410532838 719.80630568 587.352885329 725.140894907C586.0386402 725.1921949 584.715239114 725.252014891 583.424058993 725.316134882C581.925373856 720.712485549 580.927834796 715.94365624 580.120849722 711.147646935C582.43805744 710.391057045 584.78935734 709.73492714 587.152695073 709.145037225ZM474.067675006 721.436065444C486.472256189 721.500165435 498.839723224 723.428395155 511.278876902 722.812855245C511.255861927 723.428395155 511.201826768 724.650534978 511.178781774 725.266054889C502.555530957 729.626054257 494.538984899 735.338313429 485.904186568 739.659832803C483.379473835 741.019132606 480.528538841 741.042702603 477.79630108 741.311992563C477.830923607 737.311053143 477.87525245 733.309473723 477.921432498 729.321354301C477.275842437 729.218774316 475.976016691 728.998384348 475.31889913 728.895794363C474.903879092 726.395214725 474.471167543 723.911005085 474.067675006 721.436065444Z"/>
<g style="fill:#2e3192">
<path d="M1501.0 514.0L1503.0 514.0128C1503.21814194 544.30233 1502.8046729 574.59185 1503.17221205 604.86855C1509.54523648 606.85371 1514.25480101 612.2072 1517.37923409 618.43161C1527.16590232 637.18165 1531.16330345 658.73651 1535.0 679.76628L1535.0 720.68595C1511.24524268 721.09578 1487.54792273 723.60604 1464.0 727.0C1465.4014119 702.87084 1468.60619727 678.84414 1473.86712058 655.36817C1477.18688076 642.25338 1480.79372775 628.95929 1487.35259563 617.33016C1490.28262616 611.48999 1494.94636087 606.53352 1501.0 604.81733C1501.33311676 574.55342 1500.85070285 544.27671 1501.21814194 514.0Z"/>
<path d="M47.0 518.0C48.1310363673 518.37133 50.0474592488 518.11524 51.0 518.0C50.5350685018 565.99147 50.9319557284 613.99573 50.750524684 662.0C41.8828220939 660.10493 32.9470802355 658.58119 24.0 657.17269C27.5266685551 633.43304 30.4750098332 609.20683 38.9344808157 586.92691C40.8962622088 581.40814 44.3435531184 576.81131 46.7249054968 571.56145C47.3628720954 567.41277 46.9433011101 563.13605 47.0 558.92335C46.9659778642 544.95358 46.920618352 531.47039 47.0453595123 518.0Z"/>
</g>
<path style="fill:#10a032" d="M1198.0 570.0C1199.55110823 570.089500016 1201.19117427 570.025600005 1202.0 570.0C1202.11377396 584.025512562 1202.05603643 598.051035123 1202.03402212 612.076547685C1203.18376945 612.766957811 1204.64181718 613.47014794 1206.12247961 614.186128071C1204.68744684 616.410778477 1203.25221394 618.648218886 1201.85120328 620.911219299C1202.91049182 620.987919313 1205.04037624 621.141349341 1206.1110722 621.218059355C1206.19112423 625.808010193 1206.22504628 630.410721034 1206.25916846 635.013441875C1207.05648672 635.115731893 1208.67393806 635.333081933 1209.47115625 635.448141954C1209.15224896 639.667312725 1208.81062691 643.886473495 1208.5258418 648.118414268C1207.70851053 648.617054359 1206.56947015 649.614304541 1206.0 650.10015463C1205.98799219 654.063595354 1205.97698504 658.027056078 1205.97698504 661.990516802C1208.43428228 662.067216816 1210.64411868 662.080016818 1212.87656977 662.182286837C1213.00175114 664.764937309 1213.0473808 667.34756778 1213.195377 669.955778257C1215.21148747 669.942978254 1217.26182018 669.981378261 1219.31195277 669.994078264C1220.20043028 671.362098514 1221.08890779 672.742918766 1222.0 674.110959016C1221.48746685 678.061619737 1220.99764847 682.012290459 1220.74708561 685.988531185C1220.21183769 691.064312112 1219.65367489 696.152873042 1219.31195277 701.267013976C1219.79036374 701.740064062 1220.73567819 702.673404233 1221.20268174 703.146454319C1220.30289688 711.993905935 1219.47135638 720.866927556 1218.41206784 729.701599169C1219.10701956 730.085169239 1220.50793015 730.852279379 1221.21408916 731.235849449C1220.39395607 740.185581084 1219.51698604 749.135322719 1218.49181968 758.059474349C1219.18667134 758.430254416 1220.57627458 759.171814552 1221.27102617 759.54257462C1220.61039676 765.717905748 1219.84730075 771.893216875 1219.36898984 778.10689801C1205.54130185 781.571718643 1191.82758793 785.522389365 1178.0 789.0C1179.44664032 788.105019837 1180.80192125 787.018279638 1182.24856157 786.084939468C1180.91589533 777.186347842 1180.09586231 768.211036203 1178.70625907 759.338014582C1179.38960324 759.222944561 1180.76779907 758.980024517 1181.45124331 758.852174494C1181.24621004 749.723442826 1179.6856957 740.70978118 1179.355381 731.593829515C1180.00460299 731.056849417 1181.31455446 729.982879221 1181.96377645 729.445899123C1180.83624356 720.713507528 1180.14129184 711.929985923 1178.91119227 703.210374331C1179.50347726 702.762894249 1180.68804723 701.855134083 1181.28033222 701.407644001C1180.47160654 694.580272754 1179.65157352 687.740121505 1179.50347726 680.848830246C1179.29844399 681.705450403 1179.1049182 682.574850562 1178.92259969 683.457040723C1178.54675539 678.936951632 1178.45559614 674.27030078 1180.14129184 670.0C1182.36243558 669.987199997 1184.57207185 670.012800002 1186.81593035 670.0C1187.06649322 667.296367771 1187.36258568 664.675377292 1187.67018562 662.028806809C1189.85410517 662.016006807 1191.92705258 662.067106816 1194.0 662.079906818C1194.0 658.065296085 1194.01200781 654.063485354 1194.03502276 650.048894621C1193.10411768 649.268984478 1192.32951418 648.501874338 1191.57782559 647.734754198C1191.47535898 646.085443897 1191.38419973 644.448913598 1191.30454796 642.825183301C1191.20188122 640.344822848 1191.16785911 637.877252398 1191.12222945 635.409681947C1191.80557362 635.320181931 1193.14974734 635.128401896 1193.82168409 635.038911879C1193.8336919 630.359481025 1193.98108771 625.692820172 1194.39115425 621.038969322C1195.7352279 620.962269308 1197.10201631 620.949369306 1198.49161955 621.013369318C1197.26151999 618.584148874 1195.54160204 616.436208481 1194.12918397 614.109278056C1195.15254916 613.546717954 1196.5647671 612.984177851 1198.0 612.434397751C1198.1024666 598.332175175 1197.9879922 584.229942599 1198.05603642 570.127720023Z"/>
<path style="fill:#006cb7" d="M1409.0 578.0C1408.56059129 576.24551 1409.53902631 571.28914 1411.64529332 575.0C1413.37181386 585.54192 1409.70023093 596.93131 1413.90115742 606.94678C1414.30401888 614.59963 1413.78608273 622.30384 1414.69537288 629.931C1415.71983778 639.31729 1414.44220857 648.87051 1416.21465893 658.17976C1417.66500023 662.73808 1419.51800286 667.12949 1421.210001 671.58509C1422.57958989 671.71349 1423.97229378 671.85473 1425.37650514 672.00881C1425.5376097 673.45978 1425.69881433 674.91074 1425.89444129 676.37453C1426.62906122 676.95235 1427.80302314 677.53017 1429.0 678.13367C1429.03502274 685.18301 1429.03502274 692.25805 1429.02301494 699.32024C1430.76300109 699.6284 1432.0865601 699.94941 1433.44464152 700.27042C1434.29649439 710.77382 1431.36148952 722.13753 1436.0 731.88335C1418.93092183 734.43858 1401.98842582 737.93115 1385.0 741.0C1384.93095519 735.77398 1384.38990404 730.18842 1387.11777448 725.60442C1387.57817329 717.18115 1387.23294923 708.74505 1387.37103885 700.30894C1388.66358362 699.98793 1389.82603808 699.66692 1391.0 699.37159C1390.97698507 692.29657 1390.98799221 685.23438 1391.04602988 678.15934C1392.05547914 677.62004 1393.22944107 677.08076 1394.4379254 676.5543C1394.70269724 675.19322 1394.97887649 673.84498 1395.27817073 672.49675C1396.73991944 672.04733 1398.22458301 671.59792 1399.72105425 671.17419C1401.64300163 665.61433 1404.26720479 660.23422 1404.83127088 654.22493C1405.55644153 646.19972 1405.07292772 638.13598 1405.49890419 630.09793C1406.46563162 624.47385 1406.45412415 618.74706 1406.32754199 613.04595C1406.5369014 608.1923 1408.74683569 603.78805 1409.0 599.01144C1409.32230918 591.76485 1408.631761 584.86958 1409.01100714 578.0Z"/>
<path style="fill:#e76e15" d="M1076.0 613.0C1076.26352129 612.17391 1077.45129334 610.7289 1078.04517937 610.0C1078.90173613 620.19182 1077.70255666 630.48593 1078.73032471 640.65217L1079.34702557 642.82608C1079.62110372 645.01279 1078.04517937 647.10997 1079.06154 649.23273C1081.11727623 652.42966 1083.49272027 655.48594 1084.34927703 659.42455C1084.72086857 659.91049 1085.57752539 660.86956 1086.0 661.34271C1086.0 663.08183 1086.01200781 664.82097 1086.02301496 666.57289C1086.51908741 666.9821 1087.37574423 667.80051 1087.79831891 668.20971C1087.80932606 670.19182 1087.80932606 672.17391 1087.84434883 674.1688C1089.1270826 674.98721 1090.06349127 675.80562 1091.0 676.64961C1091.0 680.76726 1090.9879922 684.8977 1090.97698504 689.04092C1090.95517086 689.33503 1092.31485466 689.94884 1093.0 690.25575C1093.0 696.18926 1093.01200781 702.12275 1092.96597789 708.05626C1094.85290438 708.63171 1095.91499474 709.20716 1097.0 709.78261C1097.0120078 719.9872 1097.03402211 730.17902 1096.98799219 740.37084C1097.19702807 740.66496 1098.5789263 741.24041 1099.27547906 741.53452C1099.50402762 753.63171 1098.87581928 765.78005 1099.53824986 777.86445C1101.89087907 788.64449 1100.70310702 799.76982 1101.0 810.75447C1084.98859259 815.43478 1068.97728524 820.14066 1053.0 825.0C1053.02301496 810.9335 1052.97698504 796.86701 1053.01200781 782.81329C1053.25186371 782.42967 1053.74298294 781.67519 1053.98273878 781.30434C1054.48526542 768.19693 1054.05078301 755.07672 1054.23390204 741.9693C1054.81648071 741.59847 1056.0041527 740.85677 1056.59803873 740.48593L1057.0 739.91048C1057.29699305 729.75703 1056.98799219 719.59079 1057.12568169 709.42455C1057.97858608 709.29667 1059.32616201 709.02813 1060.0 708.88746C1060.1027668 702.69821 1060.09105919 696.52174 1060.06804423 690.33248C1061.87581928 689.85933 1062.92650222 689.3734 1064.0 688.91304C1063.95397008 684.66751 1063.95397008 680.43478 1063.95397008 676.20204C1064.06609296 675.74169 1065.27667984 674.84654 1065.87056587 674.39897C1065.81252814 672.34015 1065.81252814 670.30691 1065.79051383 668.26087C1066.3387702 667.80051 1067.44649022 666.89258 1067.99464652 666.43223C1068.00665433 664.39897 1068.04067644 662.37851 1068.08570571 660.37084C1068.66818432 660.03836 1069.84444889 659.3734 1070.4269275 659.04092C1070.4149197 657.65984 1070.40391254 656.29155 1070.40391254 654.93606C1071.94561465 653.2225 1073.47600941 651.50895 1075.06344124 649.83376C1075.06344124 649.2711 1075.0864562 648.13299 1075.098464 647.57033C1074.8356932 646.91816 1074.33336669 645.61381 1074.07059589 644.96164C1076.66318107 634.61126 1074.32195927 623.62661 1075.65812778 613.0Z"/>
<path style="fill:#0f75bd" d="M0.0 653.0C7.88398160659 654.602029791 15.8485287762 655.793949636 23.7555298791 657.216539451C32.8364953338 658.626329267 41.9059517751 660.151459068 50.9063521366 662.048258821C65.9377094419 664.688398477 80.9460477207 667.443898118 95.9198579597 670.417247731C121.689543628 675.159257113 147.378663203 680.32419644 173.079287793 685.501955765C186.096497776 688.142105421 199.113687767 690.782245077 212.13089775 693.473654727C225.643003307 695.883104413 238.993988674 699.215313978 252.483074205 701.778563644C260.528188467 703.329333442 268.48121263 705.379923175 276.537851898 706.917872975C286.309388147 708.724962739 295.988844291 711.160042422 305.794905581 712.851782202C307.291127307 713.159372162 308.787359029 713.492602118 310.28359075 713.86427207C326.799674762 717.542531591 343.315748779 721.23360111 359.889377858 724.591450672C365.75919462 725.040020614 371.859211641 724.463290689 377.015447579 728.244080196C463.946412661 747.686287663 550.854377709 767.448915088 637.474587433 788.595692333C688.104710723 800.963350721 738.550673804 814.228148993 788.985151861 827.518577261C816.815023904 835.285206249 844.70245101 842.872415261 872.371192867 851.31831416C888.956336957 856.406353498 905.679581211 861.058642891 922.0 867.146342098C879.11574063 881.385180243 836.392611447 896.239188308 794.026287669 912.297916215C755.492613304 926.895684313 717.062504067 941.993202346 679.691296036 960.0L651.94197909 960.0C651.550648644 959.218130102 650.768007741 957.667360304 650.37668729 956.885580406C647.09649851 956.296020483 643.804784724 955.744930554 640.490050912 955.693670561C637.808362817 955.884720015 635.149664762 955.974380004 632.490986697 956.0C629.694188477 955.987200002 626.920400287 955.948800007 624.135117078 956.0C613.28169958 955.475750589 602.405252061 955.744910554 591.597874615 956.872720407C590.953333878 957.654630306 589.687292421 959.218210102 589.042761679 960.0L129.366357465 960.0C128.859936883 956.911170402 130.183523408 952.463940982 127.260120042 950.592771226C123.277855454 948.320740089 118.846705355 948.961550005 114.645755517 949.0C111.492161887 949.038399995 108.350073272 948.948800007 105.208004648 949.0C92.5130570376 948.875401449 79.8526484621 950.464601242 67.1577118467 950.349261257C66.7778984099 953.566260838 66.3175208795 956.783120419 65.7995952831 960.0L0.0 960.00004L0.0 653.0Z"/>
<path style="fill:#a01f62" d="M1464.0 727.0C1487.49171651 723.9176 1511.2170232 721.40948 1535.0 721.0L1535.0 812.96836C1519.52042078 813.1731 1504.31679856 816.74331 1489.021224 818.91872C1436.57929689 828.97676 1384.85030037 843.14247 1333.51230126 858.63902C1257.10349264 881.74948 1181.45349085 908.03347 1106.96528706 937.95165C1112.04845321 924.19542 1120.97272908 912.42266 1124.38845921 897.89864C1114.16455675 905.81967 1106.24066253 916.69669 1097.97194698 926.92108C1102.92857869 913.94544 1110.93283127 902.19826 1113.00285868 888.01976C1107.96576866 892.33217 1103.65310328 897.54034 1099.05298684 902.37742C1103.74515558 892.94641 1108.43732432 883.31065 1110.54183387 872.68956C1099.7200412 882.08218 1091.19805689 894.16207 1082.56133202 905.89645C1084.21737394 893.84215 1086.20704299 881.6599 1085.42494823 869.42646C1078.57069978 878.69111 1074.97106493 890.29753 1071.40581228 901.48166C1067.46125616 889.58093 1064.59763995 877.12994 1058.70939095 866.15056C1057.57078093 874.35311 1057.83534384 882.65803 1057.97337232 890.93735C1053.60313677 884.51352 1049.34804156 877.97451 1044.26477546 872.22889C1044.71334303 879.33094 1046.05884586 886.30503 1047.23203797 893.29191C1041.78076256 885.61401 1036.35257518 877.80815 1029.53280886 871.55068C1031.8444111 881.97981 1036.35257518 891.52599 1040.504224 901.16175C1037.0195296 898.0522 1033.60389942 894.87867 1030.07322884 891.8459C1030.78635933 895.62087 1031.78684093 899.31905 1033.00590927 902.95326C1028.451769 897.74509 1023.92061683 892.48573 1018.87193281 887.879C1020.52797473 899.53659 1026.53116417 909.49226 1030.84382955 920.06216C1023.23057438 912.69138 1015.59433111 905.23104 1006.95740635 899.34465C1011.00560877 913.43358 1020.02193694 924.75847 1025.61114088 938.02843C1028.79679023 944.93854 1030.46432619 952.50126 1032.09728007 960.0L680.0 960.0C717.341921207 942.02094 755.741884188 926.94668 794.245343541 912.37147C836.578448556 896.33747 879.268078837 881.50634 922.118715692 867.28944C925.810342868 866.09937 929.501990033 864.85811 933.182123165 863.56567C941.082939341 860.99358 948.983735527 858.38309 956.907539791 855.84938C988.982250215 845.38186 1021.13745893 835.19585 1053.43062616 825.5729C1069.51988947 820.71023 1085.64343502 816.00112 1101.76698058 811.31761C1127.2059993 803.74209 1152.79454054 796.85758 1178.29092953 789.56358C1192.25249532 786.08293 1206.09902072 782.12882 1220.0605865 778.66097C1239.00187204 773.84949 1257.90847554 768.91005 1276.94161348 764.53365C1296.66489382 759.59421 1316.50321456 755.15383 1336.34153529 750.79022C1352.33854641 747.04084 1368.48517999 744.12325 1384.53986123 740.6682C1401.51436585 737.60983 1418.44319415 734.12919 1435.49835698 731.58269C1445.03582632 729.75124 1454.50062212 728.19007 1464.0 727.0Z"/>
<path style="fill:#3388a2" d="M156.0 723.0C168.755325227 723.620553241 181.74872946 722.14492029 194.788133623 722.0C199.134591671 722.210800422 204.308948396 719.90513581 208.0 723.422922846C205.458816564 723.37022274 202.917633129 723.409722819 200.364942206 723.37022274C198.24920559 723.37022274 196.121971493 723.396522793 194.00622487 723.488802978C189.441284665 723.673253347 184.370415275 723.831353663 181.219805313 728.258232516C185.313288761 729.65480531 189.521767032 730.603427207 193.776255239 731.038208076C194.22469702 731.090908182 195.121590589 731.183138366 195.57003237 731.235838472C193.040356422 731.71014942 190.476158012 732.197630395 187.900472127 732.0C176.804342366 731.222658445 165.67370015 731.235838472 154.554575428 731.249008498C151.990377017 731.249008498 149.47219855 730.577077154 147.0 729.891965784C147.344954447 727.902511805 146.885025191 725.201576403 148.77078217 724.09486419C151.239592614 723.054012108 153.700283676 723.462442925 156.0 723.304342609Z"/>
<path style="fill:#5d9e84" d="M181.0 728.0C184.203244573 724.31762 189.358809656 724.17102 194.0 724.0C192.982918114 725.13612 191.977523835 726.29669 190.972129555 727.44503C191.90736818 728.63001 192.830929205 729.8028 193.766187842 731.0C189.440642911 730.17452 185.161868416 729.29494 181.0 728.0Z"/>
<path style="fill:#88b464" d="M194.0 724.0C196.102309503 724.0267 198.233065747 724.0 200.352304499 724.0C199.580622452 725.91625 198.808940405 727.85929 198.037268364 729.80234C200.824531725 730.32496 203.611795086 730.79396 206.410575939 731.19598L208.0 731.81239C203.876707434 732.62982 199.69580739 732.33501 195.549459825 732.0C195.100277592 731.9464 194.201903121 731.85259 193.752710881 731.79899C192.831301423 730.48576 191.921399452 729.19932 191.0 727.8995C192.007463679 726.51926 192.99796809 725.24623 194.0 724.0Z"/>
<path style="fill:#cfd932" d="M200.0 724.0C202.757656802 724.03913 205.243354765 724.00005 207.729032716 724.05213C208.055215031 724.54748 208.685075012 725.55121 209.0 726.04655C208.96627805 727.59776 208.92124874 729.16201 208.853784827 730.73929C208.178935562 730.80439 206.851731673 730.93482 206.176892414 731.0C203.443763395 730.60893 200.721881698 730.1527 198.0 729.64432C198.492848982 727.75418 199.246419488 725.86406 200.0 724.0Z"/>
<path style="fill:#3ab54a" d="M1468.0 758.0C1469.61354881 756.46352 1470.81853205 755.32157 1472.0 754.1668C1471.58653125 759.4146 1473.79586731 766.56135 1468.86926502 770.0C1465.46665332 772.8356 1460.44558963 771.23175 1458.24806124 767.53648C1457.40921599 763.0842 1457.91734628 758.49078 1458.0 754.0C1459.34687547 755.12911 1460.70545855 756.28388 1462.08775704 757.45148C1462.71396408 756.59182 1463.97808576 754.85967 1464.6160004 754.0C1465.4126182 755.56215 1466.7004553 756.78108 1468.0 758.0Z"/>
<path style="fill:#39b74a" d="M1454.0 768.0C1459.49915998 774.60362 1460.54383627 783.90234 1463.67796521 791.911C1466.53661581 783.90234 1467.98315225 775.0379 1473.0 768.21713C1473.29839317 779.12526 1468.98189881 789.40749 1464.75716385 799.0C1461.30162684 798.18253 1460.31418761 794.14627 1459.09729983 791.00412C1456.51422763 783.63411 1454.0460298 776.00865 1454.0 768.0Z"/>
<path style="fill:#3489a1" d="M57.0 778.0C64.3600001601 776.02597 72.0995002096 777.49351 79.6319995917 777.0C86.3709997508 777.24675 93.1559998359 775.37662 99.8144996243 777.11688C97.6525001026 778.50649 95.6399998399 780.14286 93.6045006149 781.76624C96.6979991374 783.0 99.8029991424 784.2078 103.0 785.0C94.8579990974 786.7013 86.6124998624 784.79221 78.4129995527 785.0C72.0650007655 784.66233 65.6595005699 785.36364 59.334500745 784.49351C56.8620002221 783.41559 57.4370002972 780.09091 57.0 778.0Z"/>
<path style="fill:#6da678" d="M99.0 778.0C104.517729243 777.49924 109.964532842 776.29376 115.331904765 777.0C115.740420539 777.38965 116.568789462 778.18113 116.977295229 778.58296C113.198576857 778.21766 109.419858486 778.69255 105.777308704 779.78843C105.856760394 781.01827 105.936172058 782.2481 106.026951117 783.50228C109.658163524 784.06241 113.334745446 784.36682 117.0 783.95282C113.051060886 787.60579 107.025530777 785.0 102.270917504 785.0C99.1163101695 784.25723 96.0524808932 783.12481 93.0 781.96804C94.8808511504 780.83714 96.8666660885 779.30289 99.0 778.0Z"/>
<path style="fill:#ccd933" d="M106.0 780.0C109.773049263 779.122449796 113.687119322 778.59183068 117.601199388 779.0C117.930301279 779.027199955 118.588545086 779.067999887 118.917646977 779.095299841C118.941162117 780.537467438 118.97648486 783.448992585 119.0 784.891150181C118.659130533 784.918350136 117.96565404 784.972750045 117.624784573 785.0C113.828240182 785.462579229 110.019948228 785.122449796 106.258676548 784.496590839C106.164625994 783.095253175 106.082272971 781.721125465 106.0 780.346987755Z"/>
<path style="fill:#3ab54a" d="M1254.0 794.0C1256.74870878 791.5129 1260.03154514 787.21575 1263.46487945 790.0C1270.83987888 796.17875 1278.45783641 803.26016 1281.83323301 813.06224C1279.85644658 813.20209 1277.91448281 813.35466 1275.97241897 813.53264C1279.34781558 819.78767 1286.54950221 822.20323 1289.21983999 828.95408C1286.72291507 829.32278 1284.2375977 829.69146 1281.77539537 830.11101C1283.78680434 836.20077 1289.60118816 838.92144 1292.94196223 843.91783C1293.02301498 845.16376 1293.04613002 846.42239 1293.0 847.69374C1285.32440496 849.1685 1277.59097228 845.45617 1270.05406749 847.89715C1269.93849228 850.80854 1269.81130951 853.70721 1269.71884934 856.63131C1264.3781738 857.80095 1258.69097274 858.34763 1253.37341224 857.0C1251.18869049 854.737 1251.87073434 850.69412 1251.31587325 847.6556C1244.21815428 845.71044 1237.00496015 848.83795 1229.81488107 847.88444C1229.36398764 847.00722 1228.45089343 845.24004 1228.0 844.36281C1232.09206299 839.62068 1237.42113098 836.17533 1240.38035676 830.32713C1237.58293628 829.8186 1234.8202384 829.17021 1232.09206299 828.45825C1235.91835302 822.67363 1242.34553563 819.71139 1245.62847207 813.45636C1244.2874994 813.38016 1241.60565414 813.2148 1240.26478154 813.13852C1241.90624976 805.02257 1248.7843258 799.65749 1254.18263886 794.0Z"/>
<path style="fill:#3e8e9a" d="M271.0 810.0C285.859234267 809.76445 300.72515737 808.43159 315.613965363 808.0C317.546532865 807.83498 319.284703875 808.69816 321.0 809.53596C317.935335855 809.47256 314.882099145 809.47256 311.828872442 809.40902C307.723581172 809.2567 303.801268964 810.67842 300.130520446 812.55712C302.360411413 814.10578 304.601739822 815.65444 306.945985198 817.0C293.417982667 818.44711 279.912845013 815.73061 266.373415046 815.95909C265.241318403 814.79126 264.120659201 813.63611 263.0 812.46826C265.442433749 811.15515 268.072565149 809.75881 271.0 810.0Z"/>
<path style="fill:#82b06a" d="M300.0 812.0C303.75752597 810.33779 307.772569573 808.83947 311.974915099 809.0C311.77591556 811.10034 311.588633649 813.22742 311.413039345 815.36789C314.596991947 815.71572 317.792652169 815.91639 321.0 815.95652C316.79766448 818.76589 311.588633649 817.28093 306.976601435 817.0C304.576929363 815.26421 302.282605868 813.63211 300.0 812.0Z"/>
<path style="fill:#d1da31" d="M312.0 809.0C314.709844772 809.0671 317.854391586 809.0671 321.01070606 809.13436C321.234471711 811.43187 321.552468698 813.70249 322.0 816.0L320.645608414 815.9866C317.418627943 815.9463 314.203425139 815.74476 311.0 815.39543C311.611347022 813.24572 311.799789681 811.10945 312.0 809.00004Z"/>
<path style="fill:#ffde15" d="M1489.0 819.0C1504.30322228 816.77533 1519.51352127 813.20476 1535.0 813.0L1535.0 836.0C1527.0150033 836.0 1519.03020673 835.9488 1511.05681758 836.0256C1511.17199253 838.05797 1511.32158989 839.77286 1511.47108719 841.51336C1519.31799402 841.50056 1527.15319323 841.61574 1535.0 841.23181L1535.0 862.0C1485.9977089 862.0512 1437.00712542 861.9233 1388.00493439 862.0512C1388.0969943 863.50623 1388.22357668 865.24671 1388.36166655 867.0C1421.90029377 866.9361 1455.4274135 866.9872 1488.96624085 866.9744C1504.31472977 867.006 1519.67462612 867.69745 1535.0 866.8784L1535.0 894.0C1443.85298076 894.0384 1352.70596152 893.9233 1261.57034971 894.0639C1261.59336469 895.0967 1261.66240962 897.69463 1261.69693209 899.0C1343.58202359 899.0128 1425.47862258 899.0 1507.36361401 899.0C1516.56810437 899.05185 1525.80701713 899.69172 1535.0 898.84707L1535.0 933.37536C1521.21632947 932.69285 1507.36361401 933.95983 1493.5569285 933.0C1473.65237446 933.40952 1453.72470536 933.47351 1433.82005125 933.26875C1422.30305589 933.6953 1410.79746796 932.30035 1399.2804726 932.95303C1386.24458874 933.79768 1373.19729746 932.64588 1360.17302115 933.42655C1351.71641752 933.3711 1343.27142145 932.23213 1334.82622524 933.0C1306.06230544 932.62886 1277.3099932 933.15357 1248.54617347 932.89762C1238.15661186 933.51613 1227.76705024 932.47951 1217.38909618 933.34977C1201.41940297 932.53071 1185.43810221 933.93846 1169.48001656 933.00422C1169.44499376 934.6598 1169.4339866 936.3235 1169.4339866 938.0C1291.27778356 938.0896 1413.14459549 937.9488 1535.0 938.0384L1535.0 957.0C1390.66286419 956.9872 1246.32562832 956.9872 1102.0 957.0C1102.80532411 950.44756 1104.54265478 944.09989 1106.77480748 937.99536C1181.29620663 908.07427 1256.97976212 881.78773 1333.42261176 858.67502C1384.78353788 843.17696 1436.5355185 829.00987 1489.00086338 818.95085Z"/>
<path style="fill:#85b268" d="M490.0 822.0C495.518451477 822.55806 501.851781475 819.73137 506.0 823.74697C502.459406751 822.9948 498.825342697 822.90988 495.273061844 823.54073C495.460023468 825.34835 495.670350291 827.16811 495.869009524 829.0C492.877613542 828.41768 489.944645569 827.62911 487.0 826.90122C487.721407716 825.26343 488.866542656 823.62565 490.0 822.0Z"/>
<path style="fill:#398b9e" d="M449.0 823.0C461.342429576 821.83117 473.937202322 821.63636 486.473717172 822.0C484.283322347 823.37662 482.209433307 824.94805 480.123896691 826.51947C482.722076775 827.74025 485.32025686 828.98701 488.0 830.0C477.758738184 831.53246 467.482523632 829.03895 457.194661503 829.71429C453.652747531 829.55844 447.244679161 830.45454 447.0 824.90909C447.578575381 824.09091 448.522299262 823.36364 449.0 823.0Z"/>
<path style="fill:#5f9e82" d="M486.0 822.0C487.924263819 821.9077 489.459872556 821.9077 491.007208919 822.0C489.870149393 823.76574 488.721372246 825.54466 487.58431272 827.32358C490.53833397 828.1142 493.48060758 828.97072 496.481519327 829.60322C499.669973048 829.72181 502.834991527 829.26061 506.0 828.83895C504.839495226 830.32797 503.256985986 831.15812 501.498652393 831.0C496.973849531 830.9868 492.378730936 831.0923 487.924263819 830.11714C485.228130296 829.08932 482.614070151 827.8243 480.0 826.58565C481.709639616 824.99121 483.796206687 823.39678 486.0 822.0Z"/>
<path style="fill:#d0da31" d="M495.0 824.0C498.531155251 823.30673 502.143613349 823.40007 505.663151048 824.22673L506.0 824.29333C505.930254666 825.88 505.860609396 827.48001 505.790914094 829.09334C505.605053285 829.13334 505.210136589 829.2 505.024275779 829.22667C501.888067244 829.65333 498.751838695 830.12 495.592405063 830.0C495.394936709 827.98666 495.185840797 825.98666 495.0 824.0Z"/>
<path style="fill:#f6951c" d="M1511.0 836.0C1518.99232831 835.926858394 1526.99616416 835.975619465 1535.0 835.975619465L1535.0 840.731704647C1527.13455469 841.097561946 1519.2806169 840.987799781 1511.41517159 841.0C1511.26527353 839.34144691 1511.11537547 837.707294258 1511.0 836.073141606Z"/>
<path style="fill:#93bb5c" d="M184.0 842.0C190.074842773 842.39366 196.900872795 840.15874 203.0 843.11746C199.581306295 843.05396 196.11718304 842.8381 192.732581511 843.49842C190.938044246 843.77779 189.665966818 845.44128 189.949921517 847.51112C189.17758915 850.63492 191.971606531 852.17143 193.629835134 854.0C188.939074007 854.36826 184.30511983 852.88254 181.0 849.02222C182.885386358 846.64762 184.850274429 844.36191 186.860612062 842.13969C186.396488807 842.11429 184.795047142 842.03809 184.0 842.0Z"/>
<path style="fill:#418f98" d="M145.0 845.0C146.735989478 841.862640458 150.497286672 842.199789334 153.367454075 842.0C161.24882189 842.07489975 169.130209718 841.53798154 177.0 842.024999917C173.805791768 843.373595421 169.292235135 844.410011967 168.864026532 848.867857107C170.762031422 851.777317409 174.037252362 852.888663704 177.0 854.0C166.618815742 854.786677378 156.260766536 853.587931374 145.891139798 853.400631998C145.034732598 850.715930947 143.611226429 847.669101103 145.0 844.909490302Z"/>
<path style="fill:#65a27e" d="M177.0 842.0C179.465801742 841.675643857 181.951139342 841.896213627 184.425079523 841.987012967C185.223128939 842.064835264 186.83062519 842.142707512 187.628674606 842.168651608C185.610751226 844.439114638 183.638437532 846.774442902 181.745925777 849.200590487C185.06352506 853.144712433 189.714982494 854.662676804 194.423467045 854.28643247C197.627042115 854.0658627 200.830627191 853.741516547 204.0 853.170666519C200.625413626 855.9341373 196.270359108 855.025954086 192.394146247 855.0C187.263847155 854.584834527 182.122150645 854.90919067 177.014656396 854.481038163C174.096086825 853.326351074 170.869706912 852.171653995 169.0 849.148702296C169.407168151 844.516956915 173.853432034 843.440112103 177.0 842.038911149Z"/>
<path style="fill:#d3dc2f" d="M191.0 847.0C190.716775715 845.3489 191.98565133 843.66745 193.775686046 843.38507C197.15181278 842.71762 200.607251118 842.93583 204.017369969 843.0C206.985641324 844.36056 205.456196165 849.09685 206.0 851.95916C205.546835141 852.1902 204.640485409 852.66511 204.187300537 852.89615C201.037761237 853.46091 197.854229819 853.78179 194.670698401 854.0C193.016622149 851.71061 190.229608732 850.15752 191.0 847.0Z"/>
<path style="fill:#f28915" d="M1388.0 862.0C1437.00390254 861.882071565 1485.99609746 862.0 1535.0 861.952875947L1535.0 866.599100502C1519.67412254 867.424530534 1504.31362254 866.787734733 1488.9647301 867.0C1455.42479492 867.011830306 1421.89646729 866.964607667 1388.35683231 867.023562026C1388.21864234 865.337260338 1388.09205993 863.733455317 1388.0 862.141441168Z"/>
<path style="fill:#3ab54a" d="M1059.0 866.0C1064.91949676 876.997 1067.79696955 889.46796 1071.7606493 901.38778C1075.34318099 890.18571 1078.96023514 878.56067 1085.84771784 869.28116C1086.63362935 881.53422 1084.63432811 893.73602 1082.97014498 905.80965C1091.64889352 894.05644 1100.21196677 881.95718 1111.0864444 872.54949C1108.97156794 883.18762 1104.25669928 892.83883 1099.54183062 902.28497C1104.16433916 897.44014 1108.49775956 892.22361 1113.55925382 887.90428C1111.47920002 902.10553 1103.43616523 913.87156 1098.4555236 926.86801C1106.76433136 916.62722 1114.72661359 905.73275 1125.0 897.79902C1121.56776614 912.34633 1112.60022964 924.13798 1107.49240523 937.91628C1105.25054612 944.03 1103.50551037 950.38724 1102.69658388 956.94955C1102.59261621 957.70575 1102.40759579 959.23098 1102.30372819 960.0L1032.26174154 960.0C1030.62077352 952.48923 1028.94518297 944.91437 1025.74409955 937.99318C1020.12784422 924.70193 1011.06774748 913.35887 1007.0 899.24734C1015.67874854 905.14317 1023.35194262 912.61549 1031.00222179 919.99809C1026.66860126 909.41123 1020.63627514 899.4396 1018.97229214 887.7633C1024.04539395 892.37742 1028.5984573 897.64522 1033.1746357 902.86174C1031.94973847 899.2217 1030.94438414 895.51759 1030.22791783 891.73657C1033.77572691 894.7742 1037.20776064 897.95282 1040.70923957 901.06735C1036.53762449 891.41614 1032.00757612 881.85465 1029.68476432 871.40878C1036.53762449 877.6763 1041.9920745 885.49468 1047.46963956 893.18489C1046.29097243 886.1868 1044.93889243 879.20152 1044.4881991 872.08808C1049.59602351 877.84292 1053.8718064 884.39242 1058.26306444 890.82656C1058.12172838 882.53395 1057.8559554 874.21571 1059.0 866.0Z"/>
<path style="fill:#3a8c9d" d="M321.0 874.0C331.891403996 872.26372 342.977139263 872.89666 353.937134885 873.0C348.714278149 873.55543 343.022853676 874.17546 339.377124199 879.00646C343.217134932 884.28955 349.479999576 884.3283 355.0 885.0C343.651461873 885.10333 332.234292107 885.68461 321.0 883.96662C321.011403596 880.60064 321.011403596 877.29386 320.988596405 874.0Z"/>
<path style="fill:#4f968e" d="M354.0 873.0C359.16184835 872.399600924 364.676306345 871.890561707 370.086706633 873.05219992C369.254335049 873.130499799 367.6011494 873.274109578 366.768787822 873.352429458C365.161862273 873.456849297 363.56647423 873.574319116 361.9711062 873.704838916C359.254338529 874.109458293 356.248552808 873.926718574 353.867053281 875.623505964C352.861268865 877.189773554 351.994224721 878.860450984 351.092477997 880.518078434C354.283244076 883.102414458 358.028901196 884.577312189 361.98266372 884.43373241C363.578041756 884.472832349 365.173409786 884.538152249 366.780345342 884.603412149C368.641626389 884.655612068 370.526022475 884.773091888 372.410408555 884.825301807C376.641621603 884.994981546 380.838152085 884.38153249 385.0 883.650613614C383.832370279 884.799201847 382.583817906 886.091369859 380.907517217 886.0C372.202313157 886.326309498 363.485551577 885.882530181 354.803472564 885.125511345C349.219659444 884.44679239 342.884387385 884.40763245 339.0 879.069290663C342.959546505 874.187768173 348.71676245 873.561259137 354.0 873.00002Z"/>
<path style="fill:#a3c251" d="M370.0 873.0C375.099419987 873.13303 381.103213405 870.898 385.0 875.20842C381.337335274 874.71618 377.146012134 873.67849 373.0 874.51662C370.768400409 877.50997 372.682822952 881.59423 373.011300251 885.0C370.670241561 884.9468 368.823800529 884.82705 367.0 884.77383C366.977399498 880.94234 366.977399498 877.11086 366.988699749 873.30598C367.838228627 873.22618 369.458114625 873.07982 370.273722749 873.0Z"/>
<path style="fill:#65a27f" d="M354.0 876.0C356.231964407 874.22749 359.261647746 874.41484 362.0 874.0C360.158891507 877.5596 360.158891507 881.4404 362.011595267 885.0C357.991546178 885.14721 354.216117239 883.63504 351.0 880.9854C351.908899004 879.31874 352.782842276 877.60585 353.796618471 876.0Z"/>
<path style="fill:#7caf6d" d="M362.0 874.0C363.70229336 874.21694 365.345201152 874.10209 367.0 874.0C366.988148779 877.64966 366.988148779 881.32482 367.01185122 885.0C365.285785706 884.9362 363.642887874 884.8724 362.0 884.83411C360.107081254 881.09513 360.107081254 877.39442 361.98814878 874.0Z"/>
<path style="fill:#d2dc2f" d="M373.0 875.0C377.2224326 874.20061 381.467779842 875.19045 385.644303178 875.65999L386.0 875.71069C385.965508066 878.40104 385.919718773 881.0914 385.839367563 883.80714L385.529570008 883.85784C381.364513991 884.56853 377.199477969 885.16498 373.0 885.0C372.667257811 881.75127 370.728151263 877.85533 372.988502689 875.0Z"/>
<path style="fill:#429097" d="M517.0 881.0C520.662022756 880.365830563 524.381272748 879.843219759 528.123397624 880.0C535.367351023 880.169850261 542.622731858 879.516579256 549.866685257 880.03920006C548.035673878 881.29347199 546.284774627 882.691474141 544.533855362 884.076396271C544.47661812 885.396008302 544.362203674 888.022152342 544.304986445 889.328694352C547.406264343 890.400046 550.56475947 891.353827467 553.814804166 891.68045797C556.950414403 891.824178191 560.08602464 891.850318231 563.221634877 891.954828392C563.748047396 891.967928412 564.789444999 891.994028452 565.315857518 892.007028472C569.206759198 891.980928432 573.109108326 891.824108191 577.0 891.588927829C571.8388318 894.842222834 565.704940681 892.830149739 560.120356979 893.0C546.593745664 892.895469839 533.101466688 892.046218533 519.586312828 891.68038797C515.500864563 890.791946603 517.606524645 884.546686995 517.0 881.228071889Z"/>
<path style="fill:#63a180" d="M551.0 880.0C552.367709011 879.9602 554.178125782 880.0 556.0 880.0C553.490618902 883.47403 553.112503127 887.84972 554.521869215 892.0C551.267714014 891.66851 548.105208385 890.70055 545.0 889.61326C545.057337269 888.2873 545.171881723 885.6221 545.229158953 884.28287C547.4135388 882.69171 549.166668334 881.27293 551.0 880.0Z"/>
<path style="fill:#82b269" d="M556.0 880.0C558.908755034 880.09073 561.405110439 880.07773 563.912412971 880.05183C563.014598394 882.33261 561.85402273 884.54859 561.525548857 887.08856C562.083942434 888.87689 563.058386905 890.44493 564.0 892.0C560.999996664 891.89633 558.000013342 891.87041 555.0 891.72786C553.240873502 887.6717 553.602188758 883.39525 556.0 880.0Z"/>
<path style="fill:#adc84a" d="M564.0 880.0C564.431950768 880.0515 566.147936159 880.0129 567.0 880.0C565.248531546 883.74678 565.18935308 887.93133 565.840236153 892.0C565.295862311 891.9871 564.218942313 891.9614 563.674558463 891.9485C562.656816931 890.40344 561.603552309 888.84549 561.0 887.06868C561.77515385 884.54506 563.029589233 882.34335 564.0 880.07725Z"/>
<path style="fill:#d3dc2f" d="M567.0 880.0C571.145838754 879.9743 575.161231848 880.29614 579.0 881.60944C578.988192316 884.89271 580.201081627 888.81974 578.022643967 891.58798C574.019018531 891.81974 570.003625436 891.97425 566.0 892.0C565.198367553 887.93133 565.257245869 883.74678 567.0 880.0Z"/>
<path style="fill:#3d8d9b" d="M33.0 884.0C34.712740363 881.3987 38.1039658013 882.30066 40.6730773464 882.0C50.7896635169 882.26144 60.9062506879 881.0719 71.0 882.0L69.5384620773 882.11765C65.5991590423 882.99347 57.6748802563 882.58824 58.4627408633 889.34641C60.2896645175 892.81046 64.2175481226 893.17647 67.3461546929 894.0C56.3275246242 894.57516 45.2860576971 893.76471 34.2674276284 893.69935C32.6117794114 890.75817 31.184494775 887.04575 33.0 884.0Z"/>
<path style="fill:#71a875" d="M71.0 883.0C77.2817966796 882.95 83.9078448074 881.8 90.5681652339 882.0C92.9215544274 881.925 95.0464589611 883.05 97.0 884.35C92.476009541 883.8625 87.9177457827 883.425 83.3594820243 883.7125C81.6458490776 883.7875 79.9550649971 883.99999 78.2528564835 884.1625C77.567403505 887.425 77.7730392985 890.775 78.58415904 894.0C74.7227716927 893.5 70.8613873473 892.9625 67.0 892.47501C67.0456997338 889.1625 67.5712106487 885.8625 69.1477544006 883.0L71.0 883.0Z"/>
<path style="fill:#569a89" d="M58.0 890.0C57.2061354919 883.47525 65.1907955113 883.88449 69.1601150499 883.0C67.5723870343 886.02311 67.043144696 889.50825 66.997122753 893.00661C70.8859058925 893.52145 74.7746880314 894.08911 78.6634701703 894.61716C79.4918491343 894.70966 81.1601145495 894.89439 82.0 895.0C77.0067102409 895.66007 71.9443905691 895.68648 66.9511018106 895.0C63.798656751 893.86798 59.8408436989 893.49835 58.0 890.0Z"/>
<path style="fill:#a4c350" d="M79.0 883.0C80.7230679918 883.29694 82.4345704592 883.0775 84.169201974 883.0C84.0651252639 886.20187 83.9726110761 889.41667 83.8916624126 892.63146C88.5982964496 892.7993 93.3049284853 892.60566 98.0 892.23122C93.3743146265 895.27818 87.7888008088 894.20657 82.6889839753 894.0C81.8447967649 893.89672 80.167985867 893.71596 79.3353621796 893.62558C78.5143040164 889.82982 78.3061475942 886.36972 79.0 883.0Z"/>
<path style="fill:#d3dc2f" d="M83.0 883.0C87.9068581467 882.69169 92.4705861785 883.16086 97.0 883.68365C97.0228674821 886.64611 97.0 889.60858 97.0228674821 892.58445C92.3104628542 892.97319 87.6552309276 893.17426 83.0 893.0C83.0800711528 889.6622 83.1715680545 886.32439 83.2745086874 883.0Z"/>
<path style="fill:#3c8d9b" d="M642.0 892.0C647.223088712 890.56128 652.392301351 891.23226 657.469233961 891.0C664.646152638 891.0645 671.857693838 889.99354 679.0 891.25806L677.869234422 891.36129C673.969227418 891.70967 670.161530462 892.75483 666.376918524 893.77419C666.053848362 894.57419 665.419235539 896.18709 665.096155371 897.0C665.407688027 897.81291 666.030763345 899.45161 666.342316014 900.26452C669.988457876 901.37419 673.669232267 902.38064 677.430769195 902.87097L676.680771312 903.0C667.242311473 904.63871 657.72307909 902.48387 648.238459223 902.9613C645.51538783 902.48388 641.326923181 903.87743 640.0 900.30324C639.346163646 897.34839 638.56154324 892.71614 642.0 891.69678Z"/>
<path style="fill:#8db761" d="M679.0 891.0C686.605840658 891.30127 693.952151007 890.24686 701.264399191 891.0C702.819951411 890.9624 703.909980709 892.21757 704.920528287 893.37238C700.276576401 892.6318 695.439578897 891.31381 690.818331786 892.90795C690.409575803 895.682 690.364156247 898.50627 690.193845424 901.31799C695.133009408 902.4477 700.140317735 901.76987 705.0 900.48954C703.77373205 901.41841 703.001629632 903.01256 701.343880911 903.0C693.259530309 904.3682 685.129760151 901.85774 677.0 902.76151L677.738040253 902.63598C679.259530309 902.38494 680.76967298 902.08368 682.302510419 901.79498C681.348749794 898.25523 681.439568891 894.57741 683.619627486 891.6025C681.802925332 891.5272 679.974865788 891.43933 678.169501011 891.43933L679.0 891.0Z"/>
<path style="fill:#5e9e83" d="M666.0 894.0C669.979199246 893.33183 673.72211422 892.33296 677.555758218 892.0C679.359171439 892.0 681.185249404 892.0863 683.0 892.16031C680.822293281 895.08296 680.731564257 898.69619 681.684304067 902.17377C680.153117945 902.4574 678.644606575 902.75337 677.124757829 903.0C673.427222376 902.53139 669.809068566 901.5695 666.224946896 900.50897C665.91870767 899.73206 665.306229219 898.16592 665.0 897.38901C665.058637591 896.30605 665.682423399 894.76457 666.0 894.0Z"/>
<path style="fill:#d3dc2f" d="M691.0 893.0C695.258002548 891.29408 700.106271019 892.70452 704.761057561 893.49705L705.0 893.52395C704.988609895 896.03588 705.0 898.56126 705.022780212 901.08662L704.840728354 901.11342C699.96966968 902.48358 694.950699492 903.20895 690.0 902.0C690.170711708 898.99104 690.216232166 895.96865 690.625956253 893.0Z"/>
<path style="fill:#ed7b0d" d="M1262.0 894.0C1353.32572838 893.869661971 1444.66276413 893.97628421 1536.0 893.940809341L1536.0 898.632701703C1526.78780535 899.414700232 1517.52958075 898.822269917 1508.30597867 899.0C1426.25018251 899.0 1344.18267873 899.011857895 1262.1267825 899.0C1262.09276036 897.791453225 1262.02311504 895.386217569 1262.0 894.177670793Z"/>
<path style="fill:#7daf6d" d="M229.0 904.0C234.160529746 902.98228 239.275217079 902.80193 244.0 904.47665C240.559625155 904.43805 237.130717793 904.70854 233.747690368 905.37842C233.77060532 906.22867 233.805027781 907.90338 233.816535289 908.74074C235.089475883 909.83575 236.362416477 910.91788 237.669759518 912.0C235.261498128 912.0129 232.830291765 912.20612 230.44496534 911.80677C228.243128641 910.54429 226.121564321 909.1401 224.0 907.72303C225.422027873 906.43479 227.176622746 905.14654 229.000012508 904.0Z"/>
<path style="fill:#3387a2" d="M186.0 904.0C198.318016698 903.77743 210.624535914 902.14734 222.942552613 903.0C219.644726352 904.01567 216.461814878 905.4326 213.301868351 906.89968C216.473292348 908.41693 219.67918878 909.90908 223.0 911.0C210.762425654 911.90282 198.547826261 910.14733 186.310231902 910.21003C185.597828262 908.4138 185.299063823 906.2069 186.0 904.0Z"/>
<path style="fill:#549a8a" d="M223.0 903.0C225.104244483 902.636401818 227.513521852 903.075199624 229.8880266 903.338588307C228.046338479 904.454582727 226.274135563 905.708486458 224.490345108 906.962400188C226.63320916 908.341693292 228.776063206 909.708466458 231.0 910.937300313C228.266411649 911.087769561 225.509648221 911.351098245 222.77605987 911.0C219.428572143 909.909085455 216.196909767 908.416942915 213.0 906.899700501C216.467180037 905.432627837 219.675677343 904.015704921 223.0 903.00004Z"/>
<path style="fill:#d2db30" d="M234.0 905.0C237.532929348 904.21576 241.113769879 903.96404 244.706578198 904.0C245.029938652 904.76713 245.676649553 906.28939 246.0 907.04452C245.628748377 907.73973 244.89821292 909.11816 244.53891908 909.81336C242.395203879 910.23288 240.28743207 910.90411 238.095805687 911.0C236.730537125 909.99315 235.401191942 908.9863 234.07184676 907.96747C234.05993901 907.34931 234.023915565 905.7911 234.0 905.0Z"/>
<path style="fill:#7eaf6e" d="M458.0 906.0C465.631817318 906.863710341 473.70505194 903.524708688 481.0 907.0C477.770708152 907.054499864 474.564651427 907.013599966 471.346957128 906.986400034C471.393487413 909.230001925 471.451525188 911.601365997 471.521210544 914.0C467.66464042 913.863710341 463.854550549 913.046002385 460.056068232 912.282794293C459.951520185 911.451456371 459.730796523 909.81603046 459.626258482 908.998322504C461.159596485 908.412283969 462.68130692 907.8398854 464.226262485 907.294746763C462.158586698 906.831367922 460.067665781 906.381629046 458.0 906.00003Z"/>
<path style="fill:#3b8c9d" d="M427.0 907.0C436.938500831 906.44527 447.399567617 904.83959 457.826191992 906.0C459.870181971 906.37781 461.937136893 906.82308 463.981126872 907.28186C462.453873122 907.82159 460.949594321 908.3883 459.433818039 908.96852C459.537175291 909.7781 459.755357257 911.3973 459.858704503 912.22038C463.613667775 912.97601 467.380098508 913.7856 471.19247914 913.92053C474.132151921 913.90703 477.060337226 913.77211 480.0 913.73163C475.728300499 916.61918 470.687230386 914.95952 466.048071788 915.0C454.174585972 914.82459 442.324055093 913.47526 430.439081803 913.7856C427.005647743 914.06897 423.710003339 912.89504 421.0 910.41229C423.1761419 909.05097 424.703385644 906.81109 427.0 907.0Z"/>
<path style="fill:#d0db30" d="M471.0 907.0C474.322802843 907.0267 477.633587863 907.0668 480.968378508 907.0133C481.220282475 907.90839 481.736088217 909.71183 482.0 910.60687C481.592144523 911.40839 480.788441385 913.01145 480.380595915 913.81298C477.309697039 913.85308 474.250815986 913.98664 471.179937123 914.0C471.107890227 911.64885 471.047981231 909.32443 471.0 907.0Z"/>
<path style="fill:#e56002" d="M1169.0 933.0C1185.02322823 934.412593956 1201.02334142 933.179450823 1217.01204718 933.896911067C1227.40240944 932.417042111 1237.80417911 933.325102152 1248.20614892 933.0C1277.00419125 933.224208709 1305.79062603 932.764566086 1334.58866836 933.089668237C1343.04377111 933.134569059 1351.49887386 934.132316395 1359.96548409 933.96416701C1373.00527064 932.730947644 1386.06807217 933.739939243 1399.11936621 933.0C1410.65017068 932.192842931 1422.1693676 933.414798976 1433.70007201 932.921480736C1453.62834172 933.257846209 1473.57962641 933.201786885 1493.50769599 932.843047234C1507.33099247 934.31164334 1521.2000187 933.201786885 1535.0 933.919266188L1535.0 938.0C1413.0 937.921576026 1290.98839245 938.044786473 1169.0 937.9663625C1169.0 936.497775923 1169.01200781 935.040395493 1169.04602996 933.594211682Z"/>
<path style="fill:#449196" d="M302.0 949.0C302.84790156 947.83155 304.669726657 948.16418 306.044681065 947.92111C317.995415017 946.85927 330.014903695 946.6162 342.0 947.0C339.250071171 947.44776 336.48868489 948.01066 333.922085316 949.21321C331.412773009 949.91684 331.93984587 953.38379 331.149241582 955.53304C333.188768294 956.71002 335.216847559 957.93816 337.32511899 959.0C325.67229883 959.94669 314.019478671 958.27079 302.355211065 958.65458C301.461469686 955.29425 299.765696586 951.71215 302.0 949.0Z"/>
<path style="fill:#70a776" d="M343.0 947.0C345.394531328 946.83865 347.703134485 946.9503 350.0 947.0C347.457034247 948.27818 343.906242287 949.15926 343.156253961 952.48501C343.894534664 954.71872 344.84375271 956.87798 345.86328654 959.0C343.343756046 958.9504 340.812497915 959.0993 338.316412686 958.70217C336.160158726 957.67218 334.085938178 956.48087 332.0 955.33919C332.808596486 953.2544 332.269525491 949.89142 334.835926503 949.20889C337.363269862 948.04241 340.187498749 947.49639 343.0 947.06205Z"/>
<path style="fill:#9ebf54" d="M349.0 947.0C352.411543287 946.66598 356.375161841 946.54227 360.0 948.10104C356.555829376 948.24949 353.066499373 948.13814 349.678795483 948.90516C345.839397742 951.13197 349.023839398 955.89484 350.096617299 959.0C348.267257199 958.9505 346.426609756 958.9258 344.608536998 958.9629C343.626097867 956.84744 342.71142282 954.69485 342.0 952.46805C343.127979925 949.15259 346.54955585 948.27424 349.0 947.00001Z"/>
<path style="fill:#d3dc2f" d="M350.0 949.0C353.439155451 948.04991 356.981477961 948.16215 360.477960674 948.0125L361.38359934 948.0C361.784840146 948.71089 362.5987692 950.13266 363.0 950.84354C362.66755391 953.21315 363.401240807 956.28118 361.131395407 957.76531C357.657847601 958.86282 354.000880572 958.80045 350.424175714 959.0C349.335097814 955.86961 346.102296493 951.06803 350.0 948.82313Z"/>
<path style="fill:#408f98" d="M67.0 950.0C79.9074153086 950.08 92.4366180368 948.42667 105.0 949.0C100.626154645 949.88 96.3890122213 951.41333 92.1632532025 952.93334C92.6985924613 955.28 93.2567115392 957.65333 93.8945614851 960.0L66.0 960.0C66.1685160877 956.69333 66.6241224772 953.34667 67.0 950.0Z"/>
<path style="fill:#619f81" d="M105.0 949.0C107.819208552 948.9467 110.903965607 949.04 114.0 949.0C113.096041852 949.22667 111.276828205 949.68 110.372880064 949.90666C108.101692347 950.70667 105.694916411 951.4 103.86441542 953.29333C104.03389569 955.53333 104.338984192 957.77333 104.72317416 960.0L93.7175144774 960.0C93.0847467757 957.65333 92.5310735358 955.28 92.0 952.93334C96.4576190158 951.41333 100.661006893 949.88 105.0 949.0Z"/>
<path style="fill:#a0c158" d="M115.0 949.0C119.309941462 948.96 123.812868364 948.29333 127.859638765 950.21333C130.830409766 952.16 129.485385501 956.78667 130.0 960.0L128.421053685 960.0C128.385930855 957.26667 128.397638465 954.56 128.374223245 951.84C123.982468605 950.96 119.479531696 950.76 115.0 951.17333C115.01170761 954.10666 115.02341522 957.05334 115.03512283 960.0L110.0 960.0C110.374273278 956.62667 110.807014559 953.26667 111.286556262 949.90666C112.222224446 949.68 114.105258418 949.22667 115.040936609 949.0Z"/>
<path style="fill:#82b16d" d="M104.0 953.0C105.968752502 951.47952 108.557288748 950.7926 111.0 950.0C110.501735416 953.32894 110.052092506 956.65786 109.66319917 960.0L104.923611667 960.0C104.510402491 957.43857 104.182288748 955.21928 104.0 953.0Z"/>
<path style="fill:#d3dc30" d="M115.0 952.0C119.374659129 951.62538 123.704186576 951.80665 127.954988085 952.60423C127.97744414 955.06949 127.966266015 957.52266 128.0 960.0L115.0 960.0C114.98872207 957.32931 114.977543945 954.65861 114.96616621 952.0Z"/>
<path style="fill:#429097" d="M592.0 957.0C602.327324184 955.97575 613.175144566 955.72121 624.0 956.0C621.509028734 957.2606 619.109877229 958.70303 616.641850896 960.0L589.0 960.0C590.094449759 959.21819 591.357161604 957.7394 592.0 957.0Z"/>
<path style="fill:#68a47d" d="M625.0 956.0C627.335024225 955.9515 630.155809499 955.9879 633.0 956.0C631.127291569 957.36969 629.27797836 958.75151 627.335024225 960.0L617.0 960.0C620.013905922 958.70303 622.460137502 957.2606 625.0 956.0Z"/>
<path style="fill:#90ba5f" d="M633.0 956.0C635.49025473 956.0476 638.233259643 955.9642 641.0 956.0C639.230718703 957.35714 637.473285116 958.71429 635.656492904 960.0L627.0 960.0C629.223922852 958.77381 631.100093703 957.41666 633.0 956.07143Z"/>
<path style="fill:#d3dc30" d="M641.0 956.0C644.68235864 956.0476 648.047057674 956.55952 651.399999058 957.10714C651.799989287 957.83333 652.599989758 959.27381 653.0 960.0L636.0 960.0C637.505886771 958.71429 639.247059557 957.35714 641.0 956.0Z"/>
<path style="fill:#e56202" d="M1102.0 957.0C1246.92009824 956.9874 1391.45994905 956.9874 1536.0 957.0L1536.0 960.0L1102.0 960.0C1101.71191254 959.2437 1101.89623248 957.7437 1102.0 957.0Z"/>
</svg>
