<svg xmlns="http://www.w3.org/2000/svg" viewBox="0 0 256 256" xmlns:xlink="http://www.w3.org/1999/xlink">
<defs>
<linearGradient gradientTransform="matrix(0 -1.14141 -1.28 0 109.41726 245.32575)" xlink:href="#linearGradient4366-4" id="linearGradient4934" x1="39.305" gradientUnits="userSpaceOnUse" x2="215.326"/>
<linearGradient gradientTransform="matrix(16.87321 0 0 16.87321 -2025.3635 -4490.6406)" xlink:href="#linearGradient4460" id="linearGradient4040" y1="279.096" y2="268.33" gradientUnits="userSpaceOnUse" x2="0"/>
<linearGradient id="linearGradient4460">
<stop offset="0" style="stop-color:#513144"/>
<stop offset="1" style="stop-color:#774763"/>
</linearGradient>
<linearGradient gradientTransform="matrix(0 -1.14141 -1.33333 0 303.82512 301.32576)" xlink:href="#linearGradient4366-4-2" id="linearGradient3209" x1="39.305" gradientUnits="userSpaceOnUse" x2="215.326"/>
<linearGradient gradientTransform="matrix(0 -1.14141 -1.28 0 119.41726 301.32575)" xlink:href="#linearGradient4366-4" id="linearGradient3207" x1="39.305" gradientUnits="userSpaceOnUse" x2="215.326"/>
<linearGradient gradientTransform="matrix(0 -1.14141 -1.33333 0 313.98137 245.32576)" xlink:href="#linearGradient4366-4-2" id="linearGradient4931" x1="39.305" gradientUnits="userSpaceOnUse" x2="215.326"/>
<linearGradient id="linearGradient4366">
<stop offset="0" style="stop-color:#f9f9f9;stop-opacity:0"/>
<stop offset=".2" style="stop-color:#f9f9f9"/>
<stop offset=".8" style="stop-color:#f9f9f9"/>
<stop offset="1" style="stop-color:#f9f9f9;stop-opacity:0"/>
</linearGradient>
<linearGradient gradientTransform="matrix(.85623 0 0 1.23077 18.99179 -3.26923)" xlink:href="#linearGradient4366" id="linearGradient4859" x1="39.305" gradientUnits="userSpaceOnUse" x2="215.326"/>
<linearGradient id="linearGradient4366-4">
<stop offset="0" style="stop-color:#333;stop-opacity:0"/>
<stop offset=".2" style="stop-color:#333"/>
<stop offset=".8" style="stop-color:#333"/>
<stop offset="1" style="stop-color:#333;stop-opacity:0"/>
</linearGradient>
<linearGradient gradientTransform="matrix(.85623 0 0 1.23077 18.99179 101.73023)" xlink:href="#linearGradient4366" id="linearGradient4853" x1="39.305" gradientUnits="userSpaceOnUse" x2="215.326"/>
<linearGradient id="linearGradient4366-4-2">
<stop offset="0" style="stop-color:#333;stop-opacity:0"/>
<stop offset=".2" style="stop-color:#333"/>
<stop offset=".8" style="stop-color:#333"/>
<stop offset="1" style="stop-color:#333;stop-opacity:0"/>
</linearGradient>
</defs>
<g style="fill-rule:evenodd">
<rect width="200" x="28" y="28" rx="100" height="200" style="opacity:.5;fill:#fff"/>
<rect width="180.958" x="37.521" y="37.521" rx="90.479" height="180.958" style="fill:url(#linearGradient4040)"/>
</g>
<path style="fill:#d29619" d="m 83.559963,180.16453 88.890387,0 c 7.72961,0 7.72961,0 7.72961,-7.45354 l 0,-63.35512 -52.1748,-33.540941 -52.174807,33.540941 0,63.35512 c 0,7.45354 0,7.45354 7.72961,7.45354 z"/>
<path style="fill:#f9f9f9" d="m 84.526154,84.510729 0,86.958011 86.958006,0 0,-86.958011 z"/>
<path style="fill:#f3b437" d="m 83.559919,180.16453 88.889871,0 c 7.72957,0 7.72957,0 7.72957,-7.32274 l 0,-62.24326 -104.349007,62.24326 c 0,7.32274 0,7.32274 7.729566,7.32274 z"/>
<path style="fill:#fdd75a" d="m 172.44944,180.165 -88.889874,0 c -7.729566,0 -7.729566,0 -7.729566,-7.32273 l 0,-62.24327 104.349,62.24327 c 0,7.32273 0,7.32273 -7.72956,7.32273 z"/>
<g style="color:#000;line-height:normal">
<path style="fill:url(#linearGradient4859)" d="m 53,75 0,1 150,0 0,-1 -150,0 z"/>
<path style="fill:url(#linearGradient4853)" d="m 53,180 0,1 150,0 0,-1 -150,0 z"/>
</g>
<g style="fill:#f9f9f9;word-spacing:0;line-height:125%;letter-spacing:0" transform="translate(-4 -2)">
<path d="m 193.46802,133.15253 -6.25489,0 0,-0.60157 2.65918,-2.77539 c 0.7474,-0.77473 1.27148,-1.36718 1.57227,-1.77734 0.30078,-0.41015 0.5218,-0.80208 0.66309,-1.17578 0.14127,-0.37369 0.2119,-0.76562 0.21191,-1.17578 -1e-5,-0.597 -0.19597,-1.08235 -0.58789,-1.45606 -0.39193,-0.37369 -0.90007,-0.56053 -1.52441,-0.56054 -0.83399,1e-5 -1.63152,0.30307 -2.39258,0.90918 l -0.36914,-0.47168 c 0.83398,-0.70182 1.75911,-1.05273 2.77539,-1.05274 0.87044,1e-5 1.55403,0.23243 2.05078,0.69727 0.50129,0.46485 0.75195,1.10515 0.75195,1.9209 0,0.66081 -0.16862,1.30111 -0.50586,1.92089 -0.33269,0.61524 -0.94336,1.37631 -1.83203,2.28321 l -2.56348,2.63183 0,0.0274 5.34571,0 0,0.65625"/>
<path d="m 202.22485,130.60272 -1.72265,0 0,2.54981 -0.64258,0 0,-2.54981 -5.14063,0 0,-0.45801 4.95606,-7.04101 0.82715,0 0,6.91113 1.72265,0 0,0.58789 m -2.36523,-0.58789 0,-2.85742 c -1e-5,-1.3763 0.0319,-2.53157 0.0957,-3.46582 l -0.0547,0 c -0.0911,0.16863 -0.37142,0.59701 -0.84082,1.28516 l -3.52734,5.03808 4.32715,0"/>
<path d="m 206.83228,133.28925 c -1.14389,0 -1.97787,-0.42839 -2.50196,-1.28516 l -0.0479,0 0.0205,0.57422 c 0.0182,0.33724 0.0273,0.70638 0.0273,1.10742 l 0,2.83008 -0.67676,0 0,-10.79395 0.57422,0 0.12989,1.05957 0.041,0 c 0.51042,-0.80207 1.32617,-1.20311 2.44727,-1.20312 1.0026,1e-5 1.76594,0.33041 2.29004,0.99121 0.52863,0.65625 0.79296,1.61329 0.79297,2.87109 -1e-5,1.22136 -0.27801,2.16928 -0.83399,2.84375 -0.55144,0.66992 -1.30567,1.00489 -2.26269,1.00489 m -0.0137,-0.60157 c 0.76107,0 1.34896,-0.28255 1.76368,-0.84765 0.41926,-0.56511 0.62889,-1.35579 0.6289,-2.37207 -1e-5,-2.18294 -0.78842,-3.27441 -2.36523,-3.27442 -0.86589,1e-5 -1.50163,0.23927 -1.90723,0.71778 -0.4056,0.47396 -0.6084,1.2487 -0.6084,2.32421 l 0,0.21875 c 0,1.16212 0.19369,1.99154 0.58106,2.48829 0.39192,0.49674 1.02766,0.74511 1.90722,0.74511"/>
<path d="m 213.8186,129.33124 -2.59082,-3.60938 0.7793,0 2.21484,3.13086 2.19434,-3.13086 0.74512,0 -2.54981,3.60938 2.73438,3.82129 -0.78614,0 -2.33789,-3.31543 -2.35156,3.31543 -0.74512,0 2.69336,-3.82129"/>
</g>
<g style="stroke:#333">
<path style="fill:#333" d="m 38.624395,237.23003 68.907435,0 z"/>
<path style="fill:none;stroke-width:.827" d="m 42.340951,232.8737 -3.927324,4.35633 3.927324,4.35634 -3.927324,-4.35634 z"/>
</g>
<g style="color:#000;line-height:normal">
<path style="fill:url(#linearGradient4934)" d="m 27,200 0,-200 1,0 0,200 -1,0 z"/>
<path style="fill:url(#linearGradient4931)" d="m 228.15625,200 0,-200 1,0 0,200 -1,0 z"/>
</g>
<g style="fill:#333;letter-spacing:0">
<g style="word-spacing:0;line-height:125%">
<path d="m 120.20019,240.08692 -1.72265,0 0,2.5498 -0.64258,0 0,-2.5498 -5.14062,0 0,-0.45801 4.95605,-7.04102 0.82715,0 0,6.91113 1.72265,0 0,0.5879 m -2.36523,-0.5879 0,-2.85742 c -10e-6,-1.37629 0.0319,-2.53156 0.0957,-3.46582 l -0.0547,0 c -0.0912,0.16863 -0.37143,0.59702 -0.84082,1.28516 l -3.52735,5.03808 4.32715,0"/>
<path d="m 127.41211,242.63672 -6.25488,0 0,-0.60156 2.65918,-2.77539 c 0.74739,-0.77474 1.27148,-1.36719 1.57226,-1.77735 0.30078,-0.41015 0.52181,-0.80207 0.66309,-1.17578 0.14127,-0.37369 0.21191,-0.76562 0.21191,-1.17578 0,-0.597 -0.19597,-1.08235 -0.58789,-1.45605 -0.39193,-0.37369 -0.90007,-0.56054 -1.52441,-0.56055 -0.83399,1e-5 -1.63152,0.30307 -2.39258,0.90918 l -0.36914,-0.47168 c 0.83398,-0.70181 1.75911,-1.05273 2.77539,-1.05274 0.87044,1e-5 1.55403,0.23244 2.05078,0.69727 0.5013,0.46485 0.75195,1.10515 0.75195,1.9209 0,0.66081 -0.16862,1.30111 -0.50586,1.9209 -0.33268,0.61524 -0.94336,1.3763 -1.83203,2.2832 l -2.56347,2.63184 0,0.0273 5.3457,0 0,0.65625"/>
<path d="m 132.79199,242.77344 c -1.14388,0 -1.97787,-0.42839 -2.50195,-1.28516 l -0.0478,0 0.0205,0.57422 c 0.0182,0.33724 0.0273,0.70638 0.0273,1.10742 l 0,2.83008 -0.67676,0 0,-10.79394 0.57422,0 0.12988,1.05957 0.041,0 c 0.51041,-0.80208 1.32617,-1.20312 2.44726,-1.20313 1.0026,1e-5 1.76595,0.33041 2.29004,0.99121 0.52864,0.65626 0.79296,1.61329 0.79297,2.8711 -1e-5,1.22135 -0.278,2.16927 -0.83398,2.84375 -0.55144,0.66992 -1.30567,1.00488 -2.2627,1.00488 m -0.0137,-0.60156 c 0.76106,0 1.34895,-0.28256 1.76367,-0.84766 0.41927,-0.5651 0.6289,-1.35579 0.62891,-2.37207 -1e-5,-2.18294 -0.78842,-3.27441 -2.36524,-3.27441 -0.86589,0 -1.50163,0.23926 -1.90722,0.71777 -0.4056,0.47396 -0.6084,1.2487 -0.6084,2.32422 l 0,0.21875 c 0,1.16211 0.19368,1.99154 0.58105,2.48828 0.39193,0.49674 1.02767,0.74512 1.90723,0.74512"/>
<path d="m 139.77832,238.81543 -2.59082,-3.60937 0.7793,0 2.21484,3.13086 2.19434,-3.13086 0.74511,0 -2.5498,3.60937 2.73437,3.82129 -0.78613,0 -2.33789,-3.31543 -2.35156,3.31543 -0.74512,0 2.69336,-3.82129"/>
</g>
<path style="stroke:#333" d="m 216.90758,237.23003 -68.90743,0 z"/>
</g>
<path style="fill:none;stroke:#333;stroke-width:.827" d="m 213.19141,232.8737 3.92733,4.35633 -3.92733,4.35634 3.92733,-4.35634 z"/>
<g style="fill:#333;letter-spacing:0;line-height:125%;word-spacing:0">
<path d="m 120.20019,20.086914 -1.72265,0 0,2.549805 -0.64258,0 0,-2.549805 -5.14062,0 0,-0.458008 4.95605,-7.041015 0.82715,0 0,6.911132 1.72265,0 0,0.587891 m -2.36523,-0.587891 0,-2.857421 c -10e-6,-1.376295 0.0319,-2.531567 0.0957,-3.465821 l -0.0547,0 c -0.0912,0.168629 -0.37143,0.597014 -0.84082,1.285157 l -3.52735,5.038085 4.32715,0"/>
<path d="m 121.28027,18.37793 c 0,-1.298823 0.17546,-2.390293 0.52637,-3.274414 0.35547,-0.888664 0.85677,-1.547192 1.50391,-1.975586 0.65169,-0.428376 1.43554,-0.642568 2.35156,-0.642578 0.42838,10e-6 0.82031,0.05242 1.17578,0.157226 l 0,0.601563 c -0.33269,-0.123038 -0.73373,-0.184561 -1.20312,-0.184571 -1.12566,10e-6 -2.00294,0.405608 -2.63184,1.216797 -0.62435,0.811206 -0.97526,1.991543 -1.05274,3.541016 l 0.0889,0 c 0.34635,-0.44661 0.74284,-0.783849 1.18946,-1.011719 0.44661,-0.227859 0.91829,-0.341791 1.41503,-0.341797 0.93424,6e-6 1.66341,0.266608 2.1875,0.799805 0.52864,0.533208 0.79297,1.26921 0.79297,2.208008 0,1.020835 -0.278,1.827475 -0.83398,2.419922 -0.55144,0.58789 -1.29656,0.881835 -2.23535,0.881835 -1.01173,0 -1.81153,-0.38509 -2.39942,-1.155273 -0.58333,-0.774738 -0.875,-1.854815 -0.875,-3.240234 m 3.27442,3.793945 c 0.74739,0 1.32844,-0.2347 1.74316,-0.704102 0.41471,-0.469399 0.62206,-1.13932 0.62207,-2.009765 -1e-5,-0.765621 -0.20508,-1.362626 -0.61523,-1.791016 -0.41016,-0.42838 -0.96843,-0.642572 -1.67481,-0.642578 -0.46485,6e-6 -0.89779,0.102545 -1.29883,0.307617 -0.39648,0.205084 -0.71321,0.478521 -0.95019,0.820313 -0.23698,0.337243 -0.35547,0.683597 -0.35547,1.039062 0,0.505863 0.11165,0.993492 0.33496,1.462891 0.22786,0.464845 0.5332,0.833985 0.91602,1.107422 0.38736,0.273438 0.81347,0.410156 1.27832,0.410156"/>
<path d="m 132.79199,22.773437 c -1.14388,0 -1.97787,-0.428385 -2.50195,-1.285156 l -0.0478,0 0.0205,0.574219 c 0.0182,0.33724 0.0273,0.70638 0.0273,1.107422 l 0,2.830078 -0.67676,0 0,-10.793945 0.57422,0 0.12988,1.05957 0.041,0 c 0.51041,-0.802076 1.32617,-1.203117 2.44726,-1.203125 1.0026,8e-6 1.76595,0.330411 2.29004,0.991211 0.52864,0.656256 0.79296,1.613286 0.79297,2.871094 -1e-5,1.221356 -0.278,2.169272 -0.83398,2.84375 -0.55144,0.669922 -1.30567,1.004882 -2.2627,1.004882 m -0.0137,-0.601562 c 0.76106,0 1.34895,-0.282551 1.76367,-0.847656 0.41927,-0.565103 0.6289,-1.355792 0.62891,-2.372071 -1e-5,-2.182936 -0.78842,-3.274407 -2.36524,-3.274414 -0.86589,7e-6 -1.50163,0.239265 -1.90722,0.717774 -0.4056,0.473964 -0.6084,1.248703 -0.6084,2.324219 l 0,0.21875 c 0,1.162111 0.19368,1.991538 0.58105,2.488281 0.39193,0.496745 1.02767,0.745117 1.90723,0.745117"/>
<path d="m 139.77832,18.81543 -2.59082,-3.609375 0.7793,0 2.21484,3.130859 2.19434,-3.130859 0.74511,0 -2.5498,3.609375 2.73437,3.821289 -0.78613,0 -2.33789,-3.31543 -2.35156,3.31543 -0.74512,0 2.69336,-3.821289"/>
</g>
<g style="fill:none;stroke:#333">
<path style="stroke-width:1.07" d="m 29.191374,17.230034 78.773866,0 z"/>
<path style="stroke-width:.827" d="m 32.840951,12.873696 -3.927324,4.356338 3.927324,4.356338 -3.927324,-4.356338 z"/>
<path style="stroke-width:1.07" d="m 226.80863,17.230034 -78.77386,0 z"/>
<path style="stroke-width:.827" d="m 223.15905,12.873696 3.92733,4.356338 -3.92733,4.356338 3.92733,-4.356338 z"/>
</g>
<g style="color:#000;line-height:normal">
<path style="fill:url(#linearGradient3207)" d="m 37,256 0,-200 1,0 0,200 -1,0 z"/>
<path style="fill:url(#linearGradient3209)" d="m 218,256 0,-200 1,0 0,200 -1,0 z"/>
</g>
<g style="fill:none;stroke:#f9f9f9">
<g transform="translate(65.76996 59.10284)">
<path style="stroke-width:.87" d="m 128,17.49794 0,39.464188 z"/>
</g>
<path style="stroke-width:.827" d="m 189.41363,80.673825 4.35633,-3.927324 4.35633,3.927324 -4.35633,-3.927324 z"/>
<g transform="matrix(1 0 0 -1 65.76996 196.56291)">
<path style="stroke-width:.87" d="m 128,17.49794 0,39.464188 z"/>
</g>
<path style="fill-opacity:0;stroke-width:.827" d="m 189.41363,174.99192 4.35633,3.92733 4.35633,-3.92733 -4.35633,3.92733 z"/>
</g>
</svg>
