<svg xmlns="http://www.w3.org/2000/svg" viewBox="0 0 256 256">
<g transform="matrix(.5 0 0 .5 -256 -269.94257)">
<rect width="512" x="512" y="540.362" height="512" style="fill:#d64937;color:#000"/>
</g>
<g style="color:#000" transform="matrix(.18137 0 0 .18137 1580.88334 -493.91465)">
<path style="fill:#f9f9f9" d="m -7879.3048,2962.8882 c 0,207.5414 -168.2456,375.7869 -375.787,375.7869 -207.5414,0 -375.787,-168.2455 -375.787,-375.7869 0,-207.5414 168.2456,-375.787 375.787,-375.787 207.5414,0 375.787,168.2456 375.787,375.787 z" transform="matrix(.76423 0 0 .76423 -1701.9092 954.78658)"/>
<path style="fill:#d64937;line-height:normal" d="m -8010.6548,3066.4353 c -57.9368,0 -104.8127,46.8755 -104.8127,104.8127 l 0,192.1488 c -0.026,0.2556 -0.047,0.4958 -0.047,0.7578 0,0.1395 0.039,0.2889 0.047,0.4264 0.2156,4.0043 3.5198,7.199 7.5779,7.199 4.0582,0 7.3151,-3.1947 7.5307,-7.199 0,-0.138 0.047,-0.2868 0.047,-0.4264 l 0,-192.9066 c 0,-49.803 39.8539,-89.6572 89.6568,-89.6568 49.8033,0 89.6569,39.8538 89.6569,89.6568 l 0,192.1488 c -0.026,0.2556 -0.047,0.4956 -0.047,0.7578 0,0.1395 0.04,0.2889 0.047,0.4264 0.2157,4.0043 3.5198,7.199 7.578,7.199 4.0582,0 7.315,-3.1947 7.5305,-7.199 0,-0.138 0.047,-0.2869 0.047,-0.4264 l 0,-192.9066 c 0,-57.9372 -46.8755,-104.8132 -104.8129,-104.8127 z"/>
</g>
<g transform="matrix(.18137 0 0 .18137 1836.72725 -493.91465)">
<path style="fill:#d64937;line-height:normal;color:#000" d="m -9518.625,3066.4375 a 8.0008,8.0008 0 0 0 -7.875,8.125 l 0,24.5937 a 8.0008,8.0008 0 1 0 16,0 l 0,-24.5937 a 8.0008,8.0008 0 0 0 -8.125,-8.125 z"/>
</g>
<g style="fill:#f9f9f9;line-height:normal;color:#000" transform="matrix(.18137 0 0 .18137 1838.63287 -493.91465)">
<path d="m -9782.682,3668.2188 c -38.2271,0 -69.1562,30.9288 -69.1562,69.1562 l 0,126.7812 c -0.017,0.1686 -0.031,0.3271 -0.031,0.5 0,0.092 0.026,0.1906 0.031,0.2813 0.1423,2.6421 2.3224,4.75 5,4.75 2.6776,0 4.8265,-2.1079 4.9688,-4.75 0,-0.091 0.031,-0.1892 0.031,-0.2813 l 0,-127.2812 c 0,-32.8604 26.2959,-59.1565 59.1562,-59.1562 32.8606,0 59.1563,26.2958 59.1563,59.1562 l 0,126.7812 c -0.017,0.1686 -0.031,0.327 -0.031,0.5 0,0.092 0.026,0.1906 0.031,0.2813 0.1423,2.6421 2.3224,4.75 5,4.75 2.6776,0 4.8265,-2.1079 4.9687,-4.75 0,-0.091 0.031,-0.1893 0.031,-0.2813 l 0,-127.2812 c 0,-38.2274 -30.9288,-69.1565 -69.1563,-69.1562 z"/>
<path d="m -9606.6145,3869.6875 c -38.2271,0 -69.1562,-30.9288 -69.1562,-69.1562 l 0,-126.7812 c -0.017,-0.1686 -0.031,-0.3271 -0.031,-0.5 0,-0.092 0.026,-0.1906 0.031,-0.2813 0.1423,-2.6421 2.3224,-4.75 5,-4.75 2.6776,0 4.8265,2.1079 4.9688,4.75 0,0.091 0.031,0.1892 0.031,0.2813 l 0,127.2812 c 0,32.8604 26.2959,59.1565 59.1562,59.1562 32.8606,0 59.1563,-26.2958 59.1563,-59.1562 l 0,-126.7812 c -0.017,-0.1686 -0.031,-0.327 -0.031,-0.5 0,-0.092 0.026,-0.1906 0.031,-0.2813 0.1423,-2.6421 2.3224,-4.75 5,-4.75 2.6776,0 4.8265,2.1079 4.9687,4.75 0,0.091 0.031,0.1893 0.031,0.2813 l 0,127.2812 c 0,38.2274 -30.9288,69.1565 -69.1563,69.1562 z"/>
<path d="m -9432.7073,3668.2188 c -38.2271,0 -69.1562,30.9288 -69.1562,69.1562 l 0,126.7812 c -0.017,0.1686 -0.031,0.3271 -0.031,0.5 0,0.092 0.026,0.1906 0.031,0.2813 0.1423,2.6421 2.3224,4.75 5,4.75 2.6776,0 4.8265,-2.1079 4.9688,-4.75 0,-0.091 0.031,-0.1892 0.031,-0.2813 l 0,-127.2812 c 0,-32.8604 26.2959,-59.1565 59.1562,-59.1562 32.8606,0 59.1563,26.2958 59.1563,59.1562 l 0,106.7812 c -0.017,0.1686 -0.031,0.327 -0.031,0.5 0,0.092 0.026,0.1906 0.031,0.2813 0.1423,2.6421 2.3224,4.75 5,4.75 2.6776,0 4.8265,-2.1079 4.9687,-4.75 0,-0.091 0.031,-0.1893 0.031,-0.2813 l 0,-107.2812 c 0,-38.2274 -30.9288,-69.1565 -69.1563,-69.1562 z"/>
<path d="m -9321.9911,3668.4097 c -38.2271,0 -69.1562,30.9288 -69.1562,69.1562 l 0,106.7812 c -0.017,0.1686 -0.031,0.3271 -0.031,0.5 0,0.092 0.026,0.1906 0.031,0.2813 0.1423,2.6421 2.3224,4.75 5,4.75 2.6776,0 4.8265,-2.1079 4.9688,-4.75 0,-0.091 0.031,-0.1892 0.031,-0.2813 l 0,-107.2812 c 0,-32.8604 26.2959,-59.1565 59.1562,-59.1562 32.8606,0 59.1563,26.2958 59.1563,59.1562 l 0,126.7812 c -0.017,0.1686 -0.031,0.327 -0.031,0.5 0,0.092 0.026,0.1906 0.031,0.2813 0.1423,2.6421 2.3224,4.75 5,4.75 2.6776,0 4.8265,-2.1079 4.9687,-4.75 0,-0.091 0.031,-0.1893 0.031,-0.2813 l 0,-127.2812 c 0,-38.2274 -30.9288,-69.1565 -69.1563,-69.1562 z"/>
<path d="m -9212.3304,3667.9062 a 5.0005,5.0005 0 0 0 -4.9375,5.0626 l 0,191.875 a 5.0005,5.0005 0 1 0 10,0 l 0,-191.875 a 5.0005,5.0005 0 0 0 -5.0625,-5.0626 z"/>
<path d="m -9016.8921,3667.7812 a 5.0005,5.0005 0 0 0 -3.7187,2 L -9170.3608,3862 a 5.0005,5.0005 0 1 0 7.875,6.1562 l 149.7813,-192.25 a 5.0005,5.0005 0 0 0 -4.1876,-8.125 z"/>
<path d="m -9166.5171,3667.9062 a 5.0005,5.0005 0 0 0 -4.0312,8.1563 l 150.125,191.9687 a 5.0005,5.0005 0 1 0 7.875,-6.1562 l -150.0938,-191.9688 a 5.0005,5.0005 0 0 0 -3.875,-2 z"/>
<path d="m -9847.3438,3667.7812 a 5.0005,5.0005 0 0 0 -4.9062,5.0626 l 0,18.6874 a 5.0005,5.0005 0 1 0 10,0 l 0,-18.6874 a 5.0005,5.0005 0 0 0 -5.0938,-5.0626 z"/>
</g>
<g transform="matrix(.5 0 0 .5 -253.62643 -269.94257)">
<path style="fill:none;stroke:#f9f9f9;stroke-linejoin:round;stroke-linecap:round;color:#000;stroke-width:3.627" d="m 786.22838,939.7127 0,6.44162 c 0,1.78433 -1.43647,3.22081 -3.22081,3.22081 -1.78434,0 -3.22081,-1.43648 -3.22081,-3.22081 l 0,-6.44162"/>
</g>
</svg>
