<svg width="256" xmlns="http://www.w3.org/2000/svg" viewBox="0 0 256 256" height="256">
<g style="color:#000" transform="matrix(.43731 0 0 .43731 3631.12737 -1279.7389)">
<path style="fill:none;stroke:#d64937;stroke-width:14.429" d="m -7879.3048,2962.8882 c 0,207.5414 -168.2456,375.7869 -375.787,375.7869 -207.5414,0 -375.787,-168.2455 -375.787,-375.7869 0,-207.5414 168.2456,-375.787 375.787,-375.787 207.5414,0 375.787,168.2456 375.787,375.787 z" transform="matrix(.76423 0 0 .76423 -1701.9092 954.78658)"/>
<path style="fill:#d64937;line-height:normal" d="m -8010.6548,3066.4353 c -57.9368,0 -104.8127,46.8755 -104.8127,104.8127 l 0,192.1488 c -0.026,0.2556 -0.047,0.4958 -0.047,0.7578 0,0.1395 0.039,0.2889 0.047,0.4264 0.2156,4.0043 3.5198,7.199 7.5779,7.199 4.0582,0 7.3151,-3.1947 7.5307,-7.199 0,-0.138 0.047,-0.2868 0.047,-0.4264 l 0,-192.9066 c 0,-49.803 39.8539,-89.6572 89.6568,-89.6568 49.8033,0 89.6569,39.8538 89.6569,89.6568 l 0,192.1488 c -0.026,0.2556 -0.047,0.4956 -0.047,0.7578 0,0.1395 0.04,0.2889 0.047,0.4264 0.2157,4.0043 3.5198,7.199 7.578,7.199 4.0582,0 7.315,-3.1947 7.5305,-7.199 0,-0.138 0.047,-0.2869 0.047,-0.4264 l 0,-192.9066 c 0,-57.9372 -46.8755,-104.8132 -104.8129,-104.8127 z"/>
</g>
<g transform="matrix(.43731 0 0 .43731 4248.0068 -1279.7389)">
<path style="fill:#d64937;line-height:normal;color:#000" d="m -9518.625,3066.4375 a 8.0008,8.0008 0 0 0 -7.875,8.125 l 0,24.5937 a 8.0008,8.0008 0 1 0 16,0 l 0,-24.5937 a 8.0008,8.0008 0 0 0 -8.125,-8.125 z"/>
</g>
</svg>
