<?xml version="1.0" encoding="UTF-8" standalone="no"?>
<!-- Created with Inkscape (http://www.inkscape.org/) -->

<svg
   xmlns:dc="http://purl.org/dc/elements/1.1/"
   xmlns:cc="http://creativecommons.org/ns#"
   xmlns:rdf="http://www.w3.org/1999/02/22-rdf-syntax-ns#"
   xmlns:svg="http://www.w3.org/2000/svg"
   xmlns="http://www.w3.org/2000/svg"
   xmlns:xlink="http://www.w3.org/1999/xlink"
   xmlns:sodipodi="http://sodipodi.sourceforge.net/DTD/sodipodi-0.dtd"
   xmlns:inkscape="http://www.inkscape.org/namespaces/inkscape"
   id="svg3832"
   version="1.1"
   inkscape:version="0.48.4 r9939"
   width="256"
   height="256"
   sodipodi:docname="numix-icon-design.svg">
  <metadata
     id="metadata3838">
    <rdf:RDF>
      <cc:Work
         rdf:about="">
        <dc:format>image/svg+xml</dc:format>
        <dc:type
           rdf:resource="http://purl.org/dc/dcmitype/StillImage" />
        <dc:title />
      </cc:Work>
    </rdf:RDF>
  </metadata>
  <defs
     id="defs3836">
    <linearGradient
       id="linearGradient4366">
      <stop
         style="stop-color:#f9f9f9;stop-opacity:0;"
         offset="0"
         id="stop4368" />
      <stop
         id="stop4376"
         offset="0.2"
         style="stop-color:#f9f9f9;stop-opacity:1;" />
      <stop
         id="stop4374"
         offset="0.80000001"
         style="stop-color:#f9f9f9;stop-opacity:1;" />
      <stop
         style="stop-color:#f9f9f9;stop-opacity:0;"
         offset="1"
         id="stop4370" />
    </linearGradient>
    <linearGradient
       id="linearGradient4354">
      <stop
         style="stop-color:#f9f9f9;stop-opacity:0;"
         offset="0"
         id="stop4356" />
      <stop
         id="stop4362"
         offset="0.5"
         style="stop-color:#f9f9f9;stop-opacity:1;" />
      <stop
         style="stop-color:#f9f9f9;stop-opacity:1;"
         offset="0.75"
         id="stop4364" />
      <stop
         style="stop-color:#f9f9f9;stop-opacity:0;"
         offset="1"
         id="stop4358" />
    </linearGradient>
    <linearGradient
       inkscape:collect="always"
       xlink:href="#linearGradient4366"
       id="linearGradient4372"
       x1="39.304607"
       y1="64"
       x2="215.32618"
       y2="64"
       gradientUnits="userSpaceOnUse" />
    <linearGradient
       inkscape:collect="always"
       xlink:href="#linearGradient4366"
       id="linearGradient4422"
       gradientUnits="userSpaceOnUse"
       x1="39.304607"
       y1="64"
       x2="215.32618"
       y2="64"
       gradientTransform="translate(0,128.99956)" />
    <linearGradient
       inkscape:collect="always"
       xlink:href="#linearGradient4366-4"
       id="linearGradient4372-4"
       x1="39.304607"
       y1="64"
       x2="215.32619"
       y2="64"
       gradientUnits="userSpaceOnUse" />
    <linearGradient
       id="linearGradient4366-4">
      <stop
         style="stop-color:#f9f9f9;stop-opacity:0;"
         offset="0"
         id="stop4368-4" />
      <stop
         id="stop4376-9"
         offset="0.2"
         style="stop-color:#f9f9f9;stop-opacity:1;" />
      <stop
         id="stop4374-3"
         offset="0.80000001"
         style="stop-color:#f9f9f9;stop-opacity:1;" />
      <stop
         style="stop-color:#f9f9f9;stop-opacity:0;"
         offset="1"
         id="stop4370-0" />
    </linearGradient>
    <linearGradient
       gradientTransform="matrix(0,1.4543671,-1,0,79.31539,-57.163322)"
       y2="64"
       x2="215.32619"
       y1="64"
       x1="39.304607"
       gradientUnits="userSpaceOnUse"
       id="linearGradient4530-1"
       xlink:href="#linearGradient4366-4-2"
       inkscape:collect="always" />
    <linearGradient
       id="linearGradient4366-4-2">
      <stop
         style="stop-color:#f9f9f9;stop-opacity:0;"
         offset="0"
         id="stop4368-4-6" />
      <stop
         id="stop4376-9-5"
         offset="0.2"
         style="stop-color:#f9f9f9;stop-opacity:1;" />
      <stop
         id="stop4374-3-3"
         offset="0.80000001"
         style="stop-color:#f9f9f9;stop-opacity:1;" />
      <stop
         style="stop-color:#f9f9f9;stop-opacity:0;"
         offset="1"
         id="stop4370-0-4" />
    </linearGradient>
    <linearGradient
       y2="64"
       x2="215.32619"
       y1="64"
       x1="39.304607"
       gradientTransform="matrix(0,0.8528475,-1,0,304.52509,-33.491839)"
       gradientUnits="userSpaceOnUse"
       id="linearGradient4570"
       xlink:href="#linearGradient4366-4-2"
       inkscape:collect="always" />
    <linearGradient
       inkscape:collect="always"
       xlink:href="#linearGradient4366-4"
       id="linearGradient4619"
       gradientUnits="userSpaceOnUse"
       gradientTransform="matrix(0,0.8508633,-1,0,69.31539,72.757475)"
       x1="39.304607"
       y1="64"
       x2="215.32619"
       y2="64" />
    <linearGradient
       inkscape:collect="always"
       xlink:href="#linearGradient4366-4"
       id="linearGradient4621"
       gradientUnits="userSpaceOnUse"
       gradientTransform="matrix(0,0.8528475,-1,0,79.450983,-33.491837)"
       x1="39.304607"
       y1="64"
       x2="215.32619"
       y2="64" />
    <linearGradient
       inkscape:collect="always"
       xlink:href="#linearGradient4366-4-8"
       id="linearGradient4619-4"
       gradientUnits="userSpaceOnUse"
       gradientTransform="matrix(0,0.8508633,-1,0,69.31539,72.757475)"
       x1="39.304607"
       y1="64"
       x2="215.32619"
       y2="64" />
    <linearGradient
       id="linearGradient4366-4-8">
      <stop
         style="stop-color:#2d2d2d;stop-opacity:0;"
         offset="0"
         id="stop4368-4-7" />
      <stop
         id="stop4376-9-9"
         offset="0.2"
         style="stop-color:#2d2d2d;stop-opacity:1;" />
      <stop
         id="stop4374-3-33"
         offset="0.80000001"
         style="stop-color:#2d2d2d;stop-opacity:1;" />
      <stop
         style="stop-color:#2d2d2d;stop-opacity:0;"
         offset="1"
         id="stop4370-0-8" />
    </linearGradient>
    <linearGradient
       y2="64"
       x2="215.32619"
       y1="64"
       x1="39.304607"
       gradientTransform="matrix(0,0.8508633,-1,0,315.31539,72.75747)"
       gradientUnits="userSpaceOnUse"
       id="linearGradient4640"
       xlink:href="#linearGradient4366-4-8"
       inkscape:collect="always" />
    <linearGradient
       inkscape:collect="always"
       xlink:href="#linearGradient4366-4-8"
       id="linearGradient4829"
       gradientUnits="userSpaceOnUse"
       gradientTransform="matrix(0,0.8508633,-1,0,315.31539,72.75747)"
       x1="39.304607"
       y1="64"
       x2="215.32619"
       y2="64" />
    <linearGradient
       inkscape:collect="always"
       xlink:href="#linearGradient4366-4"
       id="linearGradient4835"
       gradientUnits="userSpaceOnUse"
       gradientTransform="matrix(0,0.8508633,-1,0,69.31539,72.757475)"
       x1="39.304607"
       y1="64"
       x2="215.32619"
       y2="64" />
    <linearGradient
       inkscape:collect="always"
       xlink:href="#linearGradient4366-4-2"
       id="linearGradient4841"
       gradientUnits="userSpaceOnUse"
       gradientTransform="matrix(0,0.8528475,-1,0,304.52509,-33.491839)"
       x1="39.304607"
       y1="64"
       x2="215.32619"
       y2="64" />
    <linearGradient
       inkscape:collect="always"
       xlink:href="#linearGradient4366-4"
       id="linearGradient4847"
       gradientUnits="userSpaceOnUse"
       gradientTransform="matrix(0,0.8528475,-1,0,79.450983,-33.491837)"
       x1="39.304607"
       y1="64"
       x2="215.32619"
       y2="64" />
    <linearGradient
       inkscape:collect="always"
       xlink:href="#linearGradient4366"
       id="linearGradient4853"
       gradientUnits="userSpaceOnUse"
       gradientTransform="matrix(0.85622547,0,0,1.2307692,18.991794,101.73023)"
       x1="39.304607"
       y1="64"
       x2="215.32618"
       y2="64" />
    <linearGradient
       inkscape:collect="always"
       xlink:href="#linearGradient4366"
       id="linearGradient4859"
       gradientUnits="userSpaceOnUse"
       x1="39.304607"
       y1="64"
       x2="215.32618"
       y2="64"
       gradientTransform="matrix(0.85622547,0,0,1.2307692,18.991794,-3.2692308)" />
    <linearGradient
       inkscape:collect="always"
       xlink:href="#linearGradient4366-4"
       id="linearGradient4897"
       gradientUnits="userSpaceOnUse"
       gradientTransform="matrix(0,0.8528475,-1,0,79.450983,-33.491837)"
       x1="39.304607"
       y1="64"
       x2="215.32619"
       y2="64" />
    <linearGradient
       inkscape:collect="always"
       xlink:href="#linearGradient4366-4-2"
       id="linearGradient4899"
       gradientUnits="userSpaceOnUse"
       gradientTransform="matrix(0,0.8528475,-1,0,304.52509,-33.491839)"
       x1="39.304607"
       y1="64"
       x2="215.32619"
       y2="64" />
    <linearGradient
       inkscape:collect="always"
       xlink:href="#linearGradient4366-4"
       id="linearGradient4901"
       gradientUnits="userSpaceOnUse"
       gradientTransform="matrix(0,0.8508633,-1,0,69.31539,72.757475)"
       x1="39.304607"
       y1="64"
       x2="215.32619"
       y2="64" />
    <linearGradient
       inkscape:collect="always"
       xlink:href="#linearGradient4366-4-8"
       id="linearGradient4903"
       gradientUnits="userSpaceOnUse"
       gradientTransform="matrix(0,0.8508633,-1,0,315.31539,72.75747)"
       x1="39.304607"
       y1="64"
       x2="215.32619"
       y2="64" />
    <linearGradient
       inkscape:collect="always"
       xlink:href="#linearGradient4366-4-2"
       id="linearGradient4931"
       gradientUnits="userSpaceOnUse"
       gradientTransform="matrix(0,-1.1414103,-1.3333333,0,313.98137,245.32576)"
       x1="39.304607"
       y1="64"
       x2="215.32619"
       y2="64" />
    <linearGradient
       inkscape:collect="always"
       xlink:href="#linearGradient4366-4"
       id="linearGradient4934"
       gradientUnits="userSpaceOnUse"
       gradientTransform="matrix(0,-1.1414103,-1.28,0,109.41726,245.32575)"
       x1="39.304607"
       y1="64"
       x2="215.32619"
       y2="64" />
    <linearGradient
       id="linearGradient4460">
      <stop
         offset="0"
         style="stop-color:#513144"
         id="stop4021" />
      <stop
         offset="1"
         style="stop-color:#774763"
         id="stop4023" />
    </linearGradient>
    <linearGradient
       inkscape:collect="always"
       xlink:href="#linearGradient4460"
       id="linearGradient3154"
       gradientUnits="userSpaceOnUse"
       gradientTransform="matrix(20.66968,0,0,20.66968,-2509.8702,-5529.8347)"
       y1="279.09601"
       x2="0"
       y2="268.32999" />
    <linearGradient
       inkscape:collect="always"
       xlink:href="#linearGradient4366-4"
       id="linearGradient3207"
       gradientUnits="userSpaceOnUse"
       gradientTransform="matrix(0,-1.1414103,-1.28,0,119.41726,301.32575)"
       x1="39.304607"
       y1="64"
       x2="215.32619"
       y2="64" />
    <linearGradient
       inkscape:collect="always"
       xlink:href="#linearGradient4366-4-2"
       id="linearGradient3209"
       gradientUnits="userSpaceOnUse"
       gradientTransform="matrix(0,-1.1414103,-1.3333333,0,303.82512,301.32576)"
       x1="39.304607"
       y1="64"
       x2="215.32619"
       y2="64" />
    <linearGradient
       inkscape:collect="always"
       xlink:href="#linearGradient4460"
       id="linearGradient4040"
       gradientUnits="userSpaceOnUse"
       gradientTransform="matrix(16.873208,0,0,16.873208,-2025.3635,-4490.6406)"
       y1="279.09601"
       x2="0"
       y2="268.32999" />
  </defs>
  <sodipodi:namedview
     pagecolor="#000000"
     bordercolor="#666666"
     borderopacity="1"
     objecttolerance="10"
     gridtolerance="10"
     guidetolerance="10"
     inkscape:pageopacity="0"
     inkscape:pageshadow="2"
     inkscape:window-width="1366"
     inkscape:window-height="713"
     id="namedview3834"
     showgrid="true"
     inkscape:zoom="1.84375"
     inkscape:cx="110.79063"
     inkscape:cy="123.56659"
     inkscape:window-x="0"
     inkscape:window-y="29"
     inkscape:window-maximized="1"
     inkscape:current-layer="svg3832"
     showguides="true"
     inkscape:guide-bbox="true">
    <inkscape:grid
       type="xygrid"
       id="grid3842"
       empspacing="5"
       visible="true"
       enabled="true"
       snapvisiblegridlinesonly="true" />
    <sodipodi:guide
       orientation="1,0"
       position="-25,185"
       id="guide3121" />
  </sodipodi:namedview>
  <rect
     id="rect4028"
     style="opacity:0.5;fill:#ffffff;fill-rule:evenodd"
     height="200"
     rx="100"
     y="28"
     x="28"
     width="200" />
  <rect
     id="rect4030"
     style="fill:url(#linearGradient4040);fill-rule:evenodd"
     height="180.95825"
     rx="90.479126"
     y="37.520885"
     x="37.520916"
     width="180.95825" />
  <g
     id="g3148">
    <path
       id="path4036"
       d="m 83.559963,180.16453 88.890387,0 c 7.72961,0 7.72961,0 7.72961,-7.45354 l 0,-63.35512 -52.1748,-33.540941 -52.174807,33.540941 0,63.35512 c 0,7.45354 0,7.45354 7.72961,7.45354 z"
       style="fill:#d29619"
       inkscape:connector-curvature="0" />
    <path
       id="path4038"
       d="m 84.526154,84.510729 0,86.958011 86.958006,0 0,-86.958011 z"
       style="fill:#f9f9f9"
       inkscape:connector-curvature="0" />
    <path
       id="path4040"
       d="m 83.559919,180.16453 88.889871,0 c 7.72957,0 7.72957,0 7.72957,-7.32274 l 0,-62.24326 -104.349007,62.24326 c 0,7.32274 0,7.32274 7.729566,7.32274 z"
       style="fill:#f3b437"
       inkscape:connector-curvature="0" />
    <path
       id="path4042"
       d="m 172.44944,180.165 -88.889874,0 c -7.729566,0 -7.729566,0 -7.729566,-7.32273 l 0,-62.24327 104.349,62.24327 c 0,7.32273 0,7.32273 -7.72956,7.32273 z"
       style="fill:#fdd75a"
       inkscape:connector-curvature="0" />
  </g>
  <path
     style="font-size:medium;font-style:normal;font-variant:normal;font-weight:normal;font-stretch:normal;text-indent:0;text-align:start;text-decoration:none;line-height:normal;letter-spacing:normal;word-spacing:normal;text-transform:none;direction:ltr;block-progression:tb;writing-mode:lr-tb;text-anchor:start;baseline-shift:baseline;color:#000000;fill:url(#linearGradient4859);fill-opacity:1;stroke:none;stroke-width:0.82088292px;marker:none;visibility:visible;display:inline;overflow:visible;enable-background:accumulate;font-family:Sans;-inkscape-font-specification:Sans"
     d="m 53,75 0,1 150,0 0,-1 -150,0 z"
     id="path3844"
     inkscape:connector-curvature="0" />
  <path
     style="font-size:medium;font-style:normal;font-variant:normal;font-weight:normal;font-stretch:normal;text-indent:0;text-align:start;text-decoration:none;line-height:normal;letter-spacing:normal;word-spacing:normal;text-transform:none;direction:ltr;block-progression:tb;writing-mode:lr-tb;text-anchor:start;baseline-shift:baseline;color:#000000;fill:url(#linearGradient4853);fill-opacity:1;stroke:none;stroke-width:0.82088292px;marker:none;visibility:visible;display:inline;overflow:visible;enable-background:accumulate;font-family:Sans;-inkscape-font-specification:Sans"
     d="m 53,180 0,1 150,0 0,-1 -150,0 z"
     id="path4420"
     inkscape:connector-curvature="0" />
  <g
     style="font-size:14px;font-style:normal;font-variant:normal;font-weight:normal;font-stretch:normal;line-height:125%;letter-spacing:0px;word-spacing:0px;fill:#f9f9f9;fill-opacity:1;stroke:none;font-family:Open Sans;-inkscape-font-specification:Open Sans"
     id="text4448"
     transform="translate(-4,-2)">
    <path
       d="m 193.46802,133.15253 -6.25489,0 0,-0.60157 2.65918,-2.77539 c 0.7474,-0.77473 1.27148,-1.36718 1.57227,-1.77734 0.30078,-0.41015 0.5218,-0.80208 0.66309,-1.17578 0.14127,-0.37369 0.2119,-0.76562 0.21191,-1.17578 -1e-5,-0.597 -0.19597,-1.08235 -0.58789,-1.45606 -0.39193,-0.37369 -0.90007,-0.56053 -1.52441,-0.56054 -0.83399,1e-5 -1.63152,0.30307 -2.39258,0.90918 l -0.36914,-0.47168 c 0.83398,-0.70182 1.75911,-1.05273 2.77539,-1.05274 0.87044,1e-5 1.55403,0.23243 2.05078,0.69727 0.50129,0.46485 0.75195,1.10515 0.75195,1.9209 0,0.66081 -0.16862,1.30111 -0.50586,1.92089 -0.33269,0.61524 -0.94336,1.37631 -1.83203,2.28321 l -2.56348,2.63183 0,0.0274 5.34571,0 0,0.65625"
       style="font-weight:300;fill:#f9f9f9;font-family:Open Sans;-inkscape-font-specification:Open Sans Light"
       id="path4799"
       inkscape:connector-curvature="0" />
    <path
       d="m 202.22485,130.60272 -1.72265,0 0,2.54981 -0.64258,0 0,-2.54981 -5.14063,0 0,-0.45801 4.95606,-7.04101 0.82715,0 0,6.91113 1.72265,0 0,0.58789 m -2.36523,-0.58789 0,-2.85742 c -1e-5,-1.3763 0.0319,-2.53157 0.0957,-3.46582 l -0.0547,0 c -0.0911,0.16863 -0.37142,0.59701 -0.84082,1.28516 l -3.52734,5.03808 4.32715,0"
       style="font-weight:300;fill:#f9f9f9;font-family:Open Sans;-inkscape-font-specification:Open Sans Light"
       id="path4801"
       inkscape:connector-curvature="0" />
    <path
       d="m 206.83228,133.28925 c -1.14389,0 -1.97787,-0.42839 -2.50196,-1.28516 l -0.0479,0 0.0205,0.57422 c 0.0182,0.33724 0.0273,0.70638 0.0273,1.10742 l 0,2.83008 -0.67676,0 0,-10.79395 0.57422,0 0.12989,1.05957 0.041,0 c 0.51042,-0.80207 1.32617,-1.20311 2.44727,-1.20312 1.0026,1e-5 1.76594,0.33041 2.29004,0.99121 0.52863,0.65625 0.79296,1.61329 0.79297,2.87109 -1e-5,1.22136 -0.27801,2.16928 -0.83399,2.84375 -0.55144,0.66992 -1.30567,1.00489 -2.26269,1.00489 m -0.0137,-0.60157 c 0.76107,0 1.34896,-0.28255 1.76368,-0.84765 0.41926,-0.56511 0.62889,-1.35579 0.6289,-2.37207 -1e-5,-2.18294 -0.78842,-3.27441 -2.36523,-3.27442 -0.86589,1e-5 -1.50163,0.23927 -1.90723,0.71778 -0.4056,0.47396 -0.6084,1.2487 -0.6084,2.32421 l 0,0.21875 c 0,1.16212 0.19369,1.99154 0.58106,2.48829 0.39192,0.49674 1.02766,0.74511 1.90722,0.74511"
       style="font-weight:300;fill:#f9f9f9;font-family:Open Sans;-inkscape-font-specification:Open Sans Light"
       id="path4803"
       inkscape:connector-curvature="0" />
    <path
       d="m 213.8186,129.33124 -2.59082,-3.60938 0.7793,0 2.21484,3.13086 2.19434,-3.13086 0.74512,0 -2.54981,3.60938 2.73438,3.82129 -0.78614,0 -2.33789,-3.31543 -2.35156,3.31543 -0.74512,0 2.69336,-3.82129"
       style="font-weight:300;fill:#f9f9f9;font-family:Open Sans;-inkscape-font-specification:Open Sans Light"
       id="path4805"
       inkscape:connector-curvature="0" />
  </g>
  <g
     id="g3868">
    <path
       style="fill:none;stroke:#f9f9f9;stroke-width:1.00030660999999998px;stroke-linecap:butt;stroke-linejoin:miter;stroke-opacity:1"
       d="m 38.624395,237.23003 68.907435,0 z"
       id="path4440-1"
       inkscape:connector-curvature="0" />
    <path
       style="fill:none;stroke:#f9f9f9;stroke-width:0.82725435000000003px;stroke-linecap:butt;stroke-linejoin:miter;stroke-opacity:1"
       d="m 42.340951,232.8737 -3.927324,4.35633 3.927324,4.35634 -3.927324,-4.35634 z"
       id="path4442-8"
       inkscape:connector-curvature="0" />
  </g>
  <path
     style="font-size:medium;font-style:normal;font-variant:normal;font-weight:normal;font-stretch:normal;text-indent:0;text-align:start;text-decoration:none;line-height:normal;letter-spacing:normal;word-spacing:normal;text-transform:none;direction:ltr;block-progression:tb;writing-mode:lr-tb;text-anchor:start;baseline-shift:baseline;color:#000000;fill:url(#linearGradient4934);fill-opacity:1;stroke:none;stroke-width:0.75808328px;marker:none;visibility:visible;display:inline;overflow:visible;enable-background:accumulate;font-family:Sans;-inkscape-font-specification:Sans"
     d="m 27,200 0,-200 1,0 0,200 -1,0 z"
     id="path3844-4"
     inkscape:connector-curvature="0" />
  <path
     style="font-size:medium;font-style:normal;font-variant:normal;font-weight:normal;font-stretch:normal;text-indent:0;text-align:start;text-decoration:none;line-height:normal;letter-spacing:normal;word-spacing:normal;text-transform:none;direction:ltr;block-progression:tb;writing-mode:lr-tb;text-anchor:start;baseline-shift:baseline;color:#000000;fill:url(#linearGradient4931);fill-opacity:1;stroke:none;stroke-width:0.75808328px;marker:none;visibility:visible;display:inline;overflow:visible;enable-background:accumulate;font-family:Sans;-inkscape-font-specification:Sans"
     d="m 228.15625,200 0,-200 1,0 0,200 -1,0 z"
     id="path3844-4-3"
     inkscape:connector-curvature="0" />
  <g
     transform="translate(8.83789,234.46401)"
     style="font-size:14px;font-style:normal;font-variant:normal;font-weight:normal;font-stretch:normal;line-height:125%;letter-spacing:0px;word-spacing:0px;fill:#f9f9f9;fill-opacity:1;stroke:none;font-family:Open Sans;-inkscape-font-specification:Open Sans"
     id="flowRoot4593">
    <path
       inkscape:connector-curvature="0"
       d="m 111.3623,5.6229051 -1.72265,0 0,2.5498047 -0.64258,0 0,-2.5498047 -5.14062,0 0,-0.4580078 4.95605,-7.0410157 0.82715,0 0,6.9111328 1.72265,0 0,0.5878907 m -2.36523,-0.5878907 0,-2.8574218 c -10e-6,-1.37629475 0.0319,-2.53156703 0.0957,-3.4658203 l -0.0547,0 c -0.0912,0.168629 -0.37143,0.59701402 -0.84082,1.2851562 l -3.52735,5.0380859 4.32715,0"
       style="font-weight:300;font-family:Open Sans;-inkscape-font-specification:Open Sans Light;fill:#f9f9f9;fill-opacity:1"
       id="path4808" />
    <path
       inkscape:connector-curvature="0"
       d="m 118.57422,8.1727098 -6.25488,0 0,-0.6015625 2.65918,-2.7753907 c 0.74739,-0.7747354 1.27148,-1.3671827 1.57226,-1.7773437 0.30078,-0.4101507 0.52181,-0.8020774 0.66309,-1.1757813 0.14127,-0.3736912 0.21191,-0.7656179 0.21191,-1.17578122 0,-0.59699711 -0.19597,-1.08234819 -0.58789,-1.45605469 -0.39193,-0.37368859 -0.90007,-0.56053739 -1.52441,-0.56054689 -0.83399,9.5e-6 -1.63152,0.3030691 -2.39258,0.9091797 l -0.36914,-0.47167968 c 0.83398,-0.70181312 1.75911,-1.05272422 2.77539,-1.05273442 0.87044,1.02e-5 1.55403,0.2324318 2.05078,0.6972657 0.5013,0.46485269 0.75195,1.10515153 0.75195,1.9208984 0,0.6608142 -0.16862,1.301113 -0.50586,1.9208984 -0.33268,0.6152394 -0.94336,1.3763063 -1.83203,2.2832032 l -2.56347,2.6318359 0,0.027344 5.3457,0 0,0.65625"
       style="font-weight:300;font-family:Open Sans;-inkscape-font-specification:Open Sans Light;fill:#f9f9f9;fill-opacity:1"
       id="path4810" />
    <path
       inkscape:connector-curvature="0"
       d="m 123.9541,8.3094285 c -1.14388,-10e-8 -1.97787,-0.4283851 -2.50195,-1.2851562 l -0.0478,0 0.0205,0.5742187 c 0.0182,0.3372398 0.0273,0.7063801 0.0273,1.1074219 l 0,2.8300781 -0.67676,0 0,-10.79394531 0.57422,0 0.12988,1.05957031 0.041,0 c 0.51041,-0.80207616 1.32617,-1.20311742 2.44726,-1.203125 1.0026,7.58e-6 1.76595,0.33041089 2.29004,0.9912109 0.52864,0.656256 0.79296,1.6132863 0.79297,2.8710938 -1e-5,1.2213566 -0.278,2.1692724 -0.83398,2.84375 -0.55144,0.6699221 -1.30567,1.0048827 -2.2627,1.0048828 m -0.0137,-0.6015625 c 0.76106,5e-7 1.34895,-0.2825513 1.76367,-0.8476562 0.41927,-0.5651023 0.6289,-1.3557916 0.62891,-2.3720704 -1e-5,-2.1829368 -0.78842,-3.2744071 -2.36524,-3.274414 -0.86589,6.9e-6 -1.50163,0.2392645 -1.90722,0.7177734 -0.4056,0.4739641 -0.6084,1.2487029 -0.6084,2.3242188 l 0,0.21875 c 0,1.1621119 0.19368,1.9915381 0.58105,2.4882812 0.39193,0.4967455 1.02767,0.7451177 1.90723,0.7451172"
       style="font-weight:300;font-family:Open Sans;-inkscape-font-specification:Open Sans Light;fill:#f9f9f9;fill-opacity:1"
       id="path4812" />
    <path
       inkscape:connector-curvature="0"
       d="m 130.94043,4.3514207 -2.59082,-3.60937501 0.7793,0 2.21484,3.13085941 2.19434,-3.13085941 0.74511,0 -2.5498,3.60937501 2.73437,3.8212891 -0.78613,0 -2.33789,-3.3154297 -2.35156,3.3154297 -0.74512,0 2.69336,-3.8212891"
       style="font-weight:300;font-family:Open Sans;-inkscape-font-specification:Open Sans Light;fill:#f9f9f9;fill-opacity:1"
       id="path4814" />
  </g>
  <g
     id="g3862">
    <path
       inkscape:connector-curvature="0"
       id="path4609"
       d="m 216.90758,237.23003 -68.90743,0 z"
       style="fill:none;stroke:#f9f9f9;stroke-width:1.00030660999999998px;stroke-linecap:butt;stroke-linejoin:miter;stroke-opacity:1" />
    <path
       inkscape:connector-curvature="0"
       id="path4611"
       d="m 213.19141,232.8737 3.92733,4.35633 -3.92733,4.35634 3.92733,-4.35634 z"
       style="fill:none;stroke:#f9f9f9;stroke-width:0.82725435000000003px;stroke-linecap:butt;stroke-linejoin:miter;stroke-opacity:1" />
  </g>
  <g
     transform="translate(8.83789,14.464009)"
     style="font-size:14px;font-style:normal;font-variant:normal;font-weight:normal;font-stretch:normal;line-height:125%;letter-spacing:0px;word-spacing:0px;fill:#f9f9f9;fill-opacity:1;stroke:none;font-family:Open Sans;-inkscape-font-specification:Open Sans"
     id="flowRoot4593-3">
    <path
       inkscape:connector-curvature="0"
       d="m 111.3623,5.6229051 -1.72265,0 0,2.5498047 -0.64258,0 0,-2.5498047 -5.14062,0 0,-0.4580078 4.95605,-7.0410157 0.82715,0 0,6.9111328 1.72265,0 0,0.5878907 m -2.36523,-0.5878907 0,-2.8574218 c -10e-6,-1.37629475 0.0319,-2.53156703 0.0957,-3.4658203 l -0.0547,0 c -0.0912,0.168629 -0.37143,0.59701402 -0.84082,1.2851562 l -3.52735,5.0380859 4.32715,0"
       style="font-weight:300;font-family:Open Sans;-inkscape-font-specification:Open Sans Light;fill:#f9f9f9;fill-opacity:1"
       id="path4817" />
    <path
       inkscape:connector-curvature="0"
       d="m 112.44238,3.9139207 c 0,-1.2988226 0.17546,-2.3902928 0.52637,-3.27441407 0.35547,-0.88866346 0.85677,-1.54719144 1.50391,-1.97558593 0.65169,-0.4283755 1.43554,-0.642568 2.35156,-0.6425781 0.42838,1.01e-5 0.82031,0.052419 1.17578,0.1572265 l 0,0.6015625 c -0.33269,-0.1230373 -0.73373,-0.1845607 -1.20312,-0.1845703 -1.12566,9.6e-6 -2.00294,0.40560814 -2.63184,1.21679689 -0.62435,0.81120547 -0.97526,1.99154281 -1.05274,3.54101561 l 0.0889,0 c 0.34635,-0.4466093 0.74284,-0.7838485 1.18946,-1.0117187 0.44661,-0.2278586 0.91829,-0.3417907 1.41503,-0.3417969 0.93424,6.2e-6 1.66341,0.2666075 2.1875,0.7998047 0.52864,0.5332079 0.79297,1.2692098 0.79297,2.2080078 0,1.0208355 -0.278,1.8274753 -0.83398,2.4199219 -0.55144,0.5878907 -1.29656,0.8818358 -2.23535,0.8818359 -1.01173,-10e-8 -1.81153,-0.3850909 -2.39942,-1.1552734 -0.58333,-0.7747378 -0.875,-1.8548149 -0.875,-3.2402344 m 3.27442,3.7939453 c 0.74739,5e-7 1.32844,-0.2346998 1.74316,-0.7041016 0.41471,-0.4693994 0.62206,-1.1393206 0.62207,-2.0097656 -1e-5,-0.765621 -0.20508,-1.3626257 -0.61523,-1.7910156 -0.41016,-0.42838 -0.96843,-0.6425725 -1.67481,-0.6425781 -0.46485,5.6e-6 -0.89779,0.1025445 -1.29883,0.3076172 -0.39648,0.2050832 -0.71321,0.4785204 -0.95019,0.8203125 -0.23698,0.3372437 -0.35547,0.6835975 -0.35547,1.0390625 0,0.5058623 0.11165,0.993492 0.33496,1.4628906 0.22786,0.4648452 0.5332,0.8339855 0.91602,1.1074219 0.38736,0.2734381 0.81347,0.4101567 1.27832,0.4101562"
       style="font-weight:300;font-family:Open Sans;-inkscape-font-specification:Open Sans Light;fill:#f9f9f9;fill-opacity:1"
       id="path4819" />
    <path
       inkscape:connector-curvature="0"
       d="m 123.9541,8.3094285 c -1.14388,-10e-8 -1.97787,-0.4283851 -2.50195,-1.2851562 l -0.0478,0 0.0205,0.5742187 c 0.0182,0.3372398 0.0273,0.7063801 0.0273,1.1074219 l 0,2.8300781 -0.67676,0 0,-10.79394531 0.57422,0 0.12988,1.05957031 0.041,0 c 0.51041,-0.80207616 1.32617,-1.20311742 2.44726,-1.203125 1.0026,7.58e-6 1.76595,0.33041089 2.29004,0.9912109 0.52864,0.656256 0.79296,1.6132863 0.79297,2.8710938 -1e-5,1.2213566 -0.278,2.1692724 -0.83398,2.84375 -0.55144,0.6699221 -1.30567,1.0048827 -2.2627,1.0048828 m -0.0137,-0.6015625 c 0.76106,5e-7 1.34895,-0.2825513 1.76367,-0.8476562 0.41927,-0.5651023 0.6289,-1.3557916 0.62891,-2.3720704 -1e-5,-2.1829368 -0.78842,-3.2744071 -2.36524,-3.274414 -0.86589,6.9e-6 -1.50163,0.2392645 -1.90722,0.7177734 -0.4056,0.4739641 -0.6084,1.2487029 -0.6084,2.3242188 l 0,0.21875 c 0,1.1621119 0.19368,1.9915381 0.58105,2.4882812 0.39193,0.4967455 1.02767,0.7451177 1.90723,0.7451172"
       style="font-weight:300;font-family:Open Sans;-inkscape-font-specification:Open Sans Light;fill:#f9f9f9;fill-opacity:1"
       id="path4821" />
    <path
       inkscape:connector-curvature="0"
       d="m 130.94043,4.3514207 -2.59082,-3.60937501 0.7793,0 2.21484,3.13085941 2.19434,-3.13085941 0.74511,0 -2.5498,3.60937501 2.73437,3.8212891 -0.78613,0 -2.33789,-3.3154297 -2.35156,3.3154297 -0.74512,0 2.69336,-3.8212891"
       style="font-weight:300;font-family:Open Sans;-inkscape-font-specification:Open Sans Light;fill:#f9f9f9;fill-opacity:1"
       id="path4823" />
  </g>
  <g
     id="g3856">
    <path
       inkscape:connector-curvature="0"
       id="path3191"
       d="m 29.191374,17.230034 78.773866,0 z"
       style="fill:none;stroke:#f9f9f9;stroke-width:1.06952559999999997px;stroke-linecap:butt;stroke-linejoin:miter;stroke-opacity:1" />
    <path
       inkscape:connector-curvature="0"
       id="path3193"
       d="m 32.840951,12.873696 -3.927324,4.356338 3.927324,4.356338 -3.927324,-4.356338 z"
       style="fill:none;stroke:#f9f9f9;stroke-width:0.82725435000000003px;stroke-linecap:butt;stroke-linejoin:miter;stroke-opacity:1" />
  </g>
  <path
     inkscape:connector-curvature="0"
     id="path3197"
     d="m 226.80863,17.230034 -78.77386,0 z"
     style="fill:none;stroke:#f9f9f9;stroke-width:1.06952559999999997px;stroke-linecap:butt;stroke-linejoin:miter;stroke-opacity:1" />
  <path
     inkscape:connector-curvature="0"
     id="path3199"
     d="m 223.15905,12.873696 3.92733,4.356338 -3.92733,4.356338 3.92733,-4.356338 z"
     style="fill:none;stroke:#f9f9f9;stroke-width:0.82725435000000003px;stroke-linecap:butt;stroke-linejoin:miter;stroke-opacity:1" />
  <path
     inkscape:connector-curvature="0"
     id="path3201"
     d="m 37,256 0,-200 1,0 0,200 -1,0 z"
     style="font-size:medium;font-style:normal;font-variant:normal;font-weight:normal;font-stretch:normal;text-indent:0;text-align:start;text-decoration:none;line-height:normal;letter-spacing:normal;word-spacing:normal;text-transform:none;direction:ltr;block-progression:tb;writing-mode:lr-tb;text-anchor:start;baseline-shift:baseline;color:#000000;fill:url(#linearGradient3207);fill-opacity:1;stroke:none;stroke-width:0.75808328px;marker:none;visibility:visible;display:inline;overflow:visible;enable-background:accumulate;font-family:Sans;-inkscape-font-specification:Sans" />
  <path
     inkscape:connector-curvature="0"
     id="path3203"
     d="m 218,256 0,-200 1,0 0,200 -1,0 z"
     style="font-size:medium;font-style:normal;font-variant:normal;font-weight:normal;font-stretch:normal;text-indent:0;text-align:start;text-decoration:none;line-height:normal;letter-spacing:normal;word-spacing:normal;text-transform:none;direction:ltr;block-progression:tb;writing-mode:lr-tb;text-anchor:start;baseline-shift:baseline;color:#000000;fill:url(#linearGradient3209);fill-opacity:1;stroke:none;stroke-width:0.75808328px;marker:none;visibility:visible;display:inline;overflow:visible;enable-background:accumulate;font-family:Sans;-inkscape-font-specification:Sans" />
  <g
     id="g4029">
    <g
       transform="translate(65.769957,59.10284)"
       id="g3231"
       style="fill:none;fill-opacity:1;stroke:#f9f9f9;stroke-opacity:1">
      <path
         style="fill:none;fill-opacity:1;stroke:#f9f9f9;stroke-width:0.87006329999999998px;stroke-linecap:butt;stroke-linejoin:miter;stroke-opacity:1"
         d="m 128,17.49794 0,39.464188 z"
         id="path3225"
         inkscape:connector-curvature="0" />
    </g>
    <path
       inkscape:connector-curvature="0"
       id="path3227"
       d="m 189.41363,80.673825 4.35633,-3.927324 4.35633,3.927324 -4.35633,-3.927324 z"
       style="fill:none;fill-opacity:1;stroke:#f9f9f9;stroke-width:0.82725435000000003px;stroke-linecap:butt;stroke-linejoin:miter;stroke-opacity:1" />
  </g>
  <g
     id="g4034">
    <g
       id="g3249"
       transform="matrix(1,0,0,-1,65.769957,196.56291)"
       style="fill:none;fill-opacity:1;stroke:#f9f9f9;stroke-opacity:1">
      <path
         inkscape:connector-curvature="0"
         id="path3251"
         d="m 128,17.49794 0,39.464188 z"
         style="fill:none;fill-opacity:1;stroke:#f9f9f9;stroke-width:0.87006329999999998px;stroke-linecap:butt;stroke-linejoin:miter;stroke-opacity:1" />
    </g>
    <path
       style="fill:none;fill-opacity:0;stroke:#f9f9f9;stroke-width:0.82725435000000003px;stroke-linecap:butt;stroke-linejoin:miter;stroke-opacity:1"
       d="m 189.41363,174.99192 4.35633,3.92733 4.35633,-3.92733 -4.35633,3.92733 z"
       id="path3253"
       inkscape:connector-curvature="0" />
  </g>
</svg>
