<svg width="256" xmlns="http://www.w3.org/2000/svg" viewBox="0 0 256 256" height="256">
<g transform="translate(0 -796.36218)">
<path style="fill:#d64937" d="M 228,117.5 C 228,182.39346 176.96046,235 114,235 51.039539,235 0,182.39346 0,117.5 0,52.606542 51.039539,0 114,0 176.96046,0 228,52.606542 228,117.5 z" transform="matrix(1.12281 0 0 1.08936 0 796.36218)"/>
</g>
<g style="fill:#f9f9f9;word-spacing:0;line-height:125%;letter-spacing:0" transform="matrix(0 4.11355 -3.92437 0 484.91105 1322.27162)">
<path d="m -287.71875,83.730461 c -2e-5,-1.002577 0.28643,-1.835909 0.85938,-2.5 0.69007,-0.807262 1.62757,-1.24346 2.8125,-1.308594 1.00257,3e-5 1.80335,0.253936 2.40234,0.761719 0.57289,0.4818 0.85934,1.009143 0.85937,1.582031 l 0,0.05859 c -0.0261,0.598985 -0.22789,1.048204 -0.60546,1.347656 -0.37764,0.299505 -0.74222,0.449245 -1.09375,0.449219 -0.3516,2.6e-5 -0.55342,-0.09112 -0.60547,-0.273437 -0.0131,-0.02602 -0.0196,-0.05857 -0.0195,-0.09766 -3e-5,-0.130182 0.10413,-0.240859 0.3125,-0.332031 0.22132,-0.221327 0.332,-0.449192 0.33203,-0.683594 -3e-5,-0.169243 -0.0651,-0.338514 -0.19532,-0.507812 -0.2995,-0.390597 -0.78778,-0.585909 -1.46484,-0.585938 -0.92451,0.156278 -1.39325,0.729195 -1.40625,1.71875 -3e-5,0.937526 0.41664,1.712265 1.25,2.324219 0.83331,0.612003 2.0182,0.917992 3.55469,0.917969 1.2109,2.3e-5 2.30465,-0.318987 3.28125,-0.957031 1.41923,-0.950496 2.14189,-2.265599 2.16797,-3.945313 l 0,-0.01953 c -0.11723,-1.289033 -0.67061,-2.486949 -1.66016,-3.59375 -2.42191,-2.447883 -5.95055,-3.67184 -10.58594,-3.671875 -5.19533,3.5e-5 -9.50522,1.627638 -12.92968,4.882812 -3.41147,3.242215 -5.1172,7.135441 -5.11719,11.679688 -10e-6,4.531264 1.62759,8.339854 4.88281,11.425785 3.25519,3.07292 7.38279,4.73307 12.38281,4.98046 0.33852,0.013 0.67055,0.0195 0.9961,0.0195 5.13018,0 9.7135,-1.64062 13.75,-4.92188 0.28642,-0.26041 0.54032,-0.39062 0.76172,-0.39062 0.16923,0 0.32548,0.0781 0.46875,0.23437 0.15621,0.19532 0.23433,0.37761 0.23437,0.54688 -4e-5,0.16927 -0.0847,0.33854 -0.25391,0.50781 -4.44013,4.45313 -9.66148,6.67969 -15.66406,6.67969 -5.75522,0 -10.6185,-1.91406 -14.58984,-5.74219 -3.97136,-3.82812 -5.95704,-8.281238 -5.95703,-13.359376 -1e-5,-5.117164 1.98567,-9.583305 5.95703,-13.398438 3.97134,-3.815068 8.83462,-5.722618 14.58984,-5.722656 6.00258,3.8e-5 10.37106,1.608109 13.10547,4.824219 1.28903,1.302115 1.99866,3.046905 2.12891,5.234375 -0.0912,2.721379 -1.2891,4.687523 -3.59375,5.898437 -1.3542,0.729188 -2.76045,1.093771 -4.21875,1.09375 -1.99222,2.1e-5 -3.68493,-0.514301 -5.07813,-1.542969 -1.237,-1.054664 -1.9206,-2.259089 -2.05078,-3.613281"/>
</g>
</svg>
