<svg xmlns="http://www.w3.org/2000/svg" viewBox="0 0 256 256">
<g style="color:#000">
<g transform="translate(0 -796.36218)">
<path style="fill:#d64937" d="m -7879.3048,2962.8882 a 375.78696,375.78696 0 1 1 -751.574,0 375.78696,375.78696 0 1 1 751.574,0 z" transform="matrix(.34062 0 0 .34062 2939.8371 -84.85242)"/>
</g>
<g style="fill:#f9f9f9;line-height:normal" transform="translate(0 -796.36218)">
<path d="m 128.01054,856.31566 c -25.8226,0 -46.715327,20.89255 -46.715327,46.71533 l 0,85.64129 c -0.01159,0.11392 -0.02095,0.22098 -0.02095,0.33775 0,0.0622 0.01738,0.12877 0.02095,0.19005 0.09609,1.78473 1.568786,3.20862 3.377493,3.20862 1.808752,0 3.260362,-1.42389 3.356455,-3.20862 0,-0.0615 0.02095,-0.12783 0.02095,-0.19005 l 0,-85.97904 c 0,-22.19734 17.763001,-39.96048 39.960301,-39.9603 22.19748,0 39.96035,17.76296 39.96035,39.9603 l 0,85.64129 c -0.0116,0.11392 -0.0209,0.22089 -0.0209,0.33775 0,0.0622 0.0178,0.12877 0.0209,0.19005 0.0961,1.78473 1.56878,3.20862 3.37753,3.20862 1.80875,0 3.26032,-1.42389 3.35637,-3.20862 0,-0.0615 0.0209,-0.12787 0.0209,-0.19005 l 0,-85.97904 c 0,-25.82278 -20.89255,-46.71555 -46.71542,-46.71533 z"/>
<path d="m 84.626562,856.31664 a 3.5659802,3.5659802 0 0 0 -3.50991,3.62134 l 0,10.96148 a 3.5659802,3.5659802 0 1 0 7.131247,0 l 0,-10.96148 a 3.5659802,3.5659802 0 0 0 -3.621337,-3.62134 z"/>
</g>
</g>
</svg>
