<svg xmlns="http://www.w3.org/2000/svg" viewBox="0 0 300 160">
<g transform="matrix(1.25 0 0 1.25 4.97 -57.6)">
<path style="fill:#c2444a" d="m 71,65 c 14.61,-12.78 34.6,-18.65 53.4,-15 11.7,2.18 22.9,8.84 30.1,19.54 10.6,-3.77 21.1,-7.61 31.9,-10.4 11,-3.35 22.2,-5.85 33.6,-6.26 4.2,0.13 9.3,0 12,4.24 0.4,3.6 -1.8,6.56 -3.7,9.16 -6,7.53 -13.6,13.21 -21.1,18.76 C 193.1,95.18 178.3,103.9 163.4,112.4 127.8,131.6 90.95,148.2 53.02,160.9 35.72,166.1 18.16,172.2 0,171 l 0,-18.2 0.0115,1.4 C 15.7,138.8 34.43,127.7 52.91,117 51.82,111.3 50.65,105.4 51.46,99.48 53.63,85.55 61.23,73.39 71,65 z"/>
<path style="fill:#78f93b" d="m 101,59 c 11.5,-1.71 23.7,-0.38 32.6,7.67 3.1,2.87 6.2,6.13 7.4,10.45 0,4.73 -3.5,8.24 -6.4,11.21 C 122.7,99.2 108.3,106.1 93.59,110.8 86.45,112.7 78.95,114.4 71.61,113 66.34,112 65.18,104.9 65,100 64.05,88.58 69.86,77.86 77.56,70.8 84.03,64.74 92.27,60.5 101,59 z"/>
</g>
</svg>
