<svg xmlns="http://www.w3.org/2000/svg" viewBox="0 0 300 160">
<g transform="matrix(1.25 0 0 1.25 -405.6 -39.7)">
<path style="fill:#5c018c" d="m 432,67 c 13.2,-3.25 28.2,-1.68 39.7,7.08 6.5,4.72 11.3,12.21 12.6,20.76 16.8,2.64 34.4,2.55 50.1,10.46 2.8,1 3.7,4.1 3.6,7.1 -7.9,5.1 -16.8,7.4 -25.7,8.8 -27.9,5.3 -56.4,5.1 -84.6,4.8 -11,0 -21.9,-1.1 -32.8,-2 -13.7,-2.2 -27.9,-3.2 -40.8,-9.4 -1.2,-1.4 -3.2,-2.5 -3.1,-4.7 -0.3,-2.7 2.4,-3.8 4.1,-5 C 370.7,97.45 388,97.39 404.6,94.85 407.1,80.05 419.5,70.2 432,67 z"/>
<path style="fill:#ffea00" d="m 434,73 c 10,-2.33 21.4,-1.55 30,5.12 4.8,3.81 8.9,9.54 9,16.21 0.4,3.62 -3.4,4.85 -5.7,6.27 -9.5,4 -20,3.7 -30,3.4 -7.7,-0.5 -16.2,-1.4 -22.3,-7.09 -1,-3.67 0.2,-7.6 1.8,-10.86 C 420.5,79.31 427.1,74.94 434,73 z"/>
</g>
</svg>
