<svg xmlns="http://www.w3.org/2000/svg" viewBox="0 0 300 160">
<g transform="matrix(1.25 0 0 1.25 -998.9 -93.9)">
<path style="fill:#0a4290" d="m 919,102 c -3.3,0 -6.9,0.3 -10.5,0.8 -11.3,1.8 -22.1,7.7 -29.9,17.1 -2.9,3.9 -5.2,8.3 -6.7,13.1 -0.4,1.6 -0.9,3.2 -1.3,4.8 -16.6,2.4 -33.5,3.2 -49.6,8.4 -4.9,1.7 -10.5,3.1 -14,7.6 -1.6,1.9 -0.4,4.1 0.6,5.8 7.5,5.4 16.4,7.4 25,9.4 14,2.8 28.3,4.3 42.5,5.6 25.4,1.5 51,2.6 76.4,0.4 3.9,0 7.9,-0.2 11.8,-0.4 19.8,-2.3 39.7,-3.4 58.7,-10.7 4,-1.3 7,-4.1 10,-7.5 -2,-3 -4,-6 -8,-7.3 -18,-7.8 -37.9,-8.6 -57.1,-11.1 -2.2,-10.7 -8,-20.2 -16.4,-26 -9.1,-7 -20.1,-9.9 -31.1,-10 z m -1.1,7.5 c 9.1,-0.2 18.3,2.6 25.7,8.8 6,4.8 9.4,12.4 10.5,20.4 -4.9,7.5 -13.7,8.7 -21.4,10 -13,1.5 -26.4,1.2 -39.2,-2.3 -3.4,-1.5 -6.6,-3.6 -9.8,-5.7 -0.7,-12.6 8.1,-23.3 18.1,-27.5 5.1,-2.4 10.6,-3.6 16.1,-3.7 z"/>
<path style="fill:#ff8d0a" d="m 902,113 c 13.4,-6.1 29.8,-4.6 41.5,5.1 6,4.7 9.4,12.2 10.5,20 -4.9,7.4 -13.6,8.6 -21.2,9.9 -13.1,1.4 -26.3,1.2 -39.1,-2.3 -3.4,-1.5 -6.6,-3.6 -9.7,-5.6 -0.7,-12.4 8,-22.9 18,-27.1 z"/>
</g>
</svg>
