<svg xmlns="http://www.w3.org/2000/svg" viewBox="0 0 300 160">
<g transform="translate(0 -892.4)">
<path style="fill:#cb0061" d="m 139.5,951.1 c 10,-2.6 23,-1.2 32,5.8 5,3.4 7,9.3 8,15.1 10,1 20,2.4 30,4.6 4,0.9 8,3.1 12,5.9 -4,6.1 -12,7 -18,8.5 -14,2.7 -29,3.9 -44,3.9 -22,0.1 -46,0.5 -68,-5 -5,-0.9 -9,-3.2 -13,-5.8 3,-3.6 5,-5.9 9,-6.7 10,-2.9 21,-4.2 32,-5.5 2,-10.7 10,-18.4 20,-20.8 z"/>
<path style="fill:#5595ff" d="m 134.5,966 c 9,-7.1 21,-7.4 30,-1.2 5,3 7,8 7,13.6 -2,4 -7,4.1 -11,5.1 -11,1.2 -22,2 -32,-4.6 1,-4.6 2,-9.8 6,-12.9 z"/>
</g>
</svg>
